ISO-10303-21;
HEADER;
FILE_DESCRIPTION (( 'STEP AP203' ),
    '1' );
FILE_NAME ('91255A578_NO THREADS_Button Head Hex Drive Screw.STEP',
    '2026-01-08T15:08:55',
    ( 'McMaster Carr Supply' ),
    ( 'McMaster Carr Supply' ),
    'SwSTEP 2.0',
    'SolidWorks 2024',
    '' );
FILE_SCHEMA (( 'CONFIG_CONTROL_DESIGN' ));
ENDSEC;

DATA;
#1 = CARTESIAN_POINT ( 'NONE',  ( 0.07835931051856735718, -0.06301240645164650489, 0.3283376562697853385 ) ) ;
#2 = LINE ( 'NONE', #674, #565 ) ;
#3 = CARTESIAN_POINT ( 'NONE',  ( -0.1565000000000000280, 1.916572240665608148E-17, 0.3329999999999999627 ) ) ;
#4 = PERSON_AND_ORGANIZATION_ROLE ( 'classification_officer' ) ;
#5 = AXIS2_PLACEMENT_3D ( 'NONE', #499, #553, #222 ) ;
#6 = CIRCLE ( 'NONE', #201, 0.1565000000000000280 ) ;
#7 = DIRECTION ( 'NONE',  ( -0.000000000000000000, -0.000000000000000000, 1.000000000000000000 ) ) ;
#8 = AXIS2_PLACEMENT_3D ( 'NONE', #790, #729, #71 ) ;
#9 = PERSON_AND_ORGANIZATION ( #119, #47 ) ;
#10 = CARTESIAN_POINT ( 'NONE',  ( 0.09375000000000001388, -0.05412658773652738453, 0.2416999999999999704 ) ) ;
#11 = PRODUCT_DEFINITION_SHAPE ( 'NONE', 'NONE',  #842 ) ;
#12 = PERSON_AND_ORGANIZATION_ROLE ( 'creator' ) ;
#13 = ADVANCED_FACE ( 'NONE', ( #154 ), #34, .F. ) ;
#14 = PLANE ( 'NONE',  #305 ) ;
#15 = ORIENTED_EDGE ( 'NONE', *, *, #725, .F. ) ;
#16 = DIRECTION ( 'NONE',  ( 1.000000000000000000, 0.000000000000000000, 0.000000000000000000 ) ) ;
#17 = EDGE_LOOP ( 'NONE', ( #213, #373 ) ) ;
#18 = PERSON_AND_ORGANIZATION ( #119, #47 ) ;
#19 = ORIENTED_EDGE ( 'NONE', *, *, #389, .T. ) ;
#20 = CARTESIAN_POINT ( 'NONE',  ( 0.000000000000000000, 0.000000000000000000, 0.1892227386410266776 ) ) ;
#21 = VERTEX_POINT ( 'NONE', #703 ) ;
#22 = ORIENTED_EDGE ( 'NONE', *, *, #253, .F. ) ;
#23 = CIRCLE ( 'NONE', #163, 0.1082531754730548940 ) ;
#24 = CIRCLE ( 'NONE', #133, 0.2730279265880048434 ) ;
#25 = CONICAL_SURFACE ( 'NONE', #405, 0.1148333333330000122, 0.7853981633974418397 ) ;
#26 = FACE_OUTER_BOUND ( 'NONE', #566, .T. ) ;
#27 = VERTEX_POINT ( 'NONE', #438 ) ;
#28 = DIRECTION ( 'NONE',  ( 0.000000000000000000, 1.000000000000000000, 0.000000000000000000 ) ) ;
#29 = ORIENTED_EDGE ( 'NONE', *, *, #406, .T. ) ;
#30 = EDGE_LOOP ( 'NONE', ( #248, #687, #428, #555 ) ) ;
#31 = EDGE_CURVE ( 'NONE', #421, #554, #378, .T. ) ;
#32 = CARTESIAN_POINT ( 'NONE',  ( -0.2648540222380034725, 0.000000000000000000, 0.1906640185156622536 ) ) ;
#33 = VERTEX_POINT ( 'NONE', #488 ) ;
#34 = PLANE ( 'NONE',  #358 ) ;
#35 = ORIENTED_EDGE ( 'NONE', *, *, #722, .T. ) ;
#36 = ORIENTED_EDGE ( 'NONE', *, *, #529, .T. ) ;
#37 = CC_DESIGN_PERSON_AND_ORGANIZATION_ASSIGNMENT ( #9, #12, ( #718 ) ) ;
#38 = CARTESIAN_POINT ( 'NONE',  ( -0.1148333333330000122, 1.406302741016795392E-17, -0.3329999999999999627 ) ) ;
#39 = ORIENTED_EDGE ( 'NONE', *, *, #328, .T. ) ;
#40 = CARTESIAN_POINT ( 'NONE',  ( 0.000000000000000000, 0.000000000000000000, 0.1906640185156622536 ) ) ;
#41 = VERTEX_POINT ( 'NONE', #209 ) ;
#42 = EDGE_LOOP ( 'NONE', ( #744, #746 ) ) ;
#43 = CIRCLE ( 'NONE', #759, 0.2703188355915891461 ) ;
#44 = CARTESIAN_POINT ( 'NONE',  ( 0.01539068948143273476, 0.09936735675793577360, 0.3283376562697852274 ) ) ;
#45 = CONICAL_SURFACE ( 'NONE', #578, 0.2691094581803592511, 0.1745329251994326980 ) ;
#46 = DIRECTION ( 'NONE',  ( 0.000000000000000000, 1.000000000000000000, 0.000000000000000000 ) ) ;
#47 = ORGANIZATION ( 'UNSPECIFIED', 'UNSPECIFIED', '' ) ;
#48 = DIRECTION ( 'NONE',  ( -0.8660254037844388186, 0.4999999999999996114, 0.000000000000000000 ) ) ;
#49 = CARTESIAN_POINT ( 'NONE',  ( -2.470907890019862149E-17, -0.1312500000000000056, 0.3329999999999999627 ) ) ;
#50 = CARTESIAN_POINT ( 'NONE',  ( -0.09374999999999998612, -0.05412658773652741923, 0.2416999999999999704 ) ) ;
#51 = ADVANCED_FACE ( 'NONE', ( #427 ), #86, .T. ) ;
#52 = CARTESIAN_POINT ( 'NONE',  ( -0.09375000000000001388, 0.05412658773652745392, 0.2416999999999999704 ) ) ;
#53 = FACE_OUTER_BOUND ( 'NONE', #230, .T. ) ;
#54 = ORIENTED_EDGE ( 'NONE', *, *, #228, .T. ) ;
#55 = DIRECTION ( 'NONE',  ( 0.000000000000000000, 0.000000000000000000, -1.000000000000000000 ) ) ;
#56 = DIRECTION ( 'NONE',  ( 0.8660254037844388186, -0.4999999999999998335, 0.000000000000000000 ) ) ;
#57 = AXIS2_PLACEMENT_3D ( 'NONE', #838, #779, #46 ) ;
#58 = AXIS2_PLACEMENT_3D ( 'NONE', #142, #413, #77 ) ;
#59 = FACE_OUTER_BOUND ( 'NONE', #419, .T. ) ;
#60 = ADVANCED_FACE ( 'NONE', ( #98 ), #832, .T. ) ;
#61 = CARTESIAN_POINT ( 'NONE',  ( 0.2621449312415878308, 0.000000000000000000, 0.1752999999999999281 ) ) ;
#62 = LINE ( 'NONE', #395, #123 ) ;
#63 = CARTESIAN_POINT ( 'NONE',  ( 0.03084450010908044992, -0.09044509503205777623, 0.3246383330878953588 ) ) ;
#64 = DIRECTION ( 'NONE',  ( -1.000000000000000000, 0.000000000000000000, 0.000000000000000000 ) ) ;
#65 = DIRECTION ( 'NONE',  ( 1.000000000000000000, 0.000000000000000000, 0.000000000000000000 ) ) ;
#66 = CIRCLE ( 'NONE', #659, 0.2722798817161330431 ) ;
#67 = CIRCLE ( 'NONE', #637, 0.008299999999999984474 ) ;
#68 = FACE_OUTER_BOUND ( 'NONE', #691, .T. ) ;
#69 = DIRECTION ( 'NONE',  ( -0.000000000000000000, -0.000000000000000000, 1.000000000000000000 ) ) ;
#70 = EDGE_CURVE ( 'NONE', #85, #544, #694, .T. ) ;
#71 = DIRECTION ( 'NONE',  ( 0.8660254037844385966, 0.5000000000000000000, 0.000000000000000000 ) ) ;
#72 = CARTESIAN_POINT ( 'NONE',  ( -0.09374999999999998612, -0.01821786802258747173, 0.3254104054571583249 ) ) ;
#73 = CARTESIAN_POINT ( 'NONE',  ( 0.000000000000000000, 0.000000000000000000, 0.3329999999999999627 ) ) ;
#74 = SECURITY_CLASSIFICATION_LEVEL ( 'unclassified' ) ;
#75 = AXIS2_PLACEMENT_3D ( 'NONE', #50, #247, #56 ) ;
#76 = AXIS2_PLACEMENT_3D ( 'NONE', #807, #270, #277 ) ;
#77 = DIRECTION ( 'NONE',  ( 1.000000000000000000, 0.000000000000000000, 0.000000000000000000 ) ) ;
#78 = EDGE_CURVE ( 'NONE', #554, #21, #658, .T. ) ;
#79 = CARTESIAN_POINT ( 'NONE',  ( -0.09375000000000001388, 0.05412658773652745392, 0.3329999999999999627 ) ) ;
#80 = ORIENTED_EDGE ( 'NONE', *, *, #219, .F. ) ;
#81 = DIRECTION ( 'NONE',  ( -1.000000000000000000, 1.224646799147353207E-16, 0.000000000000000000 ) ) ;
#82 = VERTEX_POINT ( 'NONE', #767 ) ;
#83 = VERTEX_POINT ( 'NONE', #818 ) ;
#84 = FACE_OUTER_BOUND ( 'NONE', #30, .T. ) ;
#85 = VERTEX_POINT ( 'NONE', #563 ) ;
#86 = CYLINDRICAL_SURFACE ( 'NONE', #174, 0.1565000000000000280 ) ;
#87 = EDGE_CURVE ( 'NONE', #754, #611, #23, .T. ) ;
#88 = ORIENTED_EDGE ( 'NONE', *, *, #476, .T. ) ;
#89 = EDGE_LOOP ( 'NONE', ( #151, #161, #437, #156 ) ) ;
#90 = AXIS2_PLACEMENT_3D ( 'NONE', #783, #55, #190 ) ;
#91 = CIRCLE ( 'NONE', #76, 0.1082531754730548940 ) ;
#92 = DIRECTION ( 'NONE',  ( -0.000000000000000000, -0.000000000000000000, 1.000000000000000000 ) ) ;
#93 = ORIENTED_EDGE ( 'NONE', *, *, #31, .F. ) ;
#94 = DIRECTION ( 'NONE',  ( -1.000000000000000000, 0.000000000000000000, 0.000000000000000000 ) ) ;
#95 = EDGE_LOOP ( 'NONE', ( #36, #278, #763, #483 ) ) ;
#96 = ORIENTED_EDGE ( 'NONE', *, *, #626, .T. ) ;
#97 = ORIENTED_EDGE ( 'NONE', *, *, #171, .F. ) ;
#98 = FACE_OUTER_BOUND ( 'NONE', #615, .T. ) ;
#99 = ORIENTED_EDGE ( 'NONE', *, *, #529, .F. ) ;
#100 = VERTEX_POINT ( 'NONE', #352 ) ;
#101 = ADVANCED_FACE ( 'NONE', ( #444 ), #761, .F. ) ;
#102 = CARTESIAN_POINT ( 'NONE',  ( 0.07844243687486901484, 0.06296441342745907888, 0.3278974789582292937 ) ) ;
#103 = CARTESIAN_POINT ( 'NONE',  ( -0.1565000000000000280, 1.916572240665608148E-17, -0.2913333333329994335 ) ) ;
#104 = DIRECTION ( 'NONE',  ( -0.000000000000000000, -0.000000000000000000, 1.000000000000000000 ) ) ;
#105 = AXIS2_PLACEMENT_3D ( 'NONE', #617, #81, #824 ) ;
#106 = VECTOR ( 'NONE', #714, 39.37007874015748143 ) ;
#107 = ADVANCED_FACE ( 'NONE', ( #216 ), #14, .F. ) ;
#108 = AXIS2_PLACEMENT_3D ( 'NONE', #239, #506, #509 ) ;
#109 = DIRECTION ( 'NONE',  ( 0.000000000000000000, -1.000000000000000000, 0.000000000000000000 ) ) ;
#110 = DIRECTION ( 'NONE',  ( 0.4999999999999996114, 0.8660254037844388186, 0.000000000000000000 ) ) ;
#111 = B_SPLINE_CURVE_WITH_KNOTS ( 'NONE', 3,
 ( #507, #317, #777, #179, #573, #836, #581, #706 ),
 .UNSPECIFIED., .F., .F.,
 ( 4, 2, 2, 4 ),
 ( 2.380745673535522771E-07, 0.001388728690853447030, 0.002082973998996493284, 0.002777219307139539971 ),
 .UNSPECIFIED. ) ;
#112 = PLANE ( 'NONE',  #707 ) ;
#113 = CARTESIAN_POINT ( 'NONE',  ( 0.09375000000000001388, 0.05412658773652749555, 0.2416999999999999704 ) ) ;
#114 = EDGE_CURVE ( 'NONE', #33, #480, #24, .T. ) ;
#115 = EDGE_LOOP ( 'NONE', ( #548, #227, #688, #677, #15 ) ) ;
#116 = CARTESIAN_POINT ( 'NONE',  ( 0.09375000000000011102, -0.05412658773652738453, 0.3329999999999999627 ) ) ;
#117 = DIRECTION ( 'NONE',  ( 1.000000000000000000, 0.000000000000000000, 0.000000000000000000 ) ) ;
#118 = ADVANCED_FACE ( 'NONE', ( #295 ), #557, .T. ) ;
#119 = PERSON ( 'UNSPECIFIED', 'UNSPECIFIED', 'UNSPECIFIED', ('UNSPECIFIED'), ('UNSPECIFIED'), ('UNSPECIFIED') ) ;
#120 = DIRECTION ( 'NONE',  ( -1.000000000000000000, 0.000000000000000000, 0.000000000000000000 ) ) ;
#121 = AXIS2_PLACEMENT_3D ( 'NONE', #382, #584, #575 ) ;
#122 = SPHERICAL_SURFACE ( 'NONE', #57, 0.3043315086825552074 ) ;
#123 = VECTOR ( 'NONE', #593, 39.37007874015748143 ) ;
#124 = TOROIDAL_SURFACE ( 'NONE', #708, 0.2648540222380034725, 0.008300000000000000086 ) ;
#125 = CARTESIAN_POINT ( 'NONE',  ( 0.09375000000000002776, 0.01840772069489211502, 0.3254317289393693913 ) ) ;
#126 = DIRECTION ( 'NONE',  ( -0.000000000000000000, -0.000000000000000000, 1.000000000000000000 ) ) ;
#127 = LINE ( 'NONE', #724, #716 ) ;
#128 = CARTESIAN_POINT ( 'NONE',  ( -0.09375000000000001388, -0.009127018611293506029, 0.3246258713233305948 ) ) ;
#129 = CARTESIAN_POINT ( 'NONE',  ( 0.000000000000000000, 0.000000000000000000, 0.1943716607598746371 ) ) ;
#130 = ADVANCED_FACE ( 'NONE', ( #482 ), #738, .T. ) ;
#131 = CARTESIAN_POINT ( 'NONE',  ( 0.000000000000000000, 0.000000000000000000, -0.3329999999999999627 ) ) ;
#132 = SHAPE_DEFINITION_REPRESENTATION ( #11, #664 ) ;
#133 = AXIS2_PLACEMENT_3D ( 'NONE', #20, #813, #94 ) ;
#134 = CIRCLE ( 'NONE', #191, 0.1148333333330000122 ) ;
#135 = CARTESIAN_POINT ( 'NONE',  ( 0.000000000000000000, 0.000000000000000000, 0.3329999999999999627 ) ) ;
#136 = CARTESIAN_POINT ( 'NONE',  ( 0.2648540222380034725, 3.243526305750729116E-17, 0.1906640185156622536 ) ) ;
#137 = DATE_AND_TIME ( #473, #307 ) ;
#138 = B_SPLINE_CURVE_WITH_KNOTS ( 'NONE', 3,
 ( #797, #537, #150, #745, #667, #272, #341, #79 ),
 .UNSPECIFIED., .F., .F.,
 ( 4, 2, 2, 4 ),
 ( 2.380745673559599418E-07, 0.001388728690853446596, 0.002082973998996491549, 0.002777219307139537369 ),
 .UNSPECIFIED. ) ;
#139 = FACE_OUTER_BOUND ( 'NONE', #286, .T. ) ;
#140 = APPROVAL_DATE_TIME ( #137, #439 ) ;
#141 = ADVANCED_FACE ( 'NONE', ( #237 ), #773, .F. ) ;
#142 = CARTESIAN_POINT ( 'NONE',  ( 0.000000000000000000, 0.000000000000000000, 0.3329999999999999627 ) ) ;
#143 = AXIS2_PLACEMENT_3D ( 'NONE', #136, #597, #591 ) ;
#144 = CARTESIAN_POINT ( 'NONE',  ( -2.561107494060246767E-17, 0.1082531754730548940, 0.3329999999999999627 ) ) ;
#145 = PRODUCT_RELATED_PRODUCT_CATEGORY ( 'detail', '', ( #648 ) ) ;
#146 = APPLICATION_PROTOCOL_DEFINITION ( 'international standard', 'config_control_design', 1994, #598 ) ;
#147 = ORIENTED_EDGE ( 'NONE', *, *, #70, .T. ) ;
#148 = CARTESIAN_POINT ( 'NONE',  ( 0.09375000000000001388, 0.05412658773652752331, 0.3329999999999999627 ) ) ;
#149 = VERTEX_POINT ( 'NONE', #148 ) ;
#150 = CARTESIAN_POINT ( 'NONE',  ( -0.03084450010908037706, 0.09044509503205790113, 0.3246383330878953588 ) ) ;
#151 = ORIENTED_EDGE ( 'NONE', *, *, #426, .T. ) ;
#152 = DIRECTION ( 'NONE',  ( 1.000000000000000000, 0.000000000000000000, 0.000000000000000000 ) ) ;
#153 = ORIENTED_EDGE ( 'NONE', *, *, #632, .T. ) ;
#154 = FACE_OUTER_BOUND ( 'NONE', #180, .T. ) ;
#155 = EDGE_LOOP ( 'NONE', ( #162, #612, #276, #751 ) ) ;
#156 = ORIENTED_EDGE ( 'NONE', *, *, #266, .F. ) ;
#157 =( NAMED_UNIT ( * ) SI_UNIT ( $, .STERADIAN. ) SOLID_ANGLE_UNIT ( ) );
#158 = ORIENTED_EDGE ( 'NONE', *, *, #283, .F. ) ;
#159 = EDGE_CURVE ( 'NONE', #430, #544, #414, .T. ) ;
#160 = DIRECTION ( 'NONE',  ( -0.5000000000000001110, 0.8660254037844387076, 0.000000000000000000 ) ) ;
#161 = ORIENTED_EDGE ( 'NONE', *, *, #337, .T. ) ;
#162 = ORIENTED_EDGE ( 'NONE', *, *, #351, .T. ) ;
#163 = AXIS2_PLACEMENT_3D ( 'NONE', #290, #420, #365 ) ;
#164 = ORIENTED_EDGE ( 'NONE', *, *, #243, .F. ) ;
#165 = DIRECTION ( 'NONE',  ( 1.000000000000000000, 0.000000000000000000, -0.000000000000000000 ) ) ;
#166 = ORIENTED_EDGE ( 'NONE', *, *, #666, .F. ) ;
#167 = VERTEX_POINT ( 'NONE', #250 ) ;
#168 =( NAMED_UNIT ( * ) PLANE_ANGLE_UNIT ( ) SI_UNIT ( $, .RADIAN. ) );
#169 = VERTEX_POINT ( 'NONE', #772 ) ;
#170 = DIRECTION ( 'NONE',  ( 1.000000000000000000, 0.000000000000000000, 0.000000000000000000 ) ) ;
#171 = EDGE_CURVE ( 'NONE', #700, #294, #577, .T. ) ;
#172 = DIRECTION ( 'NONE',  ( -1.000000000000000000, 0.000000000000000000, -0.000000000000000000 ) ) ;
#173 = LINE ( 'NONE', #113, #359 ) ;
#174 = AXIS2_PLACEMENT_3D ( 'NONE', #750, #104, #505 ) ;
#175 = AXIS2_PLACEMENT_3D ( 'NONE', #654, #580, #768 ) ;
#176 = CONICAL_SURFACE ( 'NONE', #361, 0.1082531754730548940, 1.047197551196600074 ) ;
#177 = ORIENTED_EDGE ( 'NONE', *, *, #725, .T. ) ;
#178 = LINE ( 'NONE', #387, #210 ) ;
#179 = CARTESIAN_POINT ( 'NONE',  ( -0.03899397011127245238, -0.08573999633253941155, 0.3246207643691719213 ) ) ;
#180 = EDGE_LOOP ( 'NONE', ( #96, #760, #350, #559 ) ) ;
#181 = ADVANCED_FACE ( 'NONE', ( #576 ), #189, .T. ) ;
#182 = CARTESIAN_POINT ( 'NONE',  ( 0.000000000000000000, 0.000000000000000000, 0.3329999999999999627 ) ) ;
#183 = DIRECTION ( 'NONE',  ( -1.000000000000000000, 1.224646799147355672E-16, 0.000000000000000000 ) ) ;
#184 = CARTESIAN_POINT ( 'NONE',  ( 0.09375000000000004163, -0.04533366931175576708, 0.3304617030902472496 ) ) ;
#185 = DIRECTION ( 'NONE',  ( -0.000000000000000000, -0.000000000000000000, 1.000000000000000000 ) ) ;
#186 = FACE_OUTER_BOUND ( 'NONE', #556, .T. ) ;
#187 = CC_DESIGN_DATE_AND_TIME_ASSIGNMENT ( #204, #804, ( #831 ) ) ;
#188 = FACE_OUTER_BOUND ( 'NONE', #367, .T. ) ;
#189 = TOROIDAL_SURFACE ( 'NONE', #511, 0.2621449312415878308, 0.008300000000000000086 ) ;
#190 = DIRECTION ( 'NONE',  ( -1.000000000000000000, 0.000000000000000000, 0.000000000000000000 ) ) ;
#191 = AXIS2_PLACEMENT_3D ( 'NONE', #572, #185, #394 ) ;
#192 = LOCAL_TIME ( 9, 8, 55.00000000000000000, #347 ) ;
#193 = CARTESIAN_POINT ( 'NONE',  ( 0.000000000000000000, 0.000000000000000000, 0.3329999999999999627 ) ) ;
#194 = DIRECTION ( 'NONE',  ( -1.000000000000000000, 0.000000000000000000, 0.000000000000000000 ) ) ;
#195 = CARTESIAN_POINT ( 'NONE',  ( 0.09375000000000002776, 0.03650651419216890958, 0.3283687190402749256 ) ) ;
#196 = ADVANCED_FACE ( 'NONE', ( #53 ), #839, .F. ) ;
#197 = DIRECTION ( 'NONE',  ( 0.000000000000000000, 0.000000000000000000, 1.000000000000000000 ) ) ;
#198 = DIRECTION ( 'NONE',  ( -0.000000000000000000, -0.000000000000000000, 1.000000000000000000 ) ) ;
#199 = LINE ( 'NONE', #3, #840 ) ;
#200 = APPROVAL_ROLE ( '' ) ;
#201 = AXIS2_PLACEMENT_3D ( 'NONE', #376, #518, #634 ) ;
#202 = AXIS2_PLACEMENT_3D ( 'NONE', #338, #782, #325 ) ;
#203 = DIRECTION ( 'NONE',  ( -0.000000000000000000, -0.000000000000000000, 1.000000000000000000 ) ) ;
#204 = DATE_AND_TIME ( #734, #787 ) ;
#205 = EDGE_CURVE ( 'NONE', #169, #85, #646, .T. ) ;
#206 = LINE ( 'NONE', #10, #344 ) ;
#207 = DATE_AND_TIME ( #538, #603 ) ;
#208 = CARTESIAN_POINT ( 'NONE',  ( -0.09374999999999998612, -0.05412658773652741923, 0.2416999999999999704 ) ) ;
#209 = CARTESIAN_POINT ( 'NONE',  ( 0.09375000000000001388, -0.05412658773652738453, 0.2416999999999999704 ) ) ;
#210 = VECTOR ( 'NONE', #771, 39.37007874015748854 ) ;
#211 = ORIENTED_EDGE ( 'NONE', *, *, #171, .T. ) ;
#212 = LINE ( 'NONE', #735, #810 ) ;
#213 = ORIENTED_EDGE ( 'NONE', *, *, #592, .T. ) ;
#214 = COORDINATED_UNIVERSAL_TIME_OFFSET ( 6, 0, .BEHIND. ) ;
#215 = ORIENTED_EDGE ( 'NONE', *, *, #747, .F. ) ;
#216 = FACE_OUTER_BOUND ( 'NONE', #155, .T. ) ;
#217 = ORIENTED_EDGE ( 'NONE', *, *, #562, .T. ) ;
#218 = ORIENTED_EDGE ( 'NONE', *, *, #583, .T. ) ;
#219 = EDGE_CURVE ( 'NONE', #224, #83, #111, .T. ) ;
#220 = FACE_BOUND ( 'NONE', #742, .T. ) ;
#221 = ORIENTED_EDGE ( 'NONE', *, *, #835, .T. ) ;
#222 = DIRECTION ( 'NONE',  ( 0.000000000000000000, 0.000000000000000000, -1.000000000000000000 ) ) ;
#223 = EDGE_LOOP ( 'NONE', ( #495, #698, #153, #493, #372 ) ) ;
#224 = VERTEX_POINT ( 'NONE', #450 ) ;
#225 = APPROVAL ( #531, 'UNSPECIFIED' ) ;
#226 = CARTESIAN_POINT ( 'NONE',  ( 0.06290549989091964722, 0.07193466817752447451, 0.3246383330878953588 ) ) ;
#227 = ORIENTED_EDGE ( 'NONE', *, *, #662, .T. ) ;
#228 = EDGE_CURVE ( 'NONE', #489, #85, #809, .T. ) ;
#229 = CARTESIAN_POINT ( 'NONE',  ( 0.000000000000000000, 0.000000000000000000, 0.2416999999999999704 ) ) ;
#230 = EDGE_LOOP ( 'NONE', ( #628, #354, #823, #619 ) ) ;
#231 = ORIENTED_EDGE ( 'NONE', *, *, #275, .T. ) ;
#232 = VECTOR ( 'NONE', #324, 39.37007874015748143 ) ;
#233 = AXIS2_PLACEMENT_3D ( 'NONE', #855, #528, #792 ) ;
#234 = LOCAL_TIME ( 9, 8, 55.00000000000000000, #535 ) ;
#235 = CARTESIAN_POINT ( 'NONE',  ( 0.000000000000000000, 0.000000000000000000, 0.1752999999999999281 ) ) ;
#236 = ORIENTED_EDGE ( 'NONE', *, *, #275, .F. ) ;
#237 = FACE_OUTER_BOUND ( 'NONE', #429, .T. ) ;
#238 = EDGE_CURVE ( 'NONE', #296, #149, #173, .T. ) ;
#239 = CARTESIAN_POINT ( 'NONE',  ( 0.000000000000000000, 0.000000000000000000, 0.3329999999999999627 ) ) ;
#240 = DIRECTION ( 'NONE',  ( 1.000000000000000000, 0.000000000000000000, 0.000000000000000000 ) ) ;
#241 = DIRECTION ( 'NONE',  ( 1.000000000000000000, 0.000000000000000000, 0.000000000000000000 ) ) ;
#242 = CARTESIAN_POINT ( 'NONE',  ( 0.000000000000000000, 0.000000000000000000, -0.2913333333329994335 ) ) ;
#243 = EDGE_CURVE ( 'NONE', #289, #620, #635, .T. ) ;
#244 = AXIS2_PLACEMENT_3D ( 'NONE', #242, #510, #117 ) ;
#245 = CONICAL_SURFACE ( 'NONE', #786, 0.1082531754730548940, 1.047197551196600074 ) ;
#246 = CARTESIAN_POINT ( 'NONE',  ( 0.000000000000000000, 0.000000000000000000, 0.3329999999999999627 ) ) ;
#247 = DIRECTION ( 'NONE',  ( -0.4999999999999998335, -0.8660254037844388186, 0.000000000000000000 ) ) ;
#248 = ORIENTED_EDGE ( 'NONE', *, *, #805, .F. ) ;
#249 = FACE_BOUND ( 'NONE', #490, .T. ) ;
#250 = CARTESIAN_POINT ( 'NONE',  ( 0.000000000000000000, 0.2722798817161330431, 0.1943716607598746371 ) ) ;
#251 = LINE ( 'NONE', #582, #829 ) ;
#252 = DIRECTION ( 'NONE',  ( -1.000000000000000000, 0.000000000000000000, 0.000000000000000000 ) ) ;
#253 = EDGE_CURVE ( 'NONE', #611, #224, #670, .T. ) ;
#254 = DIRECTION ( 'NONE',  ( -0.000000000000000000, -0.000000000000000000, 1.000000000000000000 ) ) ;
#255 = VECTOR ( 'NONE', #126, 39.37007874015748143 ) ;
#256 = CARTESIAN_POINT ( 'NONE',  ( -0.09375000000000001388, 0.05412658773652745392, 0.3329999999999999627 ) ) ;
#257 = VECTOR ( 'NONE', #532, 39.37007874015748143 ) ;
#258 = AXIS2_PLACEMENT_3D ( 'NONE', #672, #740, #349 ) ;
#259 = ADVANCED_FACE ( 'NONE', ( #186 ), #452, .F. ) ;
#260 = FACE_OUTER_BOUND ( 'NONE', #443, .T. ) ;
#261 = DIRECTION ( 'NONE',  ( -0.000000000000000000, -0.000000000000000000, 1.000000000000000000 ) ) ;
#262 = FACE_OUTER_BOUND ( 'NONE', #42, .T. ) ;
#263 = DIRECTION ( 'NONE',  ( 1.000000000000000000, 0.000000000000000000, 0.000000000000000000 ) ) ;
#264 = CALENDAR_DATE ( 2026, 8, 1 ) ;
#265 = LINE ( 'NONE', #599, #257 ) ;
#266 = EDGE_CURVE ( 'NONE', #82, #41, #311, .T. ) ;
#267 = DIRECTION ( 'NONE',  ( -0.000000000000000000, -0.000000000000000000, 1.000000000000000000 ) ) ;
#268 = CALENDAR_DATE ( 2026, 8, 1 ) ;
#269 = AXIS2_PLACEMENT_3D ( 'NONE', #73, #7, #369 ) ;
#270 = DIRECTION ( 'NONE',  ( 0.000000000000000000, 0.000000000000000000, 1.000000000000000000 ) ) ;
#271 = COORDINATED_UNIVERSAL_TIME_OFFSET ( 6, 0, .BEHIND. ) ;
#272 = CARTESIAN_POINT ( 'NONE',  ( -0.07835931051856724616, 0.06301240645164661591, 0.3283376562697852274 ) ) ;
#273 = APPROVAL_STATUS ( 'not_yet_approved' ) ;
#274 = DIRECTION ( 'NONE',  ( 0.000000000000000000, 0.000000000000000000, 1.000000000000000000 ) ) ;
#275 = EDGE_CURVE ( 'NONE', #294, #808, #43, .T. ) ;
#276 = ORIENTED_EDGE ( 'NONE', *, *, #626, .F. ) ;
#277 = DIRECTION ( 'NONE',  ( 1.000000000000000000, 0.000000000000000000, 0.000000000000000000 ) ) ;
#278 = ORIENTED_EDGE ( 'NONE', *, *, #805, .T. ) ;
#279 = DATE_TIME_ROLE ( 'creation_date' ) ;
#280 = ORIENTED_EDGE ( 'NONE', *, *, #474, .T. ) ;
#281 = CARTESIAN_POINT ( 'NONE',  ( -0.09375000000000001388, 0.05412658773652745392, 0.2416999999999999704 ) ) ;
#282 = AXIS2_PLACEMENT_3D ( 'NONE', #541, #699, #170 ) ;
#283 = EDGE_CURVE ( 'NONE', #611, #224, #407, .T. ) ;
#284 = ORIENTED_EDGE ( 'NONE', *, *, #643, .T. ) ;
#285 = VECTOR ( 'NONE', #442, 39.37007874015748854 ) ;
#286 = EDGE_LOOP ( 'NONE', ( #164, #166, #752 ) ) ;
#287 = DIRECTION ( 'NONE',  ( 1.000000000000000000, 0.000000000000000000, 0.000000000000000000 ) ) ;
#288 = DIMENSIONAL_EXPONENTS ( 1.000000000000000000, 0.000000000000000000, 0.000000000000000000, 0.000000000000000000, 0.000000000000000000, 0.000000000000000000, 0.000000000000000000 ) ;
#289 = VERTEX_POINT ( 'NONE', #594 ) ;
#290 = CARTESIAN_POINT ( 'NONE',  ( 0.000000000000000000, 0.000000000000000000, 0.3329999999999999627 ) ) ;
#291 = EDGE_LOOP ( 'NONE', ( #97, #682, #817, #236 ) ) ;
#292 = ORIENTED_EDGE ( 'NONE', *, *, #456, .F. ) ;
#293 = LINE ( 'NONE', #38, #739 ) ;
#294 = VERTEX_POINT ( 'NONE', #399 ) ;
#295 = FACE_OUTER_BOUND ( 'NONE', #630, .T. ) ;
#296 = VERTEX_POINT ( 'NONE', #530 ) ;
#297 = ORIENTED_EDGE ( 'NONE', *, *, #389, .F. ) ;
#298 = EDGE_CURVE ( 'NONE', #85, #489, #521, .T. ) ;
#299 =( CONVERSION_BASED_UNIT ( 'INCH', #424 ) LENGTH_UNIT ( ) NAMED_UNIT ( #288 ) );
#300 = ORIENTED_EDGE ( 'NONE', *, *, #114, .T. ) ;
#301 = B_SPLINE_CURVE_WITH_KNOTS ( 'NONE', 3,
 ( #391, #848, #125, #195, #596, #653 ),
 .UNSPECIFIED., .F., .F.,
 ( 4, 2, 4 ),
 ( 0.003747480838785115665, 0.004442772760287639483, 0.005138064681790162867 ),
 .UNSPECIFIED. ) ;
#302 = DIRECTION ( 'NONE',  ( -1.000000000000000000, 0.000000000000000000, 0.000000000000000000 ) ) ;
#303 = ORIENTED_EDGE ( 'NONE', *, *, #517, .F. ) ;
#304 = ORIENTED_EDGE ( 'NONE', *, *, #762, .F. ) ;
#305 = AXIS2_PLACEMENT_3D ( 'NONE', #755, #160, #610 ) ;
#306 = AXIS2_PLACEMENT_3D ( 'NONE', #135, #198, #466 ) ;
#307 = LOCAL_TIME ( 9, 8, 55.00000000000000000, #214 ) ;
#308 = CARTESIAN_POINT ( 'NONE',  ( 0.007663316585628030322, 0.1038287575794572259, 0.3304455611380933688 ) ) ;
#309 = CC_DESIGN_PERSON_AND_ORGANIZATION_ASSIGNMENT ( #18, #471, ( #718 ) ) ;
#310 = FACE_OUTER_BOUND ( 'NONE', #115, .T. ) ;
#311 = LINE ( 'NONE', #834, #564 ) ;
#312 = B_SPLINE_CURVE_WITH_KNOTS ( 'NONE', 3,
 ( #398, #184, #330, #588, #660, #853 ),
 .UNSPECIFIED., .F., .F.,
 ( 4, 2, 4 ),
 ( 0.002357542806382271084, 0.003052511822583693375, 0.003747480838785115665 ),
 .UNSPECIFIED. ) ;
#313 = EDGE_LOOP ( 'NONE', ( #542, #158 ) ) ;
#314 = CARTESIAN_POINT ( 'NONE',  ( 0.000000000000000000, 0.000000000000000000, 0.3329999999999999627 ) ) ;
#315 = CARTESIAN_POINT ( 'NONE',  ( -0.2621449312415878308, 3.210349509577134965E-17, 0.1752999999999999281 ) ) ;
#316 = DIRECTION ( 'NONE',  ( 1.000000000000000000, 0.000000000000000000, 0.000000000000000000 ) ) ;
#317 = CARTESIAN_POINT ( 'NONE',  ( -0.07844243687486908423, -0.06296441342745894010, 0.3278974789582292937 ) ) ;
#318 = EDGE_CURVE ( 'NONE', #149, #754, #392, .T. ) ;
#319 = B_SPLINE_CURVE_WITH_KNOTS ( 'NONE', 3,
 ( #816, #102, #226, #748, #375, #44, #308, #560 ),
 .UNSPECIFIED., .F., .F.,
 ( 4, 2, 2, 4 ),
 ( 2.380745673565340448E-07, 0.001388728690853446813, 0.002082973998996492417, 0.002777219307139537803 ),
 .UNSPECIFIED. ) ;
#320 = AXIS2_PLACEMENT_3D ( 'NONE', #182, #639, #316 ) ;
#321 = VECTOR ( 'NONE', #417, 39.37007874015748143 ) ;
#322 = ORIENTED_EDGE ( 'NONE', *, *, #562, .F. ) ;
#323 = DIRECTION ( 'NONE',  ( -0.000000000000000000, -0.000000000000000000, 1.000000000000000000 ) ) ;
#324 = DIRECTION ( 'NONE',  ( 0.7071067811865429098, 0.000000000000000000, 0.7071067811865521247 ) ) ;
#325 = DIRECTION ( 'NONE',  ( 1.000000000000000000, 0.000000000000000000, 0.000000000000000000 ) ) ;
#326 = CARTESIAN_POINT ( 'NONE',  ( 2.066048399428108553E-17, -0.1082531754730548107, 0.2416999999999999704 ) ) ;
#327 = CARTESIAN_POINT ( 'NONE',  ( -0.09375000000000001388, 0.05412658773652745392, 0.3329999999999999627 ) ) ;
#328 = EDGE_CURVE ( 'NONE', #826, #480, #457, .T. ) ;
#329 = CARTESIAN_POINT ( 'NONE',  ( 0.08608668341437207550, -0.05855100563012504561, 0.3304455611380932578 ) ) ;
#330 = CARTESIAN_POINT ( 'NONE',  ( 0.09375000000000002776, -0.03631973612773686799, 0.3283294288024303231 ) ) ;
#331 = AXIS2_PLACEMENT_3D ( 'NONE', #454, #323, #709 ) ;
#332 = CARTESIAN_POINT ( 'NONE',  ( 0.000000000000000000, 0.000000000000000000, 0.3329999999999999627 ) ) ;
#333 = CONICAL_SURFACE ( 'NONE', #650, 0.1082531754730548940, 1.047197551196600074 ) ;
#334 = PLANE ( 'NONE',  #8 ) ;
#335 = CARTESIAN_POINT ( 'NONE',  ( -0.09375000000000001388, 0.009152492404438484358, 0.3246273051487928440 ) ) ;
#336 = PERSON_AND_ORGANIZATION_ROLE ( 'design_owner' ) ;
#337 = EDGE_CURVE ( 'NONE', #83, #423, #766, .T. ) ;
#338 = CARTESIAN_POINT ( 'NONE',  ( 0.000000000000000000, 0.000000000000000000, 0.1669999999999999540 ) ) ;
#339 = CARTESIAN_POINT ( 'NONE',  ( -0.09375000000000009714, -0.05412658773652737065, 0.3329999999999999627 ) ) ;
#340 = APPROVAL_DATE_TIME ( #207, #225 ) ;
#341 = CARTESIAN_POINT ( 'NONE',  ( -0.08608668341437197835, 0.05855100563012514969, 0.3304455611380933688 ) ) ;
#342 = MECHANICAL_CONTEXT ( 'NONE', #679, 'mechanical' ) ;
#343 = AXIS2_PLACEMENT_3D ( 'NONE', #455, #110, #48 ) ;
#344 = VECTOR ( 'NONE', #543, 39.37007874015748143 ) ;
#345 = CC_DESIGN_APPROVAL ( #225, ( #718 ) ) ;
#346 = DIRECTION ( 'NONE',  ( 0.1736481776669300814, 0.000000000000000000, 0.9848077530122080203 ) ) ;
#347 = COORDINATED_UNIVERSAL_TIME_OFFSET ( 6, 0, .BEHIND. ) ;
#348 = FACE_OUTER_BOUND ( 'NONE', #440, .T. ) ;
#349 = DIRECTION ( 'NONE',  ( 1.000000000000000000, 0.000000000000000000, 0.000000000000000000 ) ) ;
#350 = ORIENTED_EDGE ( 'NONE', *, *, #732, .F. ) ;
#351 = EDGE_CURVE ( 'NONE', #364, #754, #527, .T. ) ;
#352 = CARTESIAN_POINT ( 'NONE',  ( 0.2621449312415878308, 0.000000000000000000, 0.1669999999999999540 ) ) ;
#353 = ORIENTED_EDGE ( 'NONE', *, *, #159, .T. ) ;
#354 = ORIENTED_EDGE ( 'NONE', *, *, #219, .T. ) ;
#355 = CARTESIAN_POINT ( 'NONE',  ( 0.2703188355915891461, 0.000000000000000000, 0.1738587201253644632 ) ) ;
#356 = ORIENTED_EDGE ( 'NONE', *, *, #431, .F. ) ;
#357 = CARTESIAN_POINT ( 'NONE',  ( 0.000000000000000000, 0.000000000000000000, 0.05842559355067306059 ) ) ;
#358 = AXIS2_PLACEMENT_3D ( 'NONE', #281, #686, #629 ) ;
#359 = VECTOR ( 'NONE', #388, 39.37007874015748143 ) ;
#360 = ORIENTED_EDGE ( 'NONE', *, *, #491, .F. ) ;
#361 = AXIS2_PLACEMENT_3D ( 'NONE', #477, #203, #737 ) ;
#362 = EDGE_LOOP ( 'NONE', ( #297, #54, #147, #501 ) ) ;
#363 = MANIFOLD_SOLID_BREP ( 'Fillet1', #758 ) ;
#364 = VERTEX_POINT ( 'NONE', #465 ) ;
#365 = DIRECTION ( 'NONE',  ( 1.000000000000000000, 0.000000000000000000, 0.000000000000000000 ) ) ;
#366 = ORIENTED_EDGE ( 'NONE', *, *, #727, .T. ) ;
#367 = EDGE_LOOP ( 'NONE', ( #622, #606, #300, #215 ) ) ;
#368 = ADVANCED_FACE ( 'NONE', ( #726 ), #851, .T. ) ;
#369 = DIRECTION ( 'NONE',  ( 1.000000000000000000, 0.000000000000000000, 0.000000000000000000 ) ) ;
#370 = EDGE_LOOP ( 'NONE', ( #701, #292, #684, #550, #631 ) ) ;
#371 = DIRECTION ( 'NONE',  ( 0.000000000000000000, 0.000000000000000000, -1.000000000000000000 ) ) ;
#372 = ORIENTED_EDGE ( 'NONE', *, *, #727, .F. ) ;
#373 = ORIENTED_EDGE ( 'NONE', *, *, #386, .T. ) ;
#374 = CC_DESIGN_PERSON_AND_ORGANIZATION_ASSIGNMENT ( #478, #336, ( #648 ) ) ;
#375 = CARTESIAN_POINT ( 'NONE',  ( 0.03103164284771548972, 0.09033704812153002528, 0.3254198921391042165 ) ) ;
#376 = CARTESIAN_POINT ( 'NONE',  ( 0.000000000000000000, 0.000000000000000000, 0.1669999999999999540 ) ) ;
#377 = CARTESIAN_POINT ( 'NONE',  ( 0.1565000000000000280, 0.000000000000000000, 0.3329999999999999627 ) ) ;
#378 = CIRCLE ( 'NONE', #105, 0.3043315086825552074 ) ;
#379 = AXIS2_PLACEMENT_3D ( 'NONE', #383, #710, #769 ) ;
#380 = AXIS2_PLACEMENT_3D ( 'NONE', #436, #497, #627 ) ;
#381 = CC_DESIGN_APPROVAL ( #799, ( #842 ) ) ;
#382 = CARTESIAN_POINT ( 'NONE',  ( 0.000000000000000000, 0.000000000000000000, 0.1943716607598746371 ) ) ;
#383 = CARTESIAN_POINT ( 'NONE',  ( 0.000000000000000000, 0.000000000000000000, 0.1669999999999999540 ) ) ;
#384 = FACE_OUTER_BOUND ( 'NONE', #825, .T. ) ;
#385 = DIRECTION ( 'NONE',  ( 0.8660254037844397068, 0.000000000000000000, 0.4999999999999979461 ) ) ;
#386 = EDGE_CURVE ( 'NONE', #700, #100, #728, .T. ) ;
#387 = CARTESIAN_POINT ( 'NONE',  ( -2.476795884149492350E-17, 0.1082531754730548801, 0.2416999999999999704 ) ) ;
#388 = DIRECTION ( 'NONE',  ( -0.000000000000000000, -0.000000000000000000, 1.000000000000000000 ) ) ;
#389 = EDGE_CURVE ( 'NONE', #489, #430, #199, .T. ) ;
#390 = CIRCLE ( 'NONE', #121, 0.2722798817161330431 ) ;
#391 = CARTESIAN_POINT ( 'NONE',  ( 0.09375000000000001388, -2.250660537366286541E-25, 0.3246265877365274166 ) ) ;
#392 = CIRCLE ( 'NONE', #827, 0.1082531754730548940 ) ;
#393 = CIRCLE ( 'NONE', #671, 0.2722798817161330431 ) ;
#394 = DIRECTION ( 'NONE',  ( 1.000000000000000000, 0.000000000000000000, 0.000000000000000000 ) ) ;
#395 = CARTESIAN_POINT ( 'NONE',  ( -0.09375000000000001388, 0.05412658773652745392, 0.2416999999999999704 ) ) ;
#396 = EDGE_CURVE ( 'NONE', #27, #169, #432, .T. ) ;
#397 = DIRECTION ( 'NONE',  ( 1.000000000000000000, 0.000000000000000000, 0.000000000000000000 ) ) ;
#398 = CARTESIAN_POINT ( 'NONE',  ( 0.09375000000000011102, -0.05412658773652738453, 0.3329999999999999627 ) ) ;
#399 = CARTESIAN_POINT ( 'NONE',  ( -0.2703188355915891461, 3.327039365651589604E-17, 0.1738587201253644632 ) ) ;
#400 = FACE_OUTER_BOUND ( 'NONE', #89, .T. ) ;
#401 = AXIS2_PLACEMENT_3D ( 'NONE', #678, #549, #494 ) ;
#402 = CIRCLE ( 'NONE', #614, 0.008299999999999984474 ) ;
#403 = CARTESIAN_POINT ( 'NONE',  ( 0.000000000000000000, 0.000000000000000000, 0.1669999999999999540 ) ) ;
#404 = APPROVAL_DATE_TIME ( #486, #799 ) ;
#405 = AXIS2_PLACEMENT_3D ( 'NONE', #697, #92, #152 ) ;
#406 = EDGE_CURVE ( 'NONE', #364, #502, #178, .T. ) ;
#407 = B_SPLINE_CURVE_WITH_KNOTS ( 'NONE', 3,
 ( #256, #462, #525, #723, #335, #128, #72, #791, #720, #339 ),
 .UNSPECIFIED., .F., .F.,
 ( 4, 2, 2, 2, 4 ),
 ( 0.007363432610939287491, 0.008059487012012112386, 0.008755541413084938149, 0.009451595814157763911, 0.01014765021523058967 ),
 .UNSPECIFIED. ) ;
#408 = CARTESIAN_POINT ( 'NONE',  ( -0.09374999999999998612, -0.05412658773652741923, 0.2416999999999999704 ) ) ;
#409 = CARTESIAN_POINT ( 'NONE',  ( 1.451294246634139896E-16, -0.1082531754730548940, 0.3329999999999999627 ) ) ;
#410 = PERSON_AND_ORGANIZATION ( #119, #47 ) ;
#411 = CARTESIAN_POINT ( 'NONE',  ( 0.000000000000000000, 0.000000000000000000, 0.3329999999999999627 ) ) ;
#412 = DATE_AND_TIME ( #264, #234 ) ;
#413 = DIRECTION ( 'NONE',  ( -0.000000000000000000, -0.000000000000000000, 1.000000000000000000 ) ) ;
#414 = CIRCLE ( 'NONE', #379, 0.1565000000000000280 ) ;
#415 = CIRCLE ( 'NONE', #692, 0.3043315086825552074 ) ;
#416 = CC_DESIGN_APPROVAL ( #439, ( #831 ) ) ;
#417 = DIRECTION ( 'NONE',  ( -0.000000000000000000, -0.000000000000000000, 1.000000000000000000 ) ) ;
#418 = ADVANCED_FACE ( 'NONE', ( #249, #384 ), #112, .F. ) ;
#419 = EDGE_LOOP ( 'NONE', ( #815, #304 ) ) ;
#420 = DIRECTION ( 'NONE',  ( 0.000000000000000000, 0.000000000000000000, 1.000000000000000000 ) ) ;
#421 = VERTEX_POINT ( 'NONE', #776 ) ;
#422 = CARTESIAN_POINT ( 'NONE',  ( 0.000000000000000000, 0.000000000000000000, 0.1669999999999999818 ) ) ;
#423 = VERTEX_POINT ( 'NONE', #116 ) ;
#424 = LENGTH_MEASURE_WITH_UNIT ( LENGTH_MEASURE( 0.02539999999999999897 ), #828 );
#425 = ORIENTED_EDGE ( 'NONE', *, *, #632, .F. ) ;
#426 = EDGE_CURVE ( 'NONE', #82, #83, #641, .T. ) ;
#427 = FACE_OUTER_BOUND ( 'NONE', #830, .T. ) ;
#428 = ORIENTED_EDGE ( 'NONE', *, *, #205, .T. ) ;
#429 = EDGE_LOOP ( 'NONE', ( #608, #680 ) ) ;
#430 = VERTEX_POINT ( 'NONE', #843 ) ;
#431 = EDGE_CURVE ( 'NONE', #167, #552, #587, .T. ) ;
#432 = CIRCLE ( 'NONE', #175, 0.1148333333330000122 ) ;
#433 = ORIENTED_EDGE ( 'NONE', *, *, #656, .T. ) ;
#434 = CONICAL_SURFACE ( 'NONE', #536, 0.2691094581803592511, 0.1745329251994326980 ) ;
#435 = ORIENTED_EDGE ( 'NONE', *, *, #351, .F. ) ;
#436 = CARTESIAN_POINT ( 'NONE',  ( 0.000000000000000000, 0.2691094581803592511, 0.1669999999999999540 ) ) ;
#437 = ORIENTED_EDGE ( 'NONE', *, *, #704, .F. ) ;
#438 = CARTESIAN_POINT ( 'NONE',  ( -0.1148333333330000122, 1.661437490841201770E-17, -0.3329999999999999627 ) ) ;
#439 = APPROVAL ( #273, 'UNSPECIFIED' ) ;
#440 = EDGE_LOOP ( 'NONE', ( #425, #558, #551 ) ) ;
#441 = ORIENTED_EDGE ( 'NONE', *, *, #837, .F. ) ;
#442 = DIRECTION ( 'NONE',  ( -0.1736481776669300814, 2.126576849575768525E-17, 0.9848077530122080203 ) ) ;
#443 = EDGE_LOOP ( 'NONE', ( #303, #39, #644, #757, #356 ) ) ;
#444 = FACE_OUTER_BOUND ( 'NONE', #223, .T. ) ;
#445 = CARTESIAN_POINT ( 'NONE',  ( 0.000000000000000000, 0.000000000000000000, 0.1943716607598746371 ) ) ;
#446 = DIRECTION ( 'NONE',  ( -0.000000000000000000, -0.000000000000000000, 1.000000000000000000 ) ) ;
#447 = CONICAL_SURFACE ( 'NONE', #269, 0.1082531754730548940, 1.047197551196600074 ) ;
#448 = ADVANCED_FACE ( 'NONE', ( #520 ), #652, .T. ) ;
#449 = DIRECTION ( 'NONE',  ( 0.000000000000000000, 0.000000000000000000, -1.000000000000000000 ) ) ;
#450 = CARTESIAN_POINT ( 'NONE',  ( -0.09375000000000009714, -0.05412658773652737065, 0.3329999999999999627 ) ) ;
#451 = DIRECTION ( 'NONE',  ( -0.000000000000000000, -0.000000000000000000, 1.000000000000000000 ) ) ;
#452 = PLANE ( 'NONE',  #343 ) ;
#453 = DIRECTION ( 'NONE',  ( -0.8660254037844388186, 0.4999999999999996114, 0.000000000000000000 ) ) ;
#454 = CARTESIAN_POINT ( 'NONE',  ( 0.000000000000000000, 0.000000000000000000, 0.1943716607598746371 ) ) ;
#455 = CARTESIAN_POINT ( 'NONE',  ( 0.09375000000000001388, 0.05412658773652749555, 0.2416999999999999704 ) ) ;
#456 = EDGE_CURVE ( 'NONE', #421, #826, #66, .T. ) ;
#457 = CIRCLE ( 'NONE', #143, 0.008299999999999984474 ) ;
#458 = DIRECTION ( 'NONE',  ( -0.000000000000000000, -0.000000000000000000, 1.000000000000000000 ) ) ;
#459 = CIRCLE ( 'NONE', #108, 0.1082531754730548940 ) ;
#460 = CARTESIAN_POINT ( 'NONE',  ( -0.2722798817161330431, 0.000000000000000000, 0.1943716607598746371 ) ) ;
#461 = CARTESIAN_POINT ( 'NONE',  ( 0.000000000000000000, 0.000000000000000000, 0.1669999999999999818 ) ) ;
#462 = CARTESIAN_POINT ( 'NONE',  ( -0.09375000000000001388, 0.04537804082471856570, 0.3304745120427243776 ) ) ;
#463 = CARTESIAN_POINT ( 'NONE',  ( 0.000000000000000000, 0.000000000000000000, 0.1906640185156622536 ) ) ;
#464 = UNCERTAINTY_MEASURE_WITH_UNIT (LENGTH_MEASURE( 1.000000000000000082E-05 ), #299, 'distance_accuracy_value', 'NONE');
#465 = CARTESIAN_POINT ( 'NONE',  ( -2.476795884149492350E-17, 0.1082531754730548801, 0.2416999999999999704 ) ) ;
#466 = DIRECTION ( 'NONE',  ( 1.000000000000000000, 0.000000000000000000, 0.000000000000000000 ) ) ;
#467 = VECTOR ( 'NONE', #623, 39.37007874015748143 ) ;
#468 = CIRCLE ( 'NONE', #90, 0.2730279265880048434 ) ;
#469 = EDGE_CURVE ( 'NONE', #100, #808, #402, .T. ) ;
#470 = CARTESIAN_POINT ( 'NONE',  ( 0.06271835715228456232, -0.07204271508805223934, 0.3254198921391042165 ) ) ;
#471 = PERSON_AND_ORGANIZATION_ROLE ( 'design_supplier' ) ;
#472 = DIRECTION ( 'NONE',  ( -0.000000000000000000, -0.000000000000000000, 1.000000000000000000 ) ) ;
#473 = CALENDAR_DATE ( 2026, 8, 1 ) ;
#474 = EDGE_CURVE ( 'NONE', #480, #33, #468, .T. ) ;
#475 = CARTESIAN_POINT ( 'NONE',  ( 0.000000000000000000, 0.000000000000000000, 0.05842559355067306059 ) ) ;
#476 = EDGE_CURVE ( 'NONE', #544, #430, #6, .T. ) ;
#477 = CARTESIAN_POINT ( 'NONE',  ( 0.000000000000000000, 0.000000000000000000, 0.3329999999999999627 ) ) ;
#478 = PERSON_AND_ORGANIZATION ( #119, #47 ) ;
#479 = AXIS2_PLACEMENT_3D ( 'NONE', #403, #661, #397 ) ;
#480 = VERTEX_POINT ( 'NONE', #705 ) ;
#481 = CIRCLE ( 'NONE', #616, 0.1082531754730548940 ) ;
#482 = FACE_OUTER_BOUND ( 'NONE', #370, .T. ) ;
#483 = ORIENTED_EDGE ( 'NONE', *, *, #205, .F. ) ;
#484 = DIRECTION ( 'NONE',  ( -0.000000000000000000, -0.000000000000000000, 1.000000000000000000 ) ) ;
#485 = ORIENTED_EDGE ( 'NONE', *, *, #87, .F. ) ;
#486 = DATE_AND_TIME ( #268, #192 ) ;
#487 = ORIENTED_EDGE ( 'NONE', *, *, #456, .T. ) ;
#488 = CARTESIAN_POINT ( 'NONE',  ( -0.2730279265880048434, 3.343627763738386064E-17, 0.1892227386410266776 ) ) ;
#489 = VERTEX_POINT ( 'NONE', #103 ) ;
#490 = EDGE_LOOP ( 'NONE', ( #22, #485, #516, #360, #819, #749, #322 ) ) ;
#491 = EDGE_CURVE ( 'NONE', #620, #149, #690, .T. ) ;
#492 = DIRECTION ( 'NONE',  ( 0.000000000000000000, 0.000000000000000000, -1.000000000000000000 ) ) ;
#493 = ORIENTED_EDGE ( 'NONE', *, *, #238, .F. ) ;
#494 = DIRECTION ( 'NONE',  ( 1.000000000000000000, 0.000000000000000000, 0.000000000000000000 ) ) ;
#495 = ORIENTED_EDGE ( 'NONE', *, *, #704, .T. ) ;
#496 = ORIENTED_EDGE ( 'NONE', *, *, #298, .T. ) ;
#497 = DIRECTION ( 'NONE',  ( 0.000000000000000000, -0.000000000000000000, 1.000000000000000000 ) ) ;
#498 = ORIENTED_EDGE ( 'NONE', *, *, #747, .T. ) ;
#499 = CARTESIAN_POINT ( 'NONE',  ( 0.09375000000000001388, -0.05412658773652738453, 0.2416999999999999704 ) ) ;
#500 = CIRCLE ( 'NONE', #202, 0.2621449312415878308 ) ;
#501 = ORIENTED_EDGE ( 'NONE', *, *, #159, .F. ) ;
#502 = VERTEX_POINT ( 'NONE', #52 ) ;
#503 = CARTESIAN_POINT ( 'NONE',  ( -0.2691094581803592511, 3.295640365808554870E-17, 0.1669999999999999818 ) ) ;
#504 = ORIENTED_EDGE ( 'NONE', *, *, #238, .T. ) ;
#505 = DIRECTION ( 'NONE',  ( 1.000000000000000000, 0.000000000000000000, 0.000000000000000000 ) ) ;
#506 = DIRECTION ( 'NONE',  ( 0.000000000000000000, 0.000000000000000000, 1.000000000000000000 ) ) ;
#507 = CARTESIAN_POINT ( 'NONE',  ( -0.09375000000000009714, -0.05412658773652737065, 0.3329999999999999627 ) ) ;
#508 = ADVANCED_FACE ( 'NONE', ( #310 ), #122, .T. ) ;
#509 = DIRECTION ( 'NONE',  ( 1.000000000000000000, 0.000000000000000000, 0.000000000000000000 ) ) ;
#510 = DIRECTION ( 'NONE',  ( -0.000000000000000000, -0.000000000000000000, 1.000000000000000000 ) ) ;
#511 = AXIS2_PLACEMENT_3D ( 'NONE', #712, #446, #640 ) ;
#512 = AXIS2_PLACEMENT_3D ( 'NONE', #235, #613, #287 ) ;
#513 = DIRECTION ( 'NONE',  ( 0.000000000000000000, 0.000000000000000000, 1.000000000000000000 ) ) ;
#514 = CARTESIAN_POINT ( 'NONE',  ( 0.1148333333330000122, 0.000000000000000000, -0.3329999999999999627 ) ) ;
#515 = CARTESIAN_POINT ( 'NONE',  ( 0.1082531754730548940, 0.000000000000000000, 0.3329999999999999627 ) ) ;
#516 = ORIENTED_EDGE ( 'NONE', *, *, #318, .F. ) ;
#517 = EDGE_CURVE ( 'NONE', #826, #167, #390, .T. ) ;
#518 = DIRECTION ( 'NONE',  ( -0.000000000000000000, -0.000000000000000000, 1.000000000000000000 ) ) ;
#519 = DIRECTION ( 'NONE',  ( 1.000000000000000000, 0.000000000000000000, 0.000000000000000000 ) ) ;
#520 = FACE_OUTER_BOUND ( 'NONE', #362, .T. ) ;
#521 = CIRCLE ( 'NONE', #647, 0.1565000000000000280 ) ;
#522 = DIRECTION ( 'NONE',  ( -0.000000000000000000, -0.000000000000000000, 1.000000000000000000 ) ) ;
#523 = CONICAL_SURFACE ( 'NONE', #58, 0.1082531754730548940, 1.047197551196600074 ) ;
#524 = CC_DESIGN_SECURITY_CLASSIFICATION ( #831, ( #718 ) ) ;
#525 = CARTESIAN_POINT ( 'NONE',  ( -0.09375000000000002776, 0.03651063298655456146, 0.3283696979674682881 ) ) ;
#526 = DIRECTION ( 'NONE',  ( -0.000000000000000000, -0.000000000000000000, 1.000000000000000000 ) ) ;
#527 = LINE ( 'NONE', #665, #255 ) ;
#528 = DIRECTION ( 'NONE',  ( 0.000000000000000000, -0.000000000000000000, 1.000000000000000000 ) ) ;
#529 = EDGE_CURVE ( 'NONE', #169, #27, #134, .T. ) ;
#530 = CARTESIAN_POINT ( 'NONE',  ( 0.09375000000000001388, 0.05412658773652749555, 0.2416999999999999704 ) ) ;
#531 = APPROVAL_STATUS ( 'not_yet_approved' ) ;
#532 = DIRECTION ( 'NONE',  ( 0.8660254037844388186, -0.4999999999999998335, 0.000000000000000000 ) ) ;
#533 = AXIS2_PLACEMENT_3D ( 'NONE', #131, #69, #263 ) ;
#534 = DIRECTION ( 'NONE',  ( 0.8660254037844385966, 0.5000000000000000000, 0.000000000000000000 ) ) ;
#535 = COORDINATED_UNIVERSAL_TIME_OFFSET ( 6, 0, .BEHIND. ) ;
#536 = AXIS2_PLACEMENT_3D ( 'NONE', #422, #681, #604 ) ;
#537 = CARTESIAN_POINT ( 'NONE',  ( -0.01530756312513101985, 0.09941534978212328288, 0.3278974789582292937 ) ) ;
#538 = CALENDAR_DATE ( 2026, 8, 1 ) ;
#539 = EDGE_CURVE ( 'NONE', #83, #423, #481, .T. ) ;
#540 = LINE ( 'NONE', #208, #321 ) ;
#541 = CARTESIAN_POINT ( 'NONE',  ( 0.000000000000000000, 0.000000000000000000, 0.3329999999999999627 ) ) ;
#542 = ORIENTED_EDGE ( 'NONE', *, *, #253, .T. ) ;
#543 = DIRECTION ( 'NONE',  ( 0.000000000000000000, 1.000000000000000000, 0.000000000000000000 ) ) ;
#544 = VERTEX_POINT ( 'NONE', #833 ) ;
#545 = AXIS2_PLACEMENT_3D ( 'NONE', #357, #743, #28 ) ;
#546 = APPROVAL_ROLE ( '' ) ;
#547 = AXIS2_PLACEMENT_3D ( 'NONE', #711, #451, #241 ) ;
#548 = ORIENTED_EDGE ( 'NONE', *, *, #431, .T. ) ;
#549 = DIRECTION ( 'NONE',  ( -0.000000000000000000, -0.000000000000000000, 1.000000000000000000 ) ) ;
#550 = ORIENTED_EDGE ( 'NONE', *, *, #793, .T. ) ;
#551 = ORIENTED_EDGE ( 'NONE', *, *, #491, .T. ) ;
#552 = VERTEX_POINT ( 'NONE', #460 ) ;
#553 = DIRECTION ( 'NONE',  ( 1.000000000000000000, -0.000000000000000000, 0.000000000000000000 ) ) ;
#554 = VERTEX_POINT ( 'NONE', #49 ) ;
#555 = ORIENTED_EDGE ( 'NONE', *, *, #228, .F. ) ;
#556 = EDGE_LOOP ( 'NONE', ( #504, #221, #435, #695 ) ) ;
#557 = PLANE ( 'NONE',  #784 ) ;
#558 = ORIENTED_EDGE ( 'NONE', *, *, #243, .T. ) ;
#559 = ORIENTED_EDGE ( 'NONE', *, *, #583, .F. ) ;
#560 = CARTESIAN_POINT ( 'NONE',  ( -2.561107494060246767E-17, 0.1082531754730548940, 0.3329999999999999627 ) ) ;
#561 = ORIENTED_EDGE ( 'NONE', *, *, #386, .F. ) ;
#562 = EDGE_CURVE ( 'NONE', #224, #83, #459, .T. ) ;
#563 = CARTESIAN_POINT ( 'NONE',  ( 0.1565000000000000280, 0.000000000000000000, -0.2913333333329994335 ) ) ;
#564 = VECTOR ( 'NONE', #534, 39.37007874015748854 ) ;
#565 = VECTOR ( 'NONE', #484, 39.37007874015748143 ) ;
#566 = EDGE_LOOP ( 'NONE', ( #561, #211, #609, #814 ) ) ;
#567 = VERTEX_POINT ( 'NONE', #408 ) ;
#568 = LINE ( 'NONE', #503, #285 ) ;
#569 = DIRECTION ( 'NONE',  ( -0.000000000000000000, -0.000000000000000000, 1.000000000000000000 ) ) ;
#570 = DIRECTION ( 'NONE',  ( 1.224646799147353207E-16, 1.000000000000000000, 0.000000000000000000 ) ) ;
#571 = ADVANCED_FACE ( 'NONE', ( #400 ), #334, .F. ) ;
#572 = CARTESIAN_POINT ( 'NONE',  ( 0.000000000000000000, 0.000000000000000000, -0.3329999999999999627 ) ) ;
#573 = CARTESIAN_POINT ( 'NONE',  ( -0.03103164284771547238, -0.09033704812152996977, 0.3254198921391042165 ) ) ;
#574 = EDGE_CURVE ( 'NONE', #808, #294, #798, .T. ) ;
#575 = DIRECTION ( 'NONE',  ( -1.000000000000000000, 0.000000000000000000, 0.000000000000000000 ) ) ;
#576 = FACE_OUTER_BOUND ( 'NONE', #291, .T. ) ;
#577 = CIRCLE ( 'NONE', #600, 0.008299999999999984474 ) ;
#578 = AXIS2_PLACEMENT_3D ( 'NONE', #461, #663, #655 ) ;
#579 = ADVANCED_FACE ( 'NONE', ( #262 ), #245, .F. ) ;
#580 = DIRECTION ( 'NONE',  ( -0.000000000000000000, -0.000000000000000000, 1.000000000000000000 ) ) ;
#581 = CARTESIAN_POINT ( 'NONE',  ( -0.007663316585627937515, -0.1038287575794571982, 0.3304455611380930913 ) ) ;
#582 = CARTESIAN_POINT ( 'NONE',  ( -0.09375000000000001388, 0.05412658773652745392, 0.2416999999999999704 ) ) ;
#583 = EDGE_CURVE ( 'NONE', #502, #567, #62, .T. ) ;
#584 = DIRECTION ( 'NONE',  ( -0.000000000000000000, -0.000000000000000000, 1.000000000000000000 ) ) ;
#585 = CARTESIAN_POINT ( 'NONE',  ( 0.000000000000000000, 0.000000000000000000, 0.1738587201253644632 ) ) ;
#586 = CARTESIAN_POINT ( 'NONE',  ( 0.09375000000000011102, -0.05412658773652738453, 0.3329999999999999627 ) ) ;
#587 = CIRCLE ( 'NONE', #331, 0.2722798817161330431 ) ;
#588 = CARTESIAN_POINT ( 'NONE',  ( 0.09375000000000004163, -0.01822629401375024105, 0.3254114531706373548 ) ) ;
#589 = AXIS2_PLACEMENT_3D ( 'NONE', #585, #526, #845 ) ;
#590 = APPROVAL_PERSON_ORGANIZATION ( #410, #225, #200 ) ;
#591 = DIRECTION ( 'NONE',  ( -1.000000000000000000, -1.224646799147355672E-16, 0.000000000000000000 ) ) ;
#592 = EDGE_CURVE ( 'NONE', #100, #700, #500, .T. ) ;
#593 = DIRECTION ( 'NONE',  ( 1.577233174527200864E-16, -1.000000000000000000, 0.000000000000000000 ) ) ;
#594 = CARTESIAN_POINT ( 'NONE',  ( 0.09375000000000001388, -2.250660537366286541E-25, 0.3246265877365274166 ) ) ;
#595 = PERSON_AND_ORGANIZATION ( #119, #47 ) ;
#596 = CARTESIAN_POINT ( 'NONE',  ( 0.09375000000000001388, 0.04537600886647386034, 0.3304739254669046278 ) ) ;
#597 = DIRECTION ( 'NONE',  ( -1.224646799147353207E-16, 1.000000000000000000, 0.000000000000000000 ) ) ;
#598 = APPLICATION_CONTEXT ( 'configuration controlled 3d designs of mechanical parts and assemblies' ) ;
#599 = CARTESIAN_POINT ( 'NONE',  ( -0.09374999999999998612, -0.05412658773652741923, 0.2416999999999999704 ) ) ;
#600 = AXIS2_PLACEMENT_3D ( 'NONE', #315, #570, #183 ) ;
#601 = ADVANCED_FACE ( 'NONE', ( #188 ), #45, .T. ) ;
#602 = AXIS2_PLACEMENT_3D ( 'NONE', #193, #254, #721 ) ;
#603 = LOCAL_TIME ( 9, 8, 55.00000000000000000, #800 ) ;
#604 = DIRECTION ( 'NONE',  ( 1.000000000000000000, 0.000000000000000000, 0.000000000000000000 ) ) ;
#605 = PERSON_AND_ORGANIZATION ( #119, #47 ) ;
#606 = ORIENTED_EDGE ( 'NONE', *, *, #837, .T. ) ;
#607 = CARTESIAN_POINT ( 'NONE',  ( -0.2621449312415878308, 3.260400238570963747E-17, 0.1669999999999999540 ) ) ;
#608 = ORIENTED_EDGE ( 'NONE', *, *, #539, .T. ) ;
#609 = ORIENTED_EDGE ( 'NONE', *, *, #574, .F. ) ;
#610 = DIRECTION ( 'NONE',  ( -0.8660254037844385966, -0.5000000000000000000, 0.000000000000000000 ) ) ;
#611 = VERTEX_POINT ( 'NONE', #327 ) ;
#612 = ORIENTED_EDGE ( 'NONE', *, *, #762, .T. ) ;
#613 = DIRECTION ( 'NONE',  ( -0.000000000000000000, -0.000000000000000000, 1.000000000000000000 ) ) ;
#614 = AXIS2_PLACEMENT_3D ( 'NONE', #61, #109, #645 ) ;
#615 = EDGE_LOOP ( 'NONE', ( #93, #487, #756, #177, #812 ) ) ;
#616 = AXIS2_PLACEMENT_3D ( 'NONE', #246, #513, #847 ) ;
#617 = CARTESIAN_POINT ( 'NONE',  ( 0.000000000000000000, 0.000000000000000000, 0.05842559355067306059 ) ) ;
#618 = ADVANCED_FACE ( 'NONE', ( #260 ), #124, .T. ) ;
#619 = ORIENTED_EDGE ( 'NONE', *, *, #722, .F. ) ;
#620 = VERTEX_POINT ( 'NONE', #515 ) ;
#621 = CARTESIAN_POINT ( 'NONE',  ( 0.2722798817161330431, 3.339047309948604415E-17, 0.1943716607598746371 ) ) ;
#622 = ORIENTED_EDGE ( 'NONE', *, *, #574, .T. ) ;
#623 = DIRECTION ( 'NONE',  ( -0.000000000000000000, -0.000000000000000000, 1.000000000000000000 ) ) ;
#624 = ORIENTED_EDGE ( 'NONE', *, *, #266, .T. ) ;
#625 = ORIENTED_EDGE ( 'NONE', *, *, #78, .T. ) ;
#626 = EDGE_CURVE ( 'NONE', #502, #611, #251, .T. ) ;
#627 = DIRECTION ( 'NONE',  ( 1.000000000000000000, 0.000000000000000000, 0.000000000000000000 ) ) ;
#628 = ORIENTED_EDGE ( 'NONE', *, *, #732, .T. ) ;
#629 = DIRECTION ( 'NONE',  ( 1.577233174527200864E-16, -1.000000000000000000, 0.000000000000000000 ) ) ;
#630 = EDGE_LOOP ( 'NONE', ( #218, #35, #624, #366, #433, #29 ) ) ;
#631 = ORIENTED_EDGE ( 'NONE', *, *, #474, .F. ) ;
#632 = EDGE_CURVE ( 'NONE', #289, #149, #301, .T. ) ;
#633 = PLANE ( 'NONE',  #380 ) ;
#634 = DIRECTION ( 'NONE',  ( 1.000000000000000000, 0.000000000000000000, 0.000000000000000000 ) ) ;
#635 = LINE ( 'NONE', #844, #636 ) ;
#636 = VECTOR ( 'NONE', #385, 39.37007874015748854 ) ;
#637 = AXIS2_PLACEMENT_3D ( 'NONE', #32, #689, #492 ) ;
#638 =( GEOMETRIC_REPRESENTATION_CONTEXT ( 3 ) GLOBAL_UNCERTAINTY_ASSIGNED_CONTEXT ( ( #464 ) ) GLOBAL_UNIT_ASSIGNED_CONTEXT ( ( #299, #168, #157 ) ) REPRESENTATION_CONTEXT ( 'NONE', 'WORKASPACE' ) );
#639 = DIRECTION ( 'NONE',  ( 0.000000000000000000, 0.000000000000000000, 1.000000000000000000 ) ) ;
#640 = DIRECTION ( 'NONE',  ( 1.000000000000000000, 0.000000000000000000, 0.000000000000000000 ) ) ;
#641 = LINE ( 'NONE', #326, #106 ) ;
#642 = DIRECTION ( 'NONE',  ( 0.000000000000000000, 0.000000000000000000, 1.000000000000000000 ) ) ;
#643 = EDGE_CURVE ( 'NONE', #21, #554, #852, .T. ) ;
#644 = ORIENTED_EDGE ( 'NONE', *, *, #114, .F. ) ;
#645 = DIRECTION ( 'NONE',  ( 0.000000000000000000, 0.000000000000000000, -1.000000000000000000 ) ) ;
#646 = LINE ( 'NONE', #514, #232 ) ;
#647 = AXIS2_PLACEMENT_3D ( 'NONE', #657, #261, #730 ) ;
#648 = PRODUCT ( '91255A578_NO THREADS_Button Head Hex Drive Screw', '91255A578_NO THREADS_Button Head Hex Drive Screw', '', ( #342 ) ) ;
#649 = CC_DESIGN_DATE_AND_TIME_ASSIGNMENT ( #412, #279, ( #842 ) ) ;
#650 = AXIS2_PLACEMENT_3D ( 'NONE', #411, #472, #16 ) ;
#651 = FACE_OUTER_BOUND ( 'NONE', #313, .T. ) ;
#652 = CYLINDRICAL_SURFACE ( 'NONE', #547, 0.1565000000000000280 ) ;
#653 = CARTESIAN_POINT ( 'NONE',  ( 0.09375000000000001388, 0.05412658773652752331, 0.3329999999999999627 ) ) ;
#654 = CARTESIAN_POINT ( 'NONE',  ( 0.000000000000000000, 0.000000000000000000, -0.3329999999999999627 ) ) ;
#655 = DIRECTION ( 'NONE',  ( 1.000000000000000000, 0.000000000000000000, 0.000000000000000000 ) ) ;
#656 = EDGE_CURVE ( 'NONE', #296, #364, #127, .T. ) ;
#657 = CARTESIAN_POINT ( 'NONE',  ( 0.000000000000000000, 0.000000000000000000, -0.2913333333329994335 ) ) ;
#658 = CIRCLE ( 'NONE', #401, 0.1312500000000000056 ) ;
#659 = AXIS2_PLACEMENT_3D ( 'NONE', #445, #569, #252 ) ;
#660 = CARTESIAN_POINT ( 'NONE',  ( 0.09374999999999998612, -0.009137588047027099536, 0.3246265877365273056 ) ) ;
#661 = DIRECTION ( 'NONE',  ( 0.000000000000000000, 0.000000000000000000, -1.000000000000000000 ) ) ;
#662 = EDGE_CURVE ( 'NONE', #552, #421, #393, .T. ) ;
#663 = DIRECTION ( 'NONE',  ( -0.000000000000000000, -0.000000000000000000, 1.000000000000000000 ) ) ;
#664 = ADVANCED_BREP_SHAPE_REPRESENTATION ( '91255A578_NO THREADS_Button Head Hex Drive Screw', ( #363, #258 ), #638 ) ;
#665 = CARTESIAN_POINT ( 'NONE',  ( -2.476795884149492350E-17, 0.1082531754730548801, 0.2416999999999999704 ) ) ;
#666 = EDGE_CURVE ( 'NONE', #423, #289, #312, .T. ) ;
#667 = CARTESIAN_POINT ( 'NONE',  ( -0.06271835715228450681, 0.07204271508805235036, 0.3254198921391042165 ) ) ;
#668 = FACE_OUTER_BOUND ( 'NONE', #806, .T. ) ;
#669 = CC_DESIGN_PERSON_AND_ORGANIZATION_ASSIGNMENT ( #605, #731, ( #842 ) ) ;
#670 = CIRCLE ( 'NONE', #796, 0.1082531754730548940 ) ;
#671 = AXIS2_PLACEMENT_3D ( 'NONE', #129, #778, #64 ) ;
#672 = CARTESIAN_POINT ( 'NONE',  ( 0.000000000000000000, 0.000000000000000000, 0.000000000000000000 ) ) ;
#673 = APPROVAL_PERSON_ORGANIZATION ( #811, #439, #546 ) ;
#674 = CARTESIAN_POINT ( 'NONE',  ( 0.09375000000000001388, -0.05412658773652738453, 0.2416999999999999704 ) ) ;
#675 = ADVANCED_FACE ( 'NONE', ( #68 ), #713, .F. ) ;
#676 = APPROVAL_STATUS ( 'not_yet_approved' ) ;
#677 = ORIENTED_EDGE ( 'NONE', *, *, #643, .F. ) ;
#678 = CARTESIAN_POINT ( 'NONE',  ( 0.000000000000000000, 0.000000000000000000, 0.3329999999999999627 ) ) ;
#679 = APPLICATION_CONTEXT ( 'configuration controlled 3d designs of mechanical parts and assemblies' ) ;
#680 = ORIENTED_EDGE ( 'NONE', *, *, #337, .F. ) ;
#681 = DIRECTION ( 'NONE',  ( -0.000000000000000000, -0.000000000000000000, 1.000000000000000000 ) ) ;
#682 = ORIENTED_EDGE ( 'NONE', *, *, #592, .F. ) ;
#683 = DIRECTION ( 'NONE',  ( -0.7071067811865429098, 8.659560562354876159E-17, 0.7071067811865521247 ) ) ;
#684 = ORIENTED_EDGE ( 'NONE', *, *, #662, .F. ) ;
#685 = ADVANCED_FACE ( 'NONE', ( #651 ), #841, .F. ) ;
#686 = DIRECTION ( 'NONE',  ( -1.000000000000000000, -1.577233174527200864E-16, 0.000000000000000000 ) ) ;
#687 = ORIENTED_EDGE ( 'NONE', *, *, #396, .T. ) ;
#688 = ORIENTED_EDGE ( 'NONE', *, *, #31, .T. ) ;
#689 = DIRECTION ( 'NONE',  ( -0.000000000000000000, -1.000000000000000000, -0.000000000000000000 ) ) ;
#690 = CIRCLE ( 'NONE', #320, 0.1082531754730548940 ) ;
#691 = EDGE_LOOP ( 'NONE', ( #99, #696 ) ) ;
#692 = AXIS2_PLACEMENT_3D ( 'NONE', #475, #803, #801 ) ;
#693 = ADVANCED_FACE ( 'NONE', ( #59 ), #176, .F. ) ;
#694 = LINE ( 'NONE', #377, #467 ) ;
#695 = ORIENTED_EDGE ( 'NONE', *, *, #656, .F. ) ;
#696 = ORIENTED_EDGE ( 'NONE', *, *, #396, .F. ) ;
#697 = CARTESIAN_POINT ( 'NONE',  ( 0.000000000000000000, 0.000000000000000000, -0.3329999999999999627 ) ) ;
#698 = ORIENTED_EDGE ( 'NONE', *, *, #666, .T. ) ;
#699 = DIRECTION ( 'NONE',  ( -0.000000000000000000, -0.000000000000000000, 1.000000000000000000 ) ) ;
#700 = VERTEX_POINT ( 'NONE', #607 ) ;
#701 = ORIENTED_EDGE ( 'NONE', *, *, #328, .F. ) ;
#702 = ADVANCED_FACE ( 'NONE', ( #348 ), #333, .F. ) ;
#703 = CARTESIAN_POINT ( 'NONE',  ( 0.000000000000000000, 0.1312500000000000056, 0.3329999999999999627 ) ) ;
#704 = EDGE_CURVE ( 'NONE', #41, #423, #2, .T. ) ;
#705 = CARTESIAN_POINT ( 'NONE',  ( 0.2730279265880048434, 0.000000000000000000, 0.1892227386410266776 ) ) ;
#706 = CARTESIAN_POINT ( 'NONE',  ( 1.451294246634139896E-16, -0.1082531754730548940, 0.3329999999999999627 ) ) ;
#707 = AXIS2_PLACEMENT_3D ( 'NONE', #314, #449, #172 ) ;
#708 = AXIS2_PLACEMENT_3D ( 'NONE', #463, #788, #120 ) ;
#709 = DIRECTION ( 'NONE',  ( -1.000000000000000000, 0.000000000000000000, 0.000000000000000000 ) ) ;
#710 = DIRECTION ( 'NONE',  ( -0.000000000000000000, -0.000000000000000000, 1.000000000000000000 ) ) ;
#711 = CARTESIAN_POINT ( 'NONE',  ( 0.000000000000000000, 0.000000000000000000, 0.3329999999999999627 ) ) ;
#712 = CARTESIAN_POINT ( 'NONE',  ( 0.000000000000000000, 0.000000000000000000, 0.1752999999999999281 ) ) ;
#713 = PLANE ( 'NONE',  #233 ) ;
#714 = DIRECTION ( 'NONE',  ( -0.000000000000000000, -0.000000000000000000, 1.000000000000000000 ) ) ;
#715 = AXIS2_PLACEMENT_3D ( 'NONE', #40, #371, #302 ) ;
#716 = VECTOR ( 'NONE', #453, 39.37007874015748143 ) ;
#717 = EDGE_CURVE ( 'NONE', #423, #620, #91, .T. ) ;
#718 = PRODUCT_DEFINITION_FORMATION_WITH_SPECIFIED_SOURCE ( 'ANY', '', #648, .NOT_KNOWN. ) ;
#719 = CARTESIAN_POINT ( 'NONE',  ( 0.000000000000000000, 0.000000000000000000, 0.3329999999999999627 ) ) ;
#720 = CARTESIAN_POINT ( 'NONE',  ( -0.09374999999999998612, -0.04533162657322692413, 0.3304611134024274532 ) ) ;
#721 = DIRECTION ( 'NONE',  ( 1.000000000000000000, 0.000000000000000000, 0.000000000000000000 ) ) ;
#722 = EDGE_CURVE ( 'NONE', #567, #82, #265, .T. ) ;
#723 = CARTESIAN_POINT ( 'NONE',  ( -0.09375000000000001388, 0.01841620991973114824, 0.3254327962006510200 ) ) ;
#724 = CARTESIAN_POINT ( 'NONE',  ( 0.09375000000000001388, 0.05412658773652749555, 0.2416999999999999704 ) ) ;
#725 = EDGE_CURVE ( 'NONE', #167, #21, #415, .T. ) ;
#726 = FACE_OUTER_BOUND ( 'NONE', #95, .T. ) ;
#727 = EDGE_CURVE ( 'NONE', #41, #296, #206, .T. ) ;
#728 = CIRCLE ( 'NONE', #479, 0.2621449312415878308 ) ;
#729 = DIRECTION ( 'NONE',  ( 0.5000000000000001110, -0.8660254037844387076, 0.000000000000000000 ) ) ;
#730 = DIRECTION ( 'NONE',  ( 1.000000000000000000, 0.000000000000000000, 0.000000000000000000 ) ) ;
#731 = PERSON_AND_ORGANIZATION_ROLE ( 'creator' ) ;
#732 = EDGE_CURVE ( 'NONE', #567, #224, #540, .T. ) ;
#733 = FACE_OUTER_BOUND ( 'NONE', #764, .T. ) ;
#734 = CALENDAR_DATE ( 2026, 8, 1 ) ;
#735 = CARTESIAN_POINT ( 'NONE',  ( 0.2691094581803592511, 0.000000000000000000, 0.1669999999999999818 ) ) ;
#736 = APPROVAL_ROLE ( '' ) ;
#737 = DIRECTION ( 'NONE',  ( 1.000000000000000000, 0.000000000000000000, 0.000000000000000000 ) ) ;
#738 = TOROIDAL_SURFACE ( 'NONE', #715, 0.2648540222380034725, 0.008300000000000000086 ) ;
#739 = VECTOR ( 'NONE', #683, 39.37007874015748143 ) ;
#740 = DIRECTION ( 'NONE',  ( 0.000000000000000000, 0.000000000000000000, 1.000000000000000000 ) ) ;
#741 = APPROVAL_PERSON_ORGANIZATION ( #595, #799, #736 ) ;
#742 = EDGE_LOOP ( 'NONE', ( #88, #353 ) ) ;
#743 = DIRECTION ( 'NONE',  ( -1.000000000000000000, 0.000000000000000000, 0.000000000000000000 ) ) ;
#744 = ORIENTED_EDGE ( 'NONE', *, *, #318, .T. ) ;
#745 = CARTESIAN_POINT ( 'NONE',  ( -0.05475602988872753374, 0.07663976687704286694, 0.3246207643691720879 ) ) ;
#746 = ORIENTED_EDGE ( 'NONE', *, *, #835, .F. ) ;
#747 = EDGE_CURVE ( 'NONE', #808, #480, #212, .T. ) ;
#748 = CARTESIAN_POINT ( 'NONE',  ( 0.03899397011127248014, 0.08573999633253950869, 0.3246207643691720879 ) ) ;
#749 = ORIENTED_EDGE ( 'NONE', *, *, #539, .F. ) ;
#750 = CARTESIAN_POINT ( 'NONE',  ( 0.000000000000000000, 0.000000000000000000, 0.3329999999999999627 ) ) ;
#751 = ORIENTED_EDGE ( 'NONE', *, *, #406, .F. ) ;
#752 = ORIENTED_EDGE ( 'NONE', *, *, #717, .T. ) ;
#753 = CC_DESIGN_PERSON_AND_ORGANIZATION_ASSIGNMENT ( #795, #4, ( #831 ) ) ;
#754 = VERTEX_POINT ( 'NONE', #144 ) ;
#755 = CARTESIAN_POINT ( 'NONE',  ( -2.476795884149492350E-17, 0.1082531754730548801, 0.2416999999999999704 ) ) ;
#756 = ORIENTED_EDGE ( 'NONE', *, *, #517, .T. ) ;
#757 = ORIENTED_EDGE ( 'NONE', *, *, #793, .F. ) ;
#758 = CLOSED_SHELL ( 'NONE', ( #850, #618, #702, #368, #51, #601, #508, #418, #60, #781, #821, #448, #846, #675, #775, #141, #785, #579, #693, #685, #118, #196, #571, #101, #259, #107, #13, #130, #181 ) ) ;
#759 = AXIS2_PLACEMENT_3D ( 'NONE', #789, #849, #194 ) ;
#760 = ORIENTED_EDGE ( 'NONE', *, *, #283, .T. ) ;
#761 = PLANE ( 'NONE',  #5 ) ;
#762 = EDGE_CURVE ( 'NONE', #754, #611, #138, .T. ) ;
#763 = ORIENTED_EDGE ( 'NONE', *, *, #298, .F. ) ;
#764 = EDGE_LOOP ( 'NONE', ( #441, #231, #498, #280 ) ) ;
#765 = ORIENTED_EDGE ( 'NONE', *, *, #476, .F. ) ;
#766 = B_SPLINE_CURVE_WITH_KNOTS ( 'NONE', 3,
 ( #409, #854, #63, #794, #470, #1, #329, #586 ),
 .UNSPECIFIED., .F., .F.,
 ( 4, 2, 2, 4 ),
 ( 2.380745673575321408E-07, 0.001388728690853448982, 0.002082973998996494151, 0.002777219307139539104 ),
 .UNSPECIFIED. ) ;
#767 = CARTESIAN_POINT ( 'NONE',  ( 2.066048399428108553E-17, -0.1082531754730548107, 0.2416999999999999704 ) ) ;
#768 = DIRECTION ( 'NONE',  ( 1.000000000000000000, 0.000000000000000000, 0.000000000000000000 ) ) ;
#769 = DIRECTION ( 'NONE',  ( 1.000000000000000000, 0.000000000000000000, 0.000000000000000000 ) ) ;
#770 = DESIGN_CONTEXT ( 'detailed design', #598, 'design' ) ;
#771 = DIRECTION ( 'NONE',  ( -0.8660254037844385966, -0.5000000000000000000, 0.000000000000000000 ) ) ;
#772 = CARTESIAN_POINT ( 'NONE',  ( 0.1148333333330000122, 0.000000000000000000, -0.3329999999999999627 ) ) ;
#773 = CONICAL_SURFACE ( 'NONE', #282, 0.1082531754730548940, 1.047197551196600074 ) ;
#774 = TOROIDAL_SURFACE ( 'NONE', #512, 0.2621449312415878308, 0.008300000000000000086 ) ;
#775 = ADVANCED_FACE ( 'NONE', ( #668 ), #523, .F. ) ;
#776 = CARTESIAN_POINT ( 'NONE',  ( -3.334466856158822766E-17, -0.2722798817161330431, 0.1943716607598746371 ) ) ;
#777 = CARTESIAN_POINT ( 'NONE',  ( -0.06290549989091966110, -0.07193466817752436349, 0.3246383330878953588 ) ) ;
#778 = DIRECTION ( 'NONE',  ( -0.000000000000000000, -0.000000000000000000, 1.000000000000000000 ) ) ;
#779 = DIRECTION ( 'NONE',  ( -1.000000000000000000, 0.000000000000000000, 0.000000000000000000 ) ) ;
#780 = CARTESIAN_POINT ( 'NONE',  ( 0.000000000000000000, 0.000000000000000000, 0.3329999999999999627 ) ) ;
#781 = ADVANCED_FACE ( 'NONE', ( #733 ), #434, .T. ) ;
#782 = DIRECTION ( 'NONE',  ( 0.000000000000000000, 0.000000000000000000, -1.000000000000000000 ) ) ;
#783 = CARTESIAN_POINT ( 'NONE',  ( 0.000000000000000000, 0.000000000000000000, 0.1892227386410266776 ) ) ;
#784 = AXIS2_PLACEMENT_3D ( 'NONE', #229, #274, #165 ) ;
#785 = ADVANCED_FACE ( 'NONE', ( #139 ), #447, .F. ) ;
#786 = AXIS2_PLACEMENT_3D ( 'NONE', #719, #522, #519 ) ;
#787 = LOCAL_TIME ( 9, 8, 55.00000000000000000, #271 ) ;
#788 = DIRECTION ( 'NONE',  ( 0.000000000000000000, 0.000000000000000000, -1.000000000000000000 ) ) ;
#789 = CARTESIAN_POINT ( 'NONE',  ( 0.000000000000000000, 0.000000000000000000, 0.1738587201253644632 ) ) ;
#790 = CARTESIAN_POINT ( 'NONE',  ( 2.066048399428108553E-17, -0.1082531754730548107, 0.2416999999999999704 ) ) ;
#791 = CARTESIAN_POINT ( 'NONE',  ( -0.09374999999999998612, -0.03631555189938733691, 0.3283284430503341511 ) ) ;
#792 = DIRECTION ( 'NONE',  ( 1.000000000000000000, 0.000000000000000000, 0.000000000000000000 ) ) ;
#793 = EDGE_CURVE ( 'NONE', #552, #33, #67, .T. ) ;
#794 = CARTESIAN_POINT ( 'NONE',  ( 0.05475602988872761007, -0.07663976687704275592, 0.3246207643691720324 ) ) ;
#795 = PERSON_AND_ORGANIZATION ( #119, #47 ) ;
#796 = AXIS2_PLACEMENT_3D ( 'NONE', #780, #642, #240 ) ;
#797 = CARTESIAN_POINT ( 'NONE',  ( -2.561107494060246767E-17, 0.1082531754730548940, 0.3329999999999999627 ) ) ;
#798 = CIRCLE ( 'NONE', #589, 0.2703188355915891461 ) ;
#799 = APPROVAL ( #676, 'UNSPECIFIED' ) ;
#800 = COORDINATED_UNIVERSAL_TIME_OFFSET ( 6, 0, .BEHIND. ) ;
#801 = DIRECTION ( 'NONE',  ( 0.000000000000000000, 0.000000000000000000, -1.000000000000000000 ) ) ;
#802 = APPLICATION_PROTOCOL_DEFINITION ( 'international standard', 'config_control_design', 1994, #679 ) ;
#803 = DIRECTION ( 'NONE',  ( 1.000000000000000000, 0.000000000000000000, 0.000000000000000000 ) ) ;
#804 = DATE_TIME_ROLE ( 'classification_date' ) ;
#805 = EDGE_CURVE ( 'NONE', #27, #489, #293, .T. ) ;
#806 = EDGE_LOOP ( 'NONE', ( #217, #80 ) ) ;
#807 = CARTESIAN_POINT ( 'NONE',  ( 0.000000000000000000, 0.000000000000000000, 0.3329999999999999627 ) ) ;
#808 = VERTEX_POINT ( 'NONE', #355 ) ;
#809 = CIRCLE ( 'NONE', #244, 0.1565000000000000280 ) ;
#810 = VECTOR ( 'NONE', #346, 39.37007874015748854 ) ;
#811 = PERSON_AND_ORGANIZATION ( #119, #47 ) ;
#812 = ORIENTED_EDGE ( 'NONE', *, *, #78, .F. ) ;
#813 = DIRECTION ( 'NONE',  ( 0.000000000000000000, 0.000000000000000000, -1.000000000000000000 ) ) ;
#814 = ORIENTED_EDGE ( 'NONE', *, *, #469, .F. ) ;
#815 = ORIENTED_EDGE ( 'NONE', *, *, #87, .T. ) ;
#816 = CARTESIAN_POINT ( 'NONE',  ( 0.09375000000000001388, 0.05412658773652752331, 0.3329999999999999627 ) ) ;
#817 = ORIENTED_EDGE ( 'NONE', *, *, #469, .T. ) ;
#818 = CARTESIAN_POINT ( 'NONE',  ( 1.451294246634139896E-16, -0.1082531754730548940, 0.3329999999999999627 ) ) ;
#819 = ORIENTED_EDGE ( 'NONE', *, *, #717, .F. ) ;
#820 = ORIENTED_EDGE ( 'NONE', *, *, #70, .F. ) ;
#821 = ADVANCED_FACE ( 'NONE', ( #822, #220 ), #633, .F. ) ;
#822 = FACE_OUTER_BOUND ( 'NONE', #17, .T. ) ;
#823 = ORIENTED_EDGE ( 'NONE', *, *, #426, .F. ) ;
#824 = DIRECTION ( 'NONE',  ( -1.224646799147353207E-16, -1.000000000000000000, 0.000000000000000000 ) ) ;
#825 = EDGE_LOOP ( 'NONE', ( #284, #625 ) ) ;
#826 = VERTEX_POINT ( 'NONE', #621 ) ;
#827 = AXIS2_PLACEMENT_3D ( 'NONE', #332, #197, #65 ) ;
#828 =( LENGTH_UNIT ( ) NAMED_UNIT ( * ) SI_UNIT ( $, .METRE. ) );
#829 = VECTOR ( 'NONE', #458, 39.37007874015748143 ) ;
#830 = EDGE_LOOP ( 'NONE', ( #496, #19, #765, #820 ) ) ;
#831 = SECURITY_CLASSIFICATION ( '', '', #74 ) ;
#832 = SPHERICAL_SURFACE ( 'NONE', #545, 0.3043315086825552074 ) ;
#833 = CARTESIAN_POINT ( 'NONE',  ( 0.1565000000000000280, 0.000000000000000000, 0.1669999999999999540 ) ) ;
#834 = CARTESIAN_POINT ( 'NONE',  ( 2.066048399428108553E-17, -0.1082531754730548107, 0.2416999999999999704 ) ) ;
#835 = EDGE_CURVE ( 'NONE', #149, #754, #319, .T. ) ;
#836 = CARTESIAN_POINT ( 'NONE',  ( -0.01539068948143267751, -0.09936735675793574585, 0.3283376562697852274 ) ) ;
#837 = EDGE_CURVE ( 'NONE', #294, #33, #568, .T. ) ;
#838 = CARTESIAN_POINT ( 'NONE',  ( 0.000000000000000000, 0.000000000000000000, 0.05842559355067306059 ) ) ;
#839 = PLANE ( 'NONE',  #75 ) ;
#840 = VECTOR ( 'NONE', #267, 39.37007874015748143 ) ;
#841 = CONICAL_SURFACE ( 'NONE', #306, 0.1082531754730548940, 1.047197551196600074 ) ;
#842 = PRODUCT_DEFINITION ( 'UNKNOWN', '', #718, #770 ) ;
#843 = CARTESIAN_POINT ( 'NONE',  ( -0.1565000000000000280, 1.916572240665608148E-17, 0.1669999999999999540 ) ) ;
#844 = CARTESIAN_POINT ( 'NONE',  ( 0.1082531754730548940, 0.000000000000000000, 0.3329999999999999627 ) ) ;
#845 = DIRECTION ( 'NONE',  ( -1.000000000000000000, 0.000000000000000000, 0.000000000000000000 ) ) ;
#846 = ADVANCED_FACE ( 'NONE', ( #84 ), #25, .T. ) ;
#847 = DIRECTION ( 'NONE',  ( 1.000000000000000000, 0.000000000000000000, 0.000000000000000000 ) ) ;
#848 = CARTESIAN_POINT ( 'NONE',  ( 0.09375000000000001388, 0.009141833668847458572, 0.3246265877365274166 ) ) ;
#849 = DIRECTION ( 'NONE',  ( -0.000000000000000000, -0.000000000000000000, 1.000000000000000000 ) ) ;
#850 = ADVANCED_FACE ( 'NONE', ( #26 ), #774, .T. ) ;
#851 = CONICAL_SURFACE ( 'NONE', #533, 0.1148333333330000122, 0.7853981633974418397 ) ;
#852 = CIRCLE ( 'NONE', #602, 0.1312500000000000056 ) ;
#853 = CARTESIAN_POINT ( 'NONE',  ( 0.09375000000000001388, -2.250660537366286541E-25, 0.3246265877365274166 ) ) ;
#854 = CARTESIAN_POINT ( 'NONE',  ( 0.01530756312513108057, -0.09941534978212324125, 0.3278974789582292937 ) ) ;
#855 = CARTESIAN_POINT ( 'NONE',  ( 0.000000000000000000, 0.000000000000000000, -0.3329999999999999627 ) ) ;
ENDSEC;
END-ISO-10303-21;
