ISO-10303-21;
HEADER;
FILE_DESCRIPTION (( 'STEP AP203' ),
    '1' );
FILE_NAME ('97484A245_Large-Diameter Low-Profile Domed Head Solid Rivets.STEP',
    '2026-01-08T08:33:39',
    ( 'McMaster Carr Supply' ),
    ( 'McMaster Carr Supply' ),
    'SwSTEP 2.0',
    'SolidWorks 2024',
    '' );
FILE_SCHEMA (( 'CONFIG_CONTROL_DESIGN' ));
ENDSEC;

DATA;
#1 = ORIENTED_EDGE ( 'NONE', *, *, #385, .T. ) ;
#2 = DIRECTION ( 'NONE',  ( -1.000000000000000000, 0.000000000000000000, 0.000000000000000000 ) ) ;
#3 = CIRCLE ( 'NONE', #268, 0.2434607728508303426 ) ;
#4 = EDGE_CURVE ( 'NONE', #343, #150, #219, .T. ) ;
#5 = ORIENTED_EDGE ( 'NONE', *, *, #4, .F. ) ;
#6 = EDGE_CURVE ( 'NONE', #116, #291, #371, .T. ) ;
#7 = CIRCLE ( 'NONE', #440, 0.09375000000000006939 ) ;
#8 = CARTESIAN_POINT ( 'NONE',  ( 0.09375000000000005551, 1.148106374200644787E-17, 0.2653437500000000449 ) ) ;
#9 = FACE_OUTER_BOUND ( 'NONE', #358, .T. ) ;
#10 = CARTESIAN_POINT ( 'NONE',  ( -1.361260433336188790E-17, 0.000000000000000000, -0.2019129631393294932 ) ) ;
#11 = APPLICATION_CONTEXT ( 'configuration controlled 3d designs of mechanical parts and assemblies' ) ;
#12 = APPROVAL_DATE_TIME ( #47, #419 ) ;
#13 = DIRECTION ( 'NONE',  ( 0.000000000000000000, -1.000000000000000000, 0.000000000000000000 ) ) ;
#14 = TOROIDAL_SURFACE ( 'NONE', #304, 0.2422640624999999603, 0.001735937500000013945 ) ;
#15 = APPROVAL_DATE_TIME ( #349, #437 ) ;
#16 = CARTESIAN_POINT ( 'NONE',  ( -1.361260433336188790E-17, 0.000000000000000000, -0.3005000000000000449 ) ) ;
#17 = ORIENTED_EDGE ( 'NONE', *, *, #319, .T. ) ;
#18 = DATE_AND_TIME ( #352, #471 ) ;
#19 = DIRECTION ( 'NONE',  ( -0.000000000000000000, -0.000000000000000000, -1.000000000000000000 ) ) ;
#20 = PERSON_AND_ORGANIZATION ( #245, #183 ) ;
#21 = ORIENTED_EDGE ( 'NONE', *, *, #6, .F. ) ;
#22 = PRODUCT_DEFINITION_FORMATION_WITH_SPECIFIED_SOURCE ( 'ANY', '', #83, .NOT_KNOWN. ) ;
#23 = CARTESIAN_POINT ( 'NONE',  ( 0.000000000000000000, 0.000000000000000000, -0.2019129631393294932 ) ) ;
#24 = CIRCLE ( 'NONE', #399, 0.03515625000000000694 ) ;
#25 = PERSON_AND_ORGANIZATION_ROLE ( 'creator' ) ;
#26 = DIRECTION ( 'NONE',  ( -1.000000000000000000, 0.000000000000000000, 0.000000000000000000 ) ) ;
#27 = DIRECTION ( 'NONE',  ( -0.000000000000000000, -0.000000000000000000, -1.000000000000000000 ) ) ;
#28 = ORIENTED_EDGE ( 'NONE', *, *, #335, .F. ) ;
#29 = DIRECTION ( 'NONE',  ( 1.000000000000000000, 1.224646799147353207E-16, 0.000000000000000000 ) ) ;
#30 = CC_DESIGN_DATE_AND_TIME_ASSIGNMENT ( #355, #305, ( #201 ) ) ;
#31 = DIRECTION ( 'NONE',  ( -0.000000000000000000, -0.000000000000000000, -1.000000000000000000 ) ) ;
#32 = AXIS2_PLACEMENT_3D ( 'NONE', #326, #144, #110 ) ;
#33 = VECTOR ( 'NONE', #470, 39.37007874015748143 ) ;
#34 = CARTESIAN_POINT ( 'NONE',  ( 0.2422640624999999603, 2.966879086890593014E-17, -0.2012359375000000172 ) ) ;
#35 = ORIENTED_EDGE ( 'NONE', *, *, #167, .F. ) ;
#36 = DIRECTION ( 'NONE',  ( -0.000000000000000000, -0.000000000000000000, -1.000000000000000000 ) ) ;
#37 = CARTESIAN_POINT ( 'NONE',  ( 1.707404996040164512E-17, 0.000000000000000000, 0.05266205385659510768 ) ) ;
#38 = PRODUCT_DEFINITION ( 'UNKNOWN', '', #22, #233 ) ;
#39 = CC_DESIGN_APPROVAL ( #419, ( #22 ) ) ;
#40 = AXIS2_PLACEMENT_3D ( 'NONE', #48, #99, #234 ) ;
#41 = ORIENTED_EDGE ( 'NONE', *, *, #330, .T. ) ;
#42 = CC_DESIGN_APPROVAL ( #250, ( #38 ) ) ;
#43 = AXIS2_PLACEMENT_3D ( 'NONE', #16, #242, #62 ) ;
#44 = DIRECTION ( 'NONE',  ( -1.000000000000000000, 0.000000000000000000, 0.000000000000000000 ) ) ;
#45 = COORDINATED_UNIVERSAL_TIME_OFFSET ( 6, 0, .BEHIND. ) ;
#46 = ADVANCED_FACE ( 'NONE', ( #393 ), #151, .T. ) ;
#47 = DATE_AND_TIME ( #359, #262 ) ;
#48 = CARTESIAN_POINT ( 'NONE',  ( -1.361260433336188790E-17, 0.000000000000000000, -0.2012359375000000172 ) ) ;
#49 =( GEOMETRIC_REPRESENTATION_CONTEXT ( 3 ) GLOBAL_UNCERTAINTY_ASSIGNED_CONTEXT ( ( #118 ) ) GLOBAL_UNIT_ASSIGNED_CONTEXT ( ( #479, #53, #316 ) ) REPRESENTATION_CONTEXT ( 'NONE', 'WORKASPACE' ) );
#50 = CIRCLE ( 'NONE', #232, 0.001735937499999979901 ) ;
#51 = ADVANCED_FACE ( 'NONE', ( #9, #58 ), #82, .F. ) ;
#52 = ORIENTED_EDGE ( 'NONE', *, *, #385, .F. ) ;
#53 =( NAMED_UNIT ( * ) PLANE_ANGLE_UNIT ( ) SI_UNIT ( $, .RADIAN. ) );
#54 = CYLINDRICAL_SURFACE ( 'NONE', #185, 0.09375000000000009714 ) ;
#55 = ORIENTED_EDGE ( 'NONE', *, *, #413, .F. ) ;
#56 = ADVANCED_FACE ( 'NONE', ( #203 ), #267, .T. ) ;
#57 = PERSON_AND_ORGANIZATION_ROLE ( 'classification_officer' ) ;
#58 = FACE_BOUND ( 'NONE', #283, .T. ) ;
#59 = CARTESIAN_POINT ( 'NONE',  ( -1.361260433336188790E-17, 0.000000000000000000, -0.3005000000000000449 ) ) ;
#60 = PERSON_AND_ORGANIZATION ( #245, #183 ) ;
#61 = DIRECTION ( 'NONE',  ( -0.000000000000000000, -0.000000000000000000, -1.000000000000000000 ) ) ;
#62 = DIRECTION ( 'NONE',  ( -1.000000000000000000, 0.000000000000000000, 0.000000000000000000 ) ) ;
#63 = AXIS2_PLACEMENT_3D ( 'NONE', #457, #222, #119 ) ;
#64 = AXIS2_PLACEMENT_3D ( 'NONE', #106, #115, #447 ) ;
#65 = DIRECTION ( 'NONE',  ( 0.000000000000000000, 0.000000000000000000, -1.000000000000000000 ) ) ;
#66 = DIRECTION ( 'NONE',  ( -1.000000000000000000, 0.000000000000000000, 0.000000000000000000 ) ) ;
#67 = CARTESIAN_POINT ( 'NONE',  ( -1.361260433336188790E-17, 0.000000000000000000, -0.1959843749999999885 ) ) ;
#68 = DIRECTION ( 'NONE',  ( -0.000000000000000000, -0.000000000000000000, -1.000000000000000000 ) ) ;
#69 = ORIENTED_EDGE ( 'NONE', *, *, #335, .T. ) ;
#70 = TOROIDAL_SURFACE ( 'NONE', #386, 0.09726562500000007772, 0.003515624999999998786 ) ;
#71 = VERTEX_POINT ( 'NONE', #101 ) ;
#72 = AXIS2_PLACEMENT_3D ( 'NONE', #460, #480, #378 ) ;
#73 = DIRECTION ( 'NONE',  ( -1.000000000000000000, -1.224646799147347537E-16, 0.000000000000000000 ) ) ;
#74 = ADVANCED_FACE ( 'NONE', ( #243 ), #14, .T. ) ;
#75 = CARTESIAN_POINT ( 'NONE',  ( -1.707404996040164512E-17, 0.000000000000000000, -0.1959843749999999885 ) ) ;
#76 = ORIENTED_EDGE ( 'NONE', *, *, #6, .T. ) ;
#77 = DIRECTION ( 'NONE',  ( -1.000000000000000000, 0.000000000000000000, 0.000000000000000000 ) ) ;
#78 = ORIENTED_EDGE ( 'NONE', *, *, #273, .T. ) ;
#79 = AXIS2_PLACEMENT_3D ( 'NONE', #408, #36, #77 ) ;
#80 = CIRCLE ( 'NONE', #123, 0.2439999999999999669 ) ;
#81 = PRODUCT_RELATED_PRODUCT_CATEGORY ( 'detail', '', ( #83 ) ) ;
#82 = PLANE ( 'NONE',  #486 ) ;
#83 = PRODUCT ( '97484A245_Large-Diameter Low-Profile Domed Head Solid Rivets', '97484A245_Large-Diameter Low-Profile Domed Head Solid Rivets', '', ( #158 ) ) ;
#84 = AXIS2_PLACEMENT_3D ( 'NONE', #453, #293, #173 ) ;
#85 = ORIENTED_EDGE ( 'NONE', *, *, #170, .T. ) ;
#86 = ADVANCED_FACE ( 'NONE', ( #340 ), #112, .T. ) ;
#87 = PERSON_AND_ORGANIZATION ( #245, #183 ) ;
#88 = PERSON_AND_ORGANIZATION_ROLE ( 'design_owner' ) ;
#89 = FACE_OUTER_BOUND ( 'NONE', #149, .T. ) ;
#90 = ORIENTED_EDGE ( 'NONE', *, *, #400, .F. ) ;
#91 = CARTESIAN_POINT ( 'NONE',  ( -1.361260433336188790E-17, 0.000000000000000000, 0.3005000000000000449 ) ) ;
#92 = AXIS2_PLACEMENT_3D ( 'NONE', #59, #276, #394 ) ;
#93 = EDGE_CURVE ( 'NONE', #432, #100, #104, .T. ) ;
#94 = APPLICATION_PROTOCOL_DEFINITION ( 'international standard', 'config_control_design', 1994, #211 ) ;
#95 = DIRECTION ( 'NONE',  ( -0.000000000000000000, -0.000000000000000000, -1.000000000000000000 ) ) ;
#96 = CARTESIAN_POINT ( 'NONE',  ( -0.2439999999999999669, 0.000000000000000000, -0.3005000000000000449 ) ) ;
#97 = APPROVAL_STATUS ( 'not_yet_approved' ) ;
#98 = DIRECTION ( 'NONE',  ( -1.000000000000000000, 0.000000000000000000, 0.000000000000000000 ) ) ;
#99 = DIRECTION ( 'NONE',  ( -0.000000000000000000, -0.000000000000000000, -1.000000000000000000 ) ) ;
#100 = VERTEX_POINT ( 'NONE', #187 ) ;
#101 = CARTESIAN_POINT ( 'NONE',  ( -0.09726562500000009159, 0.000000000000000000, -0.1995000000000000107 ) ) ;
#102 = APPROVAL_PERSON_ORGANIZATION ( #383, #419, #202 ) ;
#103 = DIRECTION ( 'NONE',  ( -1.000000000000000000, 0.000000000000000000, 0.000000000000000000 ) ) ;
#104 = CIRCLE ( 'NONE', #348, 0.09375000000000009714 ) ;
#105 = DIRECTION ( 'NONE',  ( 0.000000000000000000, -1.000000000000000000, 0.000000000000000000 ) ) ;
#106 = CARTESIAN_POINT ( 'NONE',  ( -1.361260433336188790E-17, 0.000000000000000000, -0.1995000000000000107 ) ) ;
#107 = ORIENTED_EDGE ( 'NONE', *, *, #463, .F. ) ;
#108 = CARTESIAN_POINT ( 'NONE',  ( 0.000000000000000000, 0.000000000000000000, -0.2019129631393294932 ) ) ;
#109 = EDGE_LOOP ( 'NONE', ( #351, #475, #317, #354 ) ) ;
#110 = DIRECTION ( 'NONE',  ( 0.000000000000000000, 0.000000000000000000, -1.000000000000000000 ) ) ;
#111 = CIRCLE ( 'NONE', #455, 0.001735937499999979901 ) ;
#112 = TOROIDAL_SURFACE ( 'NONE', #338, 0.2422640624999999603, 0.001735937500000013945 ) ;
#113 = CARTESIAN_POINT ( 'NONE',  ( -1.361260433336188790E-17, 0.000000000000000000, -0.2031704858389740964 ) ) ;
#114 = EDGE_CURVE ( 'NONE', #150, #228, #333, .T. ) ;
#115 = DIRECTION ( 'NONE',  ( -0.000000000000000000, -0.000000000000000000, -1.000000000000000000 ) ) ;
#116 = VERTEX_POINT ( 'NONE', #435 ) ;
#117 = AXIS2_PLACEMENT_3D ( 'NONE', #23, #19, #388 ) ;
#118 = UNCERTAINTY_MEASURE_WITH_UNIT (LENGTH_MEASURE( 1.000000000000000082E-05 ), #479, 'distance_accuracy_value', 'NONE');
#119 = DIRECTION ( 'NONE',  ( -1.000000000000000000, 0.000000000000000000, 0.000000000000000000 ) ) ;
#120 =( LENGTH_UNIT ( ) NAMED_UNIT ( * ) SI_UNIT ( $, .METRE. ) );
#121 = CARTESIAN_POINT ( 'NONE',  ( 0.000000000000000000, 0.000000000000000000, -0.2012359375000000172 ) ) ;
#122 = EDGE_CURVE ( 'NONE', #228, #162, #80, .T. ) ;
#123 = AXIS2_PLACEMENT_3D ( 'NONE', #395, #61, #26 ) ;
#124 = CIRCLE ( 'NONE', #215, 0.003515624999999998786 ) ;
#125 = APPLICATION_PROTOCOL_DEFINITION ( 'international standard', 'config_control_design', 1994, #11 ) ;
#126 = FACE_OUTER_BOUND ( 'NONE', #252, .T. ) ;
#127 = CARTESIAN_POINT ( 'NONE',  ( 0.09726562500000006384, 1.191160363233168616E-17, -0.1995000000000000107 ) ) ;
#128 = TOROIDAL_SURFACE ( 'NONE', #206, 0.05859375000000006939, 0.03515625000000000694 ) ;
#129 = CIRCLE ( 'NONE', #430, 0.2422640624999999603 ) ;
#130 = DIRECTION ( 'NONE',  ( -0.000000000000000000, -0.000000000000000000, -1.000000000000000000 ) ) ;
#131 = CARTESIAN_POINT ( 'NONE',  ( 0.2422640624999999048, 2.966879086890592397E-17, -0.2019129631393294932 ) ) ;
#132 = ORIENTED_EDGE ( 'NONE', *, *, #330, .F. ) ;
#133 = EDGE_CURVE ( 'NONE', #491, #432, #212, .T. ) ;
#134 = VERTEX_POINT ( 'NONE', #136 ) ;
#135 = CARTESIAN_POINT ( 'NONE',  ( -1.361260433336188790E-17, 0.000000000000000000, -0.3005000000000000449 ) ) ;
#136 = CARTESIAN_POINT ( 'NONE',  ( 0.2434607728508303426, 2.984836375908321504E-17, -0.2031704858389740964 ) ) ;
#137 = DIRECTION ( 'NONE',  ( -1.000000000000000000, 0.000000000000000000, 0.000000000000000000 ) ) ;
#138 = CIRCLE ( 'NONE', #255, 0.3531620538565951040 ) ;
#139 = AXIS2_PLACEMENT_3D ( 'NONE', #482, #288, #441 ) ;
#140 = CARTESIAN_POINT ( 'NONE',  ( 0.05859375000000005551, 7.175664838754031076E-18, 0.2653437500000000449 ) ) ;
#141 = EDGE_CURVE ( 'NONE', #71, #100, #300, .T. ) ;
#142 = DIRECTION ( 'NONE',  ( -1.000000000000000000, -1.224646799147352961E-16, 0.000000000000000000 ) ) ;
#143 = AXIS2_PLACEMENT_3D ( 'NONE', #37, #322, #374 ) ;
#144 = DIRECTION ( 'NONE',  ( 0.000000000000000000, -1.000000000000000000, 0.000000000000000000 ) ) ;
#145 = ORIENTED_EDGE ( 'NONE', *, *, #133, .F. ) ;
#146 = CIRCLE ( 'NONE', #484, 0.05859375000000007633 ) ;
#147 = AXIS2_PLACEMENT_3D ( 'NONE', #171, #105, #320 ) ;
#148 = EDGE_CURVE ( 'NONE', #467, #491, #397, .T. ) ;
#149 = EDGE_LOOP ( 'NONE', ( #76, #459, #373, #412 ) ) ;
#150 = VERTEX_POINT ( 'NONE', #402 ) ;
#151 = SPHERICAL_SURFACE ( 'NONE', #72, 0.3531620538565951040 ) ;
#152 = LOCAL_TIME ( 2, 33, 39.00000000000000000, #230 ) ;
#153 = EDGE_CURVE ( 'NONE', #100, #432, #416, .T. ) ;
#154 = CALENDAR_DATE ( 2026, 8, 1 ) ;
#155 = DIRECTION ( 'NONE',  ( -1.000000000000000000, -1.224646799147349756E-16, 0.000000000000000000 ) ) ;
#156 = ORIENTED_EDGE ( 'NONE', *, *, #210, .F. ) ;
#157 = CC_DESIGN_PERSON_AND_ORGANIZATION_ASSIGNMENT ( #434, #25, ( #22 ) ) ;
#158 = MECHANICAL_CONTEXT ( 'NONE', #11, 'mechanical' ) ;
#159 = FACE_OUTER_BOUND ( 'NONE', #472, .T. ) ;
#160 = COORDINATED_UNIVERSAL_TIME_OFFSET ( 6, 0, .BEHIND. ) ;
#161 = DIRECTION ( 'NONE',  ( -1.000000000000000000, 0.000000000000000000, 0.000000000000000000 ) ) ;
#162 = VERTEX_POINT ( 'NONE', #315 ) ;
#163 = LOCAL_TIME ( 2, 33, 39.00000000000000000, #45 ) ;
#164 = COORDINATED_UNIVERSAL_TIME_OFFSET ( 6, 0, .BEHIND. ) ;
#165 = DIRECTION ( 'NONE',  ( -0.000000000000000000, -0.000000000000000000, -1.000000000000000000 ) ) ;
#166 = CYLINDRICAL_SURFACE ( 'NONE', #43, 0.2439999999999999669 ) ;
#167 = EDGE_CURVE ( 'NONE', #162, #228, #461, .T. ) ;
#168 = CARTESIAN_POINT ( 'NONE',  ( 0.09726562500000007772, 0.000000000000000000, -0.1995000000000000107 ) ) ;
#169 = DIRECTION ( 'NONE',  ( -1.000000000000000000, 0.000000000000000000, 0.000000000000000000 ) ) ;
#170 = EDGE_CURVE ( 'NONE', #134, #280, #193, .T. ) ;
#171 = CARTESIAN_POINT ( 'NONE',  ( -0.09726562500000009159, 0.000000000000000000, -0.1959843749999999885 ) ) ;
#172 = FACE_OUTER_BOUND ( 'NONE', #452, .T. ) ;
#173 = DIRECTION ( 'NONE',  ( -1.000000000000000000, 0.000000000000000000, 0.000000000000000000 ) ) ;
#174 = VERTEX_POINT ( 'NONE', #439 ) ;
#175 = DIRECTION ( 'NONE',  ( -0.000000000000000000, -0.000000000000000000, -1.000000000000000000 ) ) ;
#176 = ORIENTED_EDGE ( 'NONE', *, *, #260, .T. ) ;
#177 = DIRECTION ( 'NONE',  ( -1.224646799147353207E-16, 1.000000000000000000, 0.000000000000000000 ) ) ;
#178 = CARTESIAN_POINT ( 'NONE',  ( 0.09726562500000006384, 1.191160363233168616E-17, -0.1959843749999999885 ) ) ;
#179 = EDGE_CURVE ( 'NONE', #491, #467, #7, .T. ) ;
#180 = AXIS2_PLACEMENT_3D ( 'NONE', #67, #380, #465 ) ;
#181 = CC_DESIGN_PERSON_AND_ORGANIZATION_ASSIGNMENT ( #392, #57, ( #201 ) ) ;
#182 = VERTEX_POINT ( 'NONE', #476 ) ;
#183 = ORGANIZATION ( 'UNSPECIFIED', 'UNSPECIFIED', '' ) ;
#184 = EDGE_CURVE ( 'NONE', #228, #116, #209, .T. ) ;
#185 = AXIS2_PLACEMENT_3D ( 'NONE', #135, #318, #169 ) ;
#186 = LENGTH_MEASURE_WITH_UNIT ( LENGTH_MEASURE( 0.02539999999999999897 ), #120 );
#187 = CARTESIAN_POINT ( 'NONE',  ( -0.09375000000000011102, 0.000000000000000000, -0.1959843749999999885 ) ) ;
#188 = ADVANCED_FACE ( 'NONE', ( #89 ), #376, .T. ) ;
#189 = APPROVAL_ROLE ( '' ) ;
#190 = ADVANCED_FACE ( 'NONE', ( #362 ), #166, .T. ) ;
#191 = CALENDAR_DATE ( 2026, 8, 1 ) ;
#192 = AXIS2_PLACEMENT_3D ( 'NONE', #75, #298, #442 ) ;
#193 = CIRCLE ( 'NONE', #247, 0.3531620538565951040 ) ;
#194 = CARTESIAN_POINT ( 'NONE',  ( -1.361260433336188790E-17, 0.000000000000000000, -0.1995000000000000107 ) ) ;
#195 = CARTESIAN_POINT ( 'NONE',  ( -0.2422640624999999048, 0.000000000000000000, -0.2019129631393294932 ) ) ;
#196 = ORIENTED_EDGE ( 'NONE', *, *, #363, .T. ) ;
#197 = APPROVAL_DATE_TIME ( #18, #250 ) ;
#198 = EDGE_LOOP ( 'NONE', ( #28, #414, #257, #449 ) ) ;
#199 = DIRECTION ( 'NONE',  ( -1.000000000000000000, 0.000000000000000000, 0.000000000000000000 ) ) ;
#200 = EDGE_LOOP ( 'NONE', ( #145, #404, #294, #311 ) ) ;
#201 = SECURITY_CLASSIFICATION ( '', '', #382 ) ;
#202 = APPROVAL_ROLE ( '' ) ;
#203 = FACE_OUTER_BOUND ( 'NONE', #198, .T. ) ;
#204 = ADVANCED_FACE ( 'NONE', ( #436 ), #353, .F. ) ;
#205 = CARTESIAN_POINT ( 'NONE',  ( 0.05859375000000006245, 0.000000000000000000, 0.3005000000000000449 ) ) ;
#206 = AXIS2_PLACEMENT_3D ( 'NONE', #443, #490, #218 ) ;
#207 = ORIENTED_EDGE ( 'NONE', *, *, #363, .F. ) ;
#208 = DIRECTION ( 'NONE',  ( -0.000000000000000000, -0.000000000000000000, -1.000000000000000000 ) ) ;
#209 = LINE ( 'NONE', #96, #456 ) ;
#210 = EDGE_CURVE ( 'NONE', #291, #134, #50, .T. ) ;
#211 = APPLICATION_CONTEXT ( 'configuration controlled 3d designs of mechanical parts and assemblies' ) ;
#212 = LINE ( 'NONE', #366, #473 ) ;
#213 = DIRECTION ( 'NONE',  ( -1.224646799147353207E-16, 1.000000000000000000, 0.000000000000000000 ) ) ;
#214 = CARTESIAN_POINT ( 'NONE',  ( 1.707404996040164512E-17, 0.000000000000000000, 0.05266205385659510768 ) ) ;
#215 = AXIS2_PLACEMENT_3D ( 'NONE', #178, #177, #405 ) ;
#216 = EDGE_LOOP ( 'NONE', ( #156, #176, #78, #52 ) ) ;
#217 = FACE_OUTER_BOUND ( 'NONE', #216, .T. ) ;
#218 = DIRECTION ( 'NONE',  ( -1.000000000000000000, 0.000000000000000000, 0.000000000000000000 ) ) ;
#219 = CIRCLE ( 'NONE', #314, 0.2422640624999999603 ) ;
#220 = DIRECTION ( 'NONE',  ( -1.000000000000000000, 0.000000000000000000, 0.000000000000000000 ) ) ;
#221 = EDGE_CURVE ( 'NONE', #467, #100, #270, .T. ) ;
#222 = DIRECTION ( 'NONE',  ( -0.000000000000000000, -0.000000000000000000, -1.000000000000000000 ) ) ;
#223 = TOROIDAL_SURFACE ( 'NONE', #347, 0.2422640624999999048, 0.001735937499999984238 ) ;
#224 = DIRECTION ( 'NONE',  ( -0.000000000000000000, -0.000000000000000000, -1.000000000000000000 ) ) ;
#225 = PERSON_AND_ORGANIZATION_ROLE ( 'design_supplier' ) ;
#226 = DATE_AND_TIME ( #271, #313 ) ;
#227 = DIRECTION ( 'NONE',  ( -1.000000000000000000, 0.000000000000000000, 0.000000000000000000 ) ) ;
#228 = VERTEX_POINT ( 'NONE', #284 ) ;
#229 = ORIENTED_EDGE ( 'NONE', *, *, #184, .F. ) ;
#230 = COORDINATED_UNIVERSAL_TIME_OFFSET ( 6, 0, .BEHIND. ) ;
#231 = CIRCLE ( 'NONE', #64, 0.09726562500000007772 ) ;
#232 = AXIS2_PLACEMENT_3D ( 'NONE', #131, #246, #155 ) ;
#233 = DESIGN_CONTEXT ( 'detailed design', #211, 'design' ) ;
#234 = DIRECTION ( 'NONE',  ( -1.000000000000000000, 0.000000000000000000, 0.000000000000000000 ) ) ;
#235 = ORIENTED_EDGE ( 'NONE', *, *, #417, .T. ) ;
#236 = EDGE_CURVE ( 'NONE', #162, #291, #401, .T. ) ;
#237 = ORIENTED_EDGE ( 'NONE', *, *, #4, .T. ) ;
#238 = DIRECTION ( 'NONE',  ( -0.000000000000000000, -0.000000000000000000, -1.000000000000000000 ) ) ;
#239 = VERTEX_POINT ( 'NONE', #127 ) ;
#240 = CC_DESIGN_PERSON_AND_ORGANIZATION_ASSIGNMENT ( #87, #225, ( #22 ) ) ;
#241 = DIRECTION ( 'NONE',  ( 0.000000000000000000, -1.000000000000000000, 0.000000000000000000 ) ) ;
#242 = DIRECTION ( 'NONE',  ( -0.000000000000000000, -0.000000000000000000, -1.000000000000000000 ) ) ;
#243 = FACE_OUTER_BOUND ( 'NONE', #328, .T. ) ;
#244 = EDGE_CURVE ( 'NONE', #150, #343, #129, .T. ) ;
#245 = PERSON ( 'UNSPECIFIED', 'UNSPECIFIED', 'UNSPECIFIED', ('UNSPECIFIED'), ('UNSPECIFIED'), ('UNSPECIFIED') ) ;
#246 = DIRECTION ( 'NONE',  ( -1.224646799147353207E-16, 1.000000000000000000, 0.000000000000000000 ) ) ;
#247 = AXIS2_PLACEMENT_3D ( 'NONE', #350, #279, #384 ) ;
#248 = DIRECTION ( 'NONE',  ( -0.000000000000000000, -0.000000000000000000, -1.000000000000000000 ) ) ;
#249 = CARTESIAN_POINT ( 'NONE',  ( -0.2434607728508303426, 0.000000000000000000, -0.2031704858389740964 ) ) ;
#250 = APPROVAL ( #424, 'UNSPECIFIED' ) ;
#251 = DIRECTION ( 'NONE',  ( -1.000000000000000000, 0.000000000000000000, 0.000000000000000000 ) ) ;
#252 = EDGE_LOOP ( 'NONE', ( #410, #264, #21, #229 ) ) ;
#253 = ORIENTED_EDGE ( 'NONE', *, *, #153, .T. ) ;
#254 = DIRECTION ( 'NONE',  ( -1.000000000000000000, 0.000000000000000000, 0.000000000000000000 ) ) ;
#255 = AXIS2_PLACEMENT_3D ( 'NONE', #214, #365, #29 ) ;
#256 = ADVANCED_FACE ( 'NONE', ( #159 ), #54, .T. ) ;
#257 = ORIENTED_EDGE ( 'NONE', *, *, #413, .T. ) ;
#258 = DIRECTION ( 'NONE',  ( -0.000000000000000000, -0.000000000000000000, -1.000000000000000000 ) ) ;
#259 = EDGE_LOOP ( 'NONE', ( #292, #107 ) ) ;
#260 = EDGE_CURVE ( 'NONE', #291, #116, #409, .T. ) ;
#261 = SPHERICAL_SURFACE ( 'NONE', #143, 0.3531620538565951040 ) ;
#262 = LOCAL_TIME ( 2, 33, 39.00000000000000000, #277 ) ;
#263 = AXIS2_PLACEMENT_3D ( 'NONE', #205, #272, #161 ) ;
#264 = ORIENTED_EDGE ( 'NONE', *, *, #236, .T. ) ;
#265 = ORIENTED_EDGE ( 'NONE', *, *, #122, .F. ) ;
#266 = ORIENTED_EDGE ( 'NONE', *, *, #244, .F. ) ;
#267 = TOROIDAL_SURFACE ( 'NONE', #63, 0.05859375000000006939, 0.03515625000000000694 ) ;
#268 = AXIS2_PLACEMENT_3D ( 'NONE', #113, #258, #137 ) ;
#269 = DIRECTION ( 'NONE',  ( 1.000000000000000000, 0.000000000000000000, 0.000000000000000000 ) ) ;
#270 = LINE ( 'NONE', #396, #33 ) ;
#271 = CALENDAR_DATE ( 2026, 8, 1 ) ;
#272 = DIRECTION ( 'NONE',  ( -0.000000000000000000, 0.000000000000000000, -1.000000000000000000 ) ) ;
#273 = EDGE_CURVE ( 'NONE', #116, #445, #111, .T. ) ;
#274 = EDGE_LOOP ( 'NONE', ( #207, #488, #462, #444 ) ) ;
#275 = AXIS2_PLACEMENT_3D ( 'NONE', #301, #95, #438 ) ;
#276 = DIRECTION ( 'NONE',  ( -0.000000000000000000, -0.000000000000000000, -1.000000000000000000 ) ) ;
#277 = COORDINATED_UNIVERSAL_TIME_OFFSET ( 6, 0, .BEHIND. ) ;
#278 = DIRECTION ( 'NONE',  ( -1.000000000000000000, 0.000000000000000000, 0.000000000000000000 ) ) ;
#279 = DIRECTION ( 'NONE',  ( 0.000000000000000000, 1.000000000000000000, -0.000000000000000000 ) ) ;
#280 = VERTEX_POINT ( 'NONE', #468 ) ;
#281 = ADVANCED_FACE ( 'NONE', ( #126 ), #428, .T. ) ;
#282 = PERSON_AND_ORGANIZATION ( #245, #183 ) ;
#283 = EDGE_LOOP ( 'NONE', ( #331, #196 ) ) ;
#284 = CARTESIAN_POINT ( 'NONE',  ( -0.2439999999999999669, 0.000000000000000000, -0.2012359375000000172 ) ) ;
#285 = ORIENTED_EDGE ( 'NONE', *, *, #319, .F. ) ;
#286 = CC_DESIGN_APPROVAL ( #437, ( #201 ) ) ;
#287 = EDGE_CURVE ( 'NONE', #174, #182, #337, .T. ) ;
#288 = DIRECTION ( 'NONE',  ( -0.000000000000000000, -0.000000000000000000, -1.000000000000000000 ) ) ;
#289 = CARTESIAN_POINT ( 'NONE',  ( 0.09375000000000006939, 1.148106374200644787E-17, -0.1959843749999999885 ) ) ;
#290 = AXIS2_PLACEMENT_3D ( 'NONE', #398, #241, #65 ) ;
#291 = VERTEX_POINT ( 'NONE', #367 ) ;
#292 = ORIENTED_EDGE ( 'NONE', *, *, #287, .F. ) ;
#293 = DIRECTION ( 'NONE',  ( -0.000000000000000000, -0.000000000000000000, -1.000000000000000000 ) ) ;
#294 = ORIENTED_EDGE ( 'NONE', *, *, #221, .T. ) ;
#295 = CYLINDRICAL_SURFACE ( 'NONE', #84, 0.09375000000000009714 ) ;
#296 = CIRCLE ( 'NONE', #370, 0.001735937500000013945 ) ;
#297 = ADVANCED_FACE ( 'NONE', ( #483 ), #261, .T. ) ;
#298 = DIRECTION ( 'NONE',  ( -0.000000000000000000, -0.000000000000000000, -1.000000000000000000 ) ) ;
#299 = CIRCLE ( 'NONE', #79, 0.2434607728508303426 ) ;
#300 = CIRCLE ( 'NONE', #147, 0.003515625000000015699 ) ;
#301 = CARTESIAN_POINT ( 'NONE',  ( -1.361260433336188790E-17, 0.000000000000000000, -0.2019129631393294932 ) ) ;
#302 = CARTESIAN_POINT ( 'NONE',  ( -1.361260433336188790E-17, 0.000000000000000000, -0.1995000000000000107 ) ) ;
#303 = ORIENTED_EDGE ( 'NONE', *, *, #221, .F. ) ;
#304 = AXIS2_PLACEMENT_3D ( 'NONE', #121, #208, #44 ) ;
#305 = DATE_TIME_ROLE ( 'classification_date' ) ;
#306 = DIRECTION ( 'NONE',  ( -0.000000000000000000, -0.000000000000000000, -1.000000000000000000 ) ) ;
#307 = SHAPE_DEFINITION_REPRESENTATION ( #446, #344 ) ;
#308 = DIRECTION ( 'NONE',  ( 0.000000000000000000, 0.000000000000000000, -1.000000000000000000 ) ) ;
#309 = DATE_TIME_ROLE ( 'creation_date' ) ;
#310 = CARTESIAN_POINT ( 'NONE',  ( -1.361260433336188790E-17, 0.000000000000000000, 0.2653437500000000449 ) ) ;
#311 = ORIENTED_EDGE ( 'NONE', *, *, #93, .F. ) ;
#312 = CARTESIAN_POINT ( 'NONE',  ( -1.361260433336188790E-17, 0.000000000000000000, -0.1959843749999999885 ) ) ;
#313 = LOCAL_TIME ( 2, 33, 39.00000000000000000, #160 ) ;
#314 = AXIS2_PLACEMENT_3D ( 'NONE', #302, #224, #458 ) ;
#315 = CARTESIAN_POINT ( 'NONE',  ( 0.2439999999999999669, 2.988138189919541372E-17, -0.2012359375000000172 ) ) ;
#316 =( NAMED_UNIT ( * ) SI_UNIT ( $, .STERADIAN. ) SOLID_ANGLE_UNIT ( ) );
#317 = ORIENTED_EDGE ( 'NONE', *, *, #184, .T. ) ;
#318 = DIRECTION ( 'NONE',  ( -0.000000000000000000, -0.000000000000000000, -1.000000000000000000 ) ) ;
#319 = EDGE_CURVE ( 'NONE', #343, #162, #296, .T. ) ;
#320 = DIRECTION ( 'NONE',  ( 0.000000000000000000, 0.000000000000000000, -1.000000000000000000 ) ) ;
#321 = DIRECTION ( 'NONE',  ( -1.224646799147353207E-16, 1.000000000000000000, 0.000000000000000000 ) ) ;
#322 = DIRECTION ( 'NONE',  ( 0.000000000000000000, -1.000000000000000000, -0.000000000000000000 ) ) ;
#323 = AXIS2_PLACEMENT_3D ( 'NONE', #427, #431, #269 ) ;
#324 = VECTOR ( 'NONE', #238, 39.37007874015748143 ) ;
#325 = ADVANCED_FACE ( 'NONE', ( #217 ), #223, .T. ) ;
#326 = CARTESIAN_POINT ( 'NONE',  ( -0.05859375000000009021, 0.000000000000000000, 0.2653437500000000449 ) ) ;
#327 = EDGE_LOOP ( 'NONE', ( #1, #41, #390 ) ) ;
#328 = EDGE_LOOP ( 'NONE', ( #423, #17, #265, #489 ) ) ;
#329 = FACE_OUTER_BOUND ( 'NONE', #200, .T. ) ;
#330 = EDGE_CURVE ( 'NONE', #445, #280, #138, .T. ) ;
#331 = ORIENTED_EDGE ( 'NONE', *, *, #400, .T. ) ;
#332 = CARTESIAN_POINT ( 'NONE',  ( -1.707404996040164512E-17, 0.000000000000000000, -0.1959843749999999885 ) ) ;
#333 = CIRCLE ( 'NONE', #290, 0.001735937500000013945 ) ;
#334 = CIRCLE ( 'NONE', #32, 0.03515625000000002082 ) ;
#335 = EDGE_CURVE ( 'NONE', #182, #491, #24, .T. ) ;
#336 = EDGE_CURVE ( 'NONE', #239, #432, #124, .T. ) ;
#337 = CIRCLE ( 'NONE', #379, 0.05859375000000007633 ) ;
#338 = AXIS2_PLACEMENT_3D ( 'NONE', #356, #165, #98 ) ;
#339 = ADVANCED_FACE ( 'NONE', ( #369 ), #70, .F. ) ;
#340 = FACE_OUTER_BOUND ( 'NONE', #478, .T. ) ;
#341 = MANIFOLD_SOLID_BREP ( 'Revolve1', #387 ) ;
#342 = ADVANCED_FACE ( 'NONE', ( #329 ), #295, .T. ) ;
#343 = VERTEX_POINT ( 'NONE', #492 ) ;
#344 = ADVANCED_BREP_SHAPE_REPRESENTATION ( '97484A245_Large-Diameter Low-Profile Domed Head Solid Rivets', ( #341, #323 ), #49 ) ;
#345 = ORIENTED_EDGE ( 'NONE', *, *, #141, .T. ) ;
#346 = PERSON_AND_ORGANIZATION ( #245, #183 ) ;
#347 = AXIS2_PLACEMENT_3D ( 'NONE', #108, #487, #251 ) ;
#348 = AXIS2_PLACEMENT_3D ( 'NONE', #312, #130, #278 ) ;
#349 = DATE_AND_TIME ( #191, #152 ) ;
#350 = CARTESIAN_POINT ( 'NONE',  ( 1.707404996040164512E-17, 0.000000000000000000, 0.05266205385659510768 ) ) ;
#351 = ORIENTED_EDGE ( 'NONE', *, *, #236, .F. ) ;
#352 = CALENDAR_DATE ( 2026, 8, 1 ) ;
#353 = PLANE ( 'NONE',  #263 ) ;
#354 = ORIENTED_EDGE ( 'NONE', *, *, #260, .F. ) ;
#355 = DATE_AND_TIME ( #154, #163 ) ;
#356 = CARTESIAN_POINT ( 'NONE',  ( 0.000000000000000000, 0.000000000000000000, -0.2012359375000000172 ) ) ;
#357 = DIRECTION ( 'NONE',  ( -0.000000000000000000, -0.000000000000000000, -1.000000000000000000 ) ) ;
#358 = EDGE_LOOP ( 'NONE', ( #266, #5 ) ) ;
#359 = CALENDAR_DATE ( 2026, 8, 1 ) ;
#360 = DIRECTION ( 'NONE',  ( -1.000000000000000000, 0.000000000000000000, 0.000000000000000000 ) ) ;
#361 = AXIS2_PLACEMENT_3D ( 'NONE', #450, #175, #2 ) ;
#362 = FACE_OUTER_BOUND ( 'NONE', #109, .T. ) ;
#363 = EDGE_CURVE ( 'NONE', #239, #71, #421, .T. ) ;
#364 = ORIENTED_EDGE ( 'NONE', *, *, #336, .F. ) ;
#365 = DIRECTION ( 'NONE',  ( 1.224646799147353207E-16, -1.000000000000000000, 0.000000000000000000 ) ) ;
#366 = CARTESIAN_POINT ( 'NONE',  ( 0.09375000000000006939, 1.148106374200644787E-17, -0.3005000000000000449 ) ) ;
#367 = CARTESIAN_POINT ( 'NONE',  ( 0.2439999999999999392, 2.988138189919541372E-17, -0.2019129631393294932 ) ) ;
#368 = ADVANCED_FACE ( 'NONE', ( #172 ), #128, .T. ) ;
#369 = FACE_OUTER_BOUND ( 'NONE', #274, .T. ) ;
#370 = AXIS2_PLACEMENT_3D ( 'NONE', #34, #321, #73 ) ;
#371 = CIRCLE ( 'NONE', #275, 0.2439999999999999392 ) ;
#372 = ORIENTED_EDGE ( 'NONE', *, *, #114, .T. ) ;
#373 = ORIENTED_EDGE ( 'NONE', *, *, #417, .F. ) ;
#374 = DIRECTION ( 'NONE',  ( 1.000000000000000000, 0.000000000000000000, 0.000000000000000000 ) ) ;
#375 = APPROVAL_PERSON_ORGANIZATION ( #20, #437, #464 ) ;
#376 = TOROIDAL_SURFACE ( 'NONE', #117, 0.2422640624999999048, 0.001735937499999984238 ) ;
#377 = CARTESIAN_POINT ( 'NONE',  ( -0.09375000000000009714, 0.000000000000000000, 0.2653437500000000449 ) ) ;
#378 = DIRECTION ( 'NONE',  ( 1.000000000000000000, 0.000000000000000000, 0.000000000000000000 ) ) ;
#379 = AXIS2_PLACEMENT_3D ( 'NONE', #91, #433, #199 ) ;
#380 = DIRECTION ( 'NONE',  ( -0.000000000000000000, -0.000000000000000000, -1.000000000000000000 ) ) ;
#381 = DIRECTION ( 'NONE',  ( -0.000000000000000000, 0.000000000000000000, -1.000000000000000000 ) ) ;
#382 = SECURITY_CLASSIFICATION_LEVEL ( 'unclassified' ) ;
#383 = PERSON_AND_ORGANIZATION ( #245, #183 ) ;
#384 = DIRECTION ( 'NONE',  ( 0.000000000000000000, 0.000000000000000000, 1.000000000000000000 ) ) ;
#385 = EDGE_CURVE ( 'NONE', #134, #445, #3, .T. ) ;
#386 = AXIS2_PLACEMENT_3D ( 'NONE', #332, #31, #254 ) ;
#387 = CLOSED_SHELL ( 'NONE', ( #297, #188, #281, #74, #339, #256, #368, #204, #56, #342, #422, #51, #86, #190, #325, #46 ) ) ;
#388 = DIRECTION ( 'NONE',  ( -1.000000000000000000, 0.000000000000000000, 0.000000000000000000 ) ) ;
#389 = DIMENSIONAL_EXPONENTS ( 1.000000000000000000, 0.000000000000000000, 0.000000000000000000, 0.000000000000000000, 0.000000000000000000, 0.000000000000000000, 0.000000000000000000 ) ;
#390 = ORIENTED_EDGE ( 'NONE', *, *, #170, .F. ) ;
#391 = ORIENTED_EDGE ( 'NONE', *, *, #287, .T. ) ;
#392 = PERSON_AND_ORGANIZATION ( #245, #183 ) ;
#393 = FACE_OUTER_BOUND ( 'NONE', #454, .T. ) ;
#394 = DIRECTION ( 'NONE',  ( -1.000000000000000000, 0.000000000000000000, 0.000000000000000000 ) ) ;
#395 = CARTESIAN_POINT ( 'NONE',  ( -1.361260433336188790E-17, 0.000000000000000000, -0.2012359375000000172 ) ) ;
#396 = CARTESIAN_POINT ( 'NONE',  ( -0.09375000000000011102, 0.000000000000000000, -0.3005000000000000449 ) ) ;
#397 = CIRCLE ( 'NONE', #139, 0.09375000000000006939 ) ;
#398 = CARTESIAN_POINT ( 'NONE',  ( -0.2422640624999999603, 0.000000000000000000, -0.2012359375000000172 ) ) ;
#399 = AXIS2_PLACEMENT_3D ( 'NONE', #140, #213, #142 ) ;
#400 = EDGE_CURVE ( 'NONE', #71, #239, #231, .T. ) ;
#401 = LINE ( 'NONE', #425, #324 ) ;
#402 = CARTESIAN_POINT ( 'NONE',  ( -0.2422640624999999603, 0.000000000000000000, -0.1995000000000000107 ) ) ;
#403 = CARTESIAN_POINT ( 'NONE',  ( -1.361260433336188790E-17, 0.000000000000000000, 0.3005000000000000449 ) ) ;
#404 = ORIENTED_EDGE ( 'NONE', *, *, #179, .T. ) ;
#405 = DIRECTION ( 'NONE',  ( -1.000000000000000000, -1.224646799147350989E-16, 0.000000000000000000 ) ) ;
#406 = ORIENTED_EDGE ( 'NONE', *, *, #153, .F. ) ;
#407 = CC_DESIGN_PERSON_AND_ORGANIZATION_ASSIGNMENT ( #60, #474, ( #38 ) ) ;
#408 = CARTESIAN_POINT ( 'NONE',  ( -1.361260433336188790E-17, 0.000000000000000000, -0.2031704858389740964 ) ) ;
#409 = CIRCLE ( 'NONE', #451, 0.2439999999999999392 ) ;
#410 = ORIENTED_EDGE ( 'NONE', *, *, #122, .T. ) ;
#411 = FACE_OUTER_BOUND ( 'NONE', #466, .T. ) ;
#412 = ORIENTED_EDGE ( 'NONE', *, *, #273, .F. ) ;
#413 = EDGE_CURVE ( 'NONE', #174, #467, #334, .T. ) ;
#414 = ORIENTED_EDGE ( 'NONE', *, *, #463, .T. ) ;
#415 = TOROIDAL_SURFACE ( 'NONE', #192, 0.09726562500000007772, 0.003515624999999998786 ) ;
#416 = CIRCLE ( 'NONE', #180, 0.09375000000000009714 ) ;
#417 = EDGE_CURVE ( 'NONE', #445, #134, #299, .T. ) ;
#418 = ORIENTED_EDGE ( 'NONE', *, *, #133, .T. ) ;
#419 = APPROVAL ( #469, 'UNSPECIFIED' ) ;
#420 = ORIENTED_EDGE ( 'NONE', *, *, #148, .T. ) ;
#421 = CIRCLE ( 'NONE', #361, 0.09726562500000007772 ) ;
#422 = ADVANCED_FACE ( 'NONE', ( #411 ), #415, .F. ) ;
#423 = ORIENTED_EDGE ( 'NONE', *, *, #244, .T. ) ;
#424 = APPROVAL_STATUS ( 'not_yet_approved' ) ;
#425 = CARTESIAN_POINT ( 'NONE',  ( 0.2439999999999999669, 2.988138189919541372E-17, -0.3005000000000000449 ) ) ;
#426 = ORIENTED_EDGE ( 'NONE', *, *, #148, .F. ) ;
#427 = CARTESIAN_POINT ( 'NONE',  ( 0.000000000000000000, 0.000000000000000000, 0.000000000000000000 ) ) ;
#428 = CYLINDRICAL_SURFACE ( 'NONE', #92, 0.2439999999999999669 ) ;
#429 = APPROVAL_PERSON_ORGANIZATION ( #346, #250, #189 ) ;
#430 = AXIS2_PLACEMENT_3D ( 'NONE', #194, #27, #227 ) ;
#431 = DIRECTION ( 'NONE',  ( 0.000000000000000000, 0.000000000000000000, 1.000000000000000000 ) ) ;
#432 = VERTEX_POINT ( 'NONE', #289 ) ;
#433 = DIRECTION ( 'NONE',  ( -0.000000000000000000, -0.000000000000000000, -1.000000000000000000 ) ) ;
#434 = PERSON_AND_ORGANIZATION ( #245, #183 ) ;
#435 = CARTESIAN_POINT ( 'NONE',  ( -0.2439999999999999392, 0.000000000000000000, -0.2019129631393294932 ) ) ;
#436 = FACE_OUTER_BOUND ( 'NONE', #259, .T. ) ;
#437 = APPROVAL ( #97, 'UNSPECIFIED' ) ;
#438 = DIRECTION ( 'NONE',  ( -1.000000000000000000, 0.000000000000000000, 0.000000000000000000 ) ) ;
#439 = CARTESIAN_POINT ( 'NONE',  ( -0.05859375000000009714, 0.000000000000000000, 0.3005000000000000449 ) ) ;
#440 = AXIS2_PLACEMENT_3D ( 'NONE', #310, #357, #103 ) ;
#441 = DIRECTION ( 'NONE',  ( -1.000000000000000000, 0.000000000000000000, 0.000000000000000000 ) ) ;
#442 = DIRECTION ( 'NONE',  ( -1.000000000000000000, 0.000000000000000000, 0.000000000000000000 ) ) ;
#443 = CARTESIAN_POINT ( 'NONE',  ( -1.707404996040164512E-17, 0.000000000000000000, 0.2653437500000000449 ) ) ;
#444 = ORIENTED_EDGE ( 'NONE', *, *, #141, .F. ) ;
#445 = VERTEX_POINT ( 'NONE', #249 ) ;
#446 = PRODUCT_DEFINITION_SHAPE ( 'NONE', 'NONE',  #38 ) ;
#447 = DIRECTION ( 'NONE',  ( -1.000000000000000000, 0.000000000000000000, 0.000000000000000000 ) ) ;
#448 = CC_DESIGN_SECURITY_CLASSIFICATION ( #201, ( #22 ) ) ;
#449 = ORIENTED_EDGE ( 'NONE', *, *, #179, .F. ) ;
#450 = CARTESIAN_POINT ( 'NONE',  ( -1.361260433336188790E-17, 0.000000000000000000, -0.1995000000000000107 ) ) ;
#451 = AXIS2_PLACEMENT_3D ( 'NONE', #10, #481, #66 ) ;
#452 = EDGE_LOOP ( 'NONE', ( #391, #69, #426, #55 ) ) ;
#453 = CARTESIAN_POINT ( 'NONE',  ( -1.361260433336188790E-17, 0.000000000000000000, -0.3005000000000000449 ) ) ;
#454 = EDGE_LOOP ( 'NONE', ( #132, #235, #85 ) ) ;
#455 = AXIS2_PLACEMENT_3D ( 'NONE', #195, #13, #308 ) ;
#456 = VECTOR ( 'NONE', #306, 39.37007874015748143 ) ;
#457 = CARTESIAN_POINT ( 'NONE',  ( -1.707404996040164512E-17, 0.000000000000000000, 0.2653437500000000449 ) ) ;
#458 = DIRECTION ( 'NONE',  ( -1.000000000000000000, 0.000000000000000000, 0.000000000000000000 ) ) ;
#459 = ORIENTED_EDGE ( 'NONE', *, *, #210, .T. ) ;
#460 = CARTESIAN_POINT ( 'NONE',  ( 1.707404996040164512E-17, 0.000000000000000000, 0.05266205385659510768 ) ) ;
#461 = CIRCLE ( 'NONE', #40, 0.2439999999999999669 ) ;
#462 = ORIENTED_EDGE ( 'NONE', *, *, #93, .T. ) ;
#463 = EDGE_CURVE ( 'NONE', #182, #174, #146, .T. ) ;
#464 = APPROVAL_ROLE ( '' ) ;
#465 = DIRECTION ( 'NONE',  ( -1.000000000000000000, 0.000000000000000000, 0.000000000000000000 ) ) ;
#466 = EDGE_LOOP ( 'NONE', ( #364, #90, #345, #253 ) ) ;
#467 = VERTEX_POINT ( 'NONE', #377 ) ;
#468 = CARTESIAN_POINT ( 'NONE',  ( 3.869898890219086305E-17, 0.000000000000000000, -0.3004999999999999893 ) ) ;
#469 = APPROVAL_STATUS ( 'not_yet_approved' ) ;
#470 = DIRECTION ( 'NONE',  ( -0.000000000000000000, -0.000000000000000000, -1.000000000000000000 ) ) ;
#471 = LOCAL_TIME ( 2, 33, 39.00000000000000000, #164 ) ;
#472 = EDGE_LOOP ( 'NONE', ( #420, #418, #406, #303 ) ) ;
#473 = VECTOR ( 'NONE', #248, 39.37007874015748143 ) ;
#474 = PERSON_AND_ORGANIZATION_ROLE ( 'creator' ) ;
#475 = ORIENTED_EDGE ( 'NONE', *, *, #167, .T. ) ;
#476 = CARTESIAN_POINT ( 'NONE',  ( 0.05859375000000006245, 9.328364290380239474E-18, 0.3005000000000000449 ) ) ;
#477 = CC_DESIGN_PERSON_AND_ORGANIZATION_ASSIGNMENT ( #282, #88, ( #83 ) ) ;
#478 = EDGE_LOOP ( 'NONE', ( #285, #237, #372, #35 ) ) ;
#479 =( CONVERSION_BASED_UNIT ( 'INCH', #186 ) LENGTH_UNIT ( ) NAMED_UNIT ( #389 ) );
#480 = DIRECTION ( 'NONE',  ( 0.000000000000000000, -1.000000000000000000, -0.000000000000000000 ) ) ;
#481 = DIRECTION ( 'NONE',  ( -0.000000000000000000, -0.000000000000000000, -1.000000000000000000 ) ) ;
#482 = CARTESIAN_POINT ( 'NONE',  ( -1.361260433336188790E-17, 0.000000000000000000, 0.2653437500000000449 ) ) ;
#483 = FACE_OUTER_BOUND ( 'NONE', #327, .T. ) ;
#484 = AXIS2_PLACEMENT_3D ( 'NONE', #403, #68, #220 ) ;
#485 = CC_DESIGN_DATE_AND_TIME_ASSIGNMENT ( #226, #309, ( #38 ) ) ;
#486 = AXIS2_PLACEMENT_3D ( 'NONE', #168, #381, #360 ) ;
#487 = DIRECTION ( 'NONE',  ( -0.000000000000000000, -0.000000000000000000, -1.000000000000000000 ) ) ;
#488 = ORIENTED_EDGE ( 'NONE', *, *, #336, .T. ) ;
#489 = ORIENTED_EDGE ( 'NONE', *, *, #114, .F. ) ;
#490 = DIRECTION ( 'NONE',  ( -0.000000000000000000, -0.000000000000000000, -1.000000000000000000 ) ) ;
#491 = VERTEX_POINT ( 'NONE', #8 ) ;
#492 = CARTESIAN_POINT ( 'NONE',  ( 0.2422640624999999603, 2.977508638405066885E-17, -0.1995000000000000107 ) ) ;
ENDSEC;
END-ISO-10303-21;
