ISO-10303-21;
HEADER;
FILE_DESCRIPTION(('Open CASCADE Model'),'2;1');
FILE_NAME('collar','2026-08-30T18:22:44',('Author'),('Open CASCADE'),
  'Open CASCADE STEP processor 7.9','build123d','Unknown');
FILE_SCHEMA(('AUTOMOTIVE_DESIGN { 1 0 10303 214 1 1 1 1 }'));
ENDSEC;
DATA;
#1 = APPLICATION_PROTOCOL_DEFINITION('international standard',
  'automotive_design',2000,#2);
#2 = APPLICATION_CONTEXT(
  'core data for automotive mechanical design processes');
#3 = SHAPE_DEFINITION_REPRESENTATION(#4,#10);
#4 = PRODUCT_DEFINITION_SHAPE('','',#5);
#5 = PRODUCT_DEFINITION('design','',#6,#9);
#6 = PRODUCT_DEFINITION_FORMATION('','',#7);
#7 = PRODUCT('collar','collar','',(#8));
#8 = PRODUCT_CONTEXT('',#2,'mechanical');
#9 = PRODUCT_DEFINITION_CONTEXT('part definition',#2,'design');
#10 = SHAPE_REPRESENTATION('',(#11,#15),#19);
#11 = AXIS2_PLACEMENT_3D('',#12,#13,#14);
#12 = CARTESIAN_POINT('',(0.,0.,0.));
#13 = DIRECTION('',(0.,0.,1.));
#14 = DIRECTION('',(1.,0.,-0.));
#15 = AXIS2_PLACEMENT_3D('',#16,#17,#18);
#16 = CARTESIAN_POINT('',(0.,0.,0.));
#17 = DIRECTION('',(0.,0.,1.));
#18 = DIRECTION('',(1.,0.,-0.));
#19 = ( GEOMETRIC_REPRESENTATION_CONTEXT(3) 
GLOBAL_UNCERTAINTY_ASSIGNED_CONTEXT((#23)) GLOBAL_UNIT_ASSIGNED_CONTEXT(
(#20,#21,#22)) REPRESENTATION_CONTEXT('Context #1',
  '3D Context with UNIT and UNCERTAINTY') );
#20 = ( LENGTH_UNIT() NAMED_UNIT(*) SI_UNIT(.MILLI.,.METRE.) );
#21 = ( NAMED_UNIT(*) PLANE_ANGLE_UNIT() SI_UNIT($,.RADIAN.) );
#22 = ( NAMED_UNIT(*) SI_UNIT($,.STERADIAN.) SOLID_ANGLE_UNIT() );
#23 = UNCERTAINTY_MEASURE_WITH_UNIT(LENGTH_MEASURE(2.E-06),#20,
  'distance_accuracy_value','confusion accuracy');
#24 = PRODUCT_RELATED_PRODUCT_CATEGORY('part',$,(#7));
#25 = SHAPE_DEFINITION_REPRESENTATION(#26,#32);
#26 = PRODUCT_DEFINITION_SHAPE('','',#27);
#27 = PRODUCT_DEFINITION('design','',#28,#31);
#28 = PRODUCT_DEFINITION_FORMATION('','',#29);
#29 = PRODUCT('collar','collar','',(#30));
#30 = PRODUCT_CONTEXT('',#2,'mechanical');
#31 = PRODUCT_DEFINITION_CONTEXT('part definition',#2,'design');
#32 = ADVANCED_BREP_SHAPE_REPRESENTATION('',(#11,#33),#1646);
#33 = MANIFOLD_SOLID_BREP('',#34);
#34 = CLOSED_SHELL('',(#35,#395,#457,#761,#788,#860,#887,#941,#976,#1219
    ,#1386,#1434,#1482,#1509,#1557,#1605,#1632,#1639));
#35 = ADVANCED_FACE('',(#36),#49,.T.);
#36 = FACE_BOUND('',#37,.T.);
#37 = EDGE_LOOP('',(#38,#71,#92,#243,#271,#394));
#38 = ORIENTED_EDGE('',*,*,#39,.T.);
#39 = EDGE_CURVE('',#40,#40,#42,.T.);
#40 = VERTEX_POINT('',#41);
#41 = CARTESIAN_POINT('',(42.286766666667,-1.035727068892E-14,5.8928));
#42 = SURFACE_CURVE('',#43,(#48,#59),.PCURVE_S1.);
#43 = CIRCLE('',#44,42.286766666667);
#44 = AXIS2_PLACEMENT_3D('',#45,#46,#47);
#45 = CARTESIAN_POINT('',(0.,0.,5.8928));
#46 = DIRECTION('',(0.,0.,1.));
#47 = DIRECTION('',(1.,0.,-0.));
#48 = PCURVE('',#49,#54);
#49 = CONICAL_SURFACE('',#50,42.037,9.801821662382E-02);
#50 = AXIS2_PLACEMENT_3D('',#51,#52,#53);
#51 = CARTESIAN_POINT('',(0.,0.,3.3528));
#52 = DIRECTION('',(0.,0.,1.));
#53 = DIRECTION('',(1.,0.,-0.));
#54 = DEFINITIONAL_REPRESENTATION('',(#55),#58);
#55 = B_SPLINE_CURVE_WITH_KNOTS('',1,(#56,#57),.UNSPECIFIED.,.F.,.F.,(2,
    2),(0.,6.28318530718),.PIECEWISE_BEZIER_KNOTS.);
#56 = CARTESIAN_POINT('',(0.,2.54));
#57 = CARTESIAN_POINT('',(6.28318530718,2.54));
#58 = ( GEOMETRIC_REPRESENTATION_CONTEXT(2) 
PARAMETRIC_REPRESENTATION_CONTEXT() REPRESENTATION_CONTEXT('2D SPACE',''
  ) );
#59 = PCURVE('',#60,#65);
#60 = PLANE('',#61);
#61 = AXIS2_PLACEMENT_3D('',#62,#63,#64);
#62 = CARTESIAN_POINT('',(0.,0.,5.8928));
#63 = DIRECTION('',(0.,0.,1.));
#64 = DIRECTION('',(1.,0.,-0.));
#65 = DEFINITIONAL_REPRESENTATION('',(#66),#70);
#66 = CIRCLE('',#67,42.286766666667);
#67 = AXIS2_PLACEMENT_2D('',#68,#69);
#68 = CARTESIAN_POINT('',(0.,0.));
#69 = DIRECTION('',(1.,0.));
#70 = ( GEOMETRIC_REPRESENTATION_CONTEXT(2) 
PARAMETRIC_REPRESENTATION_CONTEXT() REPRESENTATION_CONTEXT('2D SPACE',''
  ) );
#71 = ORIENTED_EDGE('',*,*,#72,.T.);
#72 = EDGE_CURVE('',#40,#73,#75,.T.);
#73 = VERTEX_POINT('',#74);
#74 = CARTESIAN_POINT('',(43.942,-1.076268592963E-14,22.725681355932));
#75 = SEAM_CURVE('',#76,(#80,#86),.PCURVE_S1.);
#76 = LINE('',#77,#78);
#77 = CARTESIAN_POINT('',(42.037,-1.029609549915E-14,3.3528));
#78 = VECTOR('',#79,1.);
#79 = DIRECTION('',(9.786133917753E-02,-2.396911515681E-17,
    0.995200059432));
#80 = PCURVE('',#49,#81);
#81 = DEFINITIONAL_REPRESENTATION('',(#82),#85);
#82 = B_SPLINE_CURVE_WITH_KNOTS('',1,(#83,#84),.UNSPECIFIED.,.F.,.F.,(2,
    2),(2.55225065144,19.466318527935),.PIECEWISE_BEZIER_KNOTS.);
#83 = CARTESIAN_POINT('',(0.,2.54));
#84 = CARTESIAN_POINT('',(0.,19.372881355932));
#85 = ( GEOMETRIC_REPRESENTATION_CONTEXT(2) 
PARAMETRIC_REPRESENTATION_CONTEXT() REPRESENTATION_CONTEXT('2D SPACE',''
  ) );
#86 = PCURVE('',#49,#87);
#87 = DEFINITIONAL_REPRESENTATION('',(#88),#91);
#88 = B_SPLINE_CURVE_WITH_KNOTS('',1,(#89,#90),.UNSPECIFIED.,.F.,.F.,(2,
    2),(2.55225065144,19.466318527935),.PIECEWISE_BEZIER_KNOTS.);
#89 = CARTESIAN_POINT('',(6.28318530718,2.54));
#90 = CARTESIAN_POINT('',(6.28318530718,19.372881355932));
#91 = ( GEOMETRIC_REPRESENTATION_CONTEXT(2) 
PARAMETRIC_REPRESENTATION_CONTEXT() REPRESENTATION_CONTEXT('2D SPACE',''
  ) );
#92 = ORIENTED_EDGE('',*,*,#93,.T.);
#93 = EDGE_CURVE('',#73,#94,#96,.T.);
#94 = VERTEX_POINT('',#95);
#95 = CARTESIAN_POINT('',(46.683845333333,-16.54809611083,79.5528));
#96 = SURFACE_CURVE('',#97,(#142,#190),.PCURVE_S1.);
#97 = B_SPLINE_CURVE_WITH_KNOTS('',7,(#98,#99,#100,#101,#102,#103,#104,
    #105,#106,#107,#108,#109,#110,#111,#112,#113,#114,#115,#116,#117,
    #118,#119,#120,#121,#122,#123,#124,#125,#126,#127,#128,#129,#130,
    #131,#132,#133,#134,#135,#136,#137,#138,#139,#140,#141),
  .UNSPECIFIED.,.F.,.F.,(8,6,6,6,6,6,6,8),(0.,3.469556223171E-02,
    6.643381058768E-02,0.111937695716,0.22274581122,0.45394521137,
    0.760667506802,1.),.UNSPECIFIED.);
#98 = CARTESIAN_POINT('',(43.942,5.639932965096E-15,22.725681355932));
#99 = CARTESIAN_POINT('',(43.942,-0.423848282751,22.725681355932));
#100 = CARTESIAN_POINT('',(43.946086395529,-0.813532004647,
    22.815760568062));
#101 = CARTESIAN_POINT('',(43.953064757753,-1.165726643972,
    22.969589945872));
#102 = CARTESIAN_POINT('',(43.961730915744,-1.482507948801,
    23.160507119181));
#103 = CARTESIAN_POINT('',(43.971334480802,-1.767430685336,
    23.371944935819));
#104 = CARTESIAN_POINT('',(43.981460548344,-2.026300646719,
    23.594754028421));
#105 = CARTESIAN_POINT('',(44.001867117948,-2.487652412786,
    24.043482216916));
#106 = CARTESIAN_POINT('',(44.01200821231,-2.691895524226,
    24.266359072075));
#107 = CARTESIAN_POINT('',(44.02242146642,-2.883742234096,
    24.495083874777));
#108 = CARTESIAN_POINT('',(44.033036770398,-3.065212379865,
    24.728105491073));
#109 = CARTESIAN_POINT('',(44.043809318833,-3.237749196114,
    24.964433137874));
#110 = CARTESIAN_POINT('',(44.05471009151,-3.40270038541,25.20342438053)
  );
#111 = CARTESIAN_POINT('',(44.081532551957,-3.788223001539,
    25.791114397821));
#112 = CARTESIAN_POINT('',(44.09756052979,-4.001622076687,
    26.141982256032));
#113 = CARTESIAN_POINT('',(44.11375968657,-4.204135944062,
    26.496274682653));
#114 = CARTESIAN_POINT('',(44.130095195196,-4.397446498681,
    26.853219667301));
#115 = CARTESIAN_POINT('',(44.146543630044,-4.582763259232,
    27.212298130796));
#116 = CARTESIAN_POINT('',(44.163088962236,-4.761125505148,
    27.573154237882));
#117 = CARTESIAN_POINT('',(44.220231949078,-5.352674726299,
    28.818280170152));
#118 = CARTESIAN_POINT('',(44.261242803464,-5.735264246441,
    29.709881894929));
#119 = CARTESIAN_POINT('',(44.302607697693,-6.092542273642,
    30.60711444515));
#120 = CARTESIAN_POINT('',(44.344258662345,-6.428874119684,
    31.508466194238));
#121 = CARTESIAN_POINT('',(44.38614391117,-6.748284508347,
    32.412788742957));
#122 = CARTESIAN_POINT('',(44.428242042858,-7.053162593656,
    33.319602417387));
#123 = CARTESIAN_POINT('',(44.558818628152,-7.955824115493,
    36.125757943072));
#124 = CARTESIAN_POINT('',(44.647932964839,-8.511510595505,
    38.031709924706));
#125 = CARTESIAN_POINT('',(44.73773919128,-9.030411766059,
    39.943216665224));
#126 = CARTESIAN_POINT('',(44.828170364329,-9.518981310985,
    41.858777954946));
#127 = CARTESIAN_POINT('',(44.919174588207,-9.983273891222,
    43.777237568195));
#128 = CARTESIAN_POINT('',(45.010731747552,-10.42671658944,
    45.698136367106));
#129 = CARTESIAN_POINT('',(45.225032169172,-11.41697021011,
    50.17281832817));
#130 = CARTESIAN_POINT('',(45.348168797744,-11.95010152104,
    52.727863249549));
#131 = CARTESIAN_POINT('',(45.472208030756,-12.45830380331,
    55.285574875038));
#132 = CARTESIAN_POINT('',(45.597124434963,-12.94551960756,
    57.845374045359));
#133 = CARTESIAN_POINT('',(45.722900778299,-13.41454196897,
    60.406869241407));
#134 = CARTESIAN_POINT('',(45.849525239483,-13.86769372776,
    62.969788045181));
#135 = CARTESIAN_POINT('',(46.076453774573,-14.64924738114,
    67.534818259069));
#136 = CARTESIAN_POINT('',(46.176426686135,-14.98318557815,
    69.536395185184));
#137 = CARTESIAN_POINT('',(46.276907030484,-15.30934184016,
    71.538629105955));
#138 = CARTESIAN_POINT('',(46.3778914829,-15.62839310639,73.541442860256
    ));
#139 = CARTESIAN_POINT('',(46.479377367935,-15.94089683676,
    75.544774297302));
#140 = CARTESIAN_POINT('',(46.581362551563,-16.24732467484,
    77.548573498615));
#141 = CARTESIAN_POINT('',(46.683845333333,-16.54809611083,79.5528));
#142 = PCURVE('',#49,#143);
#143 = DEFINITIONAL_REPRESENTATION('',(#144),#189);
#144 = B_SPLINE_CURVE_WITH_KNOTS('',7,(#145,#146,#147,#148,#149,#150,
    #151,#152,#153,#154,#155,#156,#157,#158,#159,#160,#161,#162,#163,
    #164,#165,#166,#167,#168,#169,#170,#171,#172,#173,#174,#175,#176,
    #177,#178,#179,#180,#181,#182,#183,#184,#185,#186,#187,#188),
  .UNSPECIFIED.,.F.,.F.,(8,6,6,6,6,6,6,8),(0.,3.469556223171E-02,
    6.643381058768E-02,0.111937695716,0.22274581122,0.45394521137,
    0.760667506802,1.),.UNSPECIFIED.);
#145 = CARTESIAN_POINT('',(6.28318530718,19.372881355932));
#146 = CARTESIAN_POINT('',(6.273539676968,19.372881355932));
#147 = CARTESIAN_POINT('',(6.264671521616,19.462960568062));
#148 = CARTESIAN_POINT('',(6.256663305113,19.616789945872));
#149 = CARTESIAN_POINT('',(6.249469265602,19.807707119181));
#150 = CARTESIAN_POINT('',(6.243007056098,20.019144935819));
#151 = CARTESIAN_POINT('',(6.237143364647,20.241954028421));
#152 = CARTESIAN_POINT('',(6.226707843232,20.690682216916));
#153 = CARTESIAN_POINT('',(6.222094836723,20.913559072075));
#154 = CARTESIAN_POINT('',(6.217768205257,21.142283874777));
#155 = CARTESIAN_POINT('',(6.213681639104,21.375305491073));
#156 = CARTESIAN_POINT('',(6.209801999867,21.611633137874));
#157 = CARTESIAN_POINT('',(6.20609839866,21.85062438053));
#158 = CARTESIAN_POINT('',(6.197455228469,22.438314397821));
#159 = CARTESIAN_POINT('',(6.192682257104,22.789182256032));
#160 = CARTESIAN_POINT('',(6.188163147048,23.143474682653));
#161 = CARTESIAN_POINT('',(6.183859201257,23.500419667301));
#162 = CARTESIAN_POINT('',(6.17974254597,23.859498130796));
#163 = CARTESIAN_POINT('',(6.175789246319,24.220354237882));
#164 = CARTESIAN_POINT('',(6.162707188661,25.465480170152));
#165 = CARTESIAN_POINT('',(6.154298616293,26.357081894929));
#166 = CARTESIAN_POINT('',(6.146491457989,27.25431444515));
#167 = CARTESIAN_POINT('',(6.13918411977,28.155666194238));
#168 = CARTESIAN_POINT('',(6.132283152128,29.059988742957));
#169 = CARTESIAN_POINT('',(6.125732810012,29.966802417387));
#170 = CARTESIAN_POINT('',(6.106446078911,32.772957943072));
#171 = CARTESIAN_POINT('',(6.094730439031,34.678909924705));
#172 = CARTESIAN_POINT('',(6.083923047897,36.590416665226));
#173 = CARTESIAN_POINT('',(6.073870309452,38.505977954944));
#174 = CARTESIAN_POINT('',(6.064428836317,40.424437568195));
#175 = CARTESIAN_POINT('',(6.055516386454,42.345336367106));
#176 = CARTESIAN_POINT('',(6.035843142138,46.82001832817));
#177 = CARTESIAN_POINT('',(6.025432164605,49.375063249548));
#178 = CARTESIAN_POINT('',(6.015669624279,51.932774875038));
#179 = CARTESIAN_POINT('',(6.006459266982,54.49257404536));
#180 = CARTESIAN_POINT('',(5.9977321404,57.054069241407));
#181 = CARTESIAN_POINT('',(5.989430719568,59.616988045181));
#182 = CARTESIAN_POINT('',(5.975332825946,64.182018259069));
#183 = CARTESIAN_POINT('',(5.969386641579,66.183595185184));
#184 = CARTESIAN_POINT('',(5.963652491819,68.185829105955));
#185 = CARTESIAN_POINT('',(5.95811326143,70.188642860256));
#186 = CARTESIAN_POINT('',(5.952754723635,72.191974297302));
#187 = CARTESIAN_POINT('',(5.947564741746,74.195773498615));
#188 = CARTESIAN_POINT('',(5.942532470793,76.2));
#189 = ( GEOMETRIC_REPRESENTATION_CONTEXT(2) 
PARAMETRIC_REPRESENTATION_CONTEXT() REPRESENTATION_CONTEXT('2D SPACE',''
  ) );
#190 = PCURVE('',#191,#196);
#191 = CYLINDRICAL_SURFACE('',#192,51.308);
#192 = AXIS2_PLACEMENT_3D('',#193,#194,#195);
#193 = CARTESIAN_POINT('',(95.25,0.,-88.9));
#194 = DIRECTION('',(0.,0.,1.));
#195 = DIRECTION('',(1.,0.,-0.));
#196 = DEFINITIONAL_REPRESENTATION('',(#197),#242);
#197 = B_SPLINE_CURVE_WITH_KNOTS('',7,(#198,#199,#200,#201,#202,#203,
    #204,#205,#206,#207,#208,#209,#210,#211,#212,#213,#214,#215,#216,
    #217,#218,#219,#220,#221,#222,#223,#224,#225,#226,#227,#228,#229,
    #230,#231,#232,#233,#234,#235,#236,#237,#238,#239,#240,#241),
  .UNSPECIFIED.,.F.,.F.,(8,6,6,6,6,6,6,8),(0.,3.469556223171E-02,
    6.643381058768E-02,0.111937695716,0.22274581122,0.45394521137,
    0.760667506802,1.),.UNSPECIFIED.);
#198 = CARTESIAN_POINT('',(3.14159265359,111.62568135593));
#199 = CARTESIAN_POINT('',(3.149853515108,111.62568135593));
#200 = CARTESIAN_POINT('',(3.157448502327,111.71576056806));
#201 = CARTESIAN_POINT('',(3.16431375514,111.86958994587));
#202 = CARTESIAN_POINT('',(3.170489934766,112.06050711918));
#203 = CARTESIAN_POINT('',(3.17604613017,112.27194493581));
#204 = CARTESIAN_POINT('',(3.181095334837,112.49475402842));
#205 = CARTESIAN_POINT('',(3.190095936274,112.94348221691));
#206 = CARTESIAN_POINT('',(3.194081508805,113.16635907207));
#207 = CARTESIAN_POINT('',(3.197826071424,113.39508387477));
#208 = CARTESIAN_POINT('',(3.201368945552,113.62810549107));
#209 = CARTESIAN_POINT('',(3.204738221099,113.86443313787));
#210 = CARTESIAN_POINT('',(3.207960136288,114.10342438053));
#211 = CARTESIAN_POINT('',(3.215492189115,114.69111439782));
#212 = CARTESIAN_POINT('',(3.219663018611,115.04198225603));
#213 = CARTESIAN_POINT('',(3.223622577932,115.39627468265));
#214 = CARTESIAN_POINT('',(3.227403593069,115.7532196673));
#215 = CARTESIAN_POINT('',(3.231029593067,116.11229813079));
#216 = CARTESIAN_POINT('',(3.234520797678,116.47315423788));
#217 = CARTESIAN_POINT('',(3.246103840994,117.71828017015));
#218 = CARTESIAN_POINT('',(3.253602870348,118.60988189492));
#219 = CARTESIAN_POINT('',(3.260612418606,119.50711444515));
#220 = CARTESIAN_POINT('',(3.26721729278,120.40846619423));
#221 = CARTESIAN_POINT('',(3.27349571186,121.31278874295));
#222 = CARTESIAN_POINT('',(3.279494081566,122.21960241738));
#223 = CARTESIAN_POINT('',(3.29727019938,125.02575794307));
#224 = CARTESIAN_POINT('',(3.30823770104,126.9317099247));
#225 = CARTESIAN_POINT('',(3.318500368596,128.84321666522));
#226 = CARTESIAN_POINT('',(3.328183277782,130.75877795494));
#227 = CARTESIAN_POINT('',(3.337403860858,132.67723756819));
#228 = CARTESIAN_POINT('',(3.346228509052,134.5981363671));
#229 = CARTESIAN_POINT('',(3.365975461575,139.07281832817));
#230 = CARTESIAN_POINT('',(3.37663880025,141.62786324954));
#231 = CARTESIAN_POINT('',(3.386833288142,144.18557487503));
#232 = CARTESIAN_POINT('',(3.396635229193,146.74537404535));
#233 = CARTESIAN_POINT('',(3.406098653924,149.3068692414));
#234 = CARTESIAN_POINT('',(3.41526851022,151.86978804518));
#235 = CARTESIAN_POINT('',(3.431130209984,156.43481825906));
#236 = CARTESIAN_POINT('',(3.437923885553,158.43639518518));
#237 = CARTESIAN_POINT('',(3.444575208529,160.43862910595));
#238 = CARTESIAN_POINT('',(3.451097274408,162.44144286025));
#239 = CARTESIAN_POINT('',(3.457500868252,164.4447742973));
#240 = CARTESIAN_POINT('',(3.463795117152,166.44857349861));
#241 = CARTESIAN_POINT('',(3.469988142687,168.4528));
#242 = ( GEOMETRIC_REPRESENTATION_CONTEXT(2) 
PARAMETRIC_REPRESENTATION_CONTEXT() REPRESENTATION_CONTEXT('2D SPACE',''
  ) );
#243 = ORIENTED_EDGE('',*,*,#244,.F.);
#244 = EDGE_CURVE('',#245,#94,#247,.T.);
#245 = VERTEX_POINT('',#246);
#246 = CARTESIAN_POINT('',(46.683845333333,16.548096110834,79.5528));
#247 = SURFACE_CURVE('',#248,(#253,#259),.PCURVE_S1.);
#248 = CIRCLE('',#249,49.53);
#249 = AXIS2_PLACEMENT_3D('',#250,#251,#252);
#250 = CARTESIAN_POINT('',(0.,0.,79.5528));
#251 = DIRECTION('',(0.,0.,1.));
#252 = DIRECTION('',(1.,0.,-0.));
#253 = PCURVE('',#49,#254);
#254 = DEFINITIONAL_REPRESENTATION('',(#255),#258);
#255 = B_SPLINE_CURVE_WITH_KNOTS('',1,(#256,#257),.UNSPECIFIED.,.F.,.F.,
  (2,2),(0.340652836387,5.942532470793),.PIECEWISE_BEZIER_KNOTS.);
#256 = CARTESIAN_POINT('',(0.340652836387,76.2));
#257 = CARTESIAN_POINT('',(5.942532470793,76.2));
#258 = ( GEOMETRIC_REPRESENTATION_CONTEXT(2) 
PARAMETRIC_REPRESENTATION_CONTEXT() REPRESENTATION_CONTEXT('2D SPACE',''
  ) );
#259 = PCURVE('',#260,#265);
#260 = PLANE('',#261);
#261 = AXIS2_PLACEMENT_3D('',#262,#263,#264);
#262 = CARTESIAN_POINT('',(0.,0.,79.5528));
#263 = DIRECTION('',(0.,0.,1.));
#264 = DIRECTION('',(1.,0.,-0.));
#265 = DEFINITIONAL_REPRESENTATION('',(#266),#270);
#266 = CIRCLE('',#267,49.53);
#267 = AXIS2_PLACEMENT_2D('',#268,#269);
#268 = CARTESIAN_POINT('',(0.,0.));
#269 = DIRECTION('',(1.,0.));
#270 = ( GEOMETRIC_REPRESENTATION_CONTEXT(2) 
PARAMETRIC_REPRESENTATION_CONTEXT() REPRESENTATION_CONTEXT('2D SPACE',''
  ) );
#271 = ORIENTED_EDGE('',*,*,#272,.T.);
#272 = EDGE_CURVE('',#245,#73,#273,.T.);
#273 = SURFACE_CURVE('',#274,(#312,#353),.PCURVE_S1.);
#274 = B_SPLINE_CURVE_WITH_KNOTS('',8,(#275,#276,#277,#278,#279,#280,
    #281,#282,#283,#284,#285,#286,#287,#288,#289,#290,#291,#292,#293,
    #294,#295,#296,#297,#298,#299,#300,#301,#302,#303,#304,#305,#306,
    #307,#308,#309,#310,#311),.UNSPECIFIED.,.F.,.F.,(9,7,7,7,7,9),(0.,
    0.516798212779,0.761471956511,0.882638837946,0.940426575525,1.),
  .UNSPECIFIED.);
#275 = CARTESIAN_POINT('',(46.683845333333,16.548096110834,79.5528));
#276 = CARTESIAN_POINT('',(46.48983985218,15.97871941996,75.758690199092
    ));
#277 = CARTESIAN_POINT('',(46.297591178965,15.389529162728,
    71.96627543727));
#278 = CARTESIAN_POINT('',(46.107100035028,14.777768140321,
    68.175622388844));
#279 = CARTESIAN_POINT('',(45.918375973622,14.140375350012,
    64.386968128979));
#280 = CARTESIAN_POINT('',(45.731442926015,13.472678963878,
    60.60085715646));
#281 = CARTESIAN_POINT('',(45.546336424772,12.768853720747,
    56.818093891754));
#282 = CARTESIAN_POINT('',(45.36310775132,12.020688605335,
    53.039852673922));
#283 = CARTESIAN_POINT('',(45.096035425961,10.827970213862,
    47.482671537027));
#284 = CARTESIAN_POINT('',(45.010673438625,10.431041713345,
    45.698781153052));
#285 = CARTESIAN_POINT('',(44.925766513122,10.018503631482,
    43.916689046757));
#286 = CARTESIAN_POINT('',(44.841325066848,9.588220997501,
    42.136637886482));
#287 = CARTESIAN_POINT('',(44.75737321807,9.137009037398,40.359168270324
    ));
#288 = CARTESIAN_POINT('',(44.673946587905,8.660907783856,
    38.585076656511));
#289 = CARTESIAN_POINT('',(44.591096745284,8.154366560886,
    36.815521888593));
#290 = CARTESIAN_POINT('',(44.468219558745,7.334644094027,
    34.179567808303));
#291 = CARTESIAN_POINT('',(44.427699329555,7.053017705106,
    33.308433253043));
#292 = CARTESIAN_POINT('',(44.387358178041,6.759765535722,
    32.439258091245));
#293 = CARTESIAN_POINT('',(44.347207493836,6.453269815659,
    31.572300669159));
#294 = CARTESIAN_POINT('',(44.307274808112,6.131105142344,
    30.708172916666));
#295 = CARTESIAN_POINT('',(44.267600958876,5.790295589315,
    29.847781600635));
#296 = CARTESIAN_POINT('',(44.228245303218,5.426691943626,
    28.992448154488));
#297 = CARTESIAN_POINT('',(44.170750805351,4.843243471102,
    27.740241771003));
#298 = CARTESIAN_POINT('',(44.152293778592,4.647808583516,
    27.337842180426));
#299 = CARTESIAN_POINT('',(44.133949299726,4.444294082493,
    26.937487814969));
#300 = CARTESIAN_POINT('',(44.115730358115,4.231566278493,
    26.539468624657));
#301 = CARTESIAN_POINT('',(44.097665189505,4.008044918797,
    26.144409917715));
#302 = CARTESIAN_POINT('',(44.079795317991,3.771817634829,
    25.753231004641));
#303 = CARTESIAN_POINT('',(44.062180418437,3.520267435775,
    25.367254595727));
#304 = CARTESIAN_POINT('',(44.027135520056,2.967822960705,24.59862814183
    ));
#305 = CARTESIAN_POINT('',(44.010902920352,2.684174282717,
    24.242217270612));
#306 = CARTESIAN_POINT('',(43.994950866687,2.375963381038,
    23.891689970646));
#307 = CARTESIAN_POINT('',(43.978949523291,2.025570577744,23.53975752328
    ));
#308 = CARTESIAN_POINT('',(43.96356810917,1.620271200726,23.201122738027
    ));
#309 = CARTESIAN_POINT('',(43.950356554523,1.15179809985,22.90989062792)
  );
#310 = CARTESIAN_POINT('',(43.942,0.612464600586,22.725681355932));
#311 = CARTESIAN_POINT('',(43.942,-1.076268592963E-14,22.725681355932));
#312 = PCURVE('',#49,#313);
#313 = DEFINITIONAL_REPRESENTATION('',(#314),#352);
#314 = B_SPLINE_CURVE_WITH_KNOTS('',8,(#315,#316,#317,#318,#319,#320,
    #321,#322,#323,#324,#325,#326,#327,#328,#329,#330,#331,#332,#333,
    #334,#335,#336,#337,#338,#339,#340,#341,#342,#343,#344,#345,#346,
    #347,#348,#349,#350,#351),.UNSPECIFIED.,.F.,.F.,(9,7,7,7,7,9),(0.,
    0.516798212779,0.761471956511,0.882638837946,0.940426575525,1.),
  .UNSPECIFIED.);
#315 = CARTESIAN_POINT('',(0.340652836387,76.2));
#316 = CARTESIAN_POINT('',(0.331126473708,72.405890199092));
#317 = CARTESIAN_POINT('',(0.321047276339,68.61347543727));
#318 = CARTESIAN_POINT('',(0.310344456776,64.822822388843));
#319 = CARTESIAN_POINT('',(0.298939118011,61.034168128979));
#320 = CARTESIAN_POINT('',(0.286713737284,57.248057156462));
#321 = CARTESIAN_POINT('',(0.273522465906,53.465293891753));
#322 = CARTESIAN_POINT('',(0.259162009891,49.687052673922));
#323 = CARTESIAN_POINT('',(0.235676598588,44.129871537027));
#324 = CARTESIAN_POINT('',(0.227777581995,42.345981153053));
#325 = CARTESIAN_POINT('',(0.219479716464,40.563889046756));
#326 = CARTESIAN_POINT('',(0.210731625749,38.783837886482));
#327 = CARTESIAN_POINT('',(0.201457393352,37.006368270325));
#328 = CARTESIAN_POINT('',(0.191562794046,35.232276656511));
#329 = CARTESIAN_POINT('',(0.180916433136,33.462721888593));
#330 = CARTESIAN_POINT('',(0.163480369184,30.826767808303));
#331 = CARTESIAN_POINT('',(0.157458569201,29.955633253043));
#332 = CARTESIAN_POINT('',(0.151155090503,29.086458091245));
#333 = CARTESIAN_POINT('',(0.14453214594,28.219500669159));
#334 = CARTESIAN_POINT('',(0.137533285043,27.355372916666));
#335 = CARTESIAN_POINT('',(0.130089257955,26.494981600635));
#336 = CARTESIAN_POINT('',(0.12210375573,25.639648154488));
#337 = CARTESIAN_POINT('',(0.109215622849,24.387441771003));
#338 = CARTESIAN_POINT('',(0.104888006139,23.985042180426));
#339 = CARTESIAN_POINT('',(0.100370456532,23.584687814969));
#340 = CARTESIAN_POINT('',(9.563685588227E-02,23.186668624657));
#341 = CARTESIAN_POINT('',(9.065081217049E-02,22.791609917715));
#342 = CARTESIAN_POINT('',(8.536827669037E-02,22.400431004641));
#343 = CARTESIAN_POINT('',(7.972906141837E-02,22.014454595727));
#344 = CARTESIAN_POINT('',(6.731252204076E-02,21.24582814183));
#345 = CARTESIAN_POINT('',(6.092188872818E-02,20.889417270612));
#346 = CARTESIAN_POINT('',(5.396484986335E-02,20.538889970646));
#347 = CARTESIAN_POINT('',(4.604009286436E-02,20.18695752328));
#348 = CARTESIAN_POINT('',(3.685406251795E-02,19.848322738027));
#349 = CARTESIAN_POINT('',(2.621178694248E-02,19.55709062792));
#350 = CARTESIAN_POINT('',(1.393802286165E-02,19.372881355932));
#351 = CARTESIAN_POINT('',(0.,19.372881355932));
#352 = ( GEOMETRIC_REPRESENTATION_CONTEXT(2) 
PARAMETRIC_REPRESENTATION_CONTEXT() REPRESENTATION_CONTEXT('2D SPACE',''
  ) );
#353 = PCURVE('',#191,#354);
#354 = DEFINITIONAL_REPRESENTATION('',(#355),#393);
#355 = B_SPLINE_CURVE_WITH_KNOTS('',8,(#356,#357,#358,#359,#360,#361,
    #362,#363,#364,#365,#366,#367,#368,#369,#370,#371,#372,#373,#374,
    #375,#376,#377,#378,#379,#380,#381,#382,#383,#384,#385,#386,#387,
    #388,#389,#390,#391,#392),.UNSPECIFIED.,.F.,.F.,(9,7,7,7,7,9),(0.,
    0.516798212779,0.761471956511,0.882638837946,0.940426575525,1.),
  .UNSPECIFIED.);
#356 = CARTESIAN_POINT('',(2.813197164492,168.4528));
#357 = CARTESIAN_POINT('',(2.824920898742,164.65869019909));
#358 = CARTESIAN_POINT('',(2.83699910291,160.86627543727));
#359 = CARTESIAN_POINT('',(2.849485206872,157.07562238884));
#360 = CARTESIAN_POINT('',(2.862438425791,153.28696812897));
#361 = CARTESIAN_POINT('',(2.875949146831,149.50085715646));
#362 = CARTESIAN_POINT('',(2.89013001443,145.71809389175));
#363 = CARTESIAN_POINT('',(2.905139825746,141.93985267392));
#364 = CARTESIAN_POINT('',(2.928961724449,136.38267153702));
#365 = CARTESIAN_POINT('',(2.936874501598,134.59878115305));
#366 = CARTESIAN_POINT('',(2.945082932701,132.81668904675));
#367 = CARTESIAN_POINT('',(2.953628374886,131.03663788648));
#368 = CARTESIAN_POINT('',(2.96257256392,129.25916827032));
#369 = CARTESIAN_POINT('',(2.971992262767,127.48507665651));
#370 = CARTESIAN_POINT('',(2.981995118947,125.71552188859));
#371 = CARTESIAN_POINT('',(2.998150124173,123.0795678083));
#372 = CARTESIAN_POINT('',(3.003695485631,122.20843325304));
#373 = CARTESIAN_POINT('',(3.00946465885,121.33925809124));
#374 = CARTESIAN_POINT('',(3.015489064508,120.47230066915));
#375 = CARTESIAN_POINT('',(3.021815826204,119.60817291666));
#376 = CARTESIAN_POINT('',(3.02850276213,118.74778160063));
#377 = CARTESIAN_POINT('',(3.035630511816,117.89244815448));
#378 = CARTESIAN_POINT('',(3.047057081857,116.640241771));
#379 = CARTESIAN_POINT('',(3.050883051457,116.23784218042));
#380 = CARTESIAN_POINT('',(3.054865599194,115.83748781496));
#381 = CARTESIAN_POINT('',(3.059026780962,115.43946862465));
#382 = CARTESIAN_POINT('',(3.063397341053,115.04440991771));
#383 = CARTESIAN_POINT('',(3.068014483568,114.65323100464));
#384 = CARTESIAN_POINT('',(3.072929132065,114.26725459572));
#385 = CARTESIAN_POINT('',(3.083717993726,113.49862814183));
#386 = CARTESIAN_POINT('',(3.089255283599,113.14221727061));
#387 = CARTESIAN_POINT('',(3.095270247182,112.79168997064));
#388 = CARTESIAN_POINT('',(3.102106251856,112.43975752328));
#389 = CARTESIAN_POINT('',(3.110010748476,112.10112273802));
#390 = CARTESIAN_POINT('',(3.119143950279,111.80989062792));
#391 = CARTESIAN_POINT('',(3.12965563401,111.62568135593));
#392 = CARTESIAN_POINT('',(3.14159265359,111.62568135593));
#393 = ( GEOMETRIC_REPRESENTATION_CONTEXT(2) 
PARAMETRIC_REPRESENTATION_CONTEXT() REPRESENTATION_CONTEXT('2D SPACE',''
  ) );
#394 = ORIENTED_EDGE('',*,*,#72,.F.);
#395 = ADVANCED_FACE('',(#396,#454),#60,.T.);
#396 = FACE_BOUND('',#397,.T.);
#397 = EDGE_LOOP('',(#398,#428));
#398 = ORIENTED_EDGE('',*,*,#399,.F.);
#399 = EDGE_CURVE('',#400,#402,#404,.T.);
#400 = VERTEX_POINT('',#401);
#401 = CARTESIAN_POINT('',(45.396912,12.131796275254,5.8928));
#402 = VERTEX_POINT('',#403);
#403 = CARTESIAN_POINT('',(45.396912,-12.13179627525,5.8928));
#404 = SURFACE_CURVE('',#405,(#410,#417),.PCURVE_S1.);
#405 = CIRCLE('',#406,51.308);
#406 = AXIS2_PLACEMENT_3D('',#407,#408,#409);
#407 = CARTESIAN_POINT('',(95.25,0.,5.8928));
#408 = DIRECTION('',(0.,0.,1.));
#409 = DIRECTION('',(1.,0.,-0.));
#410 = PCURVE('',#60,#411);
#411 = DEFINITIONAL_REPRESENTATION('',(#412),#416);
#412 = CIRCLE('',#413,51.308);
#413 = AXIS2_PLACEMENT_2D('',#414,#415);
#414 = CARTESIAN_POINT('',(95.25,0.));
#415 = DIRECTION('',(1.,0.));
#416 = ( GEOMETRIC_REPRESENTATION_CONTEXT(2) 
PARAMETRIC_REPRESENTATION_CONTEXT() REPRESENTATION_CONTEXT('2D SPACE',''
  ) );
#417 = PCURVE('',#418,#423);
#418 = CYLINDRICAL_SURFACE('',#419,51.308);
#419 = AXIS2_PLACEMENT_3D('',#420,#421,#422);
#420 = CARTESIAN_POINT('',(95.25,0.,-88.9));
#421 = DIRECTION('',(0.,0.,1.));
#422 = DIRECTION('',(1.,0.,-0.));
#423 = DEFINITIONAL_REPRESENTATION('',(#424),#427);
#424 = B_SPLINE_CURVE_WITH_KNOTS('',1,(#425,#426),.UNSPECIFIED.,.F.,.F.,
  (2,2),(2.902881644509,3.38030366267),.PIECEWISE_BEZIER_KNOTS.);
#425 = CARTESIAN_POINT('',(2.902881644509,94.7928));
#426 = CARTESIAN_POINT('',(3.38030366267,94.7928));
#427 = ( GEOMETRIC_REPRESENTATION_CONTEXT(2) 
PARAMETRIC_REPRESENTATION_CONTEXT() REPRESENTATION_CONTEXT('2D SPACE',''
  ) );
#428 = ORIENTED_EDGE('',*,*,#429,.T.);
#429 = EDGE_CURVE('',#400,#402,#430,.T.);
#430 = SURFACE_CURVE('',#431,(#436,#443),.PCURVE_S1.);
#431 = CIRCLE('',#432,46.99);
#432 = AXIS2_PLACEMENT_3D('',#433,#434,#435);
#433 = CARTESIAN_POINT('',(0.,0.,5.8928));
#434 = DIRECTION('',(0.,0.,1.));
#435 = DIRECTION('',(1.,0.,-0.));
#436 = PCURVE('',#60,#437);
#437 = DEFINITIONAL_REPRESENTATION('',(#438),#442);
#438 = CIRCLE('',#439,46.99);
#439 = AXIS2_PLACEMENT_2D('',#440,#441);
#440 = CARTESIAN_POINT('',(0.,0.));
#441 = DIRECTION('',(1.,0.));
#442 = ( GEOMETRIC_REPRESENTATION_CONTEXT(2) 
PARAMETRIC_REPRESENTATION_CONTEXT() REPRESENTATION_CONTEXT('2D SPACE',''
  ) );
#443 = PCURVE('',#444,#449);
#444 = CYLINDRICAL_SURFACE('',#445,46.99);
#445 = AXIS2_PLACEMENT_3D('',#446,#447,#448);
#446 = CARTESIAN_POINT('',(0.,0.,3.3528));
#447 = DIRECTION('',(0.,0.,1.));
#448 = DIRECTION('',(1.,0.,-0.));
#449 = DEFINITIONAL_REPRESENTATION('',(#450),#453);
#450 = B_SPLINE_CURVE_WITH_KNOTS('',1,(#451,#452),.UNSPECIFIED.,.F.,.F.,
  (2,2),(0.261136053575,6.022049253604),.PIECEWISE_BEZIER_KNOTS.);
#451 = CARTESIAN_POINT('',(0.261136053575,2.54));
#452 = CARTESIAN_POINT('',(6.022049253604,2.54));
#453 = ( GEOMETRIC_REPRESENTATION_CONTEXT(2) 
PARAMETRIC_REPRESENTATION_CONTEXT() REPRESENTATION_CONTEXT('2D SPACE',''
  ) );
#454 = FACE_BOUND('',#455,.T.);
#455 = EDGE_LOOP('',(#456));
#456 = ORIENTED_EDGE('',*,*,#39,.F.);
#457 = ADVANCED_FACE('',(#458),#191,.F.);
#458 = FACE_BOUND('',#459,.F.);
#459 = EDGE_LOOP('',(#460,#483,#484,#485,#508,#638));
#460 = ORIENTED_EDGE('',*,*,#461,.F.);
#461 = EDGE_CURVE('',#245,#462,#464,.T.);
#462 = VERTEX_POINT('',#463);
#463 = CARTESIAN_POINT('',(45.396912,12.131796275254,79.5528));
#464 = SURFACE_CURVE('',#465,(#470,#476),.PCURVE_S1.);
#465 = CIRCLE('',#466,51.308);
#466 = AXIS2_PLACEMENT_3D('',#467,#468,#469);
#467 = CARTESIAN_POINT('',(95.25,0.,79.5528));
#468 = DIRECTION('',(0.,0.,1.));
#469 = DIRECTION('',(1.,0.,-0.));
#470 = PCURVE('',#191,#471);
#471 = DEFINITIONAL_REPRESENTATION('',(#472),#475);
#472 = B_SPLINE_CURVE_WITH_KNOTS('',1,(#473,#474),.UNSPECIFIED.,.F.,.F.,
  (2,2),(2.813197164492,2.902881644509),.PIECEWISE_BEZIER_KNOTS.);
#473 = CARTESIAN_POINT('',(2.813197164492,168.4528));
#474 = CARTESIAN_POINT('',(2.902881644509,168.4528));
#475 = ( GEOMETRIC_REPRESENTATION_CONTEXT(2) 
PARAMETRIC_REPRESENTATION_CONTEXT() REPRESENTATION_CONTEXT('2D SPACE',''
  ) );
#476 = PCURVE('',#260,#477);
#477 = DEFINITIONAL_REPRESENTATION('',(#478),#482);
#478 = CIRCLE('',#479,51.308);
#479 = AXIS2_PLACEMENT_2D('',#480,#481);
#480 = CARTESIAN_POINT('',(95.25,0.));
#481 = DIRECTION('',(1.,0.));
#482 = ( GEOMETRIC_REPRESENTATION_CONTEXT(2) 
PARAMETRIC_REPRESENTATION_CONTEXT() REPRESENTATION_CONTEXT('2D SPACE',''
  ) );
#483 = ORIENTED_EDGE('',*,*,#272,.T.);
#484 = ORIENTED_EDGE('',*,*,#93,.T.);
#485 = ORIENTED_EDGE('',*,*,#486,.F.);
#486 = EDGE_CURVE('',#487,#94,#489,.T.);
#487 = VERTEX_POINT('',#488);
#488 = CARTESIAN_POINT('',(45.396912,-12.13179627525,79.5528));
#489 = SURFACE_CURVE('',#490,(#495,#501),.PCURVE_S1.);
#490 = CIRCLE('',#491,51.308);
#491 = AXIS2_PLACEMENT_3D('',#492,#493,#494);
#492 = CARTESIAN_POINT('',(95.25,0.,79.5528));
#493 = DIRECTION('',(0.,0.,1.));
#494 = DIRECTION('',(1.,0.,-0.));
#495 = PCURVE('',#191,#496);
#496 = DEFINITIONAL_REPRESENTATION('',(#497),#500);
#497 = B_SPLINE_CURVE_WITH_KNOTS('',1,(#498,#499),.UNSPECIFIED.,.F.,.F.,
  (2,2),(3.38030366267,3.469988142687),.PIECEWISE_BEZIER_KNOTS.);
#498 = CARTESIAN_POINT('',(3.38030366267,168.4528));
#499 = CARTESIAN_POINT('',(3.469988142687,168.4528));
#500 = ( GEOMETRIC_REPRESENTATION_CONTEXT(2) 
PARAMETRIC_REPRESENTATION_CONTEXT() REPRESENTATION_CONTEXT('2D SPACE',''
  ) );
#501 = PCURVE('',#260,#502);
#502 = DEFINITIONAL_REPRESENTATION('',(#503),#507);
#503 = CIRCLE('',#504,51.308);
#504 = AXIS2_PLACEMENT_2D('',#505,#506);
#505 = CARTESIAN_POINT('',(95.25,0.));
#506 = DIRECTION('',(1.,0.));
#507 = ( GEOMETRIC_REPRESENTATION_CONTEXT(2) 
PARAMETRIC_REPRESENTATION_CONTEXT() REPRESENTATION_CONTEXT('2D SPACE',''
  ) );
#508 = ORIENTED_EDGE('',*,*,#509,.F.);
#509 = EDGE_CURVE('',#510,#487,#512,.T.);
#510 = VERTEX_POINT('',#511);
#511 = CARTESIAN_POINT('',(43.942,-1.076268592963E-14,45.72));
#512 = SURFACE_CURVE('',#513,(#551,#592),.PCURVE_S1.);
#513 = B_SPLINE_CURVE_WITH_KNOTS('',8,(#514,#515,#516,#517,#518,#519,
    #520,#521,#522,#523,#524,#525,#526,#527,#528,#529,#530,#531,#532,
    #533,#534,#535,#536,#537,#538,#539,#540,#541,#542,#543,#544,#545,
    #546,#547,#548,#549,#550),.UNSPECIFIED.,.F.,.F.,(9,7,7,7,7,9),(0.,
    8.693163608615E-02,0.172168481783,0.344157923878,0.634537178163,1.),
  .UNSPECIFIED.);
#514 = CARTESIAN_POINT('',(43.942,5.639932965096E-15,45.72));
#515 = CARTESIAN_POINT('',(43.942,-0.553220816481,45.72));
#516 = CARTESIAN_POINT('',(43.948815570059,-1.032975086358,
    45.88398791479));
#517 = CARTESIAN_POINT('',(43.959289367693,-1.450470701077,
    46.135991586811));
#518 = CARTESIAN_POINT('',(43.97157979382,-1.812350188628,
    46.431409657744));
#519 = CARTESIAN_POINT('',(43.984409638302,-2.127407145143,
    46.73955189719));
#520 = CARTESIAN_POINT('',(43.997339900576,-2.406169244641,
    47.049873377222));
#521 = CARTESIAN_POINT('',(44.010530025229,-2.662901037939,
    47.36622239369));
#522 = CARTESIAN_POINT('',(44.038869743553,-3.16101451635,
    48.045326223316));
#523 = CARTESIAN_POINT('',(44.05320196891,-3.389008968096,
    48.388505121147));
#524 = CARTESIAN_POINT('',(44.067747326608,-3.603069559962,
    48.736508456897));
#525 = CARTESIAN_POINT('',(44.082454969602,-3.805571633135,
    49.088107280053));
#526 = CARTESIAN_POINT('',(44.09728952056,-3.998252811539,49.44244736277
    ));
#527 = CARTESIAN_POINT('',(44.112226933285,-4.182551385021,
    49.798947942878));
#528 = CARTESIAN_POINT('',(44.127256167411,-4.359500701236,
    50.157340640158));
#529 = CARTESIAN_POINT('',(44.172879184766,-4.874214333102,
    51.244370109497));
#530 = CARTESIAN_POINT('',(44.203705092817,-5.191885355432,
    51.977612878977));
#531 = CARTESIAN_POINT('',(44.23476873951,-5.490093974321,
    52.715256636994));
#532 = CARTESIAN_POINT('',(44.266023725296,-5.772320231919,
    53.456175975132));
#533 = CARTESIAN_POINT('',(44.297438010728,-6.04106552796,
    54.199595297176));
#534 = CARTESIAN_POINT('',(44.328989875072,-6.298360620109,
    54.944988365727));
#535 = CARTESIAN_POINT('',(44.360669704808,-6.545593043456,
    55.692118873857));
#536 = CARTESIAN_POINT('',(44.446173719619,-7.18658736224,
    57.705158025405));
#537 = CARTESIAN_POINT('',(44.500204340711,-7.563855515063,
    58.973547951698));
#538 = CARTESIAN_POINT('',(44.554521715994,-7.921451924495,
    60.244982578803));
#539 = CARTESIAN_POINT('',(44.609097820079,-8.262598089118,
    61.518777370665));
#540 = CARTESIAN_POINT('',(44.663912756864,-8.589642343484,
    62.794447499171));
#541 = CARTESIAN_POINT('',(44.718952571621,-8.904457247506,
    64.071652316298));
#542 = CARTESIAN_POINT('',(44.7742094639,-9.208427363182,65.350198226007
    ));
#543 = CARTESIAN_POINT('',(44.899493512626,-9.873168005636,
    68.24070404254));
#544 = CARTESIAN_POINT('',(44.969638825749,-10.22826521218,
    69.853240940337));
#545 = CARTESIAN_POINT('',(45.040102200539,-10.57032820236,
    71.467263985311));
#546 = CARTESIAN_POINT('',(45.110873512237,-10.90100451044,
    73.082523130269));
#547 = CARTESIAN_POINT('',(45.181945151778,-11.22154674177,
    74.69883068133));
#548 = CARTESIAN_POINT('',(45.253311342713,-11.53297536997,
    76.316043809476));
#549 = CARTESIAN_POINT('',(45.324967838477,-11.83615673976,
    77.934056365733));
#550 = CARTESIAN_POINT('',(45.396912,-12.13179627525,79.5528));
#551 = PCURVE('',#191,#552);
#552 = DEFINITIONAL_REPRESENTATION('',(#553),#591);
#553 = B_SPLINE_CURVE_WITH_KNOTS('',8,(#554,#555,#556,#557,#558,#559,
    #560,#561,#562,#563,#564,#565,#566,#567,#568,#569,#570,#571,#572,
    #573,#574,#575,#576,#577,#578,#579,#580,#581,#582,#583,#584,#585,
    #586,#587,#588,#589,#590),.UNSPECIFIED.,.F.,.F.,(9,7,7,7,7,9),(0.,
    8.693163608615E-02,0.172168481783,0.344157923878,0.634537178163,1.),
  .UNSPECIFIED.);
#554 = CARTESIAN_POINT('',(3.14159265359,134.62));
#555 = CARTESIAN_POINT('',(3.152375003642,134.62));
#556 = CARTESIAN_POINT('',(3.161725482954,134.78398791479));
#557 = CARTESIAN_POINT('',(3.169864427577,135.03599158681));
#558 = CARTESIAN_POINT('',(3.176921148357,135.33140965774));
#559 = CARTESIAN_POINT('',(3.183066533522,135.63955189719));
#560 = CARTESIAN_POINT('',(3.18850536188,135.94987337722));
#561 = CARTESIAN_POINT('',(3.193515624845,136.26622239369));
#562 = CARTESIAN_POINT('',(3.203239625166,136.94532622331));
#563 = CARTESIAN_POINT('',(3.207691961282,137.28850512114));
#564 = CARTESIAN_POINT('',(3.21187356719,137.63650845689));
#565 = CARTESIAN_POINT('',(3.215830677156,137.98810728005));
#566 = CARTESIAN_POINT('',(3.219597106411,138.34244736277));
#567 = CARTESIAN_POINT('',(3.223200846017,138.69894794287));
#568 = CARTESIAN_POINT('',(3.226662006114,139.05734064015));
#569 = CARTESIAN_POINT('',(3.236733176983,140.14437010949));
#570 = CARTESIAN_POINT('',(3.242953496001,140.87761287897));
#571 = CARTESIAN_POINT('',(3.248796840499,141.61525663699));
#572 = CARTESIAN_POINT('',(3.254330880162,142.35617597513));
#573 = CARTESIAN_POINT('',(3.25960424158,143.09959529717));
#574 = CARTESIAN_POINT('',(3.264656402154,143.84498836572));
#575 = CARTESIAN_POINT('',(3.269514327892,144.59211887385));
#576 = CARTESIAN_POINT('',(3.28211805407,146.6051580254));
#577 = CARTESIAN_POINT('',(3.289545743022,147.87354795169));
#578 = CARTESIAN_POINT('',(3.296594883141,149.1449825788));
#579 = CARTESIAN_POINT('',(3.303328020787,150.41877737066));
#580 = CARTESIAN_POINT('',(3.309790731153,151.69444749917));
#581 = CARTESIAN_POINT('',(3.3160193503,152.97165231629));
#582 = CARTESIAN_POINT('',(3.322040734612,154.250198226));
#583 = CARTESIAN_POINT('',(3.335224717617,157.14070404254));
#584 = CARTESIAN_POINT('',(3.342279081972,158.75324094033));
#585 = CARTESIAN_POINT('',(3.349085550845,160.36726398531));
#586 = CARTESIAN_POINT('',(3.355676055742,161.98252313026));
#587 = CARTESIAN_POINT('',(3.362074862073,163.59883068133));
#588 = CARTESIAN_POINT('',(3.368301733496,165.21604380947));
#589 = CARTESIAN_POINT('',(3.374373447565,166.83405636573));
#590 = CARTESIAN_POINT('',(3.38030366267,168.4528));
#591 = ( GEOMETRIC_REPRESENTATION_CONTEXT(2) 
PARAMETRIC_REPRESENTATION_CONTEXT() REPRESENTATION_CONTEXT('2D SPACE',''
  ) );
#592 = PCURVE('',#593,#598);
#593 = CONICAL_SURFACE('',#594,38.839117117117,8.984753969463E-02);
#594 = AXIS2_PLACEMENT_3D('',#595,#596,#597);
#595 = CARTESIAN_POINT('',(0.,0.,-10.922));
#596 = DIRECTION('',(0.,0.,1.));
#597 = DIRECTION('',(1.,0.,-0.));
#598 = DEFINITIONAL_REPRESENTATION('',(#599),#637);
#599 = B_SPLINE_CURVE_WITH_KNOTS('',8,(#600,#601,#602,#603,#604,#605,
    #606,#607,#608,#609,#610,#611,#612,#613,#614,#615,#616,#617,#618,
    #619,#620,#621,#622,#623,#624,#625,#626,#627,#628,#629,#630,#631,
    #632,#633,#634,#635,#636),.UNSPECIFIED.,.F.,.F.,(9,7,7,7,7,9),(0.,
    8.693163608615E-02,0.172168481783,0.344157923878,0.634537178163,1.),
  .UNSPECIFIED.);
#600 = CARTESIAN_POINT('',(6.28318530718,56.642));
#601 = CARTESIAN_POINT('',(6.270595511165,56.642));
#602 = CARTESIAN_POINT('',(6.259677629384,56.80598791479));
#603 = CARTESIAN_POINT('',(6.250190377041,57.057991586811));
#604 = CARTESIAN_POINT('',(6.241981442768,57.353409657744));
#605 = CARTESIAN_POINT('',(6.234846982169,57.66155189719));
#606 = CARTESIAN_POINT('',(6.228544469458,57.971873377222));
#607 = CARTESIAN_POINT('',(6.222749075084,58.28822239369));
#608 = CARTESIAN_POINT('',(6.211526496452,58.967326223316));
#609 = CARTESIAN_POINT('',(6.206400498273,59.310505121147));
#610 = CARTESIAN_POINT('',(6.201597535828,59.658508456897));
#611 = CARTESIAN_POINT('',(6.197063083687,60.010107280053));
#612 = CARTESIAN_POINT('',(6.192757205576,60.36444736277));
#613 = CARTESIAN_POINT('',(6.188646850962,60.720947942878));
#614 = CARTESIAN_POINT('',(6.184708268552,61.079340640158));
#615 = CARTESIAN_POINT('',(6.173274444852,62.166370109497));
#616 = CARTESIAN_POINT('',(6.166249635992,62.899612878977));
#617 = CARTESIAN_POINT('',(6.159683545575,63.637256636994));
#618 = CARTESIAN_POINT('',(6.153495718608,64.378175975132));
#619 = CARTESIAN_POINT('',(6.147628207136,65.121595297176));
#620 = CARTESIAN_POINT('',(6.142033954038,65.866988365727));
#621 = CARTESIAN_POINT('',(6.136680727008,66.614118873857));
#622 = CARTESIAN_POINT('',(6.122858612955,68.627158025405));
#623 = CARTESIAN_POINT('',(6.114786155292,69.895547951698));
#624 = CARTESIAN_POINT('',(6.107191149499,71.166982578803));
#625 = CARTESIAN_POINT('',(6.099998143861,72.440777370665));
#626 = CARTESIAN_POINT('',(6.093151929162,73.716447499171));
#627 = CARTESIAN_POINT('',(6.086608391504,74.993652316298));
#628 = CARTESIAN_POINT('',(6.080334767365,76.272198226007));
#629 = CARTESIAN_POINT('',(6.06671117925,79.16270404254));
#630 = CARTESIAN_POINT('',(6.059503118548,80.775240940337));
#631 = CARTESIAN_POINT('',(6.052624296531,82.389263985311));
#632 = CARTESIAN_POINT('',(6.046035354193,84.004523130269));
#633 = CARTESIAN_POINT('',(6.039706177682,85.62083068133));
#634 = CARTESIAN_POINT('',(6.033612124649,87.238043809476));
#635 = CARTESIAN_POINT('',(6.027732210362,88.856056365733));
#636 = CARTESIAN_POINT('',(6.022049253604,90.4748));
#637 = ( GEOMETRIC_REPRESENTATION_CONTEXT(2) 
PARAMETRIC_REPRESENTATION_CONTEXT() REPRESENTATION_CONTEXT('2D SPACE',''
  ) );
#638 = ORIENTED_EDGE('',*,*,#639,.F.);
#639 = EDGE_CURVE('',#462,#510,#640,.T.);
#640 = SURFACE_CURVE('',#641,(#679,#720),.PCURVE_S1.);
#641 = B_SPLINE_CURVE_WITH_KNOTS('',8,(#642,#643,#644,#645,#646,#647,
    #648,#649,#650,#651,#652,#653,#654,#655,#656,#657,#658,#659,#660,
    #661,#662,#663,#664,#665,#666,#667,#668,#669,#670,#671,#672,#673,
    #674,#675,#676,#677,#678),.UNSPECIFIED.,.F.,.F.,(9,7,7,7,7,9),(0.,
    0.516444452529,0.760921283082,0.881468890791,0.941938051527,1.),
  .UNSPECIFIED.);
#642 = CARTESIAN_POINT('',(45.396912,12.131796275254,79.5528));
#643 = CARTESIAN_POINT('',(45.295428922616,11.714772722224,
    77.269430758858));
#644 = CARTESIAN_POINT('',(45.194525138469,11.282791711866,
    74.987671541187));
#645 = CARTESIAN_POINT('',(45.094202027556,10.833732381473,
    72.707582417843));
#646 = CARTESIAN_POINT('',(44.994468168292,10.365253143401,
    70.429384032063));
#647 = CARTESIAN_POINT('',(44.895344459174,9.873789294243,
    68.153588569171));
#648 = CARTESIAN_POINT('',(44.796861889102,9.354911957721,
    65.880953285117));
#649 = CARTESIAN_POINT('',(44.699065425949,8.802395207491,
    63.612583769942));
#650 = CARTESIAN_POINT('',(44.556105967485,7.919753884937,
    60.279685274607));
#651 = CARTESIAN_POINT('',(44.510356023094,7.625802480932,
    59.210486337641));
#652 = CARTESIAN_POINT('',(44.464789908171,7.320011651163,
    58.142983962396));
#653 = CARTESIAN_POINT('',(44.41941683953,7.000756165091,57.077406794417
    ));
#654 = CARTESIAN_POINT('',(44.374257904796,6.665627598426,
    56.014267049703));
#655 = CARTESIAN_POINT('',(44.329344233612,6.311645032635,
    54.954319889113));
#656 = CARTESIAN_POINT('',(44.284720958783,5.934643837241,
    53.898663203174));
#657 = CARTESIAN_POINT('',(44.218649797556,5.32477243291,52.331846583524
    ));
#658 = CARTESIAN_POINT('',(44.196930705806,5.115813563604,
    51.816180037182));
#659 = CARTESIAN_POINT('',(44.175314698683,4.898183252506,
    51.302347297609));
#660 = CARTESIAN_POINT('',(44.153812027231,4.670669588635,
    50.790598758452));
#661 = CARTESIAN_POINT('',(44.132446136347,4.431518327944,
    50.281501308737));
#662 = CARTESIAN_POINT('',(44.1112516649,4.178590031573,49.775892116147)
  );
#663 = CARTESIAN_POINT('',(44.090278731436,3.908926569741,
    49.274984169831));
#664 = CARTESIAN_POINT('',(44.059252979385,3.469856444224,
    48.533138567858));
#665 = CARTESIAN_POINT('',(44.048978072965,3.317620487161,
    48.287315965395));
#666 = CARTESIAN_POINT('',(44.038795854851,3.158939633773,48.04357068591
    ));
#667 = CARTESIAN_POINT('',(44.028718990214,2.992886019253,
    47.802209621215));
#668 = CARTESIAN_POINT('',(44.018774500576,2.818230296171,
    47.563884779384));
#669 = CARTESIAN_POINT('',(44.009002089909,2.633521025912,
    47.329554138765));
#670 = CARTESIAN_POINT('',(43.999458350476,2.436814119068,
    47.100584107448));
#671 = CARTESIAN_POINT('',(43.981387540558,2.020378769068,
    46.666818857558));
#672 = CARTESIAN_POINT('',(43.972985490724,1.805370867742,
    46.465033596681));
#673 = CARTESIAN_POINT('',(43.964886284584,1.571660408394,
    46.270430364963));
#674 = CARTESIAN_POINT('',(43.957185410007,1.313563612329,
    46.085309932877));
#675 = CARTESIAN_POINT('',(43.950355496767,1.026656849607,
    45.921040128071));
#676 = CARTESIAN_POINT('',(43.94494887471,0.710582680929,45.790951788194
    ));
#677 = CARTESIAN_POINT('',(43.942,0.363779037016,45.72));
#678 = CARTESIAN_POINT('',(43.942,-1.076268592963E-14,45.72));
#679 = PCURVE('',#191,#680);
#680 = DEFINITIONAL_REPRESENTATION('',(#681),#719);
#681 = B_SPLINE_CURVE_WITH_KNOTS('',8,(#682,#683,#684,#685,#686,#687,
    #688,#689,#690,#691,#692,#693,#694,#695,#696,#697,#698,#699,#700,
    #701,#702,#703,#704,#705,#706,#707,#708,#709,#710,#711,#712,#713,
    #714,#715,#716,#717,#718),.UNSPECIFIED.,.F.,.F.,(9,7,7,7,7,9),(0.,
    0.516444452529,0.760921283082,0.881468890791,0.941938051527,1.),
  .UNSPECIFIED.);
#682 = CARTESIAN_POINT('',(2.902881644509,168.4528));
#683 = CARTESIAN_POINT('',(2.911246694093,166.16943075885));
#684 = CARTESIAN_POINT('',(2.919892322337,163.88767154118));
#685 = CARTESIAN_POINT('',(2.928859625312,161.60758241784));
#686 = CARTESIAN_POINT('',(2.938193936366,159.32938403206));
#687 = CARTESIAN_POINT('',(2.947964325572,157.05358856917));
#688 = CARTESIAN_POINT('',(2.958256604621,154.78095328511));
#689 = CARTESIAN_POINT('',(2.969191457476,152.51258376994));
#690 = CARTESIAN_POINT('',(2.986618443259,149.1796852746));
#691 = CARTESIAN_POINT('',(2.992416457582,148.11048633764));
#692 = CARTESIAN_POINT('',(2.998441961562,147.04298396239));
#693 = CARTESIAN_POINT('',(3.004726508512,145.97740679441));
#694 = CARTESIAN_POINT('',(3.011316878121,144.9142670497));
#695 = CARTESIAN_POINT('',(3.018270971077,143.85431988911));
#696 = CARTESIAN_POINT('',(3.025669707623,142.79866320317));
#697 = CARTESIAN_POINT('',(3.037625736197,141.23184658352));
#698 = CARTESIAN_POINT('',(3.041720273956,140.71618003718));
#699 = CARTESIAN_POINT('',(3.045982717734,140.2023472976));
#700 = CARTESIAN_POINT('',(3.050436639567,139.69059875845));
#701 = CARTESIAN_POINT('',(3.055116164293,139.18150130873));
#702 = CARTESIAN_POINT('',(3.060062908614,138.67589211614));
#703 = CARTESIAN_POINT('',(3.065334427193,138.17498416983));
#704 = CARTESIAN_POINT('',(3.073913302568,137.43313856785));
#705 = CARTESIAN_POINT('',(3.076887137719,137.18731596539));
#706 = CARTESIAN_POINT('',(3.079986182182,136.94357068591));
#707 = CARTESIAN_POINT('',(3.083228501182,136.70220962121));
#708 = CARTESIAN_POINT('',(3.086638027753,136.46388477938));
#709 = CARTESIAN_POINT('',(3.09024301713,136.22955413876));
#710 = CARTESIAN_POINT('',(3.094081321595,136.00058410744));
#711 = CARTESIAN_POINT('',(3.102205342182,135.56681885755));
#712 = CARTESIAN_POINT('',(3.106399033661,135.36503359668));
#713 = CARTESIAN_POINT('',(3.110956748875,135.17043036496));
#714 = CARTESIAN_POINT('',(3.115989175216,134.98530993287));
#715 = CARTESIAN_POINT('',(3.121582421543,134.82104012807));
#716 = CARTESIAN_POINT('',(3.127743300014,134.69095178819));
#717 = CARTESIAN_POINT('',(3.13450254996,134.62));
#718 = CARTESIAN_POINT('',(3.14159265359,134.62));
#719 = ( GEOMETRIC_REPRESENTATION_CONTEXT(2) 
PARAMETRIC_REPRESENTATION_CONTEXT() REPRESENTATION_CONTEXT('2D SPACE',''
  ) );
#720 = PCURVE('',#593,#721);
#721 = DEFINITIONAL_REPRESENTATION('',(#722),#760);
#722 = B_SPLINE_CURVE_WITH_KNOTS('',8,(#723,#724,#725,#726,#727,#728,
    #729,#730,#731,#732,#733,#734,#735,#736,#737,#738,#739,#740,#741,
    #742,#743,#744,#745,#746,#747,#748,#749,#750,#751,#752,#753,#754,
    #755,#756,#757,#758,#759),.UNSPECIFIED.,.F.,.F.,(9,7,7,7,7,9),(0.,
    0.516444452529,0.760921283082,0.881468890791,0.941938051527,1.),
  .UNSPECIFIED.);
#723 = CARTESIAN_POINT('',(0.261136053575,90.4748));
#724 = CARTESIAN_POINT('',(0.253119781953,88.191430758858));
#725 = CARTESIAN_POINT('',(0.244712630335,85.909671541187));
#726 = CARTESIAN_POINT('',(0.235863246019,83.629582417843));
#727 = CARTESIAN_POINT('',(0.226514739604,81.351384032063));
#728 = CARTESIAN_POINT('',(0.216581565144,79.075588569171));
#729 = CARTESIAN_POINT('',(0.205957664262,76.802953285118));
#730 = CARTESIAN_POINT('',(0.194494818734,74.534583769942));
#731 = CARTESIAN_POINT('',(0.175923303324,71.201685274607));
#732 = CARTESIAN_POINT('',(0.169701894736,70.132486337641));
#733 = CARTESIAN_POINT('',(0.163191515751,69.064983962396));
#734 = CARTESIAN_POINT('',(0.156354067991,67.999406794417));
#735 = CARTESIAN_POINT('',(0.149133340957,66.936267049703));
#736 = CARTESIAN_POINT('',(0.141459808609,65.876319889113));
#737 = CARTESIAN_POINT('',(0.133236608444,64.820663203174));
#738 = CARTESIAN_POINT('',(0.119846709468,63.253846583524));
#739 = CARTESIAN_POINT('',(0.115245839868,62.738180037182));
#740 = CARTESIAN_POINT('',(0.110440286453,62.224347297609));
#741 = CARTESIAN_POINT('',(0.105402078537,61.712598758452));
#742 = CARTESIAN_POINT('',(0.100090775738,61.203501308737));
#743 = CARTESIAN_POINT('',(9.445705429093E-02,60.697892116147));
#744 = CARTESIAN_POINT('',(8.843281960722E-02,60.196984169831));
#745 = CARTESIAN_POINT('',(7.859375246907E-02,59.455138567858));
#746 = CARTESIAN_POINT('',(7.517763123908E-02,59.209315965395));
#747 = CARTESIAN_POINT('',(7.161201474979E-02,58.96557068591));
#748 = CARTESIAN_POINT('',(6.787564158025E-02,58.724209621215));
#749 = CARTESIAN_POINT('',(6.394033006504E-02,58.485884779384));
#750 = CARTESIAN_POINT('',(5.977279702081E-02,58.251554138765));
#751 = CARTESIAN_POINT('',(5.532851182594E-02,58.022584107448));
#752 = CARTESIAN_POINT('',(4.590683331936E-02,57.588818857558));
#753 = CARTESIAN_POINT('',(4.103671470485E-02,57.387033596681));
#754 = CARTESIAN_POINT('',(3.57374385335E-02,57.192430364963));
#755 = CARTESIAN_POINT('',(2.987899455856E-02,57.007309932878));
#756 = CARTESIAN_POINT('',(2.33599192535E-02,56.843040128071));
#757 = CARTESIAN_POINT('',(1.61709293663E-02,56.712951788194));
#758 = CARTESIAN_POINT('',(8.278618110593E-03,56.642));
#759 = CARTESIAN_POINT('',(0.,56.642));
#760 = ( GEOMETRIC_REPRESENTATION_CONTEXT(2) 
PARAMETRIC_REPRESENTATION_CONTEXT() REPRESENTATION_CONTEXT('2D SPACE',''
  ) );
#761 = ADVANCED_FACE('',(#762),#260,.T.);
#762 = FACE_BOUND('',#763,.T.);
#763 = EDGE_LOOP('',(#764,#765,#766,#767));
#764 = ORIENTED_EDGE('',*,*,#461,.F.);
#765 = ORIENTED_EDGE('',*,*,#244,.T.);
#766 = ORIENTED_EDGE('',*,*,#486,.F.);
#767 = ORIENTED_EDGE('',*,*,#768,.F.);
#768 = EDGE_CURVE('',#462,#487,#769,.T.);
#769 = SURFACE_CURVE('',#770,(#775,#782),.PCURVE_S1.);
#770 = CIRCLE('',#771,46.99);
#771 = AXIS2_PLACEMENT_3D('',#772,#773,#774);
#772 = CARTESIAN_POINT('',(0.,0.,79.5528));
#773 = DIRECTION('',(0.,0.,1.));
#774 = DIRECTION('',(1.,0.,-0.));
#775 = PCURVE('',#260,#776);
#776 = DEFINITIONAL_REPRESENTATION('',(#777),#781);
#777 = CIRCLE('',#778,46.99);
#778 = AXIS2_PLACEMENT_2D('',#779,#780);
#779 = CARTESIAN_POINT('',(0.,0.));
#780 = DIRECTION('',(1.,0.));
#781 = ( GEOMETRIC_REPRESENTATION_CONTEXT(2) 
PARAMETRIC_REPRESENTATION_CONTEXT() REPRESENTATION_CONTEXT('2D SPACE',''
  ) );
#782 = PCURVE('',#593,#783);
#783 = DEFINITIONAL_REPRESENTATION('',(#784),#787);
#784 = B_SPLINE_CURVE_WITH_KNOTS('',1,(#785,#786),.UNSPECIFIED.,.F.,.F.,
  (2,2),(0.261136053575,6.022049253604),.PIECEWISE_BEZIER_KNOTS.);
#785 = CARTESIAN_POINT('',(0.261136053575,90.4748));
#786 = CARTESIAN_POINT('',(6.022049253604,90.4748));
#787 = ( GEOMETRIC_REPRESENTATION_CONTEXT(2) 
PARAMETRIC_REPRESENTATION_CONTEXT() REPRESENTATION_CONTEXT('2D SPACE',''
  ) );
#788 = ADVANCED_FACE('',(#789),#418,.F.);
#789 = FACE_BOUND('',#790,.F.);
#790 = EDGE_LOOP('',(#791,#792,#813,#841));
#791 = ORIENTED_EDGE('',*,*,#399,.F.);
#792 = ORIENTED_EDGE('',*,*,#793,.F.);
#793 = EDGE_CURVE('',#794,#400,#796,.T.);
#794 = VERTEX_POINT('',#795);
#795 = CARTESIAN_POINT('',(45.396912,12.131796275254,3.3528));
#796 = SURFACE_CURVE('',#797,(#801,#807),.PCURVE_S1.);
#797 = LINE('',#798,#799);
#798 = CARTESIAN_POINT('',(45.396912,12.131796275254,3.3528));
#799 = VECTOR('',#800,1.);
#800 = DIRECTION('',(0.,0.,1.));
#801 = PCURVE('',#418,#802);
#802 = DEFINITIONAL_REPRESENTATION('',(#803),#806);
#803 = B_SPLINE_CURVE_WITH_KNOTS('',1,(#804,#805),.UNSPECIFIED.,.F.,.F.,
  (2,2),(0.,2.54),.PIECEWISE_BEZIER_KNOTS.);
#804 = CARTESIAN_POINT('',(2.902881644509,92.2528));
#805 = CARTESIAN_POINT('',(2.902881644509,94.7928));
#806 = ( GEOMETRIC_REPRESENTATION_CONTEXT(2) 
PARAMETRIC_REPRESENTATION_CONTEXT() REPRESENTATION_CONTEXT('2D SPACE',''
  ) );
#807 = PCURVE('',#444,#808);
#808 = DEFINITIONAL_REPRESENTATION('',(#809),#812);
#809 = B_SPLINE_CURVE_WITH_KNOTS('',1,(#810,#811),.UNSPECIFIED.,.F.,.F.,
  (2,2),(0.,2.54),.PIECEWISE_BEZIER_KNOTS.);
#810 = CARTESIAN_POINT('',(0.261136053575,0.));
#811 = CARTESIAN_POINT('',(0.261136053575,2.54));
#812 = ( GEOMETRIC_REPRESENTATION_CONTEXT(2) 
PARAMETRIC_REPRESENTATION_CONTEXT() REPRESENTATION_CONTEXT('2D SPACE',''
  ) );
#813 = ORIENTED_EDGE('',*,*,#814,.T.);
#814 = EDGE_CURVE('',#794,#815,#817,.T.);
#815 = VERTEX_POINT('',#816);
#816 = CARTESIAN_POINT('',(45.396912,-12.13179627525,3.3528));
#817 = SURFACE_CURVE('',#818,(#823,#829),.PCURVE_S1.);
#818 = CIRCLE('',#819,51.308);
#819 = AXIS2_PLACEMENT_3D('',#820,#821,#822);
#820 = CARTESIAN_POINT('',(95.25,0.,3.3528));
#821 = DIRECTION('',(0.,0.,1.));
#822 = DIRECTION('',(1.,0.,-0.));
#823 = PCURVE('',#418,#824);
#824 = DEFINITIONAL_REPRESENTATION('',(#825),#828);
#825 = B_SPLINE_CURVE_WITH_KNOTS('',1,(#826,#827),.UNSPECIFIED.,.F.,.F.,
  (2,2),(2.902881644509,3.38030366267),.PIECEWISE_BEZIER_KNOTS.);
#826 = CARTESIAN_POINT('',(2.902881644509,92.2528));
#827 = CARTESIAN_POINT('',(3.38030366267,92.2528));
#828 = ( GEOMETRIC_REPRESENTATION_CONTEXT(2) 
PARAMETRIC_REPRESENTATION_CONTEXT() REPRESENTATION_CONTEXT('2D SPACE',''
  ) );
#829 = PCURVE('',#830,#835);
#830 = PLANE('',#831);
#831 = AXIS2_PLACEMENT_3D('',#832,#833,#834);
#832 = CARTESIAN_POINT('',(0.,0.,3.3528));
#833 = DIRECTION('',(0.,0.,1.));
#834 = DIRECTION('',(1.,0.,-0.));
#835 = DEFINITIONAL_REPRESENTATION('',(#836),#840);
#836 = CIRCLE('',#837,51.308);
#837 = AXIS2_PLACEMENT_2D('',#838,#839);
#838 = CARTESIAN_POINT('',(95.25,0.));
#839 = DIRECTION('',(1.,0.));
#840 = ( GEOMETRIC_REPRESENTATION_CONTEXT(2) 
PARAMETRIC_REPRESENTATION_CONTEXT() REPRESENTATION_CONTEXT('2D SPACE',''
  ) );
#841 = ORIENTED_EDGE('',*,*,#842,.T.);
#842 = EDGE_CURVE('',#815,#402,#843,.T.);
#843 = SURFACE_CURVE('',#844,(#848,#854),.PCURVE_S1.);
#844 = LINE('',#845,#846);
#845 = CARTESIAN_POINT('',(45.396912,-12.13179627525,3.3528));
#846 = VECTOR('',#847,1.);
#847 = DIRECTION('',(0.,0.,1.));
#848 = PCURVE('',#418,#849);
#849 = DEFINITIONAL_REPRESENTATION('',(#850),#853);
#850 = B_SPLINE_CURVE_WITH_KNOTS('',1,(#851,#852),.UNSPECIFIED.,.F.,.F.,
  (2,2),(0.,2.54),.PIECEWISE_BEZIER_KNOTS.);
#851 = CARTESIAN_POINT('',(3.38030366267,92.2528));
#852 = CARTESIAN_POINT('',(3.38030366267,94.7928));
#853 = ( GEOMETRIC_REPRESENTATION_CONTEXT(2) 
PARAMETRIC_REPRESENTATION_CONTEXT() REPRESENTATION_CONTEXT('2D SPACE',''
  ) );
#854 = PCURVE('',#444,#855);
#855 = DEFINITIONAL_REPRESENTATION('',(#856),#859);
#856 = B_SPLINE_CURVE_WITH_KNOTS('',1,(#857,#858),.UNSPECIFIED.,.F.,.F.,
  (2,2),(0.,2.54),.PIECEWISE_BEZIER_KNOTS.);
#857 = CARTESIAN_POINT('',(6.022049253604,0.));
#858 = CARTESIAN_POINT('',(6.022049253604,2.54));
#859 = ( GEOMETRIC_REPRESENTATION_CONTEXT(2) 
PARAMETRIC_REPRESENTATION_CONTEXT() REPRESENTATION_CONTEXT('2D SPACE',''
  ) );
#860 = ADVANCED_FACE('',(#861),#444,.T.);
#861 = FACE_BOUND('',#862,.T.);
#862 = EDGE_LOOP('',(#863,#864,#865,#886));
#863 = ORIENTED_EDGE('',*,*,#429,.F.);
#864 = ORIENTED_EDGE('',*,*,#793,.F.);
#865 = ORIENTED_EDGE('',*,*,#866,.T.);
#866 = EDGE_CURVE('',#794,#815,#867,.T.);
#867 = SURFACE_CURVE('',#868,(#873,#879),.PCURVE_S1.);
#868 = CIRCLE('',#869,46.99);
#869 = AXIS2_PLACEMENT_3D('',#870,#871,#872);
#870 = CARTESIAN_POINT('',(0.,0.,3.3528));
#871 = DIRECTION('',(0.,0.,1.));
#872 = DIRECTION('',(1.,0.,-0.));
#873 = PCURVE('',#444,#874);
#874 = DEFINITIONAL_REPRESENTATION('',(#875),#878);
#875 = B_SPLINE_CURVE_WITH_KNOTS('',1,(#876,#877),.UNSPECIFIED.,.F.,.F.,
  (2,2),(0.261136053575,6.022049253604),.PIECEWISE_BEZIER_KNOTS.);
#876 = CARTESIAN_POINT('',(0.261136053575,0.));
#877 = CARTESIAN_POINT('',(6.022049253604,0.));
#878 = ( GEOMETRIC_REPRESENTATION_CONTEXT(2) 
PARAMETRIC_REPRESENTATION_CONTEXT() REPRESENTATION_CONTEXT('2D SPACE',''
  ) );
#879 = PCURVE('',#830,#880);
#880 = DEFINITIONAL_REPRESENTATION('',(#881),#885);
#881 = CIRCLE('',#882,46.99);
#882 = AXIS2_PLACEMENT_2D('',#883,#884);
#883 = CARTESIAN_POINT('',(0.,0.));
#884 = DIRECTION('',(1.,0.));
#885 = ( GEOMETRIC_REPRESENTATION_CONTEXT(2) 
PARAMETRIC_REPRESENTATION_CONTEXT() REPRESENTATION_CONTEXT('2D SPACE',''
  ) );
#886 = ORIENTED_EDGE('',*,*,#842,.T.);
#887 = ADVANCED_FACE('',(#888),#593,.F.);
#888 = FACE_BOUND('',#889,.F.);
#889 = EDGE_LOOP('',(#890,#891,#892,#913,#939,#940));
#890 = ORIENTED_EDGE('',*,*,#768,.F.);
#891 = ORIENTED_EDGE('',*,*,#639,.T.);
#892 = ORIENTED_EDGE('',*,*,#893,.F.);
#893 = EDGE_CURVE('',#894,#510,#896,.T.);
#894 = VERTEX_POINT('',#895);
#895 = CARTESIAN_POINT('',(38.862,-9.518444781693E-15,-10.668));
#896 = SEAM_CURVE('',#897,(#901,#907),.PCURVE_S1.);
#897 = LINE('',#898,#899);
#898 = CARTESIAN_POINT('',(38.839117117117,-9.512840091837E-15,-10.922)
  );
#899 = VECTOR('',#900,1.);
#900 = DIRECTION('',(8.972670489621E-02,-2.197670438984E-17,
    0.995966424348));
#901 = PCURVE('',#593,#902);
#902 = DEFINITIONAL_REPRESENTATION('',(#903),#906);
#903 = B_SPLINE_CURVE_WITH_KNOTS('',1,(#904,#905),.UNSPECIFIED.,.F.,.F.,
  (2,2),(0.255028677464,56.87139507447),.PIECEWISE_BEZIER_KNOTS.);
#904 = CARTESIAN_POINT('',(6.28318530718,0.254));
#905 = CARTESIAN_POINT('',(6.28318530718,56.642));
#906 = ( GEOMETRIC_REPRESENTATION_CONTEXT(2) 
PARAMETRIC_REPRESENTATION_CONTEXT() REPRESENTATION_CONTEXT('2D SPACE',''
  ) );
#907 = PCURVE('',#593,#908);
#908 = DEFINITIONAL_REPRESENTATION('',(#909),#912);
#909 = B_SPLINE_CURVE_WITH_KNOTS('',1,(#910,#911),.UNSPECIFIED.,.F.,.F.,
  (2,2),(0.255028677464,56.87139507447),.PIECEWISE_BEZIER_KNOTS.);
#910 = CARTESIAN_POINT('',(0.,0.254));
#911 = CARTESIAN_POINT('',(0.,56.642));
#912 = ( GEOMETRIC_REPRESENTATION_CONTEXT(2) 
PARAMETRIC_REPRESENTATION_CONTEXT() REPRESENTATION_CONTEXT('2D SPACE',''
  ) );
#913 = ORIENTED_EDGE('',*,*,#914,.T.);
#914 = EDGE_CURVE('',#894,#894,#915,.T.);
#915 = SURFACE_CURVE('',#916,(#921,#927),.PCURVE_S1.);
#916 = CIRCLE('',#917,38.862);
#917 = AXIS2_PLACEMENT_3D('',#918,#919,#920);
#918 = CARTESIAN_POINT('',(0.,0.,-10.668));
#919 = DIRECTION('',(0.,0.,1.));
#920 = DIRECTION('',(1.,0.,-0.));
#921 = PCURVE('',#593,#922);
#922 = DEFINITIONAL_REPRESENTATION('',(#923),#926);
#923 = B_SPLINE_CURVE_WITH_KNOTS('',1,(#924,#925),.UNSPECIFIED.,.F.,.F.,
  (2,2),(0.,6.28318530718),.PIECEWISE_BEZIER_KNOTS.);
#924 = CARTESIAN_POINT('',(0.,0.254));
#925 = CARTESIAN_POINT('',(6.28318530718,0.254));
#926 = ( GEOMETRIC_REPRESENTATION_CONTEXT(2) 
PARAMETRIC_REPRESENTATION_CONTEXT() REPRESENTATION_CONTEXT('2D SPACE',''
  ) );
#927 = PCURVE('',#928,#933);
#928 = PLANE('',#929);
#929 = AXIS2_PLACEMENT_3D('',#930,#931,#932);
#930 = CARTESIAN_POINT('',(0.,0.,-10.668));
#931 = DIRECTION('',(0.,0.,1.));
#932 = DIRECTION('',(1.,0.,-0.));
#933 = DEFINITIONAL_REPRESENTATION('',(#934),#938);
#934 = CIRCLE('',#935,38.862);
#935 = AXIS2_PLACEMENT_2D('',#936,#937);
#936 = CARTESIAN_POINT('',(0.,0.));
#937 = DIRECTION('',(1.,0.));
#938 = ( GEOMETRIC_REPRESENTATION_CONTEXT(2) 
PARAMETRIC_REPRESENTATION_CONTEXT() REPRESENTATION_CONTEXT('2D SPACE',''
  ) );
#939 = ORIENTED_EDGE('',*,*,#893,.T.);
#940 = ORIENTED_EDGE('',*,*,#509,.T.);
#941 = ADVANCED_FACE('',(#942,#946),#830,.F.);
#942 = FACE_BOUND('',#943,.F.);
#943 = EDGE_LOOP('',(#944,#945));
#944 = ORIENTED_EDGE('',*,*,#814,.F.);
#945 = ORIENTED_EDGE('',*,*,#866,.T.);
#946 = FACE_BOUND('',#947,.F.);
#947 = EDGE_LOOP('',(#948));
#948 = ORIENTED_EDGE('',*,*,#949,.F.);
#949 = EDGE_CURVE('',#950,#950,#952,.T.);
#950 = VERTEX_POINT('',#951);
#951 = CARTESIAN_POINT('',(41.91,-1.026498947045E-14,3.3528));
#952 = SURFACE_CURVE('',#953,(#958,#965),.PCURVE_S1.);
#953 = CIRCLE('',#954,41.91);
#954 = AXIS2_PLACEMENT_3D('',#955,#956,#957);
#955 = CARTESIAN_POINT('',(0.,0.,3.3528));
#956 = DIRECTION('',(0.,0.,1.));
#957 = DIRECTION('',(1.,0.,-0.));
#958 = PCURVE('',#830,#959);
#959 = DEFINITIONAL_REPRESENTATION('',(#960),#964);
#960 = CIRCLE('',#961,41.91);
#961 = AXIS2_PLACEMENT_2D('',#962,#963);
#962 = CARTESIAN_POINT('',(0.,0.));
#963 = DIRECTION('',(1.,0.));
#964 = ( GEOMETRIC_REPRESENTATION_CONTEXT(2) 
PARAMETRIC_REPRESENTATION_CONTEXT() REPRESENTATION_CONTEXT('2D SPACE',''
  ) );
#965 = PCURVE('',#966,#971);
#966 = CYLINDRICAL_SURFACE('',#967,41.91);
#967 = AXIS2_PLACEMENT_3D('',#968,#969,#970);
#968 = CARTESIAN_POINT('',(0.,0.,-10.668));
#969 = DIRECTION('',(0.,0.,1.));
#970 = DIRECTION('',(1.,0.,-0.));
#971 = DEFINITIONAL_REPRESENTATION('',(#972),#975);
#972 = B_SPLINE_CURVE_WITH_KNOTS('',1,(#973,#974),.UNSPECIFIED.,.F.,.F.,
  (2,2),(0.,6.28318530718),.PIECEWISE_BEZIER_KNOTS.);
#973 = CARTESIAN_POINT('',(0.,14.0208));
#974 = CARTESIAN_POINT('',(6.28318530718,14.0208));
#975 = ( GEOMETRIC_REPRESENTATION_CONTEXT(2) 
PARAMETRIC_REPRESENTATION_CONTEXT() REPRESENTATION_CONTEXT('2D SPACE',''
  ) );
#976 = ADVANCED_FACE('',(#977,#1216),#928,.F.);
#977 = FACE_BOUND('',#978,.F.);
#978 = EDGE_LOOP('',(#979,#1009,#1032,#1060,#1088,#1116,#1139,#1162,
    #1190));
#979 = ORIENTED_EDGE('',*,*,#980,.T.);
#980 = EDGE_CURVE('',#981,#983,#985,.T.);
#981 = VERTEX_POINT('',#982);
#982 = CARTESIAN_POINT('',(-37.45163146489,26.223914669969,-10.668));
#983 = VERTEX_POINT('',#984);
#984 = CARTESIAN_POINT('',(-34.33066217615,24.038588447472,-10.668));
#985 = SURFACE_CURVE('',#986,(#990,#997),.PCURVE_S1.);
#986 = LINE('',#987,#988);
#987 = CARTESIAN_POINT('',(-208.0646192494,145.68841483316,-10.668));
#988 = VECTOR('',#989,1.);
#989 = DIRECTION('',(0.819152044289,-0.573576436351,0.));
#990 = PCURVE('',#928,#991);
#991 = DEFINITIONAL_REPRESENTATION('',(#992),#996);
#992 = LINE('',#993,#994);
#993 = CARTESIAN_POINT('',(-208.0646192494,145.68841483316));
#994 = VECTOR('',#995,1.);
#995 = DIRECTION('',(0.819152044289,-0.573576436351));
#996 = ( GEOMETRIC_REPRESENTATION_CONTEXT(2) 
PARAMETRIC_REPRESENTATION_CONTEXT() REPRESENTATION_CONTEXT('2D SPACE',''
  ) );
#997 = PCURVE('',#998,#1003);
#998 = PLANE('',#999);
#999 = AXIS2_PLACEMENT_3D('',#1000,#1001,#1002);
#1000 = CARTESIAN_POINT('',(-37.45163146489,26.22391466997,-10.668));
#1001 = DIRECTION('',(0.573576436351,0.819152044289,-0.));
#1002 = DIRECTION('',(0.819152044289,-0.573576436351,0.));
#1003 = DEFINITIONAL_REPRESENTATION('',(#1004),#1008);
#1004 = LINE('',#1005,#1006);
#1005 = CARTESIAN_POINT('',(-208.28,-0.));
#1006 = VECTOR('',#1007,1.);
#1007 = DIRECTION('',(1.,0.));
#1008 = ( GEOMETRIC_REPRESENTATION_CONTEXT(2) 
PARAMETRIC_REPRESENTATION_CONTEXT() REPRESENTATION_CONTEXT('2D SPACE',''
  ) );
#1009 = ORIENTED_EDGE('',*,*,#1010,.T.);
#1010 = EDGE_CURVE('',#983,#1011,#1013,.T.);
#1011 = VERTEX_POINT('',#1012);
#1012 = CARTESIAN_POINT('',(24.038588447472,-34.33066217615,-10.668));
#1013 = SURFACE_CURVE('',#1014,(#1019,#1026),.PCURVE_S1.);
#1014 = CIRCLE('',#1015,41.91);
#1015 = AXIS2_PLACEMENT_3D('',#1016,#1017,#1018);
#1016 = CARTESIAN_POINT('',(0.,0.,-10.668));
#1017 = DIRECTION('',(0.,0.,1.));
#1018 = DIRECTION('',(1.,0.,-0.));
#1019 = PCURVE('',#928,#1020);
#1020 = DEFINITIONAL_REPRESENTATION('',(#1021),#1025);
#1021 = CIRCLE('',#1022,41.91);
#1022 = AXIS2_PLACEMENT_2D('',#1023,#1024);
#1023 = CARTESIAN_POINT('',(0.,0.));
#1024 = DIRECTION('',(1.,0.));
#1025 = ( GEOMETRIC_REPRESENTATION_CONTEXT(2) 
PARAMETRIC_REPRESENTATION_CONTEXT() REPRESENTATION_CONTEXT('2D SPACE',''
  ) );
#1026 = PCURVE('',#966,#1027);
#1027 = DEFINITIONAL_REPRESENTATION('',(#1028),#1031);
#1028 = B_SPLINE_CURVE_WITH_KNOTS('',1,(#1029,#1030),.UNSPECIFIED.,.F.,
  .F.,(2,2),(2.530727415392,5.323254218583),.PIECEWISE_BEZIER_KNOTS.);
#1029 = CARTESIAN_POINT('',(2.530727415392,0.));
#1030 = CARTESIAN_POINT('',(5.323254218583,0.));
#1031 = ( GEOMETRIC_REPRESENTATION_CONTEXT(2) 
PARAMETRIC_REPRESENTATION_CONTEXT() REPRESENTATION_CONTEXT('2D SPACE',''
  ) );
#1032 = ORIENTED_EDGE('',*,*,#1033,.T.);
#1033 = EDGE_CURVE('',#1011,#1034,#1036,.T.);
#1034 = VERTEX_POINT('',#1035);
#1035 = CARTESIAN_POINT('',(26.223914669969,-37.45163146489,-10.668));
#1036 = SURFACE_CURVE('',#1037,(#1041,#1048),.PCURVE_S1.);
#1037 = LINE('',#1038,#1039);
#1038 = CARTESIAN_POINT('',(0.,0.,-10.668));
#1039 = VECTOR('',#1040,1.);
#1040 = DIRECTION('',(0.573576436351,-0.819152044289,0.));
#1041 = PCURVE('',#928,#1042);
#1042 = DEFINITIONAL_REPRESENTATION('',(#1043),#1047);
#1043 = LINE('',#1044,#1045);
#1044 = CARTESIAN_POINT('',(0.,0.));
#1045 = VECTOR('',#1046,1.);
#1046 = DIRECTION('',(0.573576436351,-0.819152044289));
#1047 = ( GEOMETRIC_REPRESENTATION_CONTEXT(2) 
PARAMETRIC_REPRESENTATION_CONTEXT() REPRESENTATION_CONTEXT('2D SPACE',''
  ) );
#1048 = PCURVE('',#1049,#1054);
#1049 = PLANE('',#1050);
#1050 = AXIS2_PLACEMENT_3D('',#1051,#1052,#1053);
#1051 = CARTESIAN_POINT('',(23.601523202973,-33.7064683184,-10.668));
#1052 = DIRECTION('',(0.819152044289,0.573576436351,-0.));
#1053 = DIRECTION('',(0.573576436351,-0.819152044289,0.));
#1054 = DEFINITIONAL_REPRESENTATION('',(#1055),#1059);
#1055 = LINE('',#1056,#1057);
#1056 = CARTESIAN_POINT('',(-41.148,-0.));
#1057 = VECTOR('',#1058,1.);
#1058 = DIRECTION('',(1.,0.));
#1059 = ( GEOMETRIC_REPRESENTATION_CONTEXT(2) 
PARAMETRIC_REPRESENTATION_CONTEXT() REPRESENTATION_CONTEXT('2D SPACE',''
  ) );
#1060 = ORIENTED_EDGE('',*,*,#1061,.T.);
#1061 = EDGE_CURVE('',#1034,#1062,#1064,.T.);
#1062 = VERTEX_POINT('',#1063);
#1063 = CARTESIAN_POINT('',(37.451631464893,-26.22391466996,-10.668));
#1064 = SURFACE_CURVE('',#1065,(#1070,#1077),.PCURVE_S1.);
#1065 = CIRCLE('',#1066,45.72);
#1066 = AXIS2_PLACEMENT_3D('',#1067,#1068,#1069);
#1067 = CARTESIAN_POINT('',(0.,0.,-10.668));
#1068 = DIRECTION('',(0.,0.,1.));
#1069 = DIRECTION('',(1.,0.,-0.));
#1070 = PCURVE('',#928,#1071);
#1071 = DEFINITIONAL_REPRESENTATION('',(#1072),#1076);
#1072 = CIRCLE('',#1073,45.72);
#1073 = AXIS2_PLACEMENT_2D('',#1074,#1075);
#1074 = CARTESIAN_POINT('',(0.,0.));
#1075 = DIRECTION('',(1.,0.));
#1076 = ( GEOMETRIC_REPRESENTATION_CONTEXT(2) 
PARAMETRIC_REPRESENTATION_CONTEXT() REPRESENTATION_CONTEXT('2D SPACE',''
  ) );
#1077 = PCURVE('',#1078,#1083);
#1078 = CYLINDRICAL_SURFACE('',#1079,45.72);
#1079 = AXIS2_PLACEMENT_3D('',#1080,#1081,#1082);
#1080 = CARTESIAN_POINT('',(0.,0.,-10.668));
#1081 = DIRECTION('',(-0.,-0.,-1.));
#1082 = DIRECTION('',(1.,0.,-0.));
#1083 = DEFINITIONAL_REPRESENTATION('',(#1084),#1087);
#1084 = B_SPLINE_CURVE_WITH_KNOTS('',1,(#1085,#1086),.UNSPECIFIED.,.F.,
  .F.,(2,2),(5.323254218583,5.672320068982),.PIECEWISE_BEZIER_KNOTS.);
#1085 = CARTESIAN_POINT('',(-5.323254218583,0.));
#1086 = CARTESIAN_POINT('',(-5.672320068982,0.));
#1087 = ( GEOMETRIC_REPRESENTATION_CONTEXT(2) 
PARAMETRIC_REPRESENTATION_CONTEXT() REPRESENTATION_CONTEXT('2D SPACE',''
  ) );
#1088 = ORIENTED_EDGE('',*,*,#1089,.T.);
#1089 = EDGE_CURVE('',#1062,#1090,#1092,.T.);
#1090 = VERTEX_POINT('',#1091);
#1091 = CARTESIAN_POINT('',(34.330662176152,-24.03858844747,-10.668));
#1092 = SURFACE_CURVE('',#1093,(#1097,#1104),.PCURVE_S1.);
#1093 = LINE('',#1094,#1095);
#1094 = CARTESIAN_POINT('',(208.0646192494,-145.6884148331,-10.668));
#1095 = VECTOR('',#1096,1.);
#1096 = DIRECTION('',(-0.819152044289,0.573576436351,0.));
#1097 = PCURVE('',#928,#1098);
#1098 = DEFINITIONAL_REPRESENTATION('',(#1099),#1103);
#1099 = LINE('',#1100,#1101);
#1100 = CARTESIAN_POINT('',(208.0646192494,-145.6884148331));
#1101 = VECTOR('',#1102,1.);
#1102 = DIRECTION('',(-0.819152044289,0.573576436351));
#1103 = ( GEOMETRIC_REPRESENTATION_CONTEXT(2) 
PARAMETRIC_REPRESENTATION_CONTEXT() REPRESENTATION_CONTEXT('2D SPACE',''
  ) );
#1104 = PCURVE('',#1105,#1110);
#1105 = PLANE('',#1106);
#1106 = AXIS2_PLACEMENT_3D('',#1107,#1108,#1109);
#1107 = CARTESIAN_POINT('',(37.451631464893,-26.22391466997,-10.668));
#1108 = DIRECTION('',(-0.573576436351,-0.819152044289,0.));
#1109 = DIRECTION('',(-0.819152044289,0.573576436351,0.));
#1110 = DEFINITIONAL_REPRESENTATION('',(#1111),#1115);
#1111 = LINE('',#1112,#1113);
#1112 = CARTESIAN_POINT('',(-208.28,-0.));
#1113 = VECTOR('',#1114,1.);
#1114 = DIRECTION('',(1.,0.));
#1115 = ( GEOMETRIC_REPRESENTATION_CONTEXT(2) 
PARAMETRIC_REPRESENTATION_CONTEXT() REPRESENTATION_CONTEXT('2D SPACE',''
  ) );
#1116 = ORIENTED_EDGE('',*,*,#1117,.T.);
#1117 = EDGE_CURVE('',#1090,#1118,#1120,.T.);
#1118 = VERTEX_POINT('',#1119);
#1119 = CARTESIAN_POINT('',(41.91,-1.026498947045E-14,-10.668));
#1120 = SURFACE_CURVE('',#1121,(#1126,#1133),.PCURVE_S1.);
#1121 = CIRCLE('',#1122,41.91);
#1122 = AXIS2_PLACEMENT_3D('',#1123,#1124,#1125);
#1123 = CARTESIAN_POINT('',(0.,0.,-10.668));
#1124 = DIRECTION('',(0.,0.,1.));
#1125 = DIRECTION('',(1.,0.,-0.));
#1126 = PCURVE('',#928,#1127);
#1127 = DEFINITIONAL_REPRESENTATION('',(#1128),#1132);
#1128 = CIRCLE('',#1129,41.91);
#1129 = AXIS2_PLACEMENT_2D('',#1130,#1131);
#1130 = CARTESIAN_POINT('',(0.,0.));
#1131 = DIRECTION('',(1.,0.));
#1132 = ( GEOMETRIC_REPRESENTATION_CONTEXT(2) 
PARAMETRIC_REPRESENTATION_CONTEXT() REPRESENTATION_CONTEXT('2D SPACE',''
  ) );
#1133 = PCURVE('',#966,#1134);
#1134 = DEFINITIONAL_REPRESENTATION('',(#1135),#1138);
#1135 = B_SPLINE_CURVE_WITH_KNOTS('',1,(#1136,#1137),.UNSPECIFIED.,.F.,
  .F.,(2,2),(5.672320068982,6.28318530718),.PIECEWISE_BEZIER_KNOTS.);
#1136 = CARTESIAN_POINT('',(5.672320068982,0.));
#1137 = CARTESIAN_POINT('',(6.28318530718,0.));
#1138 = ( GEOMETRIC_REPRESENTATION_CONTEXT(2) 
PARAMETRIC_REPRESENTATION_CONTEXT() REPRESENTATION_CONTEXT('2D SPACE',''
  ) );
#1139 = ORIENTED_EDGE('',*,*,#1140,.T.);
#1140 = EDGE_CURVE('',#1118,#1141,#1143,.T.);
#1141 = VERTEX_POINT('',#1142);
#1142 = CARTESIAN_POINT('',(-24.03858844747,34.330662176152,-10.668));
#1143 = SURFACE_CURVE('',#1144,(#1149,#1156),.PCURVE_S1.);
#1144 = CIRCLE('',#1145,41.91);
#1145 = AXIS2_PLACEMENT_3D('',#1146,#1147,#1148);
#1146 = CARTESIAN_POINT('',(0.,0.,-10.668));
#1147 = DIRECTION('',(0.,0.,1.));
#1148 = DIRECTION('',(1.,0.,-0.));
#1149 = PCURVE('',#928,#1150);
#1150 = DEFINITIONAL_REPRESENTATION('',(#1151),#1155);
#1151 = CIRCLE('',#1152,41.91);
#1152 = AXIS2_PLACEMENT_2D('',#1153,#1154);
#1153 = CARTESIAN_POINT('',(0.,0.));
#1154 = DIRECTION('',(1.,0.));
#1155 = ( GEOMETRIC_REPRESENTATION_CONTEXT(2) 
PARAMETRIC_REPRESENTATION_CONTEXT() REPRESENTATION_CONTEXT('2D SPACE',''
  ) );
#1156 = PCURVE('',#966,#1157);
#1157 = DEFINITIONAL_REPRESENTATION('',(#1158),#1161);
#1158 = B_SPLINE_CURVE_WITH_KNOTS('',1,(#1159,#1160),.UNSPECIFIED.,.F.,
  .F.,(2,2),(0.,2.181661564993),.PIECEWISE_BEZIER_KNOTS.);
#1159 = CARTESIAN_POINT('',(0.,0.));
#1160 = CARTESIAN_POINT('',(2.181661564993,0.));
#1161 = ( GEOMETRIC_REPRESENTATION_CONTEXT(2) 
PARAMETRIC_REPRESENTATION_CONTEXT() REPRESENTATION_CONTEXT('2D SPACE',''
  ) );
#1162 = ORIENTED_EDGE('',*,*,#1163,.T.);
#1163 = EDGE_CURVE('',#1141,#1164,#1166,.T.);
#1164 = VERTEX_POINT('',#1165);
#1165 = CARTESIAN_POINT('',(-26.22391466996,37.451631464893,-10.668));
#1166 = SURFACE_CURVE('',#1167,(#1171,#1178),.PCURVE_S1.);
#1167 = LINE('',#1168,#1169);
#1168 = CARTESIAN_POINT('',(0.,0.,-10.668));
#1169 = VECTOR('',#1170,1.);
#1170 = DIRECTION('',(-0.573576436351,0.819152044289,0.));
#1171 = PCURVE('',#928,#1172);
#1172 = DEFINITIONAL_REPRESENTATION('',(#1173),#1177);
#1173 = LINE('',#1174,#1175);
#1174 = CARTESIAN_POINT('',(0.,0.));
#1175 = VECTOR('',#1176,1.);
#1176 = DIRECTION('',(-0.573576436351,0.819152044289));
#1177 = ( GEOMETRIC_REPRESENTATION_CONTEXT(2) 
PARAMETRIC_REPRESENTATION_CONTEXT() REPRESENTATION_CONTEXT('2D SPACE',''
  ) );
#1178 = PCURVE('',#1179,#1184);
#1179 = PLANE('',#1180);
#1180 = AXIS2_PLACEMENT_3D('',#1181,#1182,#1183);
#1181 = CARTESIAN_POINT('',(-23.60152320297,33.706468318403,-10.668));
#1182 = DIRECTION('',(-0.819152044289,-0.573576436351,0.));
#1183 = DIRECTION('',(-0.573576436351,0.819152044289,0.));
#1184 = DEFINITIONAL_REPRESENTATION('',(#1185),#1189);
#1185 = LINE('',#1186,#1187);
#1186 = CARTESIAN_POINT('',(-41.148,-0.));
#1187 = VECTOR('',#1188,1.);
#1188 = DIRECTION('',(1.,0.));
#1189 = ( GEOMETRIC_REPRESENTATION_CONTEXT(2) 
PARAMETRIC_REPRESENTATION_CONTEXT() REPRESENTATION_CONTEXT('2D SPACE',''
  ) );
#1190 = ORIENTED_EDGE('',*,*,#1191,.T.);
#1191 = EDGE_CURVE('',#1164,#981,#1192,.T.);
#1192 = SURFACE_CURVE('',#1193,(#1198,#1205),.PCURVE_S1.);
#1193 = CIRCLE('',#1194,45.72);
#1194 = AXIS2_PLACEMENT_3D('',#1195,#1196,#1197);
#1195 = CARTESIAN_POINT('',(0.,0.,-10.668));
#1196 = DIRECTION('',(0.,0.,1.));
#1197 = DIRECTION('',(1.,0.,-0.));
#1198 = PCURVE('',#928,#1199);
#1199 = DEFINITIONAL_REPRESENTATION('',(#1200),#1204);
#1200 = CIRCLE('',#1201,45.72);
#1201 = AXIS2_PLACEMENT_2D('',#1202,#1203);
#1202 = CARTESIAN_POINT('',(0.,0.));
#1203 = DIRECTION('',(1.,0.));
#1204 = ( GEOMETRIC_REPRESENTATION_CONTEXT(2) 
PARAMETRIC_REPRESENTATION_CONTEXT() REPRESENTATION_CONTEXT('2D SPACE',''
  ) );
#1205 = PCURVE('',#1206,#1211);
#1206 = CYLINDRICAL_SURFACE('',#1207,45.72);
#1207 = AXIS2_PLACEMENT_3D('',#1208,#1209,#1210);
#1208 = CARTESIAN_POINT('',(0.,0.,-10.668));
#1209 = DIRECTION('',(-0.,-0.,-1.));
#1210 = DIRECTION('',(1.,0.,-0.));
#1211 = DEFINITIONAL_REPRESENTATION('',(#1212),#1215);
#1212 = B_SPLINE_CURVE_WITH_KNOTS('',1,(#1213,#1214),.UNSPECIFIED.,.F.,
  .F.,(2,2),(2.181661564993,2.530727415392),.PIECEWISE_BEZIER_KNOTS.);
#1213 = CARTESIAN_POINT('',(-2.181661564993,0.));
#1214 = CARTESIAN_POINT('',(-2.530727415392,0.));
#1215 = ( GEOMETRIC_REPRESENTATION_CONTEXT(2) 
PARAMETRIC_REPRESENTATION_CONTEXT() REPRESENTATION_CONTEXT('2D SPACE',''
  ) );
#1216 = FACE_BOUND('',#1217,.F.);
#1217 = EDGE_LOOP('',(#1218));
#1218 = ORIENTED_EDGE('',*,*,#914,.F.);
#1219 = ADVANCED_FACE('',(#1220),#966,.T.);
#1220 = FACE_BOUND('',#1221,.T.);
#1221 = EDGE_LOOP('',(#1222,#1223,#1242,#1243,#1265,#1293,#1313,#1314,
    #1336,#1364,#1384,#1385));
#1222 = ORIENTED_EDGE('',*,*,#949,.F.);
#1223 = ORIENTED_EDGE('',*,*,#1224,.F.);
#1224 = EDGE_CURVE('',#1118,#950,#1225,.T.);
#1225 = SEAM_CURVE('',#1226,(#1230,#1236),.PCURVE_S1.);
#1226 = LINE('',#1227,#1228);
#1227 = CARTESIAN_POINT('',(41.91,-1.026498947045E-14,-10.668));
#1228 = VECTOR('',#1229,1.);
#1229 = DIRECTION('',(0.,0.,1.));
#1230 = PCURVE('',#966,#1231);
#1231 = DEFINITIONAL_REPRESENTATION('',(#1232),#1235);
#1232 = B_SPLINE_CURVE_WITH_KNOTS('',1,(#1233,#1234),.UNSPECIFIED.,.F.,
  .F.,(2,2),(0.,14.0208),.PIECEWISE_BEZIER_KNOTS.);
#1233 = CARTESIAN_POINT('',(6.28318530718,0.));
#1234 = CARTESIAN_POINT('',(6.28318530718,14.0208));
#1235 = ( GEOMETRIC_REPRESENTATION_CONTEXT(2) 
PARAMETRIC_REPRESENTATION_CONTEXT() REPRESENTATION_CONTEXT('2D SPACE',''
  ) );
#1236 = PCURVE('',#966,#1237);
#1237 = DEFINITIONAL_REPRESENTATION('',(#1238),#1241);
#1238 = B_SPLINE_CURVE_WITH_KNOTS('',1,(#1239,#1240),.UNSPECIFIED.,.F.,
  .F.,(2,2),(0.,14.0208),.PIECEWISE_BEZIER_KNOTS.);
#1239 = CARTESIAN_POINT('',(0.,0.));
#1240 = CARTESIAN_POINT('',(0.,14.0208));
#1241 = ( GEOMETRIC_REPRESENTATION_CONTEXT(2) 
PARAMETRIC_REPRESENTATION_CONTEXT() REPRESENTATION_CONTEXT('2D SPACE',''
  ) );
#1242 = ORIENTED_EDGE('',*,*,#1140,.T.);
#1243 = ORIENTED_EDGE('',*,*,#1244,.T.);
#1244 = EDGE_CURVE('',#1141,#1245,#1247,.T.);
#1245 = VERTEX_POINT('',#1246);
#1246 = CARTESIAN_POINT('',(-24.03858844747,34.330662176152,-6.858));
#1247 = SURFACE_CURVE('',#1248,(#1252,#1258),.PCURVE_S1.);
#1248 = LINE('',#1249,#1250);
#1249 = CARTESIAN_POINT('',(-24.03858844747,34.330662176152,-10.668));
#1250 = VECTOR('',#1251,1.);
#1251 = DIRECTION('',(0.,0.,1.));
#1252 = PCURVE('',#966,#1253);
#1253 = DEFINITIONAL_REPRESENTATION('',(#1254),#1257);
#1254 = B_SPLINE_CURVE_WITH_KNOTS('',1,(#1255,#1256),.UNSPECIFIED.,.F.,
  .F.,(2,2),(0.,3.81),.PIECEWISE_BEZIER_KNOTS.);
#1255 = CARTESIAN_POINT('',(2.181661564993,0.));
#1256 = CARTESIAN_POINT('',(2.181661564993,3.81));
#1257 = ( GEOMETRIC_REPRESENTATION_CONTEXT(2) 
PARAMETRIC_REPRESENTATION_CONTEXT() REPRESENTATION_CONTEXT('2D SPACE',''
  ) );
#1258 = PCURVE('',#1179,#1259);
#1259 = DEFINITIONAL_REPRESENTATION('',(#1260),#1264);
#1260 = LINE('',#1261,#1262);
#1261 = CARTESIAN_POINT('',(0.762,0.));
#1262 = VECTOR('',#1263,1.);
#1263 = DIRECTION('',(0.,-1.));
#1264 = ( GEOMETRIC_REPRESENTATION_CONTEXT(2) 
PARAMETRIC_REPRESENTATION_CONTEXT() REPRESENTATION_CONTEXT('2D SPACE',''
  ) );
#1265 = ORIENTED_EDGE('',*,*,#1266,.T.);
#1266 = EDGE_CURVE('',#1245,#1267,#1269,.T.);
#1267 = VERTEX_POINT('',#1268);
#1268 = CARTESIAN_POINT('',(-34.33066217615,24.038588447472,-6.858));
#1269 = SURFACE_CURVE('',#1270,(#1275,#1281),.PCURVE_S1.);
#1270 = CIRCLE('',#1271,41.91);
#1271 = AXIS2_PLACEMENT_3D('',#1272,#1273,#1274);
#1272 = CARTESIAN_POINT('',(0.,0.,-6.858));
#1273 = DIRECTION('',(0.,0.,1.));
#1274 = DIRECTION('',(1.,0.,-0.));
#1275 = PCURVE('',#966,#1276);
#1276 = DEFINITIONAL_REPRESENTATION('',(#1277),#1280);
#1277 = B_SPLINE_CURVE_WITH_KNOTS('',1,(#1278,#1279),.UNSPECIFIED.,.F.,
  .F.,(2,2),(2.181661564993,2.530727415392),.PIECEWISE_BEZIER_KNOTS.);
#1278 = CARTESIAN_POINT('',(2.181661564993,3.81));
#1279 = CARTESIAN_POINT('',(2.530727415392,3.81));
#1280 = ( GEOMETRIC_REPRESENTATION_CONTEXT(2) 
PARAMETRIC_REPRESENTATION_CONTEXT() REPRESENTATION_CONTEXT('2D SPACE',''
  ) );
#1281 = PCURVE('',#1282,#1287);
#1282 = PLANE('',#1283);
#1283 = AXIS2_PLACEMENT_3D('',#1284,#1285,#1286);
#1284 = CARTESIAN_POINT('',(-1.206006228004E-15,5.369675646121E-15,
    -6.858));
#1285 = DIRECTION('',(0.,0.,1.));
#1286 = DIRECTION('',(1.,0.,-0.));
#1287 = DEFINITIONAL_REPRESENTATION('',(#1288),#1292);
#1288 = CIRCLE('',#1289,41.91);
#1289 = AXIS2_PLACEMENT_2D('',#1290,#1291);
#1290 = CARTESIAN_POINT('',(1.206006228004E-15,-5.369675646121E-15));
#1291 = DIRECTION('',(1.,0.));
#1292 = ( GEOMETRIC_REPRESENTATION_CONTEXT(2) 
PARAMETRIC_REPRESENTATION_CONTEXT() REPRESENTATION_CONTEXT('2D SPACE',''
  ) );
#1293 = ORIENTED_EDGE('',*,*,#1294,.F.);
#1294 = EDGE_CURVE('',#983,#1267,#1295,.T.);
#1295 = SURFACE_CURVE('',#1296,(#1300,#1306),.PCURVE_S1.);
#1296 = LINE('',#1297,#1298);
#1297 = CARTESIAN_POINT('',(-34.33066217615,24.038588447472,-10.668));
#1298 = VECTOR('',#1299,1.);
#1299 = DIRECTION('',(0.,0.,1.));
#1300 = PCURVE('',#966,#1301);
#1301 = DEFINITIONAL_REPRESENTATION('',(#1302),#1305);
#1302 = B_SPLINE_CURVE_WITH_KNOTS('',1,(#1303,#1304),.UNSPECIFIED.,.F.,
  .F.,(2,2),(0.,3.81),.PIECEWISE_BEZIER_KNOTS.);
#1303 = CARTESIAN_POINT('',(2.530727415392,0.));
#1304 = CARTESIAN_POINT('',(2.530727415392,3.81));
#1305 = ( GEOMETRIC_REPRESENTATION_CONTEXT(2) 
PARAMETRIC_REPRESENTATION_CONTEXT() REPRESENTATION_CONTEXT('2D SPACE',''
  ) );
#1306 = PCURVE('',#998,#1307);
#1307 = DEFINITIONAL_REPRESENTATION('',(#1308),#1312);
#1308 = LINE('',#1309,#1310);
#1309 = CARTESIAN_POINT('',(3.81,0.));
#1310 = VECTOR('',#1311,1.);
#1311 = DIRECTION('',(0.,-1.));
#1312 = ( GEOMETRIC_REPRESENTATION_CONTEXT(2) 
PARAMETRIC_REPRESENTATION_CONTEXT() REPRESENTATION_CONTEXT('2D SPACE',''
  ) );
#1313 = ORIENTED_EDGE('',*,*,#1010,.T.);
#1314 = ORIENTED_EDGE('',*,*,#1315,.T.);
#1315 = EDGE_CURVE('',#1011,#1316,#1318,.T.);
#1316 = VERTEX_POINT('',#1317);
#1317 = CARTESIAN_POINT('',(24.038588447472,-34.33066217615,-6.858));
#1318 = SURFACE_CURVE('',#1319,(#1323,#1329),.PCURVE_S1.);
#1319 = LINE('',#1320,#1321);
#1320 = CARTESIAN_POINT('',(24.038588447472,-34.33066217615,-10.668));
#1321 = VECTOR('',#1322,1.);
#1322 = DIRECTION('',(0.,0.,1.));
#1323 = PCURVE('',#966,#1324);
#1324 = DEFINITIONAL_REPRESENTATION('',(#1325),#1328);
#1325 = B_SPLINE_CURVE_WITH_KNOTS('',1,(#1326,#1327),.UNSPECIFIED.,.F.,
  .F.,(2,2),(0.,3.81),.PIECEWISE_BEZIER_KNOTS.);
#1326 = CARTESIAN_POINT('',(5.323254218583,0.));
#1327 = CARTESIAN_POINT('',(5.323254218583,3.81));
#1328 = ( GEOMETRIC_REPRESENTATION_CONTEXT(2) 
PARAMETRIC_REPRESENTATION_CONTEXT() REPRESENTATION_CONTEXT('2D SPACE',''
  ) );
#1329 = PCURVE('',#1049,#1330);
#1330 = DEFINITIONAL_REPRESENTATION('',(#1331),#1335);
#1331 = LINE('',#1332,#1333);
#1332 = CARTESIAN_POINT('',(0.762,0.));
#1333 = VECTOR('',#1334,1.);
#1334 = DIRECTION('',(0.,-1.));
#1335 = ( GEOMETRIC_REPRESENTATION_CONTEXT(2) 
PARAMETRIC_REPRESENTATION_CONTEXT() REPRESENTATION_CONTEXT('2D SPACE',''
  ) );
#1336 = ORIENTED_EDGE('',*,*,#1337,.T.);
#1337 = EDGE_CURVE('',#1316,#1338,#1340,.T.);
#1338 = VERTEX_POINT('',#1339);
#1339 = CARTESIAN_POINT('',(34.330662176152,-24.03858844747,-6.858));
#1340 = SURFACE_CURVE('',#1341,(#1346,#1352),.PCURVE_S1.);
#1341 = CIRCLE('',#1342,41.91);
#1342 = AXIS2_PLACEMENT_3D('',#1343,#1344,#1345);
#1343 = CARTESIAN_POINT('',(0.,0.,-6.858));
#1344 = DIRECTION('',(0.,0.,1.));
#1345 = DIRECTION('',(1.,0.,-0.));
#1346 = PCURVE('',#966,#1347);
#1347 = DEFINITIONAL_REPRESENTATION('',(#1348),#1351);
#1348 = B_SPLINE_CURVE_WITH_KNOTS('',1,(#1349,#1350),.UNSPECIFIED.,.F.,
  .F.,(2,2),(5.323254218583,5.672320068982),.PIECEWISE_BEZIER_KNOTS.);
#1349 = CARTESIAN_POINT('',(5.323254218583,3.81));
#1350 = CARTESIAN_POINT('',(5.672320068982,3.81));
#1351 = ( GEOMETRIC_REPRESENTATION_CONTEXT(2) 
PARAMETRIC_REPRESENTATION_CONTEXT() REPRESENTATION_CONTEXT('2D SPACE',''
  ) );
#1352 = PCURVE('',#1353,#1358);
#1353 = PLANE('',#1354);
#1354 = AXIS2_PLACEMENT_3D('',#1355,#1356,#1357);
#1355 = CARTESIAN_POINT('',(-1.206006228004E-15,5.369675646121E-15,
    -6.858));
#1356 = DIRECTION('',(0.,0.,1.));
#1357 = DIRECTION('',(1.,0.,-0.));
#1358 = DEFINITIONAL_REPRESENTATION('',(#1359),#1363);
#1359 = CIRCLE('',#1360,41.91);
#1360 = AXIS2_PLACEMENT_2D('',#1361,#1362);
#1361 = CARTESIAN_POINT('',(1.206006228004E-15,-5.369675646121E-15));
#1362 = DIRECTION('',(1.,0.));
#1363 = ( GEOMETRIC_REPRESENTATION_CONTEXT(2) 
PARAMETRIC_REPRESENTATION_CONTEXT() REPRESENTATION_CONTEXT('2D SPACE',''
  ) );
#1364 = ORIENTED_EDGE('',*,*,#1365,.F.);
#1365 = EDGE_CURVE('',#1090,#1338,#1366,.T.);
#1366 = SURFACE_CURVE('',#1367,(#1371,#1377),.PCURVE_S1.);
#1367 = LINE('',#1368,#1369);
#1368 = CARTESIAN_POINT('',(34.330662176152,-24.03858844747,-10.668));
#1369 = VECTOR('',#1370,1.);
#1370 = DIRECTION('',(0.,0.,1.));
#1371 = PCURVE('',#966,#1372);
#1372 = DEFINITIONAL_REPRESENTATION('',(#1373),#1376);
#1373 = B_SPLINE_CURVE_WITH_KNOTS('',1,(#1374,#1375),.UNSPECIFIED.,.F.,
  .F.,(2,2),(0.,3.81),.PIECEWISE_BEZIER_KNOTS.);
#1374 = CARTESIAN_POINT('',(5.672320068982,0.));
#1375 = CARTESIAN_POINT('',(5.672320068982,3.81));
#1376 = ( GEOMETRIC_REPRESENTATION_CONTEXT(2) 
PARAMETRIC_REPRESENTATION_CONTEXT() REPRESENTATION_CONTEXT('2D SPACE',''
  ) );
#1377 = PCURVE('',#1105,#1378);
#1378 = DEFINITIONAL_REPRESENTATION('',(#1379),#1383);
#1379 = LINE('',#1380,#1381);
#1380 = CARTESIAN_POINT('',(3.81,0.));
#1381 = VECTOR('',#1382,1.);
#1382 = DIRECTION('',(0.,-1.));
#1383 = ( GEOMETRIC_REPRESENTATION_CONTEXT(2) 
PARAMETRIC_REPRESENTATION_CONTEXT() REPRESENTATION_CONTEXT('2D SPACE',''
  ) );
#1384 = ORIENTED_EDGE('',*,*,#1117,.T.);
#1385 = ORIENTED_EDGE('',*,*,#1224,.T.);
#1386 = ADVANCED_FACE('',(#1387),#998,.F.);
#1387 = FACE_BOUND('',#1388,.F.);
#1388 = EDGE_LOOP('',(#1389,#1390,#1412,#1433));
#1389 = ORIENTED_EDGE('',*,*,#980,.F.);
#1390 = ORIENTED_EDGE('',*,*,#1391,.T.);
#1391 = EDGE_CURVE('',#981,#1392,#1394,.T.);
#1392 = VERTEX_POINT('',#1393);
#1393 = CARTESIAN_POINT('',(-37.45163146489,26.223914669969,-6.858));
#1394 = SURFACE_CURVE('',#1395,(#1399,#1406),.PCURVE_S1.);
#1395 = LINE('',#1396,#1397);
#1396 = CARTESIAN_POINT('',(-37.45163146489,26.223914669969,-10.668));
#1397 = VECTOR('',#1398,1.);
#1398 = DIRECTION('',(0.,0.,1.));
#1399 = PCURVE('',#998,#1400);
#1400 = DEFINITIONAL_REPRESENTATION('',(#1401),#1405);
#1401 = LINE('',#1402,#1403);
#1402 = CARTESIAN_POINT('',(7.858178196788E-15,0.));
#1403 = VECTOR('',#1404,1.);
#1404 = DIRECTION('',(0.,-1.));
#1405 = ( GEOMETRIC_REPRESENTATION_CONTEXT(2) 
PARAMETRIC_REPRESENTATION_CONTEXT() REPRESENTATION_CONTEXT('2D SPACE',''
  ) );
#1406 = PCURVE('',#1206,#1407);
#1407 = DEFINITIONAL_REPRESENTATION('',(#1408),#1411);
#1408 = B_SPLINE_CURVE_WITH_KNOTS('',1,(#1409,#1410),.UNSPECIFIED.,.F.,
  .F.,(2,2),(0.,3.81),.PIECEWISE_BEZIER_KNOTS.);
#1409 = CARTESIAN_POINT('',(-2.530727415392,0.));
#1410 = CARTESIAN_POINT('',(-2.530727415392,-3.81));
#1411 = ( GEOMETRIC_REPRESENTATION_CONTEXT(2) 
PARAMETRIC_REPRESENTATION_CONTEXT() REPRESENTATION_CONTEXT('2D SPACE',''
  ) );
#1412 = ORIENTED_EDGE('',*,*,#1413,.T.);
#1413 = EDGE_CURVE('',#1392,#1267,#1414,.T.);
#1414 = SURFACE_CURVE('',#1415,(#1419,#1426),.PCURVE_S1.);
#1415 = LINE('',#1416,#1417);
#1416 = CARTESIAN_POINT('',(-208.0646192494,145.68841483316,-6.858));
#1417 = VECTOR('',#1418,1.);
#1418 = DIRECTION('',(0.819152044289,-0.573576436351,0.));
#1419 = PCURVE('',#998,#1420);
#1420 = DEFINITIONAL_REPRESENTATION('',(#1421),#1425);
#1421 = LINE('',#1422,#1423);
#1422 = CARTESIAN_POINT('',(-208.28,-3.81));
#1423 = VECTOR('',#1424,1.);
#1424 = DIRECTION('',(1.,0.));
#1425 = ( GEOMETRIC_REPRESENTATION_CONTEXT(2) 
PARAMETRIC_REPRESENTATION_CONTEXT() REPRESENTATION_CONTEXT('2D SPACE',''
  ) );
#1426 = PCURVE('',#1282,#1427);
#1427 = DEFINITIONAL_REPRESENTATION('',(#1428),#1432);
#1428 = LINE('',#1429,#1430);
#1429 = CARTESIAN_POINT('',(-208.0646192494,145.68841483316));
#1430 = VECTOR('',#1431,1.);
#1431 = DIRECTION('',(0.819152044289,-0.573576436351));
#1432 = ( GEOMETRIC_REPRESENTATION_CONTEXT(2) 
PARAMETRIC_REPRESENTATION_CONTEXT() REPRESENTATION_CONTEXT('2D SPACE',''
  ) );
#1433 = ORIENTED_EDGE('',*,*,#1294,.F.);
#1434 = ADVANCED_FACE('',(#1435),#1206,.T.);
#1435 = FACE_BOUND('',#1436,.F.);
#1436 = EDGE_LOOP('',(#1437,#1459,#1480,#1481));
#1437 = ORIENTED_EDGE('',*,*,#1438,.T.);
#1438 = EDGE_CURVE('',#1164,#1439,#1441,.T.);
#1439 = VERTEX_POINT('',#1440);
#1440 = CARTESIAN_POINT('',(-26.22391466996,37.451631464893,-6.858));
#1441 = SURFACE_CURVE('',#1442,(#1446,#1452),.PCURVE_S1.);
#1442 = LINE('',#1443,#1444);
#1443 = CARTESIAN_POINT('',(-26.22391466996,37.451631464893,-10.668));
#1444 = VECTOR('',#1445,1.);
#1445 = DIRECTION('',(0.,0.,1.));
#1446 = PCURVE('',#1206,#1447);
#1447 = DEFINITIONAL_REPRESENTATION('',(#1448),#1451);
#1448 = B_SPLINE_CURVE_WITH_KNOTS('',1,(#1449,#1450),.UNSPECIFIED.,.F.,
  .F.,(2,2),(0.,3.81),.PIECEWISE_BEZIER_KNOTS.);
#1449 = CARTESIAN_POINT('',(-2.181661564993,0.));
#1450 = CARTESIAN_POINT('',(-2.181661564993,-3.81));
#1451 = ( GEOMETRIC_REPRESENTATION_CONTEXT(2) 
PARAMETRIC_REPRESENTATION_CONTEXT() REPRESENTATION_CONTEXT('2D SPACE',''
  ) );
#1452 = PCURVE('',#1179,#1453);
#1453 = DEFINITIONAL_REPRESENTATION('',(#1454),#1458);
#1454 = LINE('',#1455,#1456);
#1455 = CARTESIAN_POINT('',(4.572,0.));
#1456 = VECTOR('',#1457,1.);
#1457 = DIRECTION('',(0.,-1.));
#1458 = ( GEOMETRIC_REPRESENTATION_CONTEXT(2) 
PARAMETRIC_REPRESENTATION_CONTEXT() REPRESENTATION_CONTEXT('2D SPACE',''
  ) );
#1459 = ORIENTED_EDGE('',*,*,#1460,.T.);
#1460 = EDGE_CURVE('',#1439,#1392,#1461,.T.);
#1461 = SURFACE_CURVE('',#1462,(#1467,#1473),.PCURVE_S1.);
#1462 = CIRCLE('',#1463,45.72);
#1463 = AXIS2_PLACEMENT_3D('',#1464,#1465,#1466);
#1464 = CARTESIAN_POINT('',(0.,0.,-6.858));
#1465 = DIRECTION('',(0.,0.,1.));
#1466 = DIRECTION('',(1.,0.,-0.));
#1467 = PCURVE('',#1206,#1468);
#1468 = DEFINITIONAL_REPRESENTATION('',(#1469),#1472);
#1469 = B_SPLINE_CURVE_WITH_KNOTS('',1,(#1470,#1471),.UNSPECIFIED.,.F.,
  .F.,(2,2),(2.181661564993,2.530727415392),.PIECEWISE_BEZIER_KNOTS.);
#1470 = CARTESIAN_POINT('',(-2.181661564993,-3.81));
#1471 = CARTESIAN_POINT('',(-2.530727415392,-3.81));
#1472 = ( GEOMETRIC_REPRESENTATION_CONTEXT(2) 
PARAMETRIC_REPRESENTATION_CONTEXT() REPRESENTATION_CONTEXT('2D SPACE',''
  ) );
#1473 = PCURVE('',#1282,#1474);
#1474 = DEFINITIONAL_REPRESENTATION('',(#1475),#1479);
#1475 = CIRCLE('',#1476,45.72);
#1476 = AXIS2_PLACEMENT_2D('',#1477,#1478);
#1477 = CARTESIAN_POINT('',(1.206006228004E-15,-5.369675646121E-15));
#1478 = DIRECTION('',(1.,0.));
#1479 = ( GEOMETRIC_REPRESENTATION_CONTEXT(2) 
PARAMETRIC_REPRESENTATION_CONTEXT() REPRESENTATION_CONTEXT('2D SPACE',''
  ) );
#1480 = ORIENTED_EDGE('',*,*,#1391,.F.);
#1481 = ORIENTED_EDGE('',*,*,#1191,.F.);
#1482 = ADVANCED_FACE('',(#1483),#1179,.F.);
#1483 = FACE_BOUND('',#1484,.F.);
#1484 = EDGE_LOOP('',(#1485,#1486,#1487,#1508));
#1485 = ORIENTED_EDGE('',*,*,#1163,.F.);
#1486 = ORIENTED_EDGE('',*,*,#1244,.T.);
#1487 = ORIENTED_EDGE('',*,*,#1488,.T.);
#1488 = EDGE_CURVE('',#1245,#1439,#1489,.T.);
#1489 = SURFACE_CURVE('',#1490,(#1494,#1501),.PCURVE_S1.);
#1490 = LINE('',#1491,#1492);
#1491 = CARTESIAN_POINT('',(0.,0.,-6.858));
#1492 = VECTOR('',#1493,1.);
#1493 = DIRECTION('',(-0.573576436351,0.819152044289,0.));
#1494 = PCURVE('',#1179,#1495);
#1495 = DEFINITIONAL_REPRESENTATION('',(#1496),#1500);
#1496 = LINE('',#1497,#1498);
#1497 = CARTESIAN_POINT('',(-41.148,-3.81));
#1498 = VECTOR('',#1499,1.);
#1499 = DIRECTION('',(1.,0.));
#1500 = ( GEOMETRIC_REPRESENTATION_CONTEXT(2) 
PARAMETRIC_REPRESENTATION_CONTEXT() REPRESENTATION_CONTEXT('2D SPACE',''
  ) );
#1501 = PCURVE('',#1282,#1502);
#1502 = DEFINITIONAL_REPRESENTATION('',(#1503),#1507);
#1503 = LINE('',#1504,#1505);
#1504 = CARTESIAN_POINT('',(1.206006228004E-15,-5.369675646121E-15));
#1505 = VECTOR('',#1506,1.);
#1506 = DIRECTION('',(-0.573576436351,0.819152044289));
#1507 = ( GEOMETRIC_REPRESENTATION_CONTEXT(2) 
PARAMETRIC_REPRESENTATION_CONTEXT() REPRESENTATION_CONTEXT('2D SPACE',''
  ) );
#1508 = ORIENTED_EDGE('',*,*,#1438,.F.);
#1509 = ADVANCED_FACE('',(#1510),#1049,.F.);
#1510 = FACE_BOUND('',#1511,.F.);
#1511 = EDGE_LOOP('',(#1512,#1513,#1514,#1537));
#1512 = ORIENTED_EDGE('',*,*,#1033,.F.);
#1513 = ORIENTED_EDGE('',*,*,#1315,.T.);
#1514 = ORIENTED_EDGE('',*,*,#1515,.T.);
#1515 = EDGE_CURVE('',#1316,#1516,#1518,.T.);
#1516 = VERTEX_POINT('',#1517);
#1517 = CARTESIAN_POINT('',(26.223914669969,-37.45163146489,-6.858));
#1518 = SURFACE_CURVE('',#1519,(#1523,#1530),.PCURVE_S1.);
#1519 = LINE('',#1520,#1521);
#1520 = CARTESIAN_POINT('',(0.,0.,-6.858));
#1521 = VECTOR('',#1522,1.);
#1522 = DIRECTION('',(0.573576436351,-0.819152044289,0.));
#1523 = PCURVE('',#1049,#1524);
#1524 = DEFINITIONAL_REPRESENTATION('',(#1525),#1529);
#1525 = LINE('',#1526,#1527);
#1526 = CARTESIAN_POINT('',(-41.148,-3.81));
#1527 = VECTOR('',#1528,1.);
#1528 = DIRECTION('',(1.,0.));
#1529 = ( GEOMETRIC_REPRESENTATION_CONTEXT(2) 
PARAMETRIC_REPRESENTATION_CONTEXT() REPRESENTATION_CONTEXT('2D SPACE',''
  ) );
#1530 = PCURVE('',#1353,#1531);
#1531 = DEFINITIONAL_REPRESENTATION('',(#1532),#1536);
#1532 = LINE('',#1533,#1534);
#1533 = CARTESIAN_POINT('',(1.206006228004E-15,-5.369675646121E-15));
#1534 = VECTOR('',#1535,1.);
#1535 = DIRECTION('',(0.573576436351,-0.819152044289));
#1536 = ( GEOMETRIC_REPRESENTATION_CONTEXT(2) 
PARAMETRIC_REPRESENTATION_CONTEXT() REPRESENTATION_CONTEXT('2D SPACE',''
  ) );
#1537 = ORIENTED_EDGE('',*,*,#1538,.F.);
#1538 = EDGE_CURVE('',#1034,#1516,#1539,.T.);
#1539 = SURFACE_CURVE('',#1540,(#1544,#1551),.PCURVE_S1.);
#1540 = LINE('',#1541,#1542);
#1541 = CARTESIAN_POINT('',(26.223914669969,-37.45163146489,-10.668));
#1542 = VECTOR('',#1543,1.);
#1543 = DIRECTION('',(0.,0.,1.));
#1544 = PCURVE('',#1049,#1545);
#1545 = DEFINITIONAL_REPRESENTATION('',(#1546),#1550);
#1546 = LINE('',#1547,#1548);
#1547 = CARTESIAN_POINT('',(4.572,0.));
#1548 = VECTOR('',#1549,1.);
#1549 = DIRECTION('',(0.,-1.));
#1550 = ( GEOMETRIC_REPRESENTATION_CONTEXT(2) 
PARAMETRIC_REPRESENTATION_CONTEXT() REPRESENTATION_CONTEXT('2D SPACE',''
  ) );
#1551 = PCURVE('',#1078,#1552);
#1552 = DEFINITIONAL_REPRESENTATION('',(#1553),#1556);
#1553 = B_SPLINE_CURVE_WITH_KNOTS('',1,(#1554,#1555),.UNSPECIFIED.,.F.,
  .F.,(2,2),(0.,3.81),.PIECEWISE_BEZIER_KNOTS.);
#1554 = CARTESIAN_POINT('',(-5.323254218583,0.));
#1555 = CARTESIAN_POINT('',(-5.323254218583,-3.81));
#1556 = ( GEOMETRIC_REPRESENTATION_CONTEXT(2) 
PARAMETRIC_REPRESENTATION_CONTEXT() REPRESENTATION_CONTEXT('2D SPACE',''
  ) );
#1557 = ADVANCED_FACE('',(#1558),#1078,.T.);
#1558 = FACE_BOUND('',#1559,.F.);
#1559 = EDGE_LOOP('',(#1560,#1561,#1584,#1604));
#1560 = ORIENTED_EDGE('',*,*,#1538,.T.);
#1561 = ORIENTED_EDGE('',*,*,#1562,.T.);
#1562 = EDGE_CURVE('',#1516,#1563,#1565,.T.);
#1563 = VERTEX_POINT('',#1564);
#1564 = CARTESIAN_POINT('',(37.451631464893,-26.22391466996,-6.858));
#1565 = SURFACE_CURVE('',#1566,(#1571,#1577),.PCURVE_S1.);
#1566 = CIRCLE('',#1567,45.72);
#1567 = AXIS2_PLACEMENT_3D('',#1568,#1569,#1570);
#1568 = CARTESIAN_POINT('',(0.,0.,-6.858));
#1569 = DIRECTION('',(0.,0.,1.));
#1570 = DIRECTION('',(1.,0.,-0.));
#1571 = PCURVE('',#1078,#1572);
#1572 = DEFINITIONAL_REPRESENTATION('',(#1573),#1576);
#1573 = B_SPLINE_CURVE_WITH_KNOTS('',1,(#1574,#1575),.UNSPECIFIED.,.F.,
  .F.,(2,2),(5.323254218583,5.672320068982),.PIECEWISE_BEZIER_KNOTS.);
#1574 = CARTESIAN_POINT('',(-5.323254218583,-3.81));
#1575 = CARTESIAN_POINT('',(-5.672320068982,-3.81));
#1576 = ( GEOMETRIC_REPRESENTATION_CONTEXT(2) 
PARAMETRIC_REPRESENTATION_CONTEXT() REPRESENTATION_CONTEXT('2D SPACE',''
  ) );
#1577 = PCURVE('',#1353,#1578);
#1578 = DEFINITIONAL_REPRESENTATION('',(#1579),#1583);
#1579 = CIRCLE('',#1580,45.72);
#1580 = AXIS2_PLACEMENT_2D('',#1581,#1582);
#1581 = CARTESIAN_POINT('',(1.206006228004E-15,-5.369675646121E-15));
#1582 = DIRECTION('',(1.,0.));
#1583 = ( GEOMETRIC_REPRESENTATION_CONTEXT(2) 
PARAMETRIC_REPRESENTATION_CONTEXT() REPRESENTATION_CONTEXT('2D SPACE',''
  ) );
#1584 = ORIENTED_EDGE('',*,*,#1585,.F.);
#1585 = EDGE_CURVE('',#1062,#1563,#1586,.T.);
#1586 = SURFACE_CURVE('',#1587,(#1591,#1597),.PCURVE_S1.);
#1587 = LINE('',#1588,#1589);
#1588 = CARTESIAN_POINT('',(37.451631464893,-26.22391466996,-10.668));
#1589 = VECTOR('',#1590,1.);
#1590 = DIRECTION('',(0.,0.,1.));
#1591 = PCURVE('',#1078,#1592);
#1592 = DEFINITIONAL_REPRESENTATION('',(#1593),#1596);
#1593 = B_SPLINE_CURVE_WITH_KNOTS('',1,(#1594,#1595),.UNSPECIFIED.,.F.,
  .F.,(2,2),(0.,3.81),.PIECEWISE_BEZIER_KNOTS.);
#1594 = CARTESIAN_POINT('',(-5.672320068982,0.));
#1595 = CARTESIAN_POINT('',(-5.672320068982,-3.81));
#1596 = ( GEOMETRIC_REPRESENTATION_CONTEXT(2) 
PARAMETRIC_REPRESENTATION_CONTEXT() REPRESENTATION_CONTEXT('2D SPACE',''
  ) );
#1597 = PCURVE('',#1105,#1598);
#1598 = DEFINITIONAL_REPRESENTATION('',(#1599),#1603);
#1599 = LINE('',#1600,#1601);
#1600 = CARTESIAN_POINT('',(7.858178196788E-15,0.));
#1601 = VECTOR('',#1602,1.);
#1602 = DIRECTION('',(0.,-1.));
#1603 = ( GEOMETRIC_REPRESENTATION_CONTEXT(2) 
PARAMETRIC_REPRESENTATION_CONTEXT() REPRESENTATION_CONTEXT('2D SPACE',''
  ) );
#1604 = ORIENTED_EDGE('',*,*,#1061,.F.);
#1605 = ADVANCED_FACE('',(#1606),#1105,.F.);
#1606 = FACE_BOUND('',#1607,.F.);
#1607 = EDGE_LOOP('',(#1608,#1609,#1610,#1631));
#1608 = ORIENTED_EDGE('',*,*,#1089,.F.);
#1609 = ORIENTED_EDGE('',*,*,#1585,.T.);
#1610 = ORIENTED_EDGE('',*,*,#1611,.T.);
#1611 = EDGE_CURVE('',#1563,#1338,#1612,.T.);
#1612 = SURFACE_CURVE('',#1613,(#1617,#1624),.PCURVE_S1.);
#1613 = LINE('',#1614,#1615);
#1614 = CARTESIAN_POINT('',(208.0646192494,-145.6884148331,-6.858));
#1615 = VECTOR('',#1616,1.);
#1616 = DIRECTION('',(-0.819152044289,0.573576436351,0.));
#1617 = PCURVE('',#1105,#1618);
#1618 = DEFINITIONAL_REPRESENTATION('',(#1619),#1623);
#1619 = LINE('',#1620,#1621);
#1620 = CARTESIAN_POINT('',(-208.28,-3.81));
#1621 = VECTOR('',#1622,1.);
#1622 = DIRECTION('',(1.,0.));
#1623 = ( GEOMETRIC_REPRESENTATION_CONTEXT(2) 
PARAMETRIC_REPRESENTATION_CONTEXT() REPRESENTATION_CONTEXT('2D SPACE',''
  ) );
#1624 = PCURVE('',#1353,#1625);
#1625 = DEFINITIONAL_REPRESENTATION('',(#1626),#1630);
#1626 = LINE('',#1627,#1628);
#1627 = CARTESIAN_POINT('',(208.0646192494,-145.6884148331));
#1628 = VECTOR('',#1629,1.);
#1629 = DIRECTION('',(-0.819152044289,0.573576436351));
#1630 = ( GEOMETRIC_REPRESENTATION_CONTEXT(2) 
PARAMETRIC_REPRESENTATION_CONTEXT() REPRESENTATION_CONTEXT('2D SPACE',''
  ) );
#1631 = ORIENTED_EDGE('',*,*,#1365,.F.);
#1632 = ADVANCED_FACE('',(#1633),#1353,.T.);
#1633 = FACE_BOUND('',#1634,.T.);
#1634 = EDGE_LOOP('',(#1635,#1636,#1637,#1638));
#1635 = ORIENTED_EDGE('',*,*,#1337,.F.);
#1636 = ORIENTED_EDGE('',*,*,#1515,.T.);
#1637 = ORIENTED_EDGE('',*,*,#1562,.T.);
#1638 = ORIENTED_EDGE('',*,*,#1611,.T.);
#1639 = ADVANCED_FACE('',(#1640),#1282,.T.);
#1640 = FACE_BOUND('',#1641,.T.);
#1641 = EDGE_LOOP('',(#1642,#1643,#1644,#1645));
#1642 = ORIENTED_EDGE('',*,*,#1266,.F.);
#1643 = ORIENTED_EDGE('',*,*,#1488,.T.);
#1644 = ORIENTED_EDGE('',*,*,#1460,.T.);
#1645 = ORIENTED_EDGE('',*,*,#1413,.T.);
#1646 = ( GEOMETRIC_REPRESENTATION_CONTEXT(3) 
GLOBAL_UNCERTAINTY_ASSIGNED_CONTEXT((#1650)) 
GLOBAL_UNIT_ASSIGNED_CONTEXT((#1647,#1648,#1649)) REPRESENTATION_CONTEXT
('Context #1','3D Context with UNIT and UNCERTAINTY') );
#1647 = ( LENGTH_UNIT() NAMED_UNIT(*) SI_UNIT(.MILLI.,.METRE.) );
#1648 = ( NAMED_UNIT(*) PLANE_ANGLE_UNIT() SI_UNIT($,.RADIAN.) );
#1649 = ( NAMED_UNIT(*) SI_UNIT($,.STERADIAN.) SOLID_ANGLE_UNIT() );
#1650 = UNCERTAINTY_MEASURE_WITH_UNIT(LENGTH_MEASURE(2.E-06),#1647,
  'distance_accuracy_value','confusion accuracy');
#1651 = CONTEXT_DEPENDENT_SHAPE_REPRESENTATION(#1652,#1654);
#1652 = ( REPRESENTATION_RELATIONSHIP('','',#32,#10) 
REPRESENTATION_RELATIONSHIP_WITH_TRANSFORMATION(#1653) 
SHAPE_REPRESENTATION_RELATIONSHIP() );
#1653 = ITEM_DEFINED_TRANSFORMATION('','',#11,#15);
#1654 = PRODUCT_DEFINITION_SHAPE('Placement','Placement of an item',
  #1655);
#1655 = NEXT_ASSEMBLY_USAGE_OCCURRENCE('7','collar','',#5,#27,$);
#1656 = PRODUCT_RELATED_PRODUCT_CATEGORY('part',$,(#29));
#1657 = SHAPE_DEFINITION_REPRESENTATION(#1654,#1658);
#1658 = SHAPE_REPRESENTATION('',(#15),#1646);
#1659 = SHAPE_DEFINITION_REPRESENTATION(#1654,#1660);
#1660 = SHAPE_REPRESENTATION('',(#15),#1646);
#1661 = MECHANICAL_DESIGN_GEOMETRIC_PRESENTATION_REPRESENTATION('',(
    #1662,#1672),#1646);
#1662 = STYLED_ITEM('color',(#1663),#33);
#1663 = PRESENTATION_STYLE_ASSIGNMENT((#1664,#1670));
#1664 = SURFACE_STYLE_USAGE(.BOTH.,#1665);
#1665 = SURFACE_SIDE_STYLE('',(#1666));
#1666 = SURFACE_STYLE_FILL_AREA(#1667);
#1667 = FILL_AREA_STYLE('',(#1668));
#1668 = FILL_AREA_STYLE_COLOUR('',#1669);
#1669 = COLOUR_RGB('',0.899999998185,0.45000000386,9.999999991362E-02);
#1670 = CURVE_STYLE('',#1671,POSITIVE_LENGTH_MEASURE(0.1),#1669);
#1671 = DRAUGHTING_PRE_DEFINED_CURVE_FONT('continuous');
#1672 = OVER_RIDING_STYLED_ITEM('overriding color',(#1673),#33,#1662);
#1673 = PRESENTATION_STYLE_BY_CONTEXT((#1674,#1679),#1660);
#1674 = SURFACE_STYLE_USAGE(.BOTH.,#1675);
#1675 = SURFACE_SIDE_STYLE('',(#1676));
#1676 = SURFACE_STYLE_FILL_AREA(#1677);
#1677 = FILL_AREA_STYLE('',(#1678));
#1678 = FILL_AREA_STYLE_COLOUR('',#1669);
#1679 = CURVE_STYLE('',#1680,POSITIVE_LENGTH_MEASURE(0.1),#1669);
#1680 = DRAUGHTING_PRE_DEFINED_CURVE_FONT('continuous');
ENDSEC;
END-ISO-10303-21;
