0
SECTION
2
HEADER
9
$INSUNITS
70
1
9
$ACADVER
1
AC1014
9
$HANDSEED
5
FFFF
0
ENDSEC
0
SECTION
2
TABLES
0
TABLE
2
VPORT
5
8
100
AcDbSymbolTable
0
ENDTAB
0
TABLE
2
LTYPE
5
5
100
AcDbSymbolTable
0
LTYPE
5
14
100
AcDbSymbolTableRecord
100
AcDbLinetypeTableRecord
2
BYBLOCK
70
0
0
LTYPE
5
15
100
AcDbSymbolTableRecord
100
AcDbLinetypeTableRecord
2
BYLAYER
70
0
0
LTYPE
5
16
100
AcDbSymbolTableRecord
100
AcDbLinetypeTableRecord
2
DASHED
70
0
3
Dashed __ __ __ __ __ __ __ __ __ __ __ __ __ _
72
65
73
2
40
0.75
49
0.5
74
0
49
-0.25
74
0
0
ENDTAB
0
TABLE
2
LAYER
5
2
100
AcDbSymbolTable
70
2
0
LAYER
5
50
100
AcDbSymbolTableRecord
100
AcDbLayerTableRecord
2
0
70
0
62
7
6
CONTINUOUS
0
ENDTAB
0
TABLE
2
STYLE
5
3
100
AcDbSymbolTable
70
1
0
STYLE
5
11
100
AcDbSymbolTableRecord
100
AcDbTextStyleTableRecord
2
STANDARD
70
0
0
ENDTAB
0
TABLE
2
VIEW
5
6
100
AcDbSymbolTable
70
0
0
ENDTAB
0
TABLE
2
UCS
5
7
100
AcDbSymbolTable
70
0
0
ENDTAB
0
TABLE
2
APPID
5
9
100
AcDbSymbolTable
70
2
0
APPID
5
12
100
AcDbSymbolTableRecord
100
AcDbRegAppTableRecord
2
ACAD
70
0
0
ENDTAB
0
TABLE
2
DIMSTYLE
5
A
100
AcDbSymbolTable
70
1
0
ENDTAB
0
TABLE
2
BLOCK_RECORD
5
1
100
AcDbSymbolTable
70
1
0
BLOCK_RECORD
5
1F
100
AcDbSymbolTableRecord
100
AcDbBlockTableRecord
2
*MODEL_SPACE
0
BLOCK_RECORD
5
1B
100
AcDbSymbolTableRecord
100
AcDbBlockTableRecord
2
*PAPER_SPACE
0
ENDTAB
0
ENDSEC
0
SECTION
2
BLOCKS
0
BLOCK
5
20
100
AcDbEntity
100
AcDbBlockBegin
2
*MODEL_SPACE
0
ENDBLK
5
21
100
AcDbEntity
100
AcDbBlockEnd
0
BLOCK
5
1C
100
AcDbEntity
100
AcDbBlockBegin
2
*PAPER_SPACE
0
ENDBLK
5
1D
100
AcDbEntity
100
AcDbBlockEnd
0
ENDSEC
0
SECTION
2
ENTITIES
0
LINE
5
100
100
AcDbEntity
8
0
100
AcDbLine
10
0.035461339743649629
20
0
30
0
11
4.035461339743649
21
0
31
0
6
DASHED
0
LINE
5
101
100
AcDbEntity
8
0
100
AcDbLine
10
4.035461339743649
20
0
30
0
11
4.035461339743649
21
-6
31
0
6
DASHED
0
LINE
5
102
100
AcDbEntity
8
0
100
AcDbLine
10
4.035461339743649
20
-6
30
0
11
0.035461339743649629
21
-6
31
0
6
DASHED
0
LINE
5
103
100
AcDbEntity
8
0
100
AcDbLine
10
0.035461339743649629
20
-6
30
0
11
0.035461339743649629
21
0
31
0
6
DASHED
0
LWPOLYLINE
5
104
100
AcDbEntity
8
0
100
AcDbPolyline
90
4
70
1
43
0.0
10
1.3929166661578545e-06
20
-6.1666361414583326
10
2.6666675169166667
20
-6.1666361414583326
10
2.6666675169166671
20
2.8484166666287603e-05
10
1.3929166663490108e-06
20
2.8484166666986958e-05
0
SPLINE
5
105
100
AcDbEntity
8
0
100
AcDbSpline
70
4
71
3
72
8
73
4
74
0
42
0.000000001
43
0.0000000001
44
0.0000000001
40
0
40
0
40
0
40
0
40
1
40
1
40
1
40
1
41
1
41
1
41
1
41
1
10
1.6840518179549899
20
-0.21818865610291119
30
0
10
0.62214334356764311
20
-0.11474338615468137
30
0
10
0.95330930061219266
20
-0.25768355999868509
30
0
10
0.99517928010093482
20
-0.5694776706020791
30
0
0
SPLINE
5
106
100
AcDbEntity
8
0
100
AcDbSpline
70
4
71
3
72
8
73
4
74
0
42
0.000000001
43
0.0000000001
44
0.0000000001
40
0
40
0
40
0
40
0
40
1
40
1
40
1
40
1
41
1
41
1
41
1
41
1
10
0.99517928010093482
20
-0.5694776706020791
30
0
10
1.0074699727924687
20
-0.66113320826130995
30
0
10
1.0285918593844297
20
-0.76424409887253875
30
0
10
1.0420484324109343
20
-0.79861524334582901
30
0
0
SPLINE
5
107
100
AcDbEntity
8
0
100
AcDbSpline
70
4
71
3
72
8
73
4
74
0
42
0.000000001
43
0.0000000001
44
0.0000000001
40
0
40
0
40
0
40
0
40
1
40
1
40
1
40
1
41
1
41
1
41
1
41
1
10
1.0420484324109343
20
-0.79861524334582901
30
0
10
1.0901266928982025
20
-0.92122439065759987
30
0
10
1.000637430894848
20
-0.97488401011810388
30
0
10
0.73050410154911571
20
-0.98542522336172389
30
0
0
SPLINE
5
108
100
AcDbEntity
8
0
100
AcDbSpline
70
4
71
3
72
8
73
4
74
0
42
0.000000001
43
0.0000000001
44
0.0000000001
40
0
40
0
40
0
40
0
40
1
40
1
40
1
40
1
41
1
41
1
41
1
41
1
10
0.73050410154911571
20
-0.98542522336172389
30
0
10
0.58560564556729611
20
-0.99109060102588908
30
0
10
0.46053859794407498
20
-1.0153375528735662
30
0
10
0.45253890430435939
20
-1.0393353094738988
30
0
0
SPLINE
5
109
100
AcDbEntity
8
0
100
AcDbSpline
70
4
71
3
72
8
73
4
74
0
42
0.000000001
43
0.0000000001
44
0.0000000001
40
0
40
0
40
0
40
0
40
1
40
1
40
1
40
1
41
1
41
1
41
1
41
1
10
0.45253890430435939
20
-1.0393353094738988
30
0
10
0.44454048207176794
20
-1.0633317946699072
30
0
10
0.52802997384533512
20
-1.1494872372269909
30
0
10
0.63814145943995015
20
-1.230768115608937
30
0
0
SPLINE
5
110
100
AcDbEntity
8
0
100
AcDbSpline
70
4
71
3
72
8
73
4
74
0
42
0.000000001
43
0.0000000001
44
0.0000000001
40
0
40
0
40
0
40
0
40
1
40
1
40
1
40
1
41
1
41
1
41
1
41
1
10
0.63814145943995015
20
-1.230768115608937
30
0
10
0.74821098859939172
20
-1.3120083090525396
30
0
10
0.87002831960736648
20
-1.4027052078520799
30
0
10
0.90881513681443005
20
-1.4322844294312449
30
0
0
SPLINE
5
111
100
AcDbEntity
8
0
100
AcDbSpline
70
4
71
3
72
8
73
4
74
0
42
0.000000001
43
0.0000000001
44
0.0000000001
40
0
40
0
40
0
40
0
40
1
40
1
40
1
40
1
41
1
41
1
41
1
41
1
10
0.90881513681443005
20
-1.4322844294312449
30
0
10
0.95455909381750825
20
-1.4671132794608881
30
0
10
0.98384722838275229
20
-1.5592684790191322
30
0
10
0.99213807425442968
20
-1.6943348458895791
30
0
0
SPLINE
5
112
100
AcDbEntity
8
0
100
AcDbSpline
70
4
71
3
72
8
73
4
74
0
42
0.000000001
43
0.0000000001
44
0.0000000001
40
0
40
0
40
0
40
0
40
1
40
1
40
1
40
1
41
1
41
1
41
1
41
1
10
0.99213807425442968
20
-1.6943348458895791
30
0
10
1.0063447774855472
20
-1.9258893582517262
30
0
10
1.0370073031545008
20
-1.9125154561760223
30
0
10
0.65134756526254023
20
-1.8426072894650678
30
0
0
SPLINE
5
113
100
AcDbEntity
8
0
100
AcDbSpline
70
4
71
3
72
8
73
4
74
0
42
0.000000001
43
0.0000000001
44
0.0000000001
40
0
40
0
40
0
40
0
40
1
40
1
40
1
40
1
41
1
41
1
41
1
41
1
10
0.65134756526254023
20
-1.8426072894650678
30
0
10
0.42712601866058009
20
-1.8019465078049242
30
0
10
0.38713009327624809
20
-1.8141952170545996
30
0
10
0.31709717452918562
20
-1.9450951919579307
30
0
0
SPLINE
5
114
100
AcDbEntity
8
0
100
AcDbSpline
70
4
71
3
72
8
73
4
74
0
42
0.000000001
43
0.0000000001
44
0.0000000001
40
0
40
0
40
0
40
0
40
1
40
1
40
1
40
1
41
1
41
1
41
1
41
1
10
0.31709717452918562
20
-1.9450951919579307
30
0
10
0.27339509737120932
20
-2.0267511346152207
30
0
10
0.27326922806568871
20
-2.0576640593294169
30
0
10
0.31655555509331162
20
-2.1098234216885512
30
0
0
SPLINE
5
115
100
AcDbEntity
8
0
100
AcDbSpline
70
4
71
3
72
8
73
4
74
0
42
0.000000001
43
0.0000000001
44
0.0000000001
40
0
40
0
40
0
40
0
40
1
40
1
40
1
40
1
41
1
41
1
41
1
41
1
10
0.31655555509331162
20
-2.1098234216885512
30
0
10
0.37204866194212138
20
-2.1766484329157536
30
0
10
0.51428097717974453
20
-2.2629704294391746
30
0
10
0.69246741454666494
20
-2.3378777579489385
30
0
0
SPLINE
5
116
100
AcDbEntity
8
0
100
AcDbSpline
70
4
71
3
72
8
73
4
74
0
42
0.000000001
43
0.0000000001
44
0.0000000001
40
0
40
0
40
0
40
0
40
1
40
1
40
1
40
1
41
1
41
1
41
1
41
1
10
0.69246741454666494
20
-2.3378777579489385
30
0
10
0.87786145891351697
20
-2.4158682419424511
30
0
10
0.9206468515333105
20
-2.449988919764075
30
0
10
0.97697400145708246
20
-2.5648081727876177
30
0
0
SPLINE
5
117
100
AcDbEntity
8
0
100
AcDbSpline
70
4
71
3
72
8
73
4
74
0
42
0.000000001
43
0.0000000001
44
0.0000000001
40
0
40
0
40
0
40
0
40
1
40
1
40
1
40
1
41
1
41
1
41
1
41
1
10
0.97697400145708246
20
-2.5648081727876177
30
0
10
1.0566721571795319
20
-2.7272453319278385
30
0
10
0.98343147825239896
20
-2.8083189714051033
30
0
10
0.81128549614331058
20
-2.7483264870107584
30
0
0
SPLINE
5
118
100
AcDbEntity
8
0
100
AcDbSpline
70
4
71
3
72
8
73
4
74
0
42
0.000000001
43
0.0000000001
44
0.0000000001
40
0
40
0
40
0
40
0
40
1
40
1
40
1
40
1
41
1
41
1
41
1
41
1
10
0.81128549614331058
20
-2.7483264870107584
30
0
10
0.71017303018981437
20
-2.713080616363106
30
0
10
0.67230289752093364
20
-2.7173716059538942
30
0
10
0.619559844286665
20
-2.770114542897375
30
0
0
SPLINE
5
119
100
AcDbEntity
8
0
100
AcDbSpline
70
4
71
3
72
8
73
4
74
0
42
0.000000001
43
0.0000000001
44
0.0000000001
40
0
40
0
40
0
40
0
40
1
40
1
40
1
40
1
41
1
41
1
41
1
41
1
10
0.619559844286665
20
-2.770114542897375
30
0
10
0.53165475556288777
20
-2.8580207092074974
30
0
10
0.60476956518449998
20
-2.9470927532819911
30
0
10
0.79391298916729625
20
-2.9825878191769899
30
0
0
SPLINE
5
120
100
AcDbEntity
8
0
100
AcDbSpline
70
4
71
3
72
8
73
4
74
0
42
0.000000001
43
0.0000000001
44
0.0000000001
40
0
40
0
40
0
40
0
40
1
40
1
40
1
40
1
41
1
41
1
41
1
41
1
10
0.79391298916729625
20
-2.9825878191769899
30
0
10
0.96264142892044424
20
-3.0142508724418735
30
0
10
1.0368827052561069
20
-3.0937403421324357
30
0
10
1.0185515573067363
20
-3.2230993749960541
30
0
0
SPLINE
5
121
100
AcDbEntity
8
0
100
AcDbSpline
70
4
71
3
72
8
73
4
74
0
42
0.000000001
43
0.0000000001
44
0.0000000001
40
0
40
0
40
0
40
0
40
1
40
1
40
1
40
1
41
1
41
1
41
1
41
1
10
1.0185515573067363
20
-3.2230993749960541
30
0
10
1.0077191685892568
20
-3.2995056892028654
30
0
10
0.97514063238072179
20
-3.3216700807691484
30
0
10
0.85911328942666643
20
-3.3315018504004272
30
0
0
SPLINE
5
122
100
AcDbEntity
8
0
100
AcDbSpline
70
4
71
3
72
8
73
4
74
0
42
0.000000001
43
0.0000000001
44
0.0000000001
40
0
40
0
40
0
40
0
40
1
40
1
40
1
40
1
41
1
41
1
41
1
41
1
10
0.85911328942666643
20
-3.3315018504004272
30
0
10
0.6903848496735161
20
-3.345833119931497
30
0
10
0.4764108445108638
20
-3.436363464764697
30
0
10
0.40337867635246977
20
-3.5243942286984935
30
0
0
SPLINE
5
123
100
AcDbEntity
8
0
100
AcDbSpline
70
4
71
3
72
8
73
4
74
0
42
0.000000001
43
0.0000000001
44
0.0000000001
40
0
40
0
40
0
40
0
40
1
40
1
40
1
40
1
41
1
41
1
41
1
41
1
10
0.40337867635246977
20
-3.5243942286984935
30
0
10
0.37554884576127995
20
-3.5578893755931027
30
0
10
0.35892519758275182
20
-3.6281726065794007
30
0
10
0.3663832717865958
20
-3.6805404792475382
30
0
0
SPLINE
5
124
100
AcDbEntity
8
0
100
AcDbSpline
70
4
71
3
72
8
73
4
74
0
42
0.000000001
43
0.0000000001
44
0.0000000001
40
0
40
0
40
0
40
0
40
1
40
1
40
1
40
1
41
1
41
1
41
1
41
1
10
0.3663832717865958
20
-3.6805404792475382
30
0
10
0.38029755137862747
20
-3.777694840604592
30
0
10
0.42220948730254076
20
-3.7989005933111843
30
0
10
0.76720835388302799
20
-3.883557050171218
30
0
0
SPLINE
5
125
100
AcDbEntity
8
0
100
AcDbSpline
70
4
71
3
72
8
73
4
74
0
42
0.000000001
43
0.0000000001
44
0.0000000001
40
0
40
0
40
0
40
0
40
1
40
1
40
1
40
1
41
1
41
1
41
1
41
1
10
0.76720835388302799
20
-3.883557050171218
30
0
10
1.0967507240270844
20
-3.9643802229968146
30
0
10
1.1230802942090441
20
-4.2928386300643444
30
0
10
0.79766236878324071
20
-4.2631754957998478
30
0
0
SPLINE
5
126
100
AcDbEntity
8
0
100
AcDbSpline
70
4
71
3
72
8
73
4
74
0
42
0.000000001
43
0.0000000001
44
0.0000000001
40
0
40
0
40
0
40
0
40
1
40
1
40
1
40
1
41
1
41
1
41
1
41
1
10
0.79766236878324071
20
-4.2631754957998478
30
0
10
0.66447102962190985
20
-4.2510513841738469
30
0
10
0.62530914731253995
20
-4.2688828298066763
30
0
10
0.52323804038568988
20
-4.3881596263873472
30
0
0
SPLINE
5
127
100
AcDbEntity
8
0
100
AcDbSpline
70
4
71
3
72
8
73
4
74
0
42
0.000000001
43
0.0000000001
44
0.0000000001
40
0
40
0
40
0
40
0
40
1
40
1
40
1
40
1
41
1
41
1
41
1
41
1
10
0.52323804038568988
20
-4.3881596263873472
30
0
10
0.45778854432953153
20
-4.4646918096221562
30
0
10
0.40346131781569033
20
-4.5673449946770344
30
0
10
0.40254463327750761
20
-4.6162559189904
30
0
0
SPLINE
5
128
100
AcDbEntity
8
0
100
AcDbSpline
70
4
71
3
72
8
73
4
74
0
42
0.000000001
43
0.0000000001
44
0.0000000001
40
0
40
0
40
0
40
0
40
1
40
1
40
1
40
1
41
1
41
1
41
1
41
1
10
0.40254463327750761
20
-4.6162559189904
30
0
10
0.40067057917309989
20
-4.7138260295611385
30
0
10
0.55973378195086343
20
-4.8397687990083291
30
0
10
0.68484278600925563
20
-4.8397687990083291
30
0
0
SPLINE
5
129
100
AcDbEntity
8
0
100
AcDbSpline
70
4
71
3
72
8
73
4
74
0
42
0.000000001
43
0.0000000001
44
0.0000000001
40
0
40
0
40
0
40
0
40
1
40
1
40
1
40
1
41
1
41
1
41
1
41
1
10
0.68484278600925563
20
-4.8397687990083291
30
0
10
0.81249460432057918
20
-4.8397687990083291
30
0
10
1.0451735511277842
20
-5.0202878704330498
30
0
10
1.0611297105649178
20
-5.1316489036974984
30
0
0
SPLINE
5
130
100
AcDbEntity
8
0
100
AcDbSpline
70
4
71
3
72
8
73
4
74
0
42
0.000000001
43
0.0000000001
44
0.0000000001
40
0
40
0
40
0
40
0
40
1
40
1
40
1
40
1
41
1
41
1
41
1
41
1
10
1.0611297105649178
20
-5.1316489036974984
30
0
10
1.0690874477694621
20
-5.1875156810630738
30
0
10
1.1019164511819095
20
-5.2707138371643989
30
0
10
1.1340372808249177
20
-5.3165416059940149
30
0
0
SPLINE
5
131
100
AcDbEntity
8
0
100
AcDbSpline
70
4
71
3
72
8
73
4
74
0
42
0.000000001
43
0.0000000001
44
0.0000000001
40
0
40
0
40
0
40
0
40
1
40
1
40
1
40
1
41
1
41
1
41
1
41
1
10
1.1340372808249177
20
-5.3165416059940149
30
0
10
1.1661161540327523
20
-5.3624113311662933
30
0
10
1.1924050391866674
20
-5.4879370799954765
30
0
10
1.1924050391866674
20
-5.5955474705064967
30
0
0
SPLINE
5
132
100
AcDbEntity
8
0
100
AcDbSpline
70
4
71
3
72
8
73
4
74
0
42
0.000000001
43
0.0000000001
44
0.0000000001
40
0
40
0
40
0
40
0
40
1
40
1
40
1
40
1
41
1
41
1
41
1
41
1
10
1.1924050391866674
20
-5.5955474705064967
30
0
10
1.1924050391866674
20
-5.8262679416326284
30
0
10
1.2230675648556186
20
-5.9229645974333289
30
0
10
1.2961416894491862
20
-5.9229645974333289
30
0
0
SPLINE
5
133
100
AcDbEntity
8
0
100
AcDbSpline
70
4
71
3
72
8
73
4
74
0
42
0.000000001
43
0.0000000001
44
0.0000000001
40
0
40
0
40
0
40
0
40
1
40
1
40
1
40
1
41
1
41
1
41
1
41
1
10
1.2961416894491862
20
-5.9229645974333289
30
0
10
1.3576765229629568
20
-5.9229645974333289
30
0
10
1.3993379916829578
20
-5.7938140748787159
30
0
10
1.4001288069156199
20
-5.6006725013333032
30
0
0
SPLINE
5
134
100
AcDbEntity
8
0
100
AcDbSpline
70
4
71
3
72
8
73
4
74
0
42
0.000000001
43
0.0000000001
44
0.0000000001
40
0
40
0
40
0
40
0
40
1
40
1
40
1
40
1
41
1
41
1
41
1
41
1
10
1.4001288069156199
20
-5.6006725013333032
30
0
10
1.4007962956570121
20
-5.4459006388576334
30
0
10
1.4744946811496742
20
-5.1136928604409979
30
0
10
1.5393199163067379
20
-4.9732522674963979
30
0
0
SPLINE
5
135
100
AcDbEntity
8
0
100
AcDbSpline
70
4
71
3
72
8
73
4
74
0
42
0.000000001
43
0.0000000001
44
0.0000000001
40
0
40
0
40
0
40
0
40
1
40
1
40
1
40
1
41
1
41
1
41
1
41
1
10
1.5393199163067379
20
-4.9732522674963979
30
0
10
1.5636508344858935
20
-4.9205919718339253
30
0
10
1.6454735115166652
20
-4.8051484592876914
30
0
10
1.7212557332896028
20
-4.7166599897975452
30
0
0
SPLINE
5
136
100
AcDbEntity
8
0
100
AcDbSpline
70
4
71
3
72
8
73
4
74
0
42
0.000000001
43
0.0000000001
44
0.0000000001
40
0
40
0
40
0
40
0
40
1
40
1
40
1
40
1
41
1
41
1
41
1
41
1
10
1.7212557332896028
20
-4.7166599897975452
30
0
10
1.9027325722998163
20
-4.5046024627316141
30
0
10
1.8969425842458942
20
-4.4176968916238462
30
0
10
1.6923426638266672
20
-4.2822974168207208
30
0
0
SPLINE
5
137
100
AcDbEntity
8
0
100
AcDbSpline
70
4
71
3
72
8
73
4
74
0
42
0.000000001
43
0.0000000001
44
0.0000000001
40
0
40
0
40
0
40
0
40
1
40
1
40
1
40
1
41
1
41
1
41
1
41
1
10
1.6923426638266672
20
-4.2822974168207208
30
0
10
1.6006869240798145
20
-4.2216387165610225
30
0
10
1.5256967889466657
20
-4.1448153817362021
30
0
10
1.5256967889466657
20
-4.111569430088938
30
0
0
SPLINE
5
138
100
AcDbEntity
8
0
100
AcDbSpline
70
4
71
3
72
8
73
4
74
0
42
0.000000001
43
0.0000000001
44
0.0000000001
40
0
40
0
40
0
40
0
40
1
40
1
40
1
40
1
41
1
41
1
41
1
41
1
10
1.5256967889466657
20
-4.111569430088938
30
0
10
1.5256967889466657
20
-4.0202482717667101
30
0
10
1.7587088444210037
20
-3.773696274008139
30
0
10
1.9004414966579262
20
-3.71499553640616
30
0
0
SPLINE
5
139
100
AcDbEntity
8
0
100
AcDbSpline
70
4
71
3
72
8
73
4
74
0
42
0.000000001
43
0.0000000001
44
0.0000000001
40
0
40
0
40
0
40
0
40
1
40
1
40
1
40
1
41
1
41
1
41
1
41
1
10
1.9004414966579262
20
-3.71499553640616
30
0
10
1.9693085350700203
20
-3.6864563235633705
30
0
10
2.0256344135866655
20
-3.6400882078963988
30
0
10
2.0256344135866655
20
-3.6119253307332744
30
0
0
SPLINE
5
140
100
AcDbEntity
8
0
100
AcDbSpline
70
4
71
3
72
8
73
4
74
0
42
0.000000001
43
0.0000000001
44
0.0000000001
40
0
40
0
40
0
40
0
40
1
40
1
40
1
40
1
41
1
41
1
41
1
41
1
10
2.0256344135866655
20
-3.6119253307332744
30
0
10
2.0256344135866655
20
-3.583761182165826
30
0
10
1.922522024223241
20
-3.4784418622452056
30
0
10
1.7964963356266663
20
-3.3778712374717244
30
0
0
SPLINE
5
141
100
AcDbEntity
8
0
100
AcDbSpline
70
4
71
3
72
8
73
4
74
0
42
0.000000001
43
0.0000000001
44
0.0000000001
40
0
40
0
40
0
40
0
40
1
40
1
40
1
40
1
41
1
41
1
41
1
41
1
10
1.7964963356266663
20
-3.3778712374717244
30
0
10
1.6704706470300912
20
-3.2773006126982418
30
0
10
1.5673582576666665
20
-3.1799377410321825
30
0
10
1.5673582576666665
20
-3.1614400795339992
30
0
0
SPLINE
5
142
100
AcDbEntity
8
0
100
AcDbSpline
70
4
71
3
72
8
73
4
74
0
42
0.000000001
43
0.0000000001
44
0.0000000001
40
0
40
0
40
0
40
0
40
1
40
1
40
1
40
1
41
1
41
1
41
1
41
1
10
1.5673582576666665
20
-3.1614400795339992
30
0
10
1.5673582576666665
20
-3.0828672923604601
30
0
10
1.7781651876772955
20
-2.9266371291260862
30
0
10
1.920147035711004
20
-2.900015194002675
30
0
0
SPLINE
5
143
100
AcDbEntity
8
0
100
AcDbSpline
70
4
71
3
72
8
73
4
74
0
42
0.000000001
43
0.0000000001
44
0.0000000001
40
0
40
0
40
0
40
0
40
1
40
1
40
1
40
1
41
1
41
1
41
1
41
1
10
1.920147035711004
20
-2.900015194002675
30
0
10
2.0662545998700921
20
-2.8726024453902386
30
0
10
2.1729904995439426
20
-2.7571996177823461
30
0
10
2.0807104988979979
20
-2.7264532470344878
30
0
0
SPLINE
5
144
100
AcDbEntity
8
0
100
AcDbSpline
70
4
71
3
72
8
73
4
74
0
42
0.000000001
43
0.0000000001
44
0.0000000001
40
0
40
0
40
0
40
0
40
1
40
1
40
1
40
1
41
1
41
1
41
1
41
1
10
2.0807104988979979
20
-2.7264532470344878
30
0
10
2.0569224715618404
20
-2.7185387551225899
30
0
10
2.0021794949176437
20
-2.6862501709306943
30
0
10
1.9590177657884147
20
-2.654671030351142
30
0
0
SPLINE
5
145
100
AcDbEntity
8
0
100
AcDbSpline
70
4
71
3
72
8
73
4
74
0
42
0.000000001
43
0.0000000001
44
0.0000000001
40
0
40
0
40
0
40
0
40
1
40
1
40
1
40
1
41
1
41
1
41
1
41
1
10
1.9590177657884147
20
-2.654671030351142
30
0
10
1.8837352070161779
20
-2.5996370228172609
30
0
10
1.8852774238605792
20
-2.5930536912317503
30
0
10
1.9975960722267367
20
-2.4889422054181649
30
0
0
SPLINE
5
146
100
AcDbEntity
8
0
100
AcDbSpline
70
4
71
3
72
8
73
4
74
0
42
0.000000001
43
0.0000000001
44
0.0000000001
40
0
40
0
40
0
40
0
40
1
40
1
40
1
40
1
41
1
41
1
41
1
41
1
10
1.9975960722267367
20
-2.4889422054181649
30
0
10
2.2039874052871533
20
-2.2976746818451428
30
0
10
2.0717114792568792
20
-2.1148225834873586
30
0
10
1.7365876318276416
20
-2.1281125728777308
30
0
0
SPLINE
5
147
100
AcDbEntity
8
0
100
AcDbSpline
70
4
71
3
72
8
73
4
74
0
42
0.000000001
43
0.0000000001
44
0.0000000001
40
0
40
0
40
0
40
0
40
1
40
1
40
1
40
1
41
1
41
1
41
1
41
1
10
1.7365876318276416
20
-2.1281125728777308
30
0
10
1.6046041294364528
20
-2.1333622013282092
30
0
10
1.5687746052055473
20
-2.0707035820681208
30
0
10
1.5679837899728877
20
-1.833441735699145
30
0
0
SPLINE
5
148
100
AcDbEntity
8
0
100
AcDbSpline
70
4
71
3
72
8
73
4
74
0
42
0.000000001
43
0.0000000001
44
0.0000000001
40
0
40
0
40
0
40
0
40
1
40
1
40
1
40
1
41
1
41
1
41
1
41
1
10
1.5679837899728877
20
-1.833441735699145
30
0
10
1.5674421705370136
20
-1.6673378464908273
30
0
10
1.5858979163847762
20
-1.6236358656895964
30
0
10
1.6955504240067374
20
-1.5313967534460207
30
0
0
SPLINE
5
149
100
AcDbEntity
8
0
100
AcDbSpline
70
4
71
3
72
8
73
4
74
0
42
0.000000001
43
0.0000000001
44
0.0000000001
40
0
40
0
40
0
40
0
40
1
40
1
40
1
40
1
41
1
41
1
41
1
41
1
10
1.6955504240067374
20
-1.5313967534460207
30
0
10
1.8403242820901629
20
-1.4095796910276031
30
0
10
1.9267303818118391
20
-1.3986646849129616
30
0
10
2.0440075179712096
20
-1.4873616647121115
30
0
0
SPLINE
5
150
100
AcDbEntity
8
0
100
AcDbSpline
70
4
71
3
72
8
73
4
74
0
42
0.000000001
43
0.0000000001
44
0.0000000001
40
0
40
0
40
0
40
0
40
1
40
1
40
1
40
1
41
1
41
1
41
1
41
1
10
2.0440075179712096
20
-1.4873616647121115
30
0
10
2.1456616033605798
20
-1.5642269558795978
30
0
10
2.2319418337767374
20
-1.5631437193962354
30
0
10
2.3371787444484844
20
-1.4835703370203419
30
0
0
SPLINE
5
151
100
AcDbEntity
8
0
100
AcDbSpline
70
4
71
3
72
8
73
4
74
0
42
0.000000001
43
0.0000000001
44
0.0000000001
40
0
40
0
40
0
40
0
40
1
40
1
40
1
40
1
41
1
41
1
41
1
41
1
10
2.3371787444484844
20
-1.4835703370203419
30
0
10
2.4022544468094607
20
-1.4344089460553049
30
0
10
2.4100443582733106
20
-1.4062053839538402
30
0
10
2.3742161054495319
20
-1.3495032939479268
30
0
0
SPLINE
5
152
100
AcDbEntity
8
0
100
AcDbSpline
70
4
71
3
72
8
73
4
74
0
42
0.000000001
43
0.0000000001
44
0.0000000001
40
0
40
0
40
0
40
0
40
1
40
1
40
1
40
1
41
1
41
1
41
1
41
1
10
2.3742161054495319
20
-1.3495032939479268
30
0
10
2.3394291350623271
20
-1.2944692864140455
30
0
10
2.2699785207791856
20
-1.2777210772645808
30
0
10
2.0765860541797445
20
-1.2777210772645808
30
0
0
SPLINE
5
153
100
AcDbEntity
8
0
100
AcDbSpline
70
4
71
3
72
8
73
4
74
0
42
0.000000001
43
0.0000000001
44
0.0000000001
40
0
40
0
40
0
40
0
40
1
40
1
40
1
40
1
41
1
41
1
41
1
41
1
10
2.0765860541797445
20
-1.2777210772645808
30
0
10
1.9378539227612801
20
-1.2777210772645808
30
0
10
1.8099948650883444
20
-1.2633898077335084
30
0
10
1.7924558037787599
20
-1.2458495136906913
30
0
0
SPLINE
5
154
100
AcDbEntity
8
0
100
AcDbSpline
70
4
71
3
72
8
73
4
74
0
42
0.000000001
43
0.0000000001
44
0.0000000001
40
0
40
0
40
0
40
0
40
1
40
1
40
1
40
1
41
1
41
1
41
1
41
1
10
1.7924558037787599
20
-1.2458495136906913
30
0
10
1.7748735146268781
20
-1.2283104910521965
30
0
10
1.8232848837812814
20
-1.1492367705753193
30
0
10
1.8999837900923995
20
-1.0701223651601008
30
0
0
SPLINE
5
155
100
AcDbEntity
8
0
100
AcDbSpline
70
4
71
3
72
8
73
4
74
0
42
0.000000001
43
0.0000000001
44
0.0000000001
40
0
40
0
40
0
40
0
40
1
40
1
40
1
40
1
41
1
41
1
41
1
41
1
10
1.8999837900923995
20
-1.0701223651601008
30
0
10
2.0172189698165943
20
-0.94913807257337679
30
0
10
2.0284671086644295
20
-0.92205843189361569
30
0
10
1.9705583282753356
20
-0.89985208398466721
30
0
0
SPLINE
5
156
100
AcDbEntity
8
0
100
AcDbSpline
70
4
71
3
72
8
73
4
74
0
42
0.000000001
43
0.0000000001
44
0.0000000001
40
0
40
0
40
0
40
0
40
1
40
1
40
1
40
1
41
1
41
1
41
1
41
1
10
1.9705583282753356
20
-0.89985208398466721
30
0
10
1.9326881956064528
20
-0.88531230414459428
30
0
10
1.8416986731938703
20
-0.89435326028684214
30
0
10
1.7684160378315639
20
-0.91989195892688802
30
0
0
SPLINE
5
157
100
AcDbEntity
8
0
100
AcDbSpline
70
4
71
3
72
8
73
4
74
0
42
0.000000001
43
0.0000000001
44
0.0000000001
40
0
40
0
40
0
40
0
40
1
40
1
40
1
40
1
41
1
41
1
41
1
41
1
10
1.7684160378315639
20
-0.91989195892688802
30
0
10
1.5778155812818397
20
-0.98634190587874904
30
0
10
1.5424869914587613
20
-0.92868244841746928
30
0
10
1.6229759624138704
20
-0.68258815621524915
30
0
0
SPLINE
5
158
100
AcDbEntity
8
0
100
AcDbSpline
70
4
71
3
72
8
73
4
74
0
42
0.000000001
43
0.0000000001
44
0.0000000001
40
0
40
0
40
0
40
0
40
1
40
1
40
1
40
1
41
1
41
1
41
1
41
1
10
1.6229759624138704
20
-0.68258815621524915
30
0
10
1.6676379519523272
20
-0.5461054449287609
30
0
10
1.9020243985303746
20
-0.23943636515216846
30
0
10
1.6840518179549899
20
-0.21818865610291119
30
0
0
ENDSEC
0
SECTION
2
OBJECTS
0
DICTIONARY
5
C
100
AcDbDictionary
3
ACAD_GROUP
350
D
3
ACAD_MLINESTYLE
350
17
0
DICTIONARY
5
D
100
AcDbDictionary
0
DICTIONARY
5
1A
330
C
100
AcDbDictionary
0
DICTIONARY
5
17
100
AcDbDictionary
0
ENDSEC
0
EOF
