ISO-10303-21;
HEADER;
FILE_DESCRIPTION(('Open CASCADE Model'),'2;1');
FILE_NAME('collar-coupon','2026-08-30T18:22:44',('Author'),(
    'Open CASCADE'),'Open CASCADE STEP processor 7.9','build123d',
  'Unknown');
FILE_SCHEMA(('AUTOMOTIVE_DESIGN { 1 0 10303 214 1 1 1 1 }'));
ENDSEC;
DATA;
#1 = APPLICATION_PROTOCOL_DEFINITION('international standard',
  'automotive_design',2000,#2);
#2 = APPLICATION_CONTEXT(
  'core data for automotive mechanical design processes');
#3 = SHAPE_DEFINITION_REPRESENTATION(#4,#10);
#4 = PRODUCT_DEFINITION_SHAPE('','',#5);
#5 = PRODUCT_DEFINITION('design','',#6,#9);
#6 = PRODUCT_DEFINITION_FORMATION('','',#7);
#7 = PRODUCT('collar-coupon','collar-coupon','',(#8));
#8 = PRODUCT_CONTEXT('',#2,'mechanical');
#9 = PRODUCT_DEFINITION_CONTEXT('part definition',#2,'design');
#10 = SHAPE_REPRESENTATION('',(#11,#15),#19);
#11 = AXIS2_PLACEMENT_3D('',#12,#13,#14);
#12 = CARTESIAN_POINT('',(0.,0.,0.));
#13 = DIRECTION('',(0.,0.,1.));
#14 = DIRECTION('',(1.,0.,-0.));
#15 = AXIS2_PLACEMENT_3D('',#16,#17,#18);
#16 = CARTESIAN_POINT('',(0.,0.,0.));
#17 = DIRECTION('',(0.,0.,1.));
#18 = DIRECTION('',(1.,0.,-0.));
#19 = ( GEOMETRIC_REPRESENTATION_CONTEXT(3) 
GLOBAL_UNCERTAINTY_ASSIGNED_CONTEXT((#23)) GLOBAL_UNIT_ASSIGNED_CONTEXT(
(#20,#21,#22)) REPRESENTATION_CONTEXT('Context #1',
  '3D Context with UNIT and UNCERTAINTY') );
#20 = ( LENGTH_UNIT() NAMED_UNIT(*) SI_UNIT(.MILLI.,.METRE.) );
#21 = ( NAMED_UNIT(*) PLANE_ANGLE_UNIT() SI_UNIT($,.RADIAN.) );
#22 = ( NAMED_UNIT(*) SI_UNIT($,.STERADIAN.) SOLID_ANGLE_UNIT() );
#23 = UNCERTAINTY_MEASURE_WITH_UNIT(LENGTH_MEASURE(2.E-06),#20,
  'distance_accuracy_value','confusion accuracy');
#24 = PRODUCT_RELATED_PRODUCT_CATEGORY('part',$,(#7));
#25 = SHAPE_DEFINITION_REPRESENTATION(#26,#32);
#26 = PRODUCT_DEFINITION_SHAPE('','',#27);
#27 = PRODUCT_DEFINITION('design','',#28,#31);
#28 = PRODUCT_DEFINITION_FORMATION('','',#29);
#29 = PRODUCT('collar-coupon','collar-coupon','',(#30));
#30 = PRODUCT_CONTEXT('',#2,'mechanical');
#31 = PRODUCT_DEFINITION_CONTEXT('part definition',#2,'design');
#32 = ADVANCED_BREP_SHAPE_REPRESENTATION('',(#11,#33),#1510);
#33 = MANIFOLD_SOLID_BREP('',#34);
#34 = CLOSED_SHELL('',(#35,#357,#563,#590,#652,#706,#778,#805,#1053,
    #1083,#1157,#1205,#1346,#1373,#1421,#1469,#1496,#1503));
#35 = ADVANCED_FACE('',(#36),#50,.T.);
#36 = FACE_BOUND('',#37,.T.);
#37 = EDGE_LOOP('',(#38,#66,#92,#93,#220,#248));
#38 = ORIENTED_EDGE('',*,*,#39,.F.);
#39 = EDGE_CURVE('',#40,#42,#44,.T.);
#40 = VERTEX_POINT('',#41);
#41 = CARTESIAN_POINT('',(42.286766666667,-1.035727068892E-14,5.8928));
#42 = VERTEX_POINT('',#43);
#43 = CARTESIAN_POINT('',(43.942,-1.076268592963E-14,22.725681355932));
#44 = SEAM_CURVE('',#45,(#49,#60),.PCURVE_S1.);
#45 = LINE('',#46,#47);
#46 = CARTESIAN_POINT('',(42.037,-1.029609549915E-14,3.3528));
#47 = VECTOR('',#48,1.);
#48 = DIRECTION('',(9.786133917753E-02,-2.396911515681E-17,
    0.995200059432));
#49 = PCURVE('',#50,#55);
#50 = CONICAL_SURFACE('',#51,42.037,9.801821662382E-02);
#51 = AXIS2_PLACEMENT_3D('',#52,#53,#54);
#52 = CARTESIAN_POINT('',(0.,0.,3.3528));
#53 = DIRECTION('',(0.,0.,1.));
#54 = DIRECTION('',(1.,0.,-0.));
#55 = DEFINITIONAL_REPRESENTATION('',(#56),#59);
#56 = B_SPLINE_CURVE_WITH_KNOTS('',1,(#57,#58),.UNSPECIFIED.,.F.,.F.,(2,
    2),(2.55225065144,19.466318527935),.PIECEWISE_BEZIER_KNOTS.);
#57 = CARTESIAN_POINT('',(0.,2.54));
#58 = CARTESIAN_POINT('',(0.,19.372881355932));
#59 = ( GEOMETRIC_REPRESENTATION_CONTEXT(2) 
PARAMETRIC_REPRESENTATION_CONTEXT() REPRESENTATION_CONTEXT('2D SPACE',''
  ) );
#60 = PCURVE('',#50,#61);
#61 = DEFINITIONAL_REPRESENTATION('',(#62),#65);
#62 = B_SPLINE_CURVE_WITH_KNOTS('',1,(#63,#64),.UNSPECIFIED.,.F.,.F.,(2,
    2),(2.55225065144,19.466318527935),.PIECEWISE_BEZIER_KNOTS.);
#63 = CARTESIAN_POINT('',(6.28318530718,2.54));
#64 = CARTESIAN_POINT('',(6.28318530718,19.372881355932));
#65 = ( GEOMETRIC_REPRESENTATION_CONTEXT(2) 
PARAMETRIC_REPRESENTATION_CONTEXT() REPRESENTATION_CONTEXT('2D SPACE',''
  ) );
#66 = ORIENTED_EDGE('',*,*,#67,.T.);
#67 = EDGE_CURVE('',#40,#40,#68,.T.);
#68 = SURFACE_CURVE('',#69,(#74,#80),.PCURVE_S1.);
#69 = CIRCLE('',#70,42.286766666667);
#70 = AXIS2_PLACEMENT_3D('',#71,#72,#73);
#71 = CARTESIAN_POINT('',(0.,0.,5.8928));
#72 = DIRECTION('',(0.,0.,1.));
#73 = DIRECTION('',(1.,0.,-0.));
#74 = PCURVE('',#50,#75);
#75 = DEFINITIONAL_REPRESENTATION('',(#76),#79);
#76 = B_SPLINE_CURVE_WITH_KNOTS('',1,(#77,#78),.UNSPECIFIED.,.F.,.F.,(2,
    2),(0.,6.28318530718),.PIECEWISE_BEZIER_KNOTS.);
#77 = CARTESIAN_POINT('',(0.,2.54));
#78 = CARTESIAN_POINT('',(6.28318530718,2.54));
#79 = ( GEOMETRIC_REPRESENTATION_CONTEXT(2) 
PARAMETRIC_REPRESENTATION_CONTEXT() REPRESENTATION_CONTEXT('2D SPACE',''
  ) );
#80 = PCURVE('',#81,#86);
#81 = PLANE('',#82);
#82 = AXIS2_PLACEMENT_3D('',#83,#84,#85);
#83 = CARTESIAN_POINT('',(0.,0.,5.8928));
#84 = DIRECTION('',(0.,0.,1.));
#85 = DIRECTION('',(1.,0.,-0.));
#86 = DEFINITIONAL_REPRESENTATION('',(#87),#91);
#87 = CIRCLE('',#88,42.286766666667);
#88 = AXIS2_PLACEMENT_2D('',#89,#90);
#89 = CARTESIAN_POINT('',(0.,0.));
#90 = DIRECTION('',(1.,0.));
#91 = ( GEOMETRIC_REPRESENTATION_CONTEXT(2) 
PARAMETRIC_REPRESENTATION_CONTEXT() REPRESENTATION_CONTEXT('2D SPACE',''
  ) );
#92 = ORIENTED_EDGE('',*,*,#39,.T.);
#93 = ORIENTED_EDGE('',*,*,#94,.T.);
#94 = EDGE_CURVE('',#42,#95,#97,.T.);
#95 = VERTEX_POINT('',#96);
#96 = CARTESIAN_POINT('',(45.072621611629,-10.71174921241,46.99));
#97 = SURFACE_CURVE('',#98,(#143,#179),.PCURVE_S1.);
#98 = B_SPLINE_CURVE_WITH_KNOTS('',7,(#99,#100,#101,#102,#103,#104,#105,
    #106,#107,#108,#109,#110,#111,#112,#113,#114,#115,#116,#117,#118,
    #119,#120,#121,#122,#123,#124,#125,#126,#127,#128,#129,#130,#131,
    #132,#133,#134,#135,#136,#137,#138,#139,#140,#141,#142),
  .UNSPECIFIED.,.F.,.F.,(8,6,6,6,6,6,6,8),(0.,3.469556223171E-02,
    6.643381058768E-02,0.111937695716,0.22274581122,0.45394521137,
    0.760667506802,1.),.UNSPECIFIED.);
#99 = CARTESIAN_POINT('',(43.942,5.639932965096E-15,22.725681355932));
#100 = CARTESIAN_POINT('',(43.942,-0.423848282751,22.725681355932));
#101 = CARTESIAN_POINT('',(43.946086395529,-0.813532004647,
    22.815760568062));
#102 = CARTESIAN_POINT('',(43.953064757753,-1.165726643972,
    22.969589945872));
#103 = CARTESIAN_POINT('',(43.961730915744,-1.482507948801,
    23.160507119181));
#104 = CARTESIAN_POINT('',(43.971334480802,-1.767430685336,
    23.371944935819));
#105 = CARTESIAN_POINT('',(43.981460548344,-2.026300646719,
    23.594754028421));
#106 = CARTESIAN_POINT('',(44.001867117948,-2.487652412786,
    24.043482216916));
#107 = CARTESIAN_POINT('',(44.01200821231,-2.691895524226,
    24.266359072075));
#108 = CARTESIAN_POINT('',(44.02242146642,-2.883742234096,
    24.495083874777));
#109 = CARTESIAN_POINT('',(44.033036770398,-3.065212379865,
    24.728105491073));
#110 = CARTESIAN_POINT('',(44.043809318833,-3.237749196114,
    24.964433137874));
#111 = CARTESIAN_POINT('',(44.05471009151,-3.40270038541,25.20342438053)
  );
#112 = CARTESIAN_POINT('',(44.081532551957,-3.788223001539,
    25.791114397821));
#113 = CARTESIAN_POINT('',(44.09756052979,-4.001622076687,
    26.141982256032));
#114 = CARTESIAN_POINT('',(44.11375968657,-4.204135944062,
    26.496274682653));
#115 = CARTESIAN_POINT('',(44.130095195196,-4.397446498681,
    26.853219667301));
#116 = CARTESIAN_POINT('',(44.146543630044,-4.582763259232,
    27.212298130796));
#117 = CARTESIAN_POINT('',(44.163088962236,-4.761125505148,
    27.573154237882));
#118 = CARTESIAN_POINT('',(44.220231949078,-5.352674726299,
    28.818280170152));
#119 = CARTESIAN_POINT('',(44.261242803464,-5.735264246441,
    29.709881894929));
#120 = CARTESIAN_POINT('',(44.302607697693,-6.092542273642,
    30.60711444515));
#121 = CARTESIAN_POINT('',(44.344258662345,-6.428874119684,
    31.508466194238));
#122 = CARTESIAN_POINT('',(44.38614391117,-6.748284508347,
    32.412788742957));
#123 = CARTESIAN_POINT('',(44.428242042858,-7.053162593656,
    33.319602417387));
#124 = CARTESIAN_POINT('',(44.558818628152,-7.955824115493,
    36.125757943072));
#125 = CARTESIAN_POINT('',(44.647932964839,-8.511510595505,
    38.031709924706));
#126 = CARTESIAN_POINT('',(44.73773919128,-9.030411766059,
    39.943216665224));
#127 = CARTESIAN_POINT('',(44.828170364329,-9.518981310985,
    41.858777954946));
#128 = CARTESIAN_POINT('',(44.919174588207,-9.983273891222,
    43.777237568195));
#129 = CARTESIAN_POINT('',(45.010731747552,-10.42671658944,
    45.698136367106));
#130 = CARTESIAN_POINT('',(45.225032169172,-11.41697021011,
    50.17281832817));
#131 = CARTESIAN_POINT('',(45.348168797744,-11.95010152104,
    52.727863249549));
#132 = CARTESIAN_POINT('',(45.472208030756,-12.45830380331,
    55.285574875038));
#133 = CARTESIAN_POINT('',(45.597124434963,-12.94551960756,
    57.845374045359));
#134 = CARTESIAN_POINT('',(45.722900778299,-13.41454196897,
    60.406869241407));
#135 = CARTESIAN_POINT('',(45.849525239483,-13.86769372776,
    62.969788045181));
#136 = CARTESIAN_POINT('',(46.076453774573,-14.64924738114,
    67.534818259069));
#137 = CARTESIAN_POINT('',(46.176426686135,-14.98318557815,
    69.536395185184));
#138 = CARTESIAN_POINT('',(46.276907030484,-15.30934184016,
    71.538629105955));
#139 = CARTESIAN_POINT('',(46.3778914829,-15.62839310639,73.541442860256
    ));
#140 = CARTESIAN_POINT('',(46.479377367935,-15.94089683676,
    75.544774297302));
#141 = CARTESIAN_POINT('',(46.581362551563,-16.24732467484,
    77.548573498615));
#142 = CARTESIAN_POINT('',(46.683845333333,-16.54809611083,79.5528));
#143 = PCURVE('',#50,#144);
#144 = DEFINITIONAL_REPRESENTATION('',(#145),#178);
#145 = B_SPLINE_CURVE_WITH_KNOTS('',7,(#146,#147,#148,#149,#150,#151,
    #152,#153,#154,#155,#156,#157,#158,#159,#160,#161,#162,#163,#164,
    #165,#166,#167,#168,#169,#170,#171,#172,#173,#174,#175,#176,#177),
  .UNSPECIFIED.,.F.,.F.,(8,6,6,6,6,8),(0.,3.469556223171E-02,
    6.643381058768E-02,0.111937695716,0.22274581122,0.443100694544),
  .UNSPECIFIED.);
#146 = CARTESIAN_POINT('',(6.28318530718,19.372881355932));
#147 = CARTESIAN_POINT('',(6.273539676968,19.372881355932));
#148 = CARTESIAN_POINT('',(6.264671521616,19.462960568062));
#149 = CARTESIAN_POINT('',(6.256663305113,19.616789945872));
#150 = CARTESIAN_POINT('',(6.249469265602,19.807707119181));
#151 = CARTESIAN_POINT('',(6.243007056098,20.019144935819));
#152 = CARTESIAN_POINT('',(6.237143364647,20.241954028421));
#153 = CARTESIAN_POINT('',(6.226707843232,20.690682216916));
#154 = CARTESIAN_POINT('',(6.222094836723,20.913559072075));
#155 = CARTESIAN_POINT('',(6.217768205257,21.142283874777));
#156 = CARTESIAN_POINT('',(6.213681639104,21.375305491073));
#157 = CARTESIAN_POINT('',(6.209801999867,21.611633137874));
#158 = CARTESIAN_POINT('',(6.20609839866,21.85062438053));
#159 = CARTESIAN_POINT('',(6.197455228469,22.438314397821));
#160 = CARTESIAN_POINT('',(6.192682257104,22.789182256032));
#161 = CARTESIAN_POINT('',(6.188163147048,23.143474682653));
#162 = CARTESIAN_POINT('',(6.183859201257,23.500419667301));
#163 = CARTESIAN_POINT('',(6.17974254597,23.859498130796));
#164 = CARTESIAN_POINT('',(6.175789246319,24.220354237882));
#165 = CARTESIAN_POINT('',(6.162707188661,25.465480170152));
#166 = CARTESIAN_POINT('',(6.154298616293,26.357081894929));
#167 = CARTESIAN_POINT('',(6.146491457989,27.25431444515));
#168 = CARTESIAN_POINT('',(6.13918411977,28.155666194238));
#169 = CARTESIAN_POINT('',(6.132283152128,29.059988742957));
#170 = CARTESIAN_POINT('',(6.125732810012,29.966802417387));
#171 = CARTESIAN_POINT('',(6.107057630618,32.683979194295));
#172 = CARTESIAN_POINT('',(6.095832403521,34.50013051189));
#173 = CARTESIAN_POINT('',(6.08544986273,36.321473307701));
#174 = CARTESIAN_POINT('',(6.075766449827,38.14663088622));
#175 = CARTESIAN_POINT('',(6.066656716919,39.974571275206));
#176 = CARTESIAN_POINT('',(6.058042275285,41.804813881746));
#177 = CARTESIAN_POINT('',(6.04985846521,43.6372));
#178 = ( GEOMETRIC_REPRESENTATION_CONTEXT(2) 
PARAMETRIC_REPRESENTATION_CONTEXT() REPRESENTATION_CONTEXT('2D SPACE',''
  ) );
#179 = PCURVE('',#180,#185);
#180 = CYLINDRICAL_SURFACE('',#181,51.308);
#181 = AXIS2_PLACEMENT_3D('',#182,#183,#184);
#182 = CARTESIAN_POINT('',(95.25,0.,-88.9));
#183 = DIRECTION('',(0.,0.,1.));
#184 = DIRECTION('',(1.,0.,-0.));
#185 = DEFINITIONAL_REPRESENTATION('',(#186),#219);
#186 = B_SPLINE_CURVE_WITH_KNOTS('',7,(#187,#188,#189,#190,#191,#192,
    #193,#194,#195,#196,#197,#198,#199,#200,#201,#202,#203,#204,#205,
    #206,#207,#208,#209,#210,#211,#212,#213,#214,#215,#216,#217,#218),
  .UNSPECIFIED.,.F.,.F.,(8,6,6,6,6,8),(0.,3.469556223171E-02,
    6.643381058768E-02,0.111937695716,0.22274581122,0.443100694544),
  .UNSPECIFIED.);
#187 = CARTESIAN_POINT('',(3.14159265359,111.62568135593));
#188 = CARTESIAN_POINT('',(3.149853515108,111.62568135593));
#189 = CARTESIAN_POINT('',(3.157448502327,111.71576056806));
#190 = CARTESIAN_POINT('',(3.16431375514,111.86958994587));
#191 = CARTESIAN_POINT('',(3.170489934766,112.06050711918));
#192 = CARTESIAN_POINT('',(3.17604613017,112.27194493581));
#193 = CARTESIAN_POINT('',(3.181095334837,112.49475402842));
#194 = CARTESIAN_POINT('',(3.190095936274,112.94348221691));
#195 = CARTESIAN_POINT('',(3.194081508805,113.16635907207));
#196 = CARTESIAN_POINT('',(3.197826071424,113.39508387477));
#197 = CARTESIAN_POINT('',(3.201368945552,113.62810549107));
#198 = CARTESIAN_POINT('',(3.204738221099,113.86443313787));
#199 = CARTESIAN_POINT('',(3.207960136288,114.10342438053));
#200 = CARTESIAN_POINT('',(3.215492189115,114.69111439782));
#201 = CARTESIAN_POINT('',(3.219663018611,115.04198225603));
#202 = CARTESIAN_POINT('',(3.223622577932,115.39627468265));
#203 = CARTESIAN_POINT('',(3.227403593069,115.7532196673));
#204 = CARTESIAN_POINT('',(3.231029593067,116.11229813079));
#205 = CARTESIAN_POINT('',(3.234520797678,116.47315423788));
#206 = CARTESIAN_POINT('',(3.246103840994,117.71828017015));
#207 = CARTESIAN_POINT('',(3.253602870348,118.60988189492));
#208 = CARTESIAN_POINT('',(3.260612418606,119.50711444515));
#209 = CARTESIAN_POINT('',(3.26721729278,120.40846619423));
#210 = CARTESIAN_POINT('',(3.27349571186,121.31278874295));
#211 = CARTESIAN_POINT('',(3.279494081566,122.21960241738));
#212 = CARTESIAN_POINT('',(3.296706546829,124.93677919429));
#213 = CARTESIAN_POINT('',(3.307206520838,126.75293051189));
#214 = CARTESIAN_POINT('',(3.317051555109,128.57427330769));
#215 = CARTESIAN_POINT('',(3.326358846176,130.39943088622));
#216 = CARTESIAN_POINT('',(3.335231088719,132.2273712752));
#217 = CARTESIAN_POINT('',(3.343731756096,134.05761388174));
#218 = CARTESIAN_POINT('',(3.351913278376,135.89));
#219 = ( GEOMETRIC_REPRESENTATION_CONTEXT(2) 
PARAMETRIC_REPRESENTATION_CONTEXT() REPRESENTATION_CONTEXT('2D SPACE',''
  ) );
#220 = ORIENTED_EDGE('',*,*,#221,.F.);
#221 = EDGE_CURVE('',#222,#95,#224,.T.);
#222 = VERTEX_POINT('',#223);
#223 = CARTESIAN_POINT('',(45.072621611688,10.711749371421,46.99));
#224 = SURFACE_CURVE('',#225,(#230,#236),.PCURVE_S1.);
#225 = CIRCLE('',#226,46.327991333333);
#226 = AXIS2_PLACEMENT_3D('',#227,#228,#229);
#227 = CARTESIAN_POINT('',(0.,0.,46.99));
#228 = DIRECTION('',(0.,0.,1.));
#229 = DIRECTION('',(1.,0.,-0.));
#230 = PCURVE('',#50,#231);
#231 = DEFINITIONAL_REPRESENTATION('',(#232),#235);
#232 = B_SPLINE_CURVE_WITH_KNOTS('',1,(#233,#234),.UNSPECIFIED.,.F.,.F.,
  (2,2),(0.233326844524,6.049858465995),.PIECEWISE_BEZIER_KNOTS.);
#233 = CARTESIAN_POINT('',(0.233326844524,43.6372));
#234 = CARTESIAN_POINT('',(6.049858465995,43.6372));
#235 = ( GEOMETRIC_REPRESENTATION_CONTEXT(2) 
PARAMETRIC_REPRESENTATION_CONTEXT() REPRESENTATION_CONTEXT('2D SPACE',''
  ) );
#236 = PCURVE('',#237,#242);
#237 = PLANE('',#238);
#238 = AXIS2_PLACEMENT_3D('',#239,#240,#241);
#239 = CARTESIAN_POINT('',(-127.,-127.,46.99));
#240 = DIRECTION('',(0.,0.,1.));
#241 = DIRECTION('',(1.,0.,-0.));
#242 = DEFINITIONAL_REPRESENTATION('',(#243),#247);
#243 = CIRCLE('',#244,46.327991333333);
#244 = AXIS2_PLACEMENT_2D('',#245,#246);
#245 = CARTESIAN_POINT('',(127.,127.));
#246 = DIRECTION('',(1.,0.));
#247 = ( GEOMETRIC_REPRESENTATION_CONTEXT(2) 
PARAMETRIC_REPRESENTATION_CONTEXT() REPRESENTATION_CONTEXT('2D SPACE',''
  ) );
#248 = ORIENTED_EDGE('',*,*,#249,.T.);
#249 = EDGE_CURVE('',#222,#42,#250,.T.);
#250 = SURFACE_CURVE('',#251,(#289,#323),.PCURVE_S1.);
#251 = B_SPLINE_CURVE_WITH_KNOTS('',8,(#252,#253,#254,#255,#256,#257,
    #258,#259,#260,#261,#262,#263,#264,#265,#266,#267,#268,#269,#270,
    #271,#272,#273,#274,#275,#276,#277,#278,#279,#280,#281,#282,#283,
    #284,#285,#286,#287,#288),.UNSPECIFIED.,.F.,.F.,(9,7,7,7,7,9),(0.,
    0.516798212779,0.761471956511,0.882638837946,0.940426575525,1.),
  .UNSPECIFIED.);
#252 = CARTESIAN_POINT('',(46.683845333333,16.548096110834,79.5528));
#253 = CARTESIAN_POINT('',(46.48983985218,15.97871941996,75.758690199092
    ));
#254 = CARTESIAN_POINT('',(46.297591178965,15.389529162728,
    71.96627543727));
#255 = CARTESIAN_POINT('',(46.107100035028,14.777768140321,
    68.175622388844));
#256 = CARTESIAN_POINT('',(45.918375973622,14.140375350012,
    64.386968128979));
#257 = CARTESIAN_POINT('',(45.731442926015,13.472678963878,
    60.60085715646));
#258 = CARTESIAN_POINT('',(45.546336424772,12.768853720747,
    56.818093891754));
#259 = CARTESIAN_POINT('',(45.36310775132,12.020688605335,
    53.039852673922));
#260 = CARTESIAN_POINT('',(45.096035425961,10.827970213862,
    47.482671537027));
#261 = CARTESIAN_POINT('',(45.010673438625,10.431041713345,
    45.698781153052));
#262 = CARTESIAN_POINT('',(44.925766513122,10.018503631482,
    43.916689046757));
#263 = CARTESIAN_POINT('',(44.841325066848,9.588220997501,
    42.136637886482));
#264 = CARTESIAN_POINT('',(44.75737321807,9.137009037398,40.359168270324
    ));
#265 = CARTESIAN_POINT('',(44.673946587905,8.660907783856,
    38.585076656511));
#266 = CARTESIAN_POINT('',(44.591096745284,8.154366560886,
    36.815521888593));
#267 = CARTESIAN_POINT('',(44.468219558745,7.334644094027,
    34.179567808303));
#268 = CARTESIAN_POINT('',(44.427699329555,7.053017705106,
    33.308433253043));
#269 = CARTESIAN_POINT('',(44.387358178041,6.759765535722,
    32.439258091245));
#270 = CARTESIAN_POINT('',(44.347207493836,6.453269815659,
    31.572300669159));
#271 = CARTESIAN_POINT('',(44.307274808112,6.131105142344,
    30.708172916666));
#272 = CARTESIAN_POINT('',(44.267600958876,5.790295589315,
    29.847781600635));
#273 = CARTESIAN_POINT('',(44.228245303218,5.426691943626,
    28.992448154488));
#274 = CARTESIAN_POINT('',(44.170750805351,4.843243471102,
    27.740241771003));
#275 = CARTESIAN_POINT('',(44.152293778592,4.647808583516,
    27.337842180426));
#276 = CARTESIAN_POINT('',(44.133949299726,4.444294082493,
    26.937487814969));
#277 = CARTESIAN_POINT('',(44.115730358115,4.231566278493,
    26.539468624657));
#278 = CARTESIAN_POINT('',(44.097665189505,4.008044918797,
    26.144409917715));
#279 = CARTESIAN_POINT('',(44.079795317991,3.771817634829,
    25.753231004641));
#280 = CARTESIAN_POINT('',(44.062180418437,3.520267435775,
    25.367254595727));
#281 = CARTESIAN_POINT('',(44.027135520056,2.967822960705,24.59862814183
    ));
#282 = CARTESIAN_POINT('',(44.010902920352,2.684174282717,
    24.242217270612));
#283 = CARTESIAN_POINT('',(43.994950866687,2.375963381038,
    23.891689970646));
#284 = CARTESIAN_POINT('',(43.978949523291,2.025570577744,23.53975752328
    ));
#285 = CARTESIAN_POINT('',(43.96356810917,1.620271200726,23.201122738027
    ));
#286 = CARTESIAN_POINT('',(43.950356554523,1.15179809985,22.90989062792)
  );
#287 = CARTESIAN_POINT('',(43.942,0.612464600586,22.725681355932));
#288 = CARTESIAN_POINT('',(43.942,-1.076268592963E-14,22.725681355932));
#289 = PCURVE('',#50,#290);
#290 = DEFINITIONAL_REPRESENTATION('',(#291),#322);
#291 = B_SPLINE_CURVE_WITH_KNOTS('',8,(#292,#293,#294,#295,#296,#297,
    #298,#299,#300,#301,#302,#303,#304,#305,#306,#307,#308,#309,#310,
    #311,#312,#313,#314,#315,#316,#317,#318,#319,#320,#321),
  .UNSPECIFIED.,.F.,.F.,(9,7,7,7,9),(0.555842460407,0.761471956511,
    0.882638837946,0.940426575525,1.),.UNSPECIFIED.);
#292 = CARTESIAN_POINT('',(0.233326845608,43.6372));
#293 = CARTESIAN_POINT('',(0.226631959478,42.138202029915));
#294 = CARTESIAN_POINT('',(0.219654368166,40.640524137528));
#295 = CARTESIAN_POINT('',(0.212361815956,39.14430588747));
#296 = CARTESIAN_POINT('',(0.204714811204,37.649801954069));
#297 = CARTESIAN_POINT('',(0.196662049162,36.15741190365));
#298 = CARTESIAN_POINT('',(0.188139127045,34.667685843835));
#299 = CARTESIAN_POINT('',(0.179055573648,33.181400360123));
#300 = CARTESIAN_POINT('',(0.163480369184,30.826767808303));
#301 = CARTESIAN_POINT('',(0.157458569201,29.955633253043));
#302 = CARTESIAN_POINT('',(0.151155090503,29.086458091245));
#303 = CARTESIAN_POINT('',(0.14453214594,28.219500669159));
#304 = CARTESIAN_POINT('',(0.137533285043,27.355372916666));
#305 = CARTESIAN_POINT('',(0.130089257955,26.494981600635));
#306 = CARTESIAN_POINT('',(0.12210375573,25.639648154488));
#307 = CARTESIAN_POINT('',(0.109215622849,24.387441771003));
#308 = CARTESIAN_POINT('',(0.104888006139,23.985042180426));
#309 = CARTESIAN_POINT('',(0.100370456532,23.584687814969));
#310 = CARTESIAN_POINT('',(9.563685588227E-02,23.186668624657));
#311 = CARTESIAN_POINT('',(9.065081217049E-02,22.791609917715));
#312 = CARTESIAN_POINT('',(8.536827669037E-02,22.400431004641));
#313 = CARTESIAN_POINT('',(7.972906141837E-02,22.014454595727));
#314 = CARTESIAN_POINT('',(6.731252204076E-02,21.24582814183));
#315 = CARTESIAN_POINT('',(6.092188872818E-02,20.889417270612));
#316 = CARTESIAN_POINT('',(5.396484986335E-02,20.538889970646));
#317 = CARTESIAN_POINT('',(4.604009286436E-02,20.18695752328));
#318 = CARTESIAN_POINT('',(3.685406251795E-02,19.848322738027));
#319 = CARTESIAN_POINT('',(2.621178694248E-02,19.55709062792));
#320 = CARTESIAN_POINT('',(1.393802286165E-02,19.372881355932));
#321 = CARTESIAN_POINT('',(0.,19.372881355932));
#322 = ( GEOMETRIC_REPRESENTATION_CONTEXT(2) 
PARAMETRIC_REPRESENTATION_CONTEXT() REPRESENTATION_CONTEXT('2D SPACE',''
  ) );
#323 = PCURVE('',#180,#324);
#324 = DEFINITIONAL_REPRESENTATION('',(#325),#356);
#325 = B_SPLINE_CURVE_WITH_KNOTS('',8,(#326,#327,#328,#329,#330,#331,
    #332,#333,#334,#335,#336,#337,#338,#339,#340,#341,#342,#343,#344,
    #345,#346,#347,#348,#349,#350,#351,#352,#353,#354,#355),
  .UNSPECIFIED.,.F.,.F.,(9,7,7,7,9),(0.555842460407,0.761471956511,
    0.882638837946,0.940426575525,1.),.UNSPECIFIED.);
#326 = CARTESIAN_POINT('',(2.931272025706,135.89));
#327 = CARTESIAN_POINT('',(2.937965032115,134.39100202991));
#328 = CARTESIAN_POINT('',(2.944867654485,132.89332413752));
#329 = CARTESIAN_POINT('',(2.952005970954,131.39710588747));
#330 = CARTESIAN_POINT('',(2.959411988352,129.90260195406));
#331 = CARTESIAN_POINT('',(2.967127496974,128.41021190365));
#332 = CARTESIAN_POINT('',(2.975205122188,126.92048584383));
#333 = CARTESIAN_POINT('',(2.983719257769,125.43420036012));
#334 = CARTESIAN_POINT('',(2.998150124173,123.0795678083));
#335 = CARTESIAN_POINT('',(3.003695485631,122.20843325304));
#336 = CARTESIAN_POINT('',(3.00946465885,121.33925809124));
#337 = CARTESIAN_POINT('',(3.015489064508,120.47230066915));
#338 = CARTESIAN_POINT('',(3.021815826204,119.60817291666));
#339 = CARTESIAN_POINT('',(3.02850276213,118.74778160063));
#340 = CARTESIAN_POINT('',(3.035630511816,117.89244815448));
#341 = CARTESIAN_POINT('',(3.047057081857,116.640241771));
#342 = CARTESIAN_POINT('',(3.050883051457,116.23784218042));
#343 = CARTESIAN_POINT('',(3.054865599194,115.83748781496));
#344 = CARTESIAN_POINT('',(3.059026780962,115.43946862465));
#345 = CARTESIAN_POINT('',(3.063397341053,115.04440991771));
#346 = CARTESIAN_POINT('',(3.068014483568,114.65323100464));
#347 = CARTESIAN_POINT('',(3.072929132065,114.26725459572));
#348 = CARTESIAN_POINT('',(3.083717993726,113.49862814183));
#349 = CARTESIAN_POINT('',(3.089255283599,113.14221727061));
#350 = CARTESIAN_POINT('',(3.095270247182,112.79168997064));
#351 = CARTESIAN_POINT('',(3.102106251856,112.43975752328));
#352 = CARTESIAN_POINT('',(3.110010748476,112.10112273802));
#353 = CARTESIAN_POINT('',(3.119143950279,111.80989062792));
#354 = CARTESIAN_POINT('',(3.12965563401,111.62568135593));
#355 = CARTESIAN_POINT('',(3.14159265359,111.62568135593));
#356 = ( GEOMETRIC_REPRESENTATION_CONTEXT(2) 
PARAMETRIC_REPRESENTATION_CONTEXT() REPRESENTATION_CONTEXT('2D SPACE',''
  ) );
#357 = ADVANCED_FACE('',(#358),#180,.F.);
#358 = FACE_BOUND('',#359,.F.);
#359 = EDGE_LOOP('',(#360,#383,#384,#385,#408,#482));
#360 = ORIENTED_EDGE('',*,*,#361,.F.);
#361 = EDGE_CURVE('',#222,#362,#364,.T.);
#362 = VERTEX_POINT('',#363);
#363 = CARTESIAN_POINT('',(43.994851900564,2.328230825612,46.99));
#364 = SURFACE_CURVE('',#365,(#370,#376),.PCURVE_S1.);
#365 = CIRCLE('',#366,51.308);
#366 = AXIS2_PLACEMENT_3D('',#367,#368,#369);
#367 = CARTESIAN_POINT('',(95.25,0.,46.99));
#368 = DIRECTION('',(0.,0.,1.));
#369 = DIRECTION('',(1.,0.,-0.));
#370 = PCURVE('',#180,#371);
#371 = DEFINITIONAL_REPRESENTATION('',(#372),#375);
#372 = B_SPLINE_CURVE_WITH_KNOTS('',1,(#373,#374),.UNSPECIFIED.,.F.,.F.,
  (2,2),(2.931272025951,3.096199526115),.PIECEWISE_BEZIER_KNOTS.);
#373 = CARTESIAN_POINT('',(2.931272025951,135.89));
#374 = CARTESIAN_POINT('',(3.096199526115,135.89));
#375 = ( GEOMETRIC_REPRESENTATION_CONTEXT(2) 
PARAMETRIC_REPRESENTATION_CONTEXT() REPRESENTATION_CONTEXT('2D SPACE',''
  ) );
#376 = PCURVE('',#237,#377);
#377 = DEFINITIONAL_REPRESENTATION('',(#378),#382);
#378 = CIRCLE('',#379,51.308);
#379 = AXIS2_PLACEMENT_2D('',#380,#381);
#380 = CARTESIAN_POINT('',(222.25,127.));
#381 = DIRECTION('',(1.,0.));
#382 = ( GEOMETRIC_REPRESENTATION_CONTEXT(2) 
PARAMETRIC_REPRESENTATION_CONTEXT() REPRESENTATION_CONTEXT('2D SPACE',''
  ) );
#383 = ORIENTED_EDGE('',*,*,#249,.T.);
#384 = ORIENTED_EDGE('',*,*,#94,.T.);
#385 = ORIENTED_EDGE('',*,*,#386,.F.);
#386 = EDGE_CURVE('',#387,#95,#389,.T.);
#387 = VERTEX_POINT('',#388);
#388 = CARTESIAN_POINT('',(43.994851900472,-2.328230705471,46.99));
#389 = SURFACE_CURVE('',#390,(#395,#401),.PCURVE_S1.);
#390 = CIRCLE('',#391,51.308);
#391 = AXIS2_PLACEMENT_3D('',#392,#393,#394);
#392 = CARTESIAN_POINT('',(95.25,0.,46.99));
#393 = DIRECTION('',(0.,0.,1.));
#394 = DIRECTION('',(1.,0.,-0.));
#395 = PCURVE('',#180,#396);
#396 = DEFINITIONAL_REPRESENTATION('',(#397),#400);
#397 = B_SPLINE_CURVE_WITH_KNOTS('',1,(#398,#399),.UNSPECIFIED.,.F.,.F.,
  (2,2),(3.186985778725,3.351913278198),.PIECEWISE_BEZIER_KNOTS.);
#398 = CARTESIAN_POINT('',(3.186985778725,135.89));
#399 = CARTESIAN_POINT('',(3.351913278198,135.89));
#400 = ( GEOMETRIC_REPRESENTATION_CONTEXT(2) 
PARAMETRIC_REPRESENTATION_CONTEXT() REPRESENTATION_CONTEXT('2D SPACE',''
  ) );
#401 = PCURVE('',#237,#402);
#402 = DEFINITIONAL_REPRESENTATION('',(#403),#407);
#403 = CIRCLE('',#404,51.308);
#404 = AXIS2_PLACEMENT_2D('',#405,#406);
#405 = CARTESIAN_POINT('',(222.25,127.));
#406 = DIRECTION('',(1.,0.));
#407 = ( GEOMETRIC_REPRESENTATION_CONTEXT(2) 
PARAMETRIC_REPRESENTATION_CONTEXT() REPRESENTATION_CONTEXT('2D SPACE',''
  ) );
#408 = ORIENTED_EDGE('',*,*,#409,.F.);
#409 = EDGE_CURVE('',#410,#387,#412,.T.);
#410 = VERTEX_POINT('',#411);
#411 = CARTESIAN_POINT('',(43.942,-1.076268592963E-14,45.72));
#412 = SURFACE_CURVE('',#413,(#451,#464),.PCURVE_S1.);
#413 = B_SPLINE_CURVE_WITH_KNOTS('',8,(#414,#415,#416,#417,#418,#419,
    #420,#421,#422,#423,#424,#425,#426,#427,#428,#429,#430,#431,#432,
    #433,#434,#435,#436,#437,#438,#439,#440,#441,#442,#443,#444,#445,
    #446,#447,#448,#449,#450),.UNSPECIFIED.,.F.,.F.,(9,7,7,7,7,9),(0.,
    8.693163608615E-02,0.172168481783,0.344157923878,0.634537178163,1.),
  .UNSPECIFIED.);
#414 = CARTESIAN_POINT('',(43.942,5.639932965096E-15,45.72));
#415 = CARTESIAN_POINT('',(43.942,-0.553220816481,45.72));
#416 = CARTESIAN_POINT('',(43.948815570059,-1.032975086358,
    45.88398791479));
#417 = CARTESIAN_POINT('',(43.959289367693,-1.450470701077,
    46.135991586811));
#418 = CARTESIAN_POINT('',(43.97157979382,-1.812350188628,
    46.431409657744));
#419 = CARTESIAN_POINT('',(43.984409638302,-2.127407145143,
    46.73955189719));
#420 = CARTESIAN_POINT('',(43.997339900576,-2.406169244641,
    47.049873377222));
#421 = CARTESIAN_POINT('',(44.010530025229,-2.662901037939,
    47.36622239369));
#422 = CARTESIAN_POINT('',(44.038869743553,-3.16101451635,
    48.045326223316));
#423 = CARTESIAN_POINT('',(44.05320196891,-3.389008968096,
    48.388505121147));
#424 = CARTESIAN_POINT('',(44.067747326608,-3.603069559962,
    48.736508456897));
#425 = CARTESIAN_POINT('',(44.082454969602,-3.805571633135,
    49.088107280053));
#426 = CARTESIAN_POINT('',(44.09728952056,-3.998252811539,49.44244736277
    ));
#427 = CARTESIAN_POINT('',(44.112226933285,-4.182551385021,
    49.798947942878));
#428 = CARTESIAN_POINT('',(44.127256167411,-4.359500701236,
    50.157340640158));
#429 = CARTESIAN_POINT('',(44.172879184766,-4.874214333102,
    51.244370109497));
#430 = CARTESIAN_POINT('',(44.203705092817,-5.191885355432,
    51.977612878977));
#431 = CARTESIAN_POINT('',(44.23476873951,-5.490093974321,
    52.715256636994));
#432 = CARTESIAN_POINT('',(44.266023725296,-5.772320231919,
    53.456175975132));
#433 = CARTESIAN_POINT('',(44.297438010728,-6.04106552796,
    54.199595297176));
#434 = CARTESIAN_POINT('',(44.328989875072,-6.298360620109,
    54.944988365727));
#435 = CARTESIAN_POINT('',(44.360669704808,-6.545593043456,
    55.692118873857));
#436 = CARTESIAN_POINT('',(44.446173719619,-7.18658736224,
    57.705158025405));
#437 = CARTESIAN_POINT('',(44.500204340711,-7.563855515063,
    58.973547951698));
#438 = CARTESIAN_POINT('',(44.554521715994,-7.921451924495,
    60.244982578803));
#439 = CARTESIAN_POINT('',(44.609097820079,-8.262598089118,
    61.518777370665));
#440 = CARTESIAN_POINT('',(44.663912756864,-8.589642343484,
    62.794447499171));
#441 = CARTESIAN_POINT('',(44.718952571621,-8.904457247506,
    64.071652316298));
#442 = CARTESIAN_POINT('',(44.7742094639,-9.208427363182,65.350198226007
    ));
#443 = CARTESIAN_POINT('',(44.899493512626,-9.873168005636,
    68.24070404254));
#444 = CARTESIAN_POINT('',(44.969638825749,-10.22826521218,
    69.853240940337));
#445 = CARTESIAN_POINT('',(45.040102200539,-10.57032820236,
    71.467263985311));
#446 = CARTESIAN_POINT('',(45.110873512237,-10.90100451044,
    73.082523130269));
#447 = CARTESIAN_POINT('',(45.181945151778,-11.22154674177,
    74.69883068133));
#448 = CARTESIAN_POINT('',(45.253311342713,-11.53297536997,
    76.316043809476));
#449 = CARTESIAN_POINT('',(45.324967838477,-11.83615673976,
    77.934056365733));
#450 = CARTESIAN_POINT('',(45.396912,-12.13179627525,79.5528));
#451 = PCURVE('',#180,#452);
#452 = DEFINITIONAL_REPRESENTATION('',(#453),#463);
#453 = B_SPLINE_CURVE_WITH_KNOTS('',8,(#454,#455,#456,#457,#458,#459,
    #460,#461,#462),.UNSPECIFIED.,.F.,.F.,(9,9),(0.,6.289965877644E-02),
  .PIECEWISE_BEZIER_KNOTS.);
#454 = CARTESIAN_POINT('',(3.14159265359,134.62));
#455 = CARTESIAN_POINT('',(3.149394256891,134.62));
#456 = CARTESIAN_POINT('',(3.156446234114,134.70585245447));
#457 = CARTESIAN_POINT('',(3.162832048811,134.84877902146));
#458 = CARTESIAN_POINT('',(3.168610216096,135.02859955476));
#459 = CARTESIAN_POINT('',(3.173840599515,135.23026961616));
#460 = CARTESIAN_POINT('',(3.178590577763,135.44381782535));
#461 = CARTESIAN_POINT('',(3.182940527051,135.66397863694));
#462 = CARTESIAN_POINT('',(3.186985778743,135.89));
#463 = ( GEOMETRIC_REPRESENTATION_CONTEXT(2) 
PARAMETRIC_REPRESENTATION_CONTEXT() REPRESENTATION_CONTEXT('2D SPACE',''
  ) );
#464 = PCURVE('',#465,#470);
#465 = CONICAL_SURFACE('',#466,38.839117117117,8.984753969463E-02);
#466 = AXIS2_PLACEMENT_3D('',#467,#468,#469);
#467 = CARTESIAN_POINT('',(0.,0.,-10.922));
#468 = DIRECTION('',(0.,0.,1.));
#469 = DIRECTION('',(1.,0.,-0.));
#470 = DEFINITIONAL_REPRESENTATION('',(#471),#481);
#471 = B_SPLINE_CURVE_WITH_KNOTS('',8,(#472,#473,#474,#475,#476,#477,
    #478,#479,#480),.UNSPECIFIED.,.F.,.F.,(9,9),(0.,6.289965877644E-02),
  .PIECEWISE_BEZIER_KNOTS.);
#472 = CARTESIAN_POINT('',(6.28318530718,56.642));
#473 = CARTESIAN_POINT('',(6.274075920666,56.642));
#474 = CARTESIAN_POINT('',(6.265841829998,56.727852454473));
#475 = CARTESIAN_POINT('',(6.258391636214,56.870779021462));
#476 = CARTESIAN_POINT('',(6.251658326436,57.05059955476));
#477 = CARTESIAN_POINT('',(6.245571409549,57.252269616162));
#478 = CARTESIAN_POINT('',(6.240051057284,57.465817825357));
#479 = CARTESIAN_POINT('',(6.235002465327,57.685978636942));
#480 = CARTESIAN_POINT('',(6.230314101128,57.912));
#481 = ( GEOMETRIC_REPRESENTATION_CONTEXT(2) 
PARAMETRIC_REPRESENTATION_CONTEXT() REPRESENTATION_CONTEXT('2D SPACE',''
  ) );
#482 = ORIENTED_EDGE('',*,*,#483,.F.);
#483 = EDGE_CURVE('',#362,#410,#484,.T.);
#484 = SURFACE_CURVE('',#485,(#523,#543),.PCURVE_S1.);
#485 = B_SPLINE_CURVE_WITH_KNOTS('',8,(#486,#487,#488,#489,#490,#491,
    #492,#493,#494,#495,#496,#497,#498,#499,#500,#501,#502,#503,#504,
    #505,#506,#507,#508,#509,#510,#511,#512,#513,#514,#515,#516,#517,
    #518,#519,#520,#521,#522),.UNSPECIFIED.,.F.,.F.,(9,7,7,7,7,9),(0.,
    0.516444452529,0.760921283082,0.881468890791,0.941938051527,1.),
  .UNSPECIFIED.);
#486 = CARTESIAN_POINT('',(45.396912,12.131796275254,79.5528));
#487 = CARTESIAN_POINT('',(45.295428922616,11.714772722224,
    77.269430758858));
#488 = CARTESIAN_POINT('',(45.194525138469,11.282791711866,
    74.987671541187));
#489 = CARTESIAN_POINT('',(45.094202027556,10.833732381473,
    72.707582417843));
#490 = CARTESIAN_POINT('',(44.994468168292,10.365253143401,
    70.429384032063));
#491 = CARTESIAN_POINT('',(44.895344459174,9.873789294243,
    68.153588569171));
#492 = CARTESIAN_POINT('',(44.796861889102,9.354911957721,
    65.880953285117));
#493 = CARTESIAN_POINT('',(44.699065425949,8.802395207491,
    63.612583769942));
#494 = CARTESIAN_POINT('',(44.556105967485,7.919753884937,
    60.279685274607));
#495 = CARTESIAN_POINT('',(44.510356023094,7.625802480932,
    59.210486337641));
#496 = CARTESIAN_POINT('',(44.464789908171,7.320011651163,
    58.142983962396));
#497 = CARTESIAN_POINT('',(44.41941683953,7.000756165091,57.077406794417
    ));
#498 = CARTESIAN_POINT('',(44.374257904796,6.665627598426,
    56.014267049703));
#499 = CARTESIAN_POINT('',(44.329344233612,6.311645032635,
    54.954319889113));
#500 = CARTESIAN_POINT('',(44.284720958783,5.934643837241,
    53.898663203174));
#501 = CARTESIAN_POINT('',(44.218649797556,5.32477243291,52.331846583524
    ));
#502 = CARTESIAN_POINT('',(44.196930705806,5.115813563604,
    51.816180037182));
#503 = CARTESIAN_POINT('',(44.175314698683,4.898183252506,
    51.302347297609));
#504 = CARTESIAN_POINT('',(44.153812027231,4.670669588635,
    50.790598758452));
#505 = CARTESIAN_POINT('',(44.132446136347,4.431518327944,
    50.281501308737));
#506 = CARTESIAN_POINT('',(44.1112516649,4.178590031573,49.775892116147)
  );
#507 = CARTESIAN_POINT('',(44.090278731436,3.908926569741,
    49.274984169831));
#508 = CARTESIAN_POINT('',(44.059252979385,3.469856444224,
    48.533138567858));
#509 = CARTESIAN_POINT('',(44.048978072965,3.317620487161,
    48.287315965395));
#510 = CARTESIAN_POINT('',(44.038795854851,3.158939633773,48.04357068591
    ));
#511 = CARTESIAN_POINT('',(44.028718990214,2.992886019253,
    47.802209621215));
#512 = CARTESIAN_POINT('',(44.018774500576,2.818230296171,
    47.563884779384));
#513 = CARTESIAN_POINT('',(44.009002089909,2.633521025912,
    47.329554138765));
#514 = CARTESIAN_POINT('',(43.999458350476,2.436814119068,
    47.100584107448));
#515 = CARTESIAN_POINT('',(43.981387540558,2.020378769068,
    46.666818857558));
#516 = CARTESIAN_POINT('',(43.972985490724,1.805370867742,
    46.465033596681));
#517 = CARTESIAN_POINT('',(43.964886284584,1.571660408394,
    46.270430364963));
#518 = CARTESIAN_POINT('',(43.957185410007,1.313563612329,
    46.085309932877));
#519 = CARTESIAN_POINT('',(43.950355496767,1.026656849607,
    45.921040128071));
#520 = CARTESIAN_POINT('',(43.94494887471,0.710582680929,45.790951788194
    ));
#521 = CARTESIAN_POINT('',(43.942,0.363779037016,45.72));
#522 = CARTESIAN_POINT('',(43.942,-1.076268592963E-14,45.72));
#523 = PCURVE('',#180,#524);
#524 = DEFINITIONAL_REPRESENTATION('',(#525),#542);
#525 = B_SPLINE_CURVE_WITH_KNOTS('',8,(#526,#527,#528,#529,#530,#531,
    #532,#533,#534,#535,#536,#537,#538,#539,#540,#541),.UNSPECIFIED.,.F.
  ,.F.,(9,7,9),(0.938183987018,0.941938051527,1.),.UNSPECIFIED.);
#526 = CARTESIAN_POINT('',(3.096199526107,135.89));
#527 = CARTESIAN_POINT('',(3.096448914171,135.87606589097));
#528 = CARTESIAN_POINT('',(3.09669938511,135.86215826245));
#529 = CARTESIAN_POINT('',(3.096950953984,135.84827760388));
#530 = CARTESIAN_POINT('',(3.097203636289,135.83442441705));
#531 = CARTESIAN_POINT('',(3.097457447972,135.82059921652));
#532 = CARTESIAN_POINT('',(3.097712405455,135.80680253003));
#533 = CARTESIAN_POINT('',(3.097968525658,135.79303489904));
#534 = CARTESIAN_POINT('',(3.102205342182,135.56681885755));
#535 = CARTESIAN_POINT('',(3.106399033661,135.36503359668));
#536 = CARTESIAN_POINT('',(3.110956748875,135.17043036496));
#537 = CARTESIAN_POINT('',(3.115989175216,134.98530993287));
#538 = CARTESIAN_POINT('',(3.121582421543,134.82104012807));
#539 = CARTESIAN_POINT('',(3.127743300014,134.69095178819));
#540 = CARTESIAN_POINT('',(3.13450254996,134.62));
#541 = CARTESIAN_POINT('',(3.14159265359,134.62));
#542 = ( GEOMETRIC_REPRESENTATION_CONTEXT(2) 
PARAMETRIC_REPRESENTATION_CONTEXT() REPRESENTATION_CONTEXT('2D SPACE',''
  ) );
#543 = PCURVE('',#465,#544);
#544 = DEFINITIONAL_REPRESENTATION('',(#545),#562);
#545 = B_SPLINE_CURVE_WITH_KNOTS('',8,(#546,#547,#548,#549,#550,#551,
    #552,#553,#554,#555,#556,#557,#558,#559,#560,#561),.UNSPECIFIED.,.F.
  ,.F.,(9,7,9),(0.938183987018,0.941938051527,1.),.UNSPECIFIED.);
#546 = CARTESIAN_POINT('',(5.287120886484E-02,57.912));
#547 = CARTESIAN_POINT('',(5.258217317163E-02,57.898065890976));
#548 = CARTESIAN_POINT('',(5.229185550207E-02,57.884158262452));
#549 = CARTESIAN_POINT('',(5.200023818469E-02,57.870277603884));
#550 = CARTESIAN_POINT('',(5.170730304147E-02,57.856424417059));
#551 = CARTESIAN_POINT('',(5.141303136439E-02,57.842599216523));
#552 = CARTESIAN_POINT('',(5.111740389062E-02,57.828802530034));
#553 = CARTESIAN_POINT('',(5.082040077655E-02,57.815034899045));
#554 = CARTESIAN_POINT('',(4.590683331936E-02,57.588818857558));
#555 = CARTESIAN_POINT('',(4.103671470485E-02,57.387033596681));
#556 = CARTESIAN_POINT('',(3.57374385335E-02,57.192430364963));
#557 = CARTESIAN_POINT('',(2.987899455856E-02,57.007309932878));
#558 = CARTESIAN_POINT('',(2.33599192535E-02,56.843040128071));
#559 = CARTESIAN_POINT('',(1.61709293663E-02,56.712951788194));
#560 = CARTESIAN_POINT('',(8.278618110593E-03,56.642));
#561 = CARTESIAN_POINT('',(0.,56.642));
#562 = ( GEOMETRIC_REPRESENTATION_CONTEXT(2) 
PARAMETRIC_REPRESENTATION_CONTEXT() REPRESENTATION_CONTEXT('2D SPACE',''
  ) );
#563 = ADVANCED_FACE('',(#564),#237,.T.);
#564 = FACE_BOUND('',#565,.T.);
#565 = EDGE_LOOP('',(#566,#567,#568,#569));
#566 = ORIENTED_EDGE('',*,*,#361,.F.);
#567 = ORIENTED_EDGE('',*,*,#221,.T.);
#568 = ORIENTED_EDGE('',*,*,#386,.F.);
#569 = ORIENTED_EDGE('',*,*,#570,.F.);
#570 = EDGE_CURVE('',#362,#387,#571,.T.);
#571 = SURFACE_CURVE('',#572,(#577,#584),.PCURVE_S1.);
#572 = CIRCLE('',#573,44.056414414414);
#573 = AXIS2_PLACEMENT_3D('',#574,#575,#576);
#574 = CARTESIAN_POINT('',(0.,0.,46.99));
#575 = DIRECTION('',(0.,0.,1.));
#576 = DIRECTION('',(1.,0.,-0.));
#577 = PCURVE('',#237,#578);
#578 = DEFINITIONAL_REPRESENTATION('',(#579),#583);
#579 = CIRCLE('',#580,44.056414414414);
#580 = AXIS2_PLACEMENT_2D('',#581,#582);
#581 = CARTESIAN_POINT('',(127.,127.));
#582 = DIRECTION('',(1.,0.));
#583 = ( GEOMETRIC_REPRESENTATION_CONTEXT(2) 
PARAMETRIC_REPRESENTATION_CONTEXT() REPRESENTATION_CONTEXT('2D SPACE',''
  ) );
#584 = PCURVE('',#465,#585);
#585 = DEFINITIONAL_REPRESENTATION('',(#586),#589);
#586 = B_SPLINE_CURVE_WITH_KNOTS('',1,(#587,#588),.UNSPECIFIED.,.F.,.F.,
  (2,2),(5.287120884885E-02,6.230314101054),.PIECEWISE_BEZIER_KNOTS.);
#587 = CARTESIAN_POINT('',(5.287120884885E-02,57.912));
#588 = CARTESIAN_POINT('',(6.230314101054,57.912));
#589 = ( GEOMETRIC_REPRESENTATION_CONTEXT(2) 
PARAMETRIC_REPRESENTATION_CONTEXT() REPRESENTATION_CONTEXT('2D SPACE',''
  ) );
#590 = ADVANCED_FACE('',(#591,#649),#81,.T.);
#591 = FACE_BOUND('',#592,.T.);
#592 = EDGE_LOOP('',(#593,#623));
#593 = ORIENTED_EDGE('',*,*,#594,.F.);
#594 = EDGE_CURVE('',#595,#597,#599,.T.);
#595 = VERTEX_POINT('',#596);
#596 = CARTESIAN_POINT('',(45.396912,12.131796275254,5.8928));
#597 = VERTEX_POINT('',#598);
#598 = CARTESIAN_POINT('',(45.396912,-12.13179627525,5.8928));
#599 = SURFACE_CURVE('',#600,(#605,#612),.PCURVE_S1.);
#600 = CIRCLE('',#601,51.308);
#601 = AXIS2_PLACEMENT_3D('',#602,#603,#604);
#602 = CARTESIAN_POINT('',(95.25,0.,5.8928));
#603 = DIRECTION('',(0.,0.,1.));
#604 = DIRECTION('',(1.,0.,-0.));
#605 = PCURVE('',#81,#606);
#606 = DEFINITIONAL_REPRESENTATION('',(#607),#611);
#607 = CIRCLE('',#608,51.308);
#608 = AXIS2_PLACEMENT_2D('',#609,#610);
#609 = CARTESIAN_POINT('',(95.25,0.));
#610 = DIRECTION('',(1.,0.));
#611 = ( GEOMETRIC_REPRESENTATION_CONTEXT(2) 
PARAMETRIC_REPRESENTATION_CONTEXT() REPRESENTATION_CONTEXT('2D SPACE',''
  ) );
#612 = PCURVE('',#613,#618);
#613 = CYLINDRICAL_SURFACE('',#614,51.308);
#614 = AXIS2_PLACEMENT_3D('',#615,#616,#617);
#615 = CARTESIAN_POINT('',(95.25,0.,-88.9));
#616 = DIRECTION('',(0.,0.,1.));
#617 = DIRECTION('',(1.,0.,-0.));
#618 = DEFINITIONAL_REPRESENTATION('',(#619),#622);
#619 = B_SPLINE_CURVE_WITH_KNOTS('',1,(#620,#621),.UNSPECIFIED.,.F.,.F.,
  (2,2),(2.902881644509,3.38030366267),.PIECEWISE_BEZIER_KNOTS.);
#620 = CARTESIAN_POINT('',(2.902881644509,94.7928));
#621 = CARTESIAN_POINT('',(3.38030366267,94.7928));
#622 = ( GEOMETRIC_REPRESENTATION_CONTEXT(2) 
PARAMETRIC_REPRESENTATION_CONTEXT() REPRESENTATION_CONTEXT('2D SPACE',''
  ) );
#623 = ORIENTED_EDGE('',*,*,#624,.T.);
#624 = EDGE_CURVE('',#595,#597,#625,.T.);
#625 = SURFACE_CURVE('',#626,(#631,#638),.PCURVE_S1.);
#626 = CIRCLE('',#627,46.99);
#627 = AXIS2_PLACEMENT_3D('',#628,#629,#630);
#628 = CARTESIAN_POINT('',(0.,0.,5.8928));
#629 = DIRECTION('',(0.,0.,1.));
#630 = DIRECTION('',(1.,0.,-0.));
#631 = PCURVE('',#81,#632);
#632 = DEFINITIONAL_REPRESENTATION('',(#633),#637);
#633 = CIRCLE('',#634,46.99);
#634 = AXIS2_PLACEMENT_2D('',#635,#636);
#635 = CARTESIAN_POINT('',(0.,0.));
#636 = DIRECTION('',(1.,0.));
#637 = ( GEOMETRIC_REPRESENTATION_CONTEXT(2) 
PARAMETRIC_REPRESENTATION_CONTEXT() REPRESENTATION_CONTEXT('2D SPACE',''
  ) );
#638 = PCURVE('',#639,#644);
#639 = CYLINDRICAL_SURFACE('',#640,46.99);
#640 = AXIS2_PLACEMENT_3D('',#641,#642,#643);
#641 = CARTESIAN_POINT('',(0.,0.,3.3528));
#642 = DIRECTION('',(0.,0.,1.));
#643 = DIRECTION('',(1.,0.,-0.));
#644 = DEFINITIONAL_REPRESENTATION('',(#645),#648);
#645 = B_SPLINE_CURVE_WITH_KNOTS('',1,(#646,#647),.UNSPECIFIED.,.F.,.F.,
  (2,2),(0.261136053575,6.022049253604),.PIECEWISE_BEZIER_KNOTS.);
#646 = CARTESIAN_POINT('',(0.261136053575,2.54));
#647 = CARTESIAN_POINT('',(6.022049253604,2.54));
#648 = ( GEOMETRIC_REPRESENTATION_CONTEXT(2) 
PARAMETRIC_REPRESENTATION_CONTEXT() REPRESENTATION_CONTEXT('2D SPACE',''
  ) );
#649 = FACE_BOUND('',#650,.T.);
#650 = EDGE_LOOP('',(#651));
#651 = ORIENTED_EDGE('',*,*,#67,.F.);
#652 = ADVANCED_FACE('',(#653),#465,.F.);
#653 = FACE_BOUND('',#654,.F.);
#654 = EDGE_LOOP('',(#655,#656,#657,#678,#704,#705));
#655 = ORIENTED_EDGE('',*,*,#570,.F.);
#656 = ORIENTED_EDGE('',*,*,#483,.T.);
#657 = ORIENTED_EDGE('',*,*,#658,.F.);
#658 = EDGE_CURVE('',#659,#410,#661,.T.);
#659 = VERTEX_POINT('',#660);
#660 = CARTESIAN_POINT('',(38.862,-9.518444781693E-15,-10.668));
#661 = SEAM_CURVE('',#662,(#666,#672),.PCURVE_S1.);
#662 = LINE('',#663,#664);
#663 = CARTESIAN_POINT('',(38.839117117117,-9.512840091837E-15,-10.922)
  );
#664 = VECTOR('',#665,1.);
#665 = DIRECTION('',(8.972670489621E-02,-2.197670438984E-17,
    0.995966424348));
#666 = PCURVE('',#465,#667);
#667 = DEFINITIONAL_REPRESENTATION('',(#668),#671);
#668 = B_SPLINE_CURVE_WITH_KNOTS('',1,(#669,#670),.UNSPECIFIED.,.F.,.F.,
  (2,2),(0.255028677464,56.87139507447),.PIECEWISE_BEZIER_KNOTS.);
#669 = CARTESIAN_POINT('',(6.28318530718,0.254));
#670 = CARTESIAN_POINT('',(6.28318530718,56.642));
#671 = ( GEOMETRIC_REPRESENTATION_CONTEXT(2) 
PARAMETRIC_REPRESENTATION_CONTEXT() REPRESENTATION_CONTEXT('2D SPACE',''
  ) );
#672 = PCURVE('',#465,#673);
#673 = DEFINITIONAL_REPRESENTATION('',(#674),#677);
#674 = B_SPLINE_CURVE_WITH_KNOTS('',1,(#675,#676),.UNSPECIFIED.,.F.,.F.,
  (2,2),(0.255028677464,56.87139507447),.PIECEWISE_BEZIER_KNOTS.);
#675 = CARTESIAN_POINT('',(0.,0.254));
#676 = CARTESIAN_POINT('',(0.,56.642));
#677 = ( GEOMETRIC_REPRESENTATION_CONTEXT(2) 
PARAMETRIC_REPRESENTATION_CONTEXT() REPRESENTATION_CONTEXT('2D SPACE',''
  ) );
#678 = ORIENTED_EDGE('',*,*,#679,.T.);
#679 = EDGE_CURVE('',#659,#659,#680,.T.);
#680 = SURFACE_CURVE('',#681,(#686,#692),.PCURVE_S1.);
#681 = CIRCLE('',#682,38.862);
#682 = AXIS2_PLACEMENT_3D('',#683,#684,#685);
#683 = CARTESIAN_POINT('',(0.,0.,-10.668));
#684 = DIRECTION('',(0.,0.,1.));
#685 = DIRECTION('',(1.,0.,-0.));
#686 = PCURVE('',#465,#687);
#687 = DEFINITIONAL_REPRESENTATION('',(#688),#691);
#688 = B_SPLINE_CURVE_WITH_KNOTS('',1,(#689,#690),.UNSPECIFIED.,.F.,.F.,
  (2,2),(0.,6.28318530718),.PIECEWISE_BEZIER_KNOTS.);
#689 = CARTESIAN_POINT('',(0.,0.254));
#690 = CARTESIAN_POINT('',(6.28318530718,0.254));
#691 = ( GEOMETRIC_REPRESENTATION_CONTEXT(2) 
PARAMETRIC_REPRESENTATION_CONTEXT() REPRESENTATION_CONTEXT('2D SPACE',''
  ) );
#692 = PCURVE('',#693,#698);
#693 = PLANE('',#694);
#694 = AXIS2_PLACEMENT_3D('',#695,#696,#697);
#695 = CARTESIAN_POINT('',(0.,0.,-10.668));
#696 = DIRECTION('',(0.,0.,1.));
#697 = DIRECTION('',(1.,0.,-0.));
#698 = DEFINITIONAL_REPRESENTATION('',(#699),#703);
#699 = CIRCLE('',#700,38.862);
#700 = AXIS2_PLACEMENT_2D('',#701,#702);
#701 = CARTESIAN_POINT('',(0.,0.));
#702 = DIRECTION('',(1.,0.));
#703 = ( GEOMETRIC_REPRESENTATION_CONTEXT(2) 
PARAMETRIC_REPRESENTATION_CONTEXT() REPRESENTATION_CONTEXT('2D SPACE',''
  ) );
#704 = ORIENTED_EDGE('',*,*,#658,.T.);
#705 = ORIENTED_EDGE('',*,*,#409,.T.);
#706 = ADVANCED_FACE('',(#707),#613,.F.);
#707 = FACE_BOUND('',#708,.F.);
#708 = EDGE_LOOP('',(#709,#710,#731,#759));
#709 = ORIENTED_EDGE('',*,*,#594,.F.);
#710 = ORIENTED_EDGE('',*,*,#711,.F.);
#711 = EDGE_CURVE('',#712,#595,#714,.T.);
#712 = VERTEX_POINT('',#713);
#713 = CARTESIAN_POINT('',(45.396912,12.131796275254,3.3528));
#714 = SURFACE_CURVE('',#715,(#719,#725),.PCURVE_S1.);
#715 = LINE('',#716,#717);
#716 = CARTESIAN_POINT('',(45.396912,12.131796275254,3.3528));
#717 = VECTOR('',#718,1.);
#718 = DIRECTION('',(0.,0.,1.));
#719 = PCURVE('',#613,#720);
#720 = DEFINITIONAL_REPRESENTATION('',(#721),#724);
#721 = B_SPLINE_CURVE_WITH_KNOTS('',1,(#722,#723),.UNSPECIFIED.,.F.,.F.,
  (2,2),(0.,2.54),.PIECEWISE_BEZIER_KNOTS.);
#722 = CARTESIAN_POINT('',(2.902881644509,92.2528));
#723 = CARTESIAN_POINT('',(2.902881644509,94.7928));
#724 = ( GEOMETRIC_REPRESENTATION_CONTEXT(2) 
PARAMETRIC_REPRESENTATION_CONTEXT() REPRESENTATION_CONTEXT('2D SPACE',''
  ) );
#725 = PCURVE('',#639,#726);
#726 = DEFINITIONAL_REPRESENTATION('',(#727),#730);
#727 = B_SPLINE_CURVE_WITH_KNOTS('',1,(#728,#729),.UNSPECIFIED.,.F.,.F.,
  (2,2),(0.,2.54),.PIECEWISE_BEZIER_KNOTS.);
#728 = CARTESIAN_POINT('',(0.261136053575,0.));
#729 = CARTESIAN_POINT('',(0.261136053575,2.54));
#730 = ( GEOMETRIC_REPRESENTATION_CONTEXT(2) 
PARAMETRIC_REPRESENTATION_CONTEXT() REPRESENTATION_CONTEXT('2D SPACE',''
  ) );
#731 = ORIENTED_EDGE('',*,*,#732,.T.);
#732 = EDGE_CURVE('',#712,#733,#735,.T.);
#733 = VERTEX_POINT('',#734);
#734 = CARTESIAN_POINT('',(45.396912,-12.13179627525,3.3528));
#735 = SURFACE_CURVE('',#736,(#741,#747),.PCURVE_S1.);
#736 = CIRCLE('',#737,51.308);
#737 = AXIS2_PLACEMENT_3D('',#738,#739,#740);
#738 = CARTESIAN_POINT('',(95.25,0.,3.3528));
#739 = DIRECTION('',(0.,0.,1.));
#740 = DIRECTION('',(1.,0.,-0.));
#741 = PCURVE('',#613,#742);
#742 = DEFINITIONAL_REPRESENTATION('',(#743),#746);
#743 = B_SPLINE_CURVE_WITH_KNOTS('',1,(#744,#745),.UNSPECIFIED.,.F.,.F.,
  (2,2),(2.902881644509,3.38030366267),.PIECEWISE_BEZIER_KNOTS.);
#744 = CARTESIAN_POINT('',(2.902881644509,92.2528));
#745 = CARTESIAN_POINT('',(3.38030366267,92.2528));
#746 = ( GEOMETRIC_REPRESENTATION_CONTEXT(2) 
PARAMETRIC_REPRESENTATION_CONTEXT() REPRESENTATION_CONTEXT('2D SPACE',''
  ) );
#747 = PCURVE('',#748,#753);
#748 = PLANE('',#749);
#749 = AXIS2_PLACEMENT_3D('',#750,#751,#752);
#750 = CARTESIAN_POINT('',(0.,0.,3.3528));
#751 = DIRECTION('',(0.,0.,1.));
#752 = DIRECTION('',(1.,0.,-0.));
#753 = DEFINITIONAL_REPRESENTATION('',(#754),#758);
#754 = CIRCLE('',#755,51.308);
#755 = AXIS2_PLACEMENT_2D('',#756,#757);
#756 = CARTESIAN_POINT('',(95.25,0.));
#757 = DIRECTION('',(1.,0.));
#758 = ( GEOMETRIC_REPRESENTATION_CONTEXT(2) 
PARAMETRIC_REPRESENTATION_CONTEXT() REPRESENTATION_CONTEXT('2D SPACE',''
  ) );
#759 = ORIENTED_EDGE('',*,*,#760,.T.);
#760 = EDGE_CURVE('',#733,#597,#761,.T.);
#761 = SURFACE_CURVE('',#762,(#766,#772),.PCURVE_S1.);
#762 = LINE('',#763,#764);
#763 = CARTESIAN_POINT('',(45.396912,-12.13179627525,3.3528));
#764 = VECTOR('',#765,1.);
#765 = DIRECTION('',(0.,0.,1.));
#766 = PCURVE('',#613,#767);
#767 = DEFINITIONAL_REPRESENTATION('',(#768),#771);
#768 = B_SPLINE_CURVE_WITH_KNOTS('',1,(#769,#770),.UNSPECIFIED.,.F.,.F.,
  (2,2),(0.,2.54),.PIECEWISE_BEZIER_KNOTS.);
#769 = CARTESIAN_POINT('',(3.38030366267,92.2528));
#770 = CARTESIAN_POINT('',(3.38030366267,94.7928));
#771 = ( GEOMETRIC_REPRESENTATION_CONTEXT(2) 
PARAMETRIC_REPRESENTATION_CONTEXT() REPRESENTATION_CONTEXT('2D SPACE',''
  ) );
#772 = PCURVE('',#639,#773);
#773 = DEFINITIONAL_REPRESENTATION('',(#774),#777);
#774 = B_SPLINE_CURVE_WITH_KNOTS('',1,(#775,#776),.UNSPECIFIED.,.F.,.F.,
  (2,2),(0.,2.54),.PIECEWISE_BEZIER_KNOTS.);
#775 = CARTESIAN_POINT('',(6.022049253604,0.));
#776 = CARTESIAN_POINT('',(6.022049253604,2.54));
#777 = ( GEOMETRIC_REPRESENTATION_CONTEXT(2) 
PARAMETRIC_REPRESENTATION_CONTEXT() REPRESENTATION_CONTEXT('2D SPACE',''
  ) );
#778 = ADVANCED_FACE('',(#779),#639,.T.);
#779 = FACE_BOUND('',#780,.T.);
#780 = EDGE_LOOP('',(#781,#782,#783,#804));
#781 = ORIENTED_EDGE('',*,*,#624,.F.);
#782 = ORIENTED_EDGE('',*,*,#711,.F.);
#783 = ORIENTED_EDGE('',*,*,#784,.T.);
#784 = EDGE_CURVE('',#712,#733,#785,.T.);
#785 = SURFACE_CURVE('',#786,(#791,#797),.PCURVE_S1.);
#786 = CIRCLE('',#787,46.99);
#787 = AXIS2_PLACEMENT_3D('',#788,#789,#790);
#788 = CARTESIAN_POINT('',(0.,0.,3.3528));
#789 = DIRECTION('',(0.,0.,1.));
#790 = DIRECTION('',(1.,0.,-0.));
#791 = PCURVE('',#639,#792);
#792 = DEFINITIONAL_REPRESENTATION('',(#793),#796);
#793 = B_SPLINE_CURVE_WITH_KNOTS('',1,(#794,#795),.UNSPECIFIED.,.F.,.F.,
  (2,2),(0.261136053575,6.022049253604),.PIECEWISE_BEZIER_KNOTS.);
#794 = CARTESIAN_POINT('',(0.261136053575,0.));
#795 = CARTESIAN_POINT('',(6.022049253604,0.));
#796 = ( GEOMETRIC_REPRESENTATION_CONTEXT(2) 
PARAMETRIC_REPRESENTATION_CONTEXT() REPRESENTATION_CONTEXT('2D SPACE',''
  ) );
#797 = PCURVE('',#748,#798);
#798 = DEFINITIONAL_REPRESENTATION('',(#799),#803);
#799 = CIRCLE('',#800,46.99);
#800 = AXIS2_PLACEMENT_2D('',#801,#802);
#801 = CARTESIAN_POINT('',(0.,0.));
#802 = DIRECTION('',(1.,0.));
#803 = ( GEOMETRIC_REPRESENTATION_CONTEXT(2) 
PARAMETRIC_REPRESENTATION_CONTEXT() REPRESENTATION_CONTEXT('2D SPACE',''
  ) );
#804 = ORIENTED_EDGE('',*,*,#760,.T.);
#805 = ADVANCED_FACE('',(#806,#1050),#693,.F.);
#806 = FACE_BOUND('',#807,.F.);
#807 = EDGE_LOOP('',(#808,#838,#866,#894,#922,#950,#973,#996,#1024));
#808 = ORIENTED_EDGE('',*,*,#809,.T.);
#809 = EDGE_CURVE('',#810,#812,#814,.T.);
#810 = VERTEX_POINT('',#811);
#811 = CARTESIAN_POINT('',(-37.45163146489,26.223914669969,-10.668));
#812 = VERTEX_POINT('',#813);
#813 = CARTESIAN_POINT('',(-34.33066217615,24.038588447472,-10.668));
#814 = SURFACE_CURVE('',#815,(#819,#826),.PCURVE_S1.);
#815 = LINE('',#816,#817);
#816 = CARTESIAN_POINT('',(-208.0646192494,145.68841483316,-10.668));
#817 = VECTOR('',#818,1.);
#818 = DIRECTION('',(0.819152044289,-0.573576436351,0.));
#819 = PCURVE('',#693,#820);
#820 = DEFINITIONAL_REPRESENTATION('',(#821),#825);
#821 = LINE('',#822,#823);
#822 = CARTESIAN_POINT('',(-208.0646192494,145.68841483316));
#823 = VECTOR('',#824,1.);
#824 = DIRECTION('',(0.819152044289,-0.573576436351));
#825 = ( GEOMETRIC_REPRESENTATION_CONTEXT(2) 
PARAMETRIC_REPRESENTATION_CONTEXT() REPRESENTATION_CONTEXT('2D SPACE',''
  ) );
#826 = PCURVE('',#827,#832);
#827 = PLANE('',#828);
#828 = AXIS2_PLACEMENT_3D('',#829,#830,#831);
#829 = CARTESIAN_POINT('',(-37.45163146489,26.22391466997,-10.668));
#830 = DIRECTION('',(0.573576436351,0.819152044289,-0.));
#831 = DIRECTION('',(0.819152044289,-0.573576436351,0.));
#832 = DEFINITIONAL_REPRESENTATION('',(#833),#837);
#833 = LINE('',#834,#835);
#834 = CARTESIAN_POINT('',(-208.28,-0.));
#835 = VECTOR('',#836,1.);
#836 = DIRECTION('',(1.,0.));
#837 = ( GEOMETRIC_REPRESENTATION_CONTEXT(2) 
PARAMETRIC_REPRESENTATION_CONTEXT() REPRESENTATION_CONTEXT('2D SPACE',''
  ) );
#838 = ORIENTED_EDGE('',*,*,#839,.T.);
#839 = EDGE_CURVE('',#812,#840,#842,.T.);
#840 = VERTEX_POINT('',#841);
#841 = CARTESIAN_POINT('',(24.038588447472,-34.33066217615,-10.668));
#842 = SURFACE_CURVE('',#843,(#848,#855),.PCURVE_S1.);
#843 = CIRCLE('',#844,41.91);
#844 = AXIS2_PLACEMENT_3D('',#845,#846,#847);
#845 = CARTESIAN_POINT('',(0.,0.,-10.668));
#846 = DIRECTION('',(0.,0.,1.));
#847 = DIRECTION('',(1.,0.,-0.));
#848 = PCURVE('',#693,#849);
#849 = DEFINITIONAL_REPRESENTATION('',(#850),#854);
#850 = CIRCLE('',#851,41.91);
#851 = AXIS2_PLACEMENT_2D('',#852,#853);
#852 = CARTESIAN_POINT('',(0.,0.));
#853 = DIRECTION('',(1.,0.));
#854 = ( GEOMETRIC_REPRESENTATION_CONTEXT(2) 
PARAMETRIC_REPRESENTATION_CONTEXT() REPRESENTATION_CONTEXT('2D SPACE',''
  ) );
#855 = PCURVE('',#856,#861);
#856 = CYLINDRICAL_SURFACE('',#857,41.91);
#857 = AXIS2_PLACEMENT_3D('',#858,#859,#860);
#858 = CARTESIAN_POINT('',(0.,0.,-10.668));
#859 = DIRECTION('',(0.,0.,1.));
#860 = DIRECTION('',(1.,0.,-0.));
#861 = DEFINITIONAL_REPRESENTATION('',(#862),#865);
#862 = B_SPLINE_CURVE_WITH_KNOTS('',1,(#863,#864),.UNSPECIFIED.,.F.,.F.,
  (2,2),(2.530727415392,5.323254218583),.PIECEWISE_BEZIER_KNOTS.);
#863 = CARTESIAN_POINT('',(2.530727415392,0.));
#864 = CARTESIAN_POINT('',(5.323254218583,0.));
#865 = ( GEOMETRIC_REPRESENTATION_CONTEXT(2) 
PARAMETRIC_REPRESENTATION_CONTEXT() REPRESENTATION_CONTEXT('2D SPACE',''
  ) );
#866 = ORIENTED_EDGE('',*,*,#867,.T.);
#867 = EDGE_CURVE('',#840,#868,#870,.T.);
#868 = VERTEX_POINT('',#869);
#869 = CARTESIAN_POINT('',(26.223914669969,-37.45163146489,-10.668));
#870 = SURFACE_CURVE('',#871,(#875,#882),.PCURVE_S1.);
#871 = LINE('',#872,#873);
#872 = CARTESIAN_POINT('',(0.,0.,-10.668));
#873 = VECTOR('',#874,1.);
#874 = DIRECTION('',(0.573576436351,-0.819152044289,0.));
#875 = PCURVE('',#693,#876);
#876 = DEFINITIONAL_REPRESENTATION('',(#877),#881);
#877 = LINE('',#878,#879);
#878 = CARTESIAN_POINT('',(0.,0.));
#879 = VECTOR('',#880,1.);
#880 = DIRECTION('',(0.573576436351,-0.819152044289));
#881 = ( GEOMETRIC_REPRESENTATION_CONTEXT(2) 
PARAMETRIC_REPRESENTATION_CONTEXT() REPRESENTATION_CONTEXT('2D SPACE',''
  ) );
#882 = PCURVE('',#883,#888);
#883 = PLANE('',#884);
#884 = AXIS2_PLACEMENT_3D('',#885,#886,#887);
#885 = CARTESIAN_POINT('',(23.601523202973,-33.7064683184,-10.668));
#886 = DIRECTION('',(0.819152044289,0.573576436351,-0.));
#887 = DIRECTION('',(0.573576436351,-0.819152044289,0.));
#888 = DEFINITIONAL_REPRESENTATION('',(#889),#893);
#889 = LINE('',#890,#891);
#890 = CARTESIAN_POINT('',(-41.148,-0.));
#891 = VECTOR('',#892,1.);
#892 = DIRECTION('',(1.,0.));
#893 = ( GEOMETRIC_REPRESENTATION_CONTEXT(2) 
PARAMETRIC_REPRESENTATION_CONTEXT() REPRESENTATION_CONTEXT('2D SPACE',''
  ) );
#894 = ORIENTED_EDGE('',*,*,#895,.T.);
#895 = EDGE_CURVE('',#868,#896,#898,.T.);
#896 = VERTEX_POINT('',#897);
#897 = CARTESIAN_POINT('',(37.451631464893,-26.22391466996,-10.668));
#898 = SURFACE_CURVE('',#899,(#904,#911),.PCURVE_S1.);
#899 = CIRCLE('',#900,45.72);
#900 = AXIS2_PLACEMENT_3D('',#901,#902,#903);
#901 = CARTESIAN_POINT('',(0.,0.,-10.668));
#902 = DIRECTION('',(0.,0.,1.));
#903 = DIRECTION('',(1.,0.,-0.));
#904 = PCURVE('',#693,#905);
#905 = DEFINITIONAL_REPRESENTATION('',(#906),#910);
#906 = CIRCLE('',#907,45.72);
#907 = AXIS2_PLACEMENT_2D('',#908,#909);
#908 = CARTESIAN_POINT('',(0.,0.));
#909 = DIRECTION('',(1.,0.));
#910 = ( GEOMETRIC_REPRESENTATION_CONTEXT(2) 
PARAMETRIC_REPRESENTATION_CONTEXT() REPRESENTATION_CONTEXT('2D SPACE',''
  ) );
#911 = PCURVE('',#912,#917);
#912 = CYLINDRICAL_SURFACE('',#913,45.72);
#913 = AXIS2_PLACEMENT_3D('',#914,#915,#916);
#914 = CARTESIAN_POINT('',(0.,0.,-10.668));
#915 = DIRECTION('',(-0.,-0.,-1.));
#916 = DIRECTION('',(1.,0.,-0.));
#917 = DEFINITIONAL_REPRESENTATION('',(#918),#921);
#918 = B_SPLINE_CURVE_WITH_KNOTS('',1,(#919,#920),.UNSPECIFIED.,.F.,.F.,
  (2,2),(5.323254218583,5.672320068982),.PIECEWISE_BEZIER_KNOTS.);
#919 = CARTESIAN_POINT('',(-5.323254218583,0.));
#920 = CARTESIAN_POINT('',(-5.672320068982,0.));
#921 = ( GEOMETRIC_REPRESENTATION_CONTEXT(2) 
PARAMETRIC_REPRESENTATION_CONTEXT() REPRESENTATION_CONTEXT('2D SPACE',''
  ) );
#922 = ORIENTED_EDGE('',*,*,#923,.T.);
#923 = EDGE_CURVE('',#896,#924,#926,.T.);
#924 = VERTEX_POINT('',#925);
#925 = CARTESIAN_POINT('',(34.330662176152,-24.03858844747,-10.668));
#926 = SURFACE_CURVE('',#927,(#931,#938),.PCURVE_S1.);
#927 = LINE('',#928,#929);
#928 = CARTESIAN_POINT('',(208.0646192494,-145.6884148331,-10.668));
#929 = VECTOR('',#930,1.);
#930 = DIRECTION('',(-0.819152044289,0.573576436351,0.));
#931 = PCURVE('',#693,#932);
#932 = DEFINITIONAL_REPRESENTATION('',(#933),#937);
#933 = LINE('',#934,#935);
#934 = CARTESIAN_POINT('',(208.0646192494,-145.6884148331));
#935 = VECTOR('',#936,1.);
#936 = DIRECTION('',(-0.819152044289,0.573576436351));
#937 = ( GEOMETRIC_REPRESENTATION_CONTEXT(2) 
PARAMETRIC_REPRESENTATION_CONTEXT() REPRESENTATION_CONTEXT('2D SPACE',''
  ) );
#938 = PCURVE('',#939,#944);
#939 = PLANE('',#940);
#940 = AXIS2_PLACEMENT_3D('',#941,#942,#943);
#941 = CARTESIAN_POINT('',(37.451631464893,-26.22391466997,-10.668));
#942 = DIRECTION('',(-0.573576436351,-0.819152044289,0.));
#943 = DIRECTION('',(-0.819152044289,0.573576436351,0.));
#944 = DEFINITIONAL_REPRESENTATION('',(#945),#949);
#945 = LINE('',#946,#947);
#946 = CARTESIAN_POINT('',(-208.28,-0.));
#947 = VECTOR('',#948,1.);
#948 = DIRECTION('',(1.,0.));
#949 = ( GEOMETRIC_REPRESENTATION_CONTEXT(2) 
PARAMETRIC_REPRESENTATION_CONTEXT() REPRESENTATION_CONTEXT('2D SPACE',''
  ) );
#950 = ORIENTED_EDGE('',*,*,#951,.T.);
#951 = EDGE_CURVE('',#924,#952,#954,.T.);
#952 = VERTEX_POINT('',#953);
#953 = CARTESIAN_POINT('',(41.91,-1.026498947045E-14,-10.668));
#954 = SURFACE_CURVE('',#955,(#960,#967),.PCURVE_S1.);
#955 = CIRCLE('',#956,41.91);
#956 = AXIS2_PLACEMENT_3D('',#957,#958,#959);
#957 = CARTESIAN_POINT('',(0.,0.,-10.668));
#958 = DIRECTION('',(0.,0.,1.));
#959 = DIRECTION('',(1.,0.,-0.));
#960 = PCURVE('',#693,#961);
#961 = DEFINITIONAL_REPRESENTATION('',(#962),#966);
#962 = CIRCLE('',#963,41.91);
#963 = AXIS2_PLACEMENT_2D('',#964,#965);
#964 = CARTESIAN_POINT('',(0.,0.));
#965 = DIRECTION('',(1.,0.));
#966 = ( GEOMETRIC_REPRESENTATION_CONTEXT(2) 
PARAMETRIC_REPRESENTATION_CONTEXT() REPRESENTATION_CONTEXT('2D SPACE',''
  ) );
#967 = PCURVE('',#856,#968);
#968 = DEFINITIONAL_REPRESENTATION('',(#969),#972);
#969 = B_SPLINE_CURVE_WITH_KNOTS('',1,(#970,#971),.UNSPECIFIED.,.F.,.F.,
  (2,2),(5.672320068982,6.28318530718),.PIECEWISE_BEZIER_KNOTS.);
#970 = CARTESIAN_POINT('',(5.672320068982,0.));
#971 = CARTESIAN_POINT('',(6.28318530718,0.));
#972 = ( GEOMETRIC_REPRESENTATION_CONTEXT(2) 
PARAMETRIC_REPRESENTATION_CONTEXT() REPRESENTATION_CONTEXT('2D SPACE',''
  ) );
#973 = ORIENTED_EDGE('',*,*,#974,.T.);
#974 = EDGE_CURVE('',#952,#975,#977,.T.);
#975 = VERTEX_POINT('',#976);
#976 = CARTESIAN_POINT('',(-24.03858844747,34.330662176152,-10.668));
#977 = SURFACE_CURVE('',#978,(#983,#990),.PCURVE_S1.);
#978 = CIRCLE('',#979,41.91);
#979 = AXIS2_PLACEMENT_3D('',#980,#981,#982);
#980 = CARTESIAN_POINT('',(0.,0.,-10.668));
#981 = DIRECTION('',(0.,0.,1.));
#982 = DIRECTION('',(1.,0.,-0.));
#983 = PCURVE('',#693,#984);
#984 = DEFINITIONAL_REPRESENTATION('',(#985),#989);
#985 = CIRCLE('',#986,41.91);
#986 = AXIS2_PLACEMENT_2D('',#987,#988);
#987 = CARTESIAN_POINT('',(0.,0.));
#988 = DIRECTION('',(1.,0.));
#989 = ( GEOMETRIC_REPRESENTATION_CONTEXT(2) 
PARAMETRIC_REPRESENTATION_CONTEXT() REPRESENTATION_CONTEXT('2D SPACE',''
  ) );
#990 = PCURVE('',#856,#991);
#991 = DEFINITIONAL_REPRESENTATION('',(#992),#995);
#992 = B_SPLINE_CURVE_WITH_KNOTS('',1,(#993,#994),.UNSPECIFIED.,.F.,.F.,
  (2,2),(0.,2.181661564993),.PIECEWISE_BEZIER_KNOTS.);
#993 = CARTESIAN_POINT('',(0.,0.));
#994 = CARTESIAN_POINT('',(2.181661564993,0.));
#995 = ( GEOMETRIC_REPRESENTATION_CONTEXT(2) 
PARAMETRIC_REPRESENTATION_CONTEXT() REPRESENTATION_CONTEXT('2D SPACE',''
  ) );
#996 = ORIENTED_EDGE('',*,*,#997,.T.);
#997 = EDGE_CURVE('',#975,#998,#1000,.T.);
#998 = VERTEX_POINT('',#999);
#999 = CARTESIAN_POINT('',(-26.22391466996,37.451631464893,-10.668));
#1000 = SURFACE_CURVE('',#1001,(#1005,#1012),.PCURVE_S1.);
#1001 = LINE('',#1002,#1003);
#1002 = CARTESIAN_POINT('',(0.,0.,-10.668));
#1003 = VECTOR('',#1004,1.);
#1004 = DIRECTION('',(-0.573576436351,0.819152044289,0.));
#1005 = PCURVE('',#693,#1006);
#1006 = DEFINITIONAL_REPRESENTATION('',(#1007),#1011);
#1007 = LINE('',#1008,#1009);
#1008 = CARTESIAN_POINT('',(0.,0.));
#1009 = VECTOR('',#1010,1.);
#1010 = DIRECTION('',(-0.573576436351,0.819152044289));
#1011 = ( GEOMETRIC_REPRESENTATION_CONTEXT(2) 
PARAMETRIC_REPRESENTATION_CONTEXT() REPRESENTATION_CONTEXT('2D SPACE',''
  ) );
#1012 = PCURVE('',#1013,#1018);
#1013 = PLANE('',#1014);
#1014 = AXIS2_PLACEMENT_3D('',#1015,#1016,#1017);
#1015 = CARTESIAN_POINT('',(-23.60152320297,33.706468318403,-10.668));
#1016 = DIRECTION('',(-0.819152044289,-0.573576436351,0.));
#1017 = DIRECTION('',(-0.573576436351,0.819152044289,0.));
#1018 = DEFINITIONAL_REPRESENTATION('',(#1019),#1023);
#1019 = LINE('',#1020,#1021);
#1020 = CARTESIAN_POINT('',(-41.148,-0.));
#1021 = VECTOR('',#1022,1.);
#1022 = DIRECTION('',(1.,0.));
#1023 = ( GEOMETRIC_REPRESENTATION_CONTEXT(2) 
PARAMETRIC_REPRESENTATION_CONTEXT() REPRESENTATION_CONTEXT('2D SPACE',''
  ) );
#1024 = ORIENTED_EDGE('',*,*,#1025,.T.);
#1025 = EDGE_CURVE('',#998,#810,#1026,.T.);
#1026 = SURFACE_CURVE('',#1027,(#1032,#1039),.PCURVE_S1.);
#1027 = CIRCLE('',#1028,45.72);
#1028 = AXIS2_PLACEMENT_3D('',#1029,#1030,#1031);
#1029 = CARTESIAN_POINT('',(0.,0.,-10.668));
#1030 = DIRECTION('',(0.,0.,1.));
#1031 = DIRECTION('',(1.,0.,-0.));
#1032 = PCURVE('',#693,#1033);
#1033 = DEFINITIONAL_REPRESENTATION('',(#1034),#1038);
#1034 = CIRCLE('',#1035,45.72);
#1035 = AXIS2_PLACEMENT_2D('',#1036,#1037);
#1036 = CARTESIAN_POINT('',(0.,0.));
#1037 = DIRECTION('',(1.,0.));
#1038 = ( GEOMETRIC_REPRESENTATION_CONTEXT(2) 
PARAMETRIC_REPRESENTATION_CONTEXT() REPRESENTATION_CONTEXT('2D SPACE',''
  ) );
#1039 = PCURVE('',#1040,#1045);
#1040 = CYLINDRICAL_SURFACE('',#1041,45.72);
#1041 = AXIS2_PLACEMENT_3D('',#1042,#1043,#1044);
#1042 = CARTESIAN_POINT('',(0.,0.,-10.668));
#1043 = DIRECTION('',(-0.,-0.,-1.));
#1044 = DIRECTION('',(1.,0.,-0.));
#1045 = DEFINITIONAL_REPRESENTATION('',(#1046),#1049);
#1046 = B_SPLINE_CURVE_WITH_KNOTS('',1,(#1047,#1048),.UNSPECIFIED.,.F.,
  .F.,(2,2),(2.181661564993,2.530727415392),.PIECEWISE_BEZIER_KNOTS.);
#1047 = CARTESIAN_POINT('',(-2.181661564993,0.));
#1048 = CARTESIAN_POINT('',(-2.530727415392,0.));
#1049 = ( GEOMETRIC_REPRESENTATION_CONTEXT(2) 
PARAMETRIC_REPRESENTATION_CONTEXT() REPRESENTATION_CONTEXT('2D SPACE',''
  ) );
#1050 = FACE_BOUND('',#1051,.F.);
#1051 = EDGE_LOOP('',(#1052));
#1052 = ORIENTED_EDGE('',*,*,#679,.F.);
#1053 = ADVANCED_FACE('',(#1054,#1058),#748,.F.);
#1054 = FACE_BOUND('',#1055,.F.);
#1055 = EDGE_LOOP('',(#1056,#1057));
#1056 = ORIENTED_EDGE('',*,*,#732,.F.);
#1057 = ORIENTED_EDGE('',*,*,#784,.T.);
#1058 = FACE_BOUND('',#1059,.F.);
#1059 = EDGE_LOOP('',(#1060));
#1060 = ORIENTED_EDGE('',*,*,#1061,.F.);
#1061 = EDGE_CURVE('',#1062,#1062,#1064,.T.);
#1062 = VERTEX_POINT('',#1063);
#1063 = CARTESIAN_POINT('',(41.91,-1.026498947045E-14,3.3528));
#1064 = SURFACE_CURVE('',#1065,(#1070,#1077),.PCURVE_S1.);
#1065 = CIRCLE('',#1066,41.91);
#1066 = AXIS2_PLACEMENT_3D('',#1067,#1068,#1069);
#1067 = CARTESIAN_POINT('',(0.,0.,3.3528));
#1068 = DIRECTION('',(0.,0.,1.));
#1069 = DIRECTION('',(1.,0.,-0.));
#1070 = PCURVE('',#748,#1071);
#1071 = DEFINITIONAL_REPRESENTATION('',(#1072),#1076);
#1072 = CIRCLE('',#1073,41.91);
#1073 = AXIS2_PLACEMENT_2D('',#1074,#1075);
#1074 = CARTESIAN_POINT('',(0.,0.));
#1075 = DIRECTION('',(1.,0.));
#1076 = ( GEOMETRIC_REPRESENTATION_CONTEXT(2) 
PARAMETRIC_REPRESENTATION_CONTEXT() REPRESENTATION_CONTEXT('2D SPACE',''
  ) );
#1077 = PCURVE('',#856,#1078);
#1078 = DEFINITIONAL_REPRESENTATION('',(#1079),#1082);
#1079 = B_SPLINE_CURVE_WITH_KNOTS('',1,(#1080,#1081),.UNSPECIFIED.,.F.,
  .F.,(2,2),(0.,6.28318530718),.PIECEWISE_BEZIER_KNOTS.);
#1080 = CARTESIAN_POINT('',(0.,14.0208));
#1081 = CARTESIAN_POINT('',(6.28318530718,14.0208));
#1082 = ( GEOMETRIC_REPRESENTATION_CONTEXT(2) 
PARAMETRIC_REPRESENTATION_CONTEXT() REPRESENTATION_CONTEXT('2D SPACE',''
  ) );
#1083 = ADVANCED_FACE('',(#1084),#827,.F.);
#1084 = FACE_BOUND('',#1085,.F.);
#1085 = EDGE_LOOP('',(#1086,#1087,#1109,#1137));
#1086 = ORIENTED_EDGE('',*,*,#809,.F.);
#1087 = ORIENTED_EDGE('',*,*,#1088,.T.);
#1088 = EDGE_CURVE('',#810,#1089,#1091,.T.);
#1089 = VERTEX_POINT('',#1090);
#1090 = CARTESIAN_POINT('',(-37.45163146489,26.223914669969,-6.858));
#1091 = SURFACE_CURVE('',#1092,(#1096,#1103),.PCURVE_S1.);
#1092 = LINE('',#1093,#1094);
#1093 = CARTESIAN_POINT('',(-37.45163146489,26.223914669969,-10.668));
#1094 = VECTOR('',#1095,1.);
#1095 = DIRECTION('',(0.,0.,1.));
#1096 = PCURVE('',#827,#1097);
#1097 = DEFINITIONAL_REPRESENTATION('',(#1098),#1102);
#1098 = LINE('',#1099,#1100);
#1099 = CARTESIAN_POINT('',(7.858178196788E-15,0.));
#1100 = VECTOR('',#1101,1.);
#1101 = DIRECTION('',(0.,-1.));
#1102 = ( GEOMETRIC_REPRESENTATION_CONTEXT(2) 
PARAMETRIC_REPRESENTATION_CONTEXT() REPRESENTATION_CONTEXT('2D SPACE',''
  ) );
#1103 = PCURVE('',#1040,#1104);
#1104 = DEFINITIONAL_REPRESENTATION('',(#1105),#1108);
#1105 = B_SPLINE_CURVE_WITH_KNOTS('',1,(#1106,#1107),.UNSPECIFIED.,.F.,
  .F.,(2,2),(0.,3.81),.PIECEWISE_BEZIER_KNOTS.);
#1106 = CARTESIAN_POINT('',(-2.530727415392,0.));
#1107 = CARTESIAN_POINT('',(-2.530727415392,-3.81));
#1108 = ( GEOMETRIC_REPRESENTATION_CONTEXT(2) 
PARAMETRIC_REPRESENTATION_CONTEXT() REPRESENTATION_CONTEXT('2D SPACE',''
  ) );
#1109 = ORIENTED_EDGE('',*,*,#1110,.T.);
#1110 = EDGE_CURVE('',#1089,#1111,#1113,.T.);
#1111 = VERTEX_POINT('',#1112);
#1112 = CARTESIAN_POINT('',(-34.33066217615,24.038588447472,-6.858));
#1113 = SURFACE_CURVE('',#1114,(#1118,#1125),.PCURVE_S1.);
#1114 = LINE('',#1115,#1116);
#1115 = CARTESIAN_POINT('',(-208.0646192494,145.68841483316,-6.858));
#1116 = VECTOR('',#1117,1.);
#1117 = DIRECTION('',(0.819152044289,-0.573576436351,0.));
#1118 = PCURVE('',#827,#1119);
#1119 = DEFINITIONAL_REPRESENTATION('',(#1120),#1124);
#1120 = LINE('',#1121,#1122);
#1121 = CARTESIAN_POINT('',(-208.28,-3.81));
#1122 = VECTOR('',#1123,1.);
#1123 = DIRECTION('',(1.,0.));
#1124 = ( GEOMETRIC_REPRESENTATION_CONTEXT(2) 
PARAMETRIC_REPRESENTATION_CONTEXT() REPRESENTATION_CONTEXT('2D SPACE',''
  ) );
#1125 = PCURVE('',#1126,#1131);
#1126 = PLANE('',#1127);
#1127 = AXIS2_PLACEMENT_3D('',#1128,#1129,#1130);
#1128 = CARTESIAN_POINT('',(-1.206006228004E-15,5.369675646121E-15,
    -6.858));
#1129 = DIRECTION('',(0.,0.,1.));
#1130 = DIRECTION('',(1.,0.,-0.));
#1131 = DEFINITIONAL_REPRESENTATION('',(#1132),#1136);
#1132 = LINE('',#1133,#1134);
#1133 = CARTESIAN_POINT('',(-208.0646192494,145.68841483316));
#1134 = VECTOR('',#1135,1.);
#1135 = DIRECTION('',(0.819152044289,-0.573576436351));
#1136 = ( GEOMETRIC_REPRESENTATION_CONTEXT(2) 
PARAMETRIC_REPRESENTATION_CONTEXT() REPRESENTATION_CONTEXT('2D SPACE',''
  ) );
#1137 = ORIENTED_EDGE('',*,*,#1138,.F.);
#1138 = EDGE_CURVE('',#812,#1111,#1139,.T.);
#1139 = SURFACE_CURVE('',#1140,(#1144,#1151),.PCURVE_S1.);
#1140 = LINE('',#1141,#1142);
#1141 = CARTESIAN_POINT('',(-34.33066217615,24.038588447472,-10.668));
#1142 = VECTOR('',#1143,1.);
#1143 = DIRECTION('',(0.,0.,1.));
#1144 = PCURVE('',#827,#1145);
#1145 = DEFINITIONAL_REPRESENTATION('',(#1146),#1150);
#1146 = LINE('',#1147,#1148);
#1147 = CARTESIAN_POINT('',(3.81,0.));
#1148 = VECTOR('',#1149,1.);
#1149 = DIRECTION('',(0.,-1.));
#1150 = ( GEOMETRIC_REPRESENTATION_CONTEXT(2) 
PARAMETRIC_REPRESENTATION_CONTEXT() REPRESENTATION_CONTEXT('2D SPACE',''
  ) );
#1151 = PCURVE('',#856,#1152);
#1152 = DEFINITIONAL_REPRESENTATION('',(#1153),#1156);
#1153 = B_SPLINE_CURVE_WITH_KNOTS('',1,(#1154,#1155),.UNSPECIFIED.,.F.,
  .F.,(2,2),(0.,3.81),.PIECEWISE_BEZIER_KNOTS.);
#1154 = CARTESIAN_POINT('',(2.530727415392,0.));
#1155 = CARTESIAN_POINT('',(2.530727415392,3.81));
#1156 = ( GEOMETRIC_REPRESENTATION_CONTEXT(2) 
PARAMETRIC_REPRESENTATION_CONTEXT() REPRESENTATION_CONTEXT('2D SPACE',''
  ) );
#1157 = ADVANCED_FACE('',(#1158),#1040,.T.);
#1158 = FACE_BOUND('',#1159,.F.);
#1159 = EDGE_LOOP('',(#1160,#1182,#1203,#1204));
#1160 = ORIENTED_EDGE('',*,*,#1161,.T.);
#1161 = EDGE_CURVE('',#998,#1162,#1164,.T.);
#1162 = VERTEX_POINT('',#1163);
#1163 = CARTESIAN_POINT('',(-26.22391466996,37.451631464893,-6.858));
#1164 = SURFACE_CURVE('',#1165,(#1169,#1175),.PCURVE_S1.);
#1165 = LINE('',#1166,#1167);
#1166 = CARTESIAN_POINT('',(-26.22391466996,37.451631464893,-10.668));
#1167 = VECTOR('',#1168,1.);
#1168 = DIRECTION('',(0.,0.,1.));
#1169 = PCURVE('',#1040,#1170);
#1170 = DEFINITIONAL_REPRESENTATION('',(#1171),#1174);
#1171 = B_SPLINE_CURVE_WITH_KNOTS('',1,(#1172,#1173),.UNSPECIFIED.,.F.,
  .F.,(2,2),(0.,3.81),.PIECEWISE_BEZIER_KNOTS.);
#1172 = CARTESIAN_POINT('',(-2.181661564993,0.));
#1173 = CARTESIAN_POINT('',(-2.181661564993,-3.81));
#1174 = ( GEOMETRIC_REPRESENTATION_CONTEXT(2) 
PARAMETRIC_REPRESENTATION_CONTEXT() REPRESENTATION_CONTEXT('2D SPACE',''
  ) );
#1175 = PCURVE('',#1013,#1176);
#1176 = DEFINITIONAL_REPRESENTATION('',(#1177),#1181);
#1177 = LINE('',#1178,#1179);
#1178 = CARTESIAN_POINT('',(4.572,0.));
#1179 = VECTOR('',#1180,1.);
#1180 = DIRECTION('',(0.,-1.));
#1181 = ( GEOMETRIC_REPRESENTATION_CONTEXT(2) 
PARAMETRIC_REPRESENTATION_CONTEXT() REPRESENTATION_CONTEXT('2D SPACE',''
  ) );
#1182 = ORIENTED_EDGE('',*,*,#1183,.T.);
#1183 = EDGE_CURVE('',#1162,#1089,#1184,.T.);
#1184 = SURFACE_CURVE('',#1185,(#1190,#1196),.PCURVE_S1.);
#1185 = CIRCLE('',#1186,45.72);
#1186 = AXIS2_PLACEMENT_3D('',#1187,#1188,#1189);
#1187 = CARTESIAN_POINT('',(0.,0.,-6.858));
#1188 = DIRECTION('',(0.,0.,1.));
#1189 = DIRECTION('',(1.,0.,-0.));
#1190 = PCURVE('',#1040,#1191);
#1191 = DEFINITIONAL_REPRESENTATION('',(#1192),#1195);
#1192 = B_SPLINE_CURVE_WITH_KNOTS('',1,(#1193,#1194),.UNSPECIFIED.,.F.,
  .F.,(2,2),(2.181661564993,2.530727415392),.PIECEWISE_BEZIER_KNOTS.);
#1193 = CARTESIAN_POINT('',(-2.181661564993,-3.81));
#1194 = CARTESIAN_POINT('',(-2.530727415392,-3.81));
#1195 = ( GEOMETRIC_REPRESENTATION_CONTEXT(2) 
PARAMETRIC_REPRESENTATION_CONTEXT() REPRESENTATION_CONTEXT('2D SPACE',''
  ) );
#1196 = PCURVE('',#1126,#1197);
#1197 = DEFINITIONAL_REPRESENTATION('',(#1198),#1202);
#1198 = CIRCLE('',#1199,45.72);
#1199 = AXIS2_PLACEMENT_2D('',#1200,#1201);
#1200 = CARTESIAN_POINT('',(1.206006228004E-15,-5.369675646121E-15));
#1201 = DIRECTION('',(1.,0.));
#1202 = ( GEOMETRIC_REPRESENTATION_CONTEXT(2) 
PARAMETRIC_REPRESENTATION_CONTEXT() REPRESENTATION_CONTEXT('2D SPACE',''
  ) );
#1203 = ORIENTED_EDGE('',*,*,#1088,.F.);
#1204 = ORIENTED_EDGE('',*,*,#1025,.F.);
#1205 = ADVANCED_FACE('',(#1206),#856,.T.);
#1206 = FACE_BOUND('',#1207,.T.);
#1207 = EDGE_LOOP('',(#1208,#1209,#1228,#1229,#1251,#1272,#1273,#1274,
    #1296,#1324,#1344,#1345));
#1208 = ORIENTED_EDGE('',*,*,#1061,.F.);
#1209 = ORIENTED_EDGE('',*,*,#1210,.F.);
#1210 = EDGE_CURVE('',#952,#1062,#1211,.T.);
#1211 = SEAM_CURVE('',#1212,(#1216,#1222),.PCURVE_S1.);
#1212 = LINE('',#1213,#1214);
#1213 = CARTESIAN_POINT('',(41.91,-1.026498947045E-14,-10.668));
#1214 = VECTOR('',#1215,1.);
#1215 = DIRECTION('',(0.,0.,1.));
#1216 = PCURVE('',#856,#1217);
#1217 = DEFINITIONAL_REPRESENTATION('',(#1218),#1221);
#1218 = B_SPLINE_CURVE_WITH_KNOTS('',1,(#1219,#1220),.UNSPECIFIED.,.F.,
  .F.,(2,2),(0.,14.0208),.PIECEWISE_BEZIER_KNOTS.);
#1219 = CARTESIAN_POINT('',(6.28318530718,0.));
#1220 = CARTESIAN_POINT('',(6.28318530718,14.0208));
#1221 = ( GEOMETRIC_REPRESENTATION_CONTEXT(2) 
PARAMETRIC_REPRESENTATION_CONTEXT() REPRESENTATION_CONTEXT('2D SPACE',''
  ) );
#1222 = PCURVE('',#856,#1223);
#1223 = DEFINITIONAL_REPRESENTATION('',(#1224),#1227);
#1224 = B_SPLINE_CURVE_WITH_KNOTS('',1,(#1225,#1226),.UNSPECIFIED.,.F.,
  .F.,(2,2),(0.,14.0208),.PIECEWISE_BEZIER_KNOTS.);
#1225 = CARTESIAN_POINT('',(0.,0.));
#1226 = CARTESIAN_POINT('',(0.,14.0208));
#1227 = ( GEOMETRIC_REPRESENTATION_CONTEXT(2) 
PARAMETRIC_REPRESENTATION_CONTEXT() REPRESENTATION_CONTEXT('2D SPACE',''
  ) );
#1228 = ORIENTED_EDGE('',*,*,#974,.T.);
#1229 = ORIENTED_EDGE('',*,*,#1230,.T.);
#1230 = EDGE_CURVE('',#975,#1231,#1233,.T.);
#1231 = VERTEX_POINT('',#1232);
#1232 = CARTESIAN_POINT('',(-24.03858844747,34.330662176152,-6.858));
#1233 = SURFACE_CURVE('',#1234,(#1238,#1244),.PCURVE_S1.);
#1234 = LINE('',#1235,#1236);
#1235 = CARTESIAN_POINT('',(-24.03858844747,34.330662176152,-10.668));
#1236 = VECTOR('',#1237,1.);
#1237 = DIRECTION('',(0.,0.,1.));
#1238 = PCURVE('',#856,#1239);
#1239 = DEFINITIONAL_REPRESENTATION('',(#1240),#1243);
#1240 = B_SPLINE_CURVE_WITH_KNOTS('',1,(#1241,#1242),.UNSPECIFIED.,.F.,
  .F.,(2,2),(0.,3.81),.PIECEWISE_BEZIER_KNOTS.);
#1241 = CARTESIAN_POINT('',(2.181661564993,0.));
#1242 = CARTESIAN_POINT('',(2.181661564993,3.81));
#1243 = ( GEOMETRIC_REPRESENTATION_CONTEXT(2) 
PARAMETRIC_REPRESENTATION_CONTEXT() REPRESENTATION_CONTEXT('2D SPACE',''
  ) );
#1244 = PCURVE('',#1013,#1245);
#1245 = DEFINITIONAL_REPRESENTATION('',(#1246),#1250);
#1246 = LINE('',#1247,#1248);
#1247 = CARTESIAN_POINT('',(0.762,0.));
#1248 = VECTOR('',#1249,1.);
#1249 = DIRECTION('',(0.,-1.));
#1250 = ( GEOMETRIC_REPRESENTATION_CONTEXT(2) 
PARAMETRIC_REPRESENTATION_CONTEXT() REPRESENTATION_CONTEXT('2D SPACE',''
  ) );
#1251 = ORIENTED_EDGE('',*,*,#1252,.T.);
#1252 = EDGE_CURVE('',#1231,#1111,#1253,.T.);
#1253 = SURFACE_CURVE('',#1254,(#1259,#1265),.PCURVE_S1.);
#1254 = CIRCLE('',#1255,41.91);
#1255 = AXIS2_PLACEMENT_3D('',#1256,#1257,#1258);
#1256 = CARTESIAN_POINT('',(0.,0.,-6.858));
#1257 = DIRECTION('',(0.,0.,1.));
#1258 = DIRECTION('',(1.,0.,-0.));
#1259 = PCURVE('',#856,#1260);
#1260 = DEFINITIONAL_REPRESENTATION('',(#1261),#1264);
#1261 = B_SPLINE_CURVE_WITH_KNOTS('',1,(#1262,#1263),.UNSPECIFIED.,.F.,
  .F.,(2,2),(2.181661564993,2.530727415392),.PIECEWISE_BEZIER_KNOTS.);
#1262 = CARTESIAN_POINT('',(2.181661564993,3.81));
#1263 = CARTESIAN_POINT('',(2.530727415392,3.81));
#1264 = ( GEOMETRIC_REPRESENTATION_CONTEXT(2) 
PARAMETRIC_REPRESENTATION_CONTEXT() REPRESENTATION_CONTEXT('2D SPACE',''
  ) );
#1265 = PCURVE('',#1126,#1266);
#1266 = DEFINITIONAL_REPRESENTATION('',(#1267),#1271);
#1267 = CIRCLE('',#1268,41.91);
#1268 = AXIS2_PLACEMENT_2D('',#1269,#1270);
#1269 = CARTESIAN_POINT('',(1.206006228004E-15,-5.369675646121E-15));
#1270 = DIRECTION('',(1.,0.));
#1271 = ( GEOMETRIC_REPRESENTATION_CONTEXT(2) 
PARAMETRIC_REPRESENTATION_CONTEXT() REPRESENTATION_CONTEXT('2D SPACE',''
  ) );
#1272 = ORIENTED_EDGE('',*,*,#1138,.F.);
#1273 = ORIENTED_EDGE('',*,*,#839,.T.);
#1274 = ORIENTED_EDGE('',*,*,#1275,.T.);
#1275 = EDGE_CURVE('',#840,#1276,#1278,.T.);
#1276 = VERTEX_POINT('',#1277);
#1277 = CARTESIAN_POINT('',(24.038588447472,-34.33066217615,-6.858));
#1278 = SURFACE_CURVE('',#1279,(#1283,#1289),.PCURVE_S1.);
#1279 = LINE('',#1280,#1281);
#1280 = CARTESIAN_POINT('',(24.038588447472,-34.33066217615,-10.668));
#1281 = VECTOR('',#1282,1.);
#1282 = DIRECTION('',(0.,0.,1.));
#1283 = PCURVE('',#856,#1284);
#1284 = DEFINITIONAL_REPRESENTATION('',(#1285),#1288);
#1285 = B_SPLINE_CURVE_WITH_KNOTS('',1,(#1286,#1287),.UNSPECIFIED.,.F.,
  .F.,(2,2),(0.,3.81),.PIECEWISE_BEZIER_KNOTS.);
#1286 = CARTESIAN_POINT('',(5.323254218583,0.));
#1287 = CARTESIAN_POINT('',(5.323254218583,3.81));
#1288 = ( GEOMETRIC_REPRESENTATION_CONTEXT(2) 
PARAMETRIC_REPRESENTATION_CONTEXT() REPRESENTATION_CONTEXT('2D SPACE',''
  ) );
#1289 = PCURVE('',#883,#1290);
#1290 = DEFINITIONAL_REPRESENTATION('',(#1291),#1295);
#1291 = LINE('',#1292,#1293);
#1292 = CARTESIAN_POINT('',(0.762,0.));
#1293 = VECTOR('',#1294,1.);
#1294 = DIRECTION('',(0.,-1.));
#1295 = ( GEOMETRIC_REPRESENTATION_CONTEXT(2) 
PARAMETRIC_REPRESENTATION_CONTEXT() REPRESENTATION_CONTEXT('2D SPACE',''
  ) );
#1296 = ORIENTED_EDGE('',*,*,#1297,.T.);
#1297 = EDGE_CURVE('',#1276,#1298,#1300,.T.);
#1298 = VERTEX_POINT('',#1299);
#1299 = CARTESIAN_POINT('',(34.330662176152,-24.03858844747,-6.858));
#1300 = SURFACE_CURVE('',#1301,(#1306,#1312),.PCURVE_S1.);
#1301 = CIRCLE('',#1302,41.91);
#1302 = AXIS2_PLACEMENT_3D('',#1303,#1304,#1305);
#1303 = CARTESIAN_POINT('',(0.,0.,-6.858));
#1304 = DIRECTION('',(0.,0.,1.));
#1305 = DIRECTION('',(1.,0.,-0.));
#1306 = PCURVE('',#856,#1307);
#1307 = DEFINITIONAL_REPRESENTATION('',(#1308),#1311);
#1308 = B_SPLINE_CURVE_WITH_KNOTS('',1,(#1309,#1310),.UNSPECIFIED.,.F.,
  .F.,(2,2),(5.323254218583,5.672320068982),.PIECEWISE_BEZIER_KNOTS.);
#1309 = CARTESIAN_POINT('',(5.323254218583,3.81));
#1310 = CARTESIAN_POINT('',(5.672320068982,3.81));
#1311 = ( GEOMETRIC_REPRESENTATION_CONTEXT(2) 
PARAMETRIC_REPRESENTATION_CONTEXT() REPRESENTATION_CONTEXT('2D SPACE',''
  ) );
#1312 = PCURVE('',#1313,#1318);
#1313 = PLANE('',#1314);
#1314 = AXIS2_PLACEMENT_3D('',#1315,#1316,#1317);
#1315 = CARTESIAN_POINT('',(-1.206006228004E-15,5.369675646121E-15,
    -6.858));
#1316 = DIRECTION('',(0.,0.,1.));
#1317 = DIRECTION('',(1.,0.,-0.));
#1318 = DEFINITIONAL_REPRESENTATION('',(#1319),#1323);
#1319 = CIRCLE('',#1320,41.91);
#1320 = AXIS2_PLACEMENT_2D('',#1321,#1322);
#1321 = CARTESIAN_POINT('',(1.206006228004E-15,-5.369675646121E-15));
#1322 = DIRECTION('',(1.,0.));
#1323 = ( GEOMETRIC_REPRESENTATION_CONTEXT(2) 
PARAMETRIC_REPRESENTATION_CONTEXT() REPRESENTATION_CONTEXT('2D SPACE',''
  ) );
#1324 = ORIENTED_EDGE('',*,*,#1325,.F.);
#1325 = EDGE_CURVE('',#924,#1298,#1326,.T.);
#1326 = SURFACE_CURVE('',#1327,(#1331,#1337),.PCURVE_S1.);
#1327 = LINE('',#1328,#1329);
#1328 = CARTESIAN_POINT('',(34.330662176152,-24.03858844747,-10.668));
#1329 = VECTOR('',#1330,1.);
#1330 = DIRECTION('',(0.,0.,1.));
#1331 = PCURVE('',#856,#1332);
#1332 = DEFINITIONAL_REPRESENTATION('',(#1333),#1336);
#1333 = B_SPLINE_CURVE_WITH_KNOTS('',1,(#1334,#1335),.UNSPECIFIED.,.F.,
  .F.,(2,2),(0.,3.81),.PIECEWISE_BEZIER_KNOTS.);
#1334 = CARTESIAN_POINT('',(5.672320068982,0.));
#1335 = CARTESIAN_POINT('',(5.672320068982,3.81));
#1336 = ( GEOMETRIC_REPRESENTATION_CONTEXT(2) 
PARAMETRIC_REPRESENTATION_CONTEXT() REPRESENTATION_CONTEXT('2D SPACE',''
  ) );
#1337 = PCURVE('',#939,#1338);
#1338 = DEFINITIONAL_REPRESENTATION('',(#1339),#1343);
#1339 = LINE('',#1340,#1341);
#1340 = CARTESIAN_POINT('',(3.81,0.));
#1341 = VECTOR('',#1342,1.);
#1342 = DIRECTION('',(0.,-1.));
#1343 = ( GEOMETRIC_REPRESENTATION_CONTEXT(2) 
PARAMETRIC_REPRESENTATION_CONTEXT() REPRESENTATION_CONTEXT('2D SPACE',''
  ) );
#1344 = ORIENTED_EDGE('',*,*,#951,.T.);
#1345 = ORIENTED_EDGE('',*,*,#1210,.T.);
#1346 = ADVANCED_FACE('',(#1347),#1013,.F.);
#1347 = FACE_BOUND('',#1348,.F.);
#1348 = EDGE_LOOP('',(#1349,#1350,#1351,#1372));
#1349 = ORIENTED_EDGE('',*,*,#997,.F.);
#1350 = ORIENTED_EDGE('',*,*,#1230,.T.);
#1351 = ORIENTED_EDGE('',*,*,#1352,.T.);
#1352 = EDGE_CURVE('',#1231,#1162,#1353,.T.);
#1353 = SURFACE_CURVE('',#1354,(#1358,#1365),.PCURVE_S1.);
#1354 = LINE('',#1355,#1356);
#1355 = CARTESIAN_POINT('',(0.,0.,-6.858));
#1356 = VECTOR('',#1357,1.);
#1357 = DIRECTION('',(-0.573576436351,0.819152044289,0.));
#1358 = PCURVE('',#1013,#1359);
#1359 = DEFINITIONAL_REPRESENTATION('',(#1360),#1364);
#1360 = LINE('',#1361,#1362);
#1361 = CARTESIAN_POINT('',(-41.148,-3.81));
#1362 = VECTOR('',#1363,1.);
#1363 = DIRECTION('',(1.,0.));
#1364 = ( GEOMETRIC_REPRESENTATION_CONTEXT(2) 
PARAMETRIC_REPRESENTATION_CONTEXT() REPRESENTATION_CONTEXT('2D SPACE',''
  ) );
#1365 = PCURVE('',#1126,#1366);
#1366 = DEFINITIONAL_REPRESENTATION('',(#1367),#1371);
#1367 = LINE('',#1368,#1369);
#1368 = CARTESIAN_POINT('',(1.206006228004E-15,-5.369675646121E-15));
#1369 = VECTOR('',#1370,1.);
#1370 = DIRECTION('',(-0.573576436351,0.819152044289));
#1371 = ( GEOMETRIC_REPRESENTATION_CONTEXT(2) 
PARAMETRIC_REPRESENTATION_CONTEXT() REPRESENTATION_CONTEXT('2D SPACE',''
  ) );
#1372 = ORIENTED_EDGE('',*,*,#1161,.F.);
#1373 = ADVANCED_FACE('',(#1374),#883,.F.);
#1374 = FACE_BOUND('',#1375,.F.);
#1375 = EDGE_LOOP('',(#1376,#1377,#1378,#1401));
#1376 = ORIENTED_EDGE('',*,*,#867,.F.);
#1377 = ORIENTED_EDGE('',*,*,#1275,.T.);
#1378 = ORIENTED_EDGE('',*,*,#1379,.T.);
#1379 = EDGE_CURVE('',#1276,#1380,#1382,.T.);
#1380 = VERTEX_POINT('',#1381);
#1381 = CARTESIAN_POINT('',(26.223914669969,-37.45163146489,-6.858));
#1382 = SURFACE_CURVE('',#1383,(#1387,#1394),.PCURVE_S1.);
#1383 = LINE('',#1384,#1385);
#1384 = CARTESIAN_POINT('',(0.,0.,-6.858));
#1385 = VECTOR('',#1386,1.);
#1386 = DIRECTION('',(0.573576436351,-0.819152044289,0.));
#1387 = PCURVE('',#883,#1388);
#1388 = DEFINITIONAL_REPRESENTATION('',(#1389),#1393);
#1389 = LINE('',#1390,#1391);
#1390 = CARTESIAN_POINT('',(-41.148,-3.81));
#1391 = VECTOR('',#1392,1.);
#1392 = DIRECTION('',(1.,0.));
#1393 = ( GEOMETRIC_REPRESENTATION_CONTEXT(2) 
PARAMETRIC_REPRESENTATION_CONTEXT() REPRESENTATION_CONTEXT('2D SPACE',''
  ) );
#1394 = PCURVE('',#1313,#1395);
#1395 = DEFINITIONAL_REPRESENTATION('',(#1396),#1400);
#1396 = LINE('',#1397,#1398);
#1397 = CARTESIAN_POINT('',(1.206006228004E-15,-5.369675646121E-15));
#1398 = VECTOR('',#1399,1.);
#1399 = DIRECTION('',(0.573576436351,-0.819152044289));
#1400 = ( GEOMETRIC_REPRESENTATION_CONTEXT(2) 
PARAMETRIC_REPRESENTATION_CONTEXT() REPRESENTATION_CONTEXT('2D SPACE',''
  ) );
#1401 = ORIENTED_EDGE('',*,*,#1402,.F.);
#1402 = EDGE_CURVE('',#868,#1380,#1403,.T.);
#1403 = SURFACE_CURVE('',#1404,(#1408,#1415),.PCURVE_S1.);
#1404 = LINE('',#1405,#1406);
#1405 = CARTESIAN_POINT('',(26.223914669969,-37.45163146489,-10.668));
#1406 = VECTOR('',#1407,1.);
#1407 = DIRECTION('',(0.,0.,1.));
#1408 = PCURVE('',#883,#1409);
#1409 = DEFINITIONAL_REPRESENTATION('',(#1410),#1414);
#1410 = LINE('',#1411,#1412);
#1411 = CARTESIAN_POINT('',(4.572,0.));
#1412 = VECTOR('',#1413,1.);
#1413 = DIRECTION('',(0.,-1.));
#1414 = ( GEOMETRIC_REPRESENTATION_CONTEXT(2) 
PARAMETRIC_REPRESENTATION_CONTEXT() REPRESENTATION_CONTEXT('2D SPACE',''
  ) );
#1415 = PCURVE('',#912,#1416);
#1416 = DEFINITIONAL_REPRESENTATION('',(#1417),#1420);
#1417 = B_SPLINE_CURVE_WITH_KNOTS('',1,(#1418,#1419),.UNSPECIFIED.,.F.,
  .F.,(2,2),(0.,3.81),.PIECEWISE_BEZIER_KNOTS.);
#1418 = CARTESIAN_POINT('',(-5.323254218583,0.));
#1419 = CARTESIAN_POINT('',(-5.323254218583,-3.81));
#1420 = ( GEOMETRIC_REPRESENTATION_CONTEXT(2) 
PARAMETRIC_REPRESENTATION_CONTEXT() REPRESENTATION_CONTEXT('2D SPACE',''
  ) );
#1421 = ADVANCED_FACE('',(#1422),#912,.T.);
#1422 = FACE_BOUND('',#1423,.F.);
#1423 = EDGE_LOOP('',(#1424,#1425,#1448,#1468));
#1424 = ORIENTED_EDGE('',*,*,#1402,.T.);
#1425 = ORIENTED_EDGE('',*,*,#1426,.T.);
#1426 = EDGE_CURVE('',#1380,#1427,#1429,.T.);
#1427 = VERTEX_POINT('',#1428);
#1428 = CARTESIAN_POINT('',(37.451631464893,-26.22391466996,-6.858));
#1429 = SURFACE_CURVE('',#1430,(#1435,#1441),.PCURVE_S1.);
#1430 = CIRCLE('',#1431,45.72);
#1431 = AXIS2_PLACEMENT_3D('',#1432,#1433,#1434);
#1432 = CARTESIAN_POINT('',(0.,0.,-6.858));
#1433 = DIRECTION('',(0.,0.,1.));
#1434 = DIRECTION('',(1.,0.,-0.));
#1435 = PCURVE('',#912,#1436);
#1436 = DEFINITIONAL_REPRESENTATION('',(#1437),#1440);
#1437 = B_SPLINE_CURVE_WITH_KNOTS('',1,(#1438,#1439),.UNSPECIFIED.,.F.,
  .F.,(2,2),(5.323254218583,5.672320068982),.PIECEWISE_BEZIER_KNOTS.);
#1438 = CARTESIAN_POINT('',(-5.323254218583,-3.81));
#1439 = CARTESIAN_POINT('',(-5.672320068982,-3.81));
#1440 = ( GEOMETRIC_REPRESENTATION_CONTEXT(2) 
PARAMETRIC_REPRESENTATION_CONTEXT() REPRESENTATION_CONTEXT('2D SPACE',''
  ) );
#1441 = PCURVE('',#1313,#1442);
#1442 = DEFINITIONAL_REPRESENTATION('',(#1443),#1447);
#1443 = CIRCLE('',#1444,45.72);
#1444 = AXIS2_PLACEMENT_2D('',#1445,#1446);
#1445 = CARTESIAN_POINT('',(1.206006228004E-15,-5.369675646121E-15));
#1446 = DIRECTION('',(1.,0.));
#1447 = ( GEOMETRIC_REPRESENTATION_CONTEXT(2) 
PARAMETRIC_REPRESENTATION_CONTEXT() REPRESENTATION_CONTEXT('2D SPACE',''
  ) );
#1448 = ORIENTED_EDGE('',*,*,#1449,.F.);
#1449 = EDGE_CURVE('',#896,#1427,#1450,.T.);
#1450 = SURFACE_CURVE('',#1451,(#1455,#1461),.PCURVE_S1.);
#1451 = LINE('',#1452,#1453);
#1452 = CARTESIAN_POINT('',(37.451631464893,-26.22391466996,-10.668));
#1453 = VECTOR('',#1454,1.);
#1454 = DIRECTION('',(0.,0.,1.));
#1455 = PCURVE('',#912,#1456);
#1456 = DEFINITIONAL_REPRESENTATION('',(#1457),#1460);
#1457 = B_SPLINE_CURVE_WITH_KNOTS('',1,(#1458,#1459),.UNSPECIFIED.,.F.,
  .F.,(2,2),(0.,3.81),.PIECEWISE_BEZIER_KNOTS.);
#1458 = CARTESIAN_POINT('',(-5.672320068982,0.));
#1459 = CARTESIAN_POINT('',(-5.672320068982,-3.81));
#1460 = ( GEOMETRIC_REPRESENTATION_CONTEXT(2) 
PARAMETRIC_REPRESENTATION_CONTEXT() REPRESENTATION_CONTEXT('2D SPACE',''
  ) );
#1461 = PCURVE('',#939,#1462);
#1462 = DEFINITIONAL_REPRESENTATION('',(#1463),#1467);
#1463 = LINE('',#1464,#1465);
#1464 = CARTESIAN_POINT('',(7.858178196788E-15,0.));
#1465 = VECTOR('',#1466,1.);
#1466 = DIRECTION('',(0.,-1.));
#1467 = ( GEOMETRIC_REPRESENTATION_CONTEXT(2) 
PARAMETRIC_REPRESENTATION_CONTEXT() REPRESENTATION_CONTEXT('2D SPACE',''
  ) );
#1468 = ORIENTED_EDGE('',*,*,#895,.F.);
#1469 = ADVANCED_FACE('',(#1470),#939,.F.);
#1470 = FACE_BOUND('',#1471,.F.);
#1471 = EDGE_LOOP('',(#1472,#1473,#1474,#1495));
#1472 = ORIENTED_EDGE('',*,*,#923,.F.);
#1473 = ORIENTED_EDGE('',*,*,#1449,.T.);
#1474 = ORIENTED_EDGE('',*,*,#1475,.T.);
#1475 = EDGE_CURVE('',#1427,#1298,#1476,.T.);
#1476 = SURFACE_CURVE('',#1477,(#1481,#1488),.PCURVE_S1.);
#1477 = LINE('',#1478,#1479);
#1478 = CARTESIAN_POINT('',(208.0646192494,-145.6884148331,-6.858));
#1479 = VECTOR('',#1480,1.);
#1480 = DIRECTION('',(-0.819152044289,0.573576436351,0.));
#1481 = PCURVE('',#939,#1482);
#1482 = DEFINITIONAL_REPRESENTATION('',(#1483),#1487);
#1483 = LINE('',#1484,#1485);
#1484 = CARTESIAN_POINT('',(-208.28,-3.81));
#1485 = VECTOR('',#1486,1.);
#1486 = DIRECTION('',(1.,0.));
#1487 = ( GEOMETRIC_REPRESENTATION_CONTEXT(2) 
PARAMETRIC_REPRESENTATION_CONTEXT() REPRESENTATION_CONTEXT('2D SPACE',''
  ) );
#1488 = PCURVE('',#1313,#1489);
#1489 = DEFINITIONAL_REPRESENTATION('',(#1490),#1494);
#1490 = LINE('',#1491,#1492);
#1491 = CARTESIAN_POINT('',(208.0646192494,-145.6884148331));
#1492 = VECTOR('',#1493,1.);
#1493 = DIRECTION('',(-0.819152044289,0.573576436351));
#1494 = ( GEOMETRIC_REPRESENTATION_CONTEXT(2) 
PARAMETRIC_REPRESENTATION_CONTEXT() REPRESENTATION_CONTEXT('2D SPACE',''
  ) );
#1495 = ORIENTED_EDGE('',*,*,#1325,.F.);
#1496 = ADVANCED_FACE('',(#1497),#1126,.T.);
#1497 = FACE_BOUND('',#1498,.T.);
#1498 = EDGE_LOOP('',(#1499,#1500,#1501,#1502));
#1499 = ORIENTED_EDGE('',*,*,#1252,.F.);
#1500 = ORIENTED_EDGE('',*,*,#1352,.T.);
#1501 = ORIENTED_EDGE('',*,*,#1183,.T.);
#1502 = ORIENTED_EDGE('',*,*,#1110,.T.);
#1503 = ADVANCED_FACE('',(#1504),#1313,.T.);
#1504 = FACE_BOUND('',#1505,.T.);
#1505 = EDGE_LOOP('',(#1506,#1507,#1508,#1509));
#1506 = ORIENTED_EDGE('',*,*,#1297,.F.);
#1507 = ORIENTED_EDGE('',*,*,#1379,.T.);
#1508 = ORIENTED_EDGE('',*,*,#1426,.T.);
#1509 = ORIENTED_EDGE('',*,*,#1475,.T.);
#1510 = ( GEOMETRIC_REPRESENTATION_CONTEXT(3) 
GLOBAL_UNCERTAINTY_ASSIGNED_CONTEXT((#1514)) 
GLOBAL_UNIT_ASSIGNED_CONTEXT((#1511,#1512,#1513)) REPRESENTATION_CONTEXT
('Context #1','3D Context with UNIT and UNCERTAINTY') );
#1511 = ( LENGTH_UNIT() NAMED_UNIT(*) SI_UNIT(.MILLI.,.METRE.) );
#1512 = ( NAMED_UNIT(*) PLANE_ANGLE_UNIT() SI_UNIT($,.RADIAN.) );
#1513 = ( NAMED_UNIT(*) SI_UNIT($,.STERADIAN.) SOLID_ANGLE_UNIT() );
#1514 = UNCERTAINTY_MEASURE_WITH_UNIT(LENGTH_MEASURE(2.E-06),#1511,
  'distance_accuracy_value','confusion accuracy');
#1515 = CONTEXT_DEPENDENT_SHAPE_REPRESENTATION(#1516,#1518);
#1516 = ( REPRESENTATION_RELATIONSHIP('','',#32,#10) 
REPRESENTATION_RELATIONSHIP_WITH_TRANSFORMATION(#1517) 
SHAPE_REPRESENTATION_RELATIONSHIP() );
#1517 = ITEM_DEFINED_TRANSFORMATION('','',#11,#15);
#1518 = PRODUCT_DEFINITION_SHAPE('Placement','Placement of an item',
  #1519);
#1519 = NEXT_ASSEMBLY_USAGE_OCCURRENCE('10','collar-coupon','',#5,#27,$
  );
#1520 = PRODUCT_RELATED_PRODUCT_CATEGORY('part',$,(#29));
ENDSEC;
END-ISO-10303-21;
